<svg xmlns="http://www.w3.org/2000/svg" viewBox="0 0 1080 1080"><defs><style>.cls-1{fill:#999;}.cls-10,.cls-2,.cls-3,.cls-4{fill:#cccccb;}.cls-2{stroke:#e6e6e6;}.cls-10,.cls-2,.cls-3{stroke-miterlimit:10;}.cls-2,.cls-3{stroke-width:3px;}.cls-10,.cls-3{stroke:#4d4d4e;}.cls-5{fill:gray;}.cls-6{fill:#333;}.cls-7{fill:#191919;}.cls-8{fill:#e6e6e6;}.cls-17,.cls-9{fill:#fff;}.cls-10{stroke-width:2px;}.cls-11{opacity:0.5;}.cls-12{fill:#231f20;}.cls-13{fill:#63a043;}.cls-13,.cls-14,.cls-15{stroke:#003c2d;}.cls-13,.cls-14,.cls-15,.cls-17{stroke-linecap:round;stroke-linejoin:round;}.cls-14{fill:none;}.cls-15{fill:#ecefd8;}.cls-16{fill:#003c2d;}.cls-17{stroke:#faac19;}.cls-18{fill:#f9b444;}.cls-19{fill:#e18d26;}.cls-20{fill:#aa6327;}.cls-21{fill:#f6d5ad;}.cls-22{fill:#fbaf40;}</style></defs><title>Artboard 4</title><g id="Layer_4" data-name="Layer 4"><path class="cls-1" d="M408.56,358.38c99,0,153.58,75.78,153.58,181.37,0,103.06-54.56,181.87-153.58,181.87-99.53,0-154.09-78.81-154.09-181.87C254.47,434.67,309,358.38,408.56,358.38Zm0,296c54.56,0,82.35-50,82.35-114.68,0-65.17-27.79-113.17-82.35-113.17-55.07,0-82.85,48-82.85,113.17S354,654.43,408.56,654.43Z"/><path class="cls-2" d="M412,655.25c54.57,0,82.35-50.37,82.35-115.51,0-65.64-27.78-114-82.35-114-55.06,0-82.85,48.34-82.85,114S357.42,655.25,412,655.25Z"/><path class="cls-3" d="M408.56,654.43c54.56,0,82.35-50,82.35-114.68,0-65.17-27.79-113.17-82.35-113.17-55.07,0-82.85,48-82.85,113.17S354,654.43,408.56,654.43Z"/><path class="cls-4" d="M410.84,654.43c54.56,0,82.35-50,82.35-114.68,0-65.17-27.79-113.17-82.35-113.17-55.06,0-82.85,48-82.85,113.17S356.28,654.43,410.84,654.43Z"/><circle class="cls-5" cx="408.31" cy="540" r="57.09"/><circle class="cls-4" cx="408.31" cy="540" r="54.18"/><path class="cls-6" d="M408.31,594.76a54.75,54.75,0,1,1,38.72-16A54.4,54.4,0,0,1,408.31,594.76Zm0-108.35A53.59,53.59,0,1,0,446.2,502.1,53.24,53.24,0,0,0,408.31,486.41Z"/><circle class="cls-7" cx="408.31" cy="540" r="41.24"/><path class="cls-1" d="M408.31,581.83A41.83,41.83,0,1,1,450.13,540,41.88,41.88,0,0,1,408.31,581.83Zm0-82.49A40.66,40.66,0,1,0,449,540,40.71,40.71,0,0,0,408.31,499.34Z"/><circle class="cls-8" cx="408.31" cy="540" r="18.06"/><path class="cls-6" d="M408.31,558.64A18.64,18.64,0,1,1,427,540,18.66,18.66,0,0,1,408.31,558.64Zm0-36.12A17.48,17.48,0,1,0,425.78,540,17.5,17.5,0,0,0,408.31,522.52Z"/><circle class="cls-4" cx="408.31" cy="540" r="12.58"/><path class="cls-6" d="M408.31,553.17A13.17,13.17,0,1,1,421.47,540,13.19,13.19,0,0,1,408.31,553.17Zm0-25.17a12,12,0,1,0,12,12A12,12,0,0,0,408.31,528Z"/><path class="cls-9" d="M397.66,509.53l-2.42-6.65-.65.24,2.41,6.64Z"/><path class="cls-9" d="M392.51,511.85,389,505.74l-.61.35,3.53,6.11Z"/><path class="cls-9" d="M387.84,515.05l-4.54-5.41-.53.45,4.54,5.41C387.48,515.34,387.66,515.19,387.84,515.05Z"/><path class="cls-9" d="M390.11,513.35l-4.05-5.79-.58.4,4,5.79Z"/><path class="cls-9" d="M400.37,508.71l-1.83-6.83-.68.18,1.83,6.83Z"/><path class="cls-9" d="M406,507.81l-.62-7.07-.7.06.62,7.07Z"/><path class="cls-9" d="M403.14,508.14l-1.23-7-.69.12,1.23,7Z"/><path class="cls-9" d="M383.8,519l-5.41-4.54-.45.54,5.41,4.54Z"/><path class="cls-9" d="M377.2,531.39l-6.84-1.83-.18.67,6.84,1.83Z"/><path class="cls-9" d="M376.57,534.14l-7-1.23-.12.69,7,1.23Q376.5,534.49,376.57,534.14Z"/><path class="cls-9" d="M378.07,528.7l-6.64-2.42-.24.66,6.64,2.41Z"/><path class="cls-9" d="M382.05,521.23l-5.78-4.05-.4.57,5.78,4Z"/><path class="cls-9" d="M411.59,507.89l.62-7.09-.69-.06-.62,7.09Z"/><path class="cls-9" d="M380.51,523.6l-6.12-3.53-.35.6,6.12,3.53C380.27,524,380.39,523.8,380.51,523.6Z"/><path class="cls-9" d="M379.18,526.09l-6.4-3-.3.63,6.4,3Z"/><path class="cls-9" d="M414.39,508.3l1.24-7-.69-.12-1.24,7Z"/><path class="cls-9" d="M437.77,526.82l6.6-3.08-.3-.63-6.59,3.07C437.58,526.39,437.68,526.6,437.77,526.82Z"/><path class="cls-9" d="M435,521.91l6-4.16-.4-.57-5.94,4.16Z"/><path class="cls-9" d="M436.51,524.3l6.29-3.63-.35-.6-6.29,3.63C436.28,523.9,436.4,524.1,436.51,524.3Z"/><path class="cls-9" d="M438.81,529.43l6.85-2.49-.24-.66-6.85,2.49Z"/><path class="cls-9" d="M440.49,537.66l7.31-.64-.06-.69-7.3.63C440.46,537.2,440.48,537.43,440.49,537.66Z"/><path class="cls-9" d="M376.18,536.94l-7.07-.61-.06.69,7.07.62Z"/><path class="cls-9" d="M439.61,532.12l7.05-1.89-.18-.67-7.05,1.89Z"/><path class="cls-9" d="M440.17,534.87l7.21-1.27-.12-.69-7.21,1.27C440.1,534.41,440.13,534.64,440.17,534.87Z"/><path class="cls-9" d="M419.81,509.84l2.45-6.72-.66-.24-2.44,6.72Z"/><path class="cls-9" d="M422.4,511l3-6.49-.63-.3-3,6.49Z"/><path class="cls-9" d="M417.14,509l1.84-6.89-.67-.18-1.85,6.89Z"/><path class="cls-9" d="M429.44,515.61l4.64-5.52-.54-.45-4.63,5.52Z"/><path class="cls-9" d="M433.35,519.65,438.9,515l-.45-.54-5.54,4.66C433.06,519.29,433.21,519.47,433.35,519.65Z"/><path class="cls-9" d="M424.88,512.31l3.59-6.22-.6-.35L424.28,512Z"/><path class="cls-9" d="M427.23,513.86l4.13-5.9-.57-.4-4.13,5.9C426.85,513.59,427.05,513.72,427.23,513.86Z"/><path class="cls-9" d="M395,510.58l-3-6.41-.64.3,3,6.4Z"/><path class="cls-9" d="M421.68,569.38l3.12,6.68.63-.3-3.12-6.68Z"/><path class="cls-9" d="M424.18,568.1l3.69,6.4.6-.35-3.69-6.4Z"/><path class="cls-9" d="M426.55,566.62l4.24,6,.57-.4-4.23-6Z"/><path class="cls-9" d="M376.14,542.59l-7.09.62.06.7,7.09-.62Z"/><path class="cls-9" d="M413.66,571.83l1.28,7.24.69-.12-1.28-7.24Z"/><path class="cls-9" d="M419.08,570.43l2.52,6.92.66-.24-2.52-6.92Z"/><path class="cls-9" d="M410.88,572.17l.64,7.32.69-.06-.64-7.32Z"/><path class="cls-9" d="M416.4,571.25l1.91,7.11.67-.18-1.9-7.11Z"/><path class="cls-9" d="M432.79,561l5.66,4.75.45-.53-5.66-4.75Z"/><path class="cls-9" d="M439.37,548.77l7.11,1.91.18-.68-7.11-1.9C439.5,548.32,439.43,548.55,439.37,548.77Z"/><path class="cls-9" d="M434.52,558.82l6.06,4.24.4-.58-6.05-4.23Z"/><path class="cls-9" d="M440.41,543.27l7.33.64.06-.7-7.32-.64C440.46,542.8,440.44,543,440.41,543.27Z"/><path class="cls-9" d="M440,546l7.25,1.28.12-.69-7.25-1.28C440.1,545.58,440.05,545.81,440,546Z"/><path class="cls-9" d="M438.49,551.43l6.93,2.52.24-.65-6.93-2.52Z"/><path class="cls-9" d="M436.06,556.48l6.39,3.69.35-.61-6.39-3.69Z"/><path class="cls-9" d="M437.39,554l6.68,3.11.3-.63-6.69-3.11C437.59,553.59,437.49,553.8,437.39,554Z"/><path class="cls-9" d="M428.79,564.94l4.75,5.66.54-.45-4.75-5.66Z"/><path class="cls-9" d="M379,553.46l-6.49,3,.3.63,6.49-3Z"/><path class="cls-9" d="M380.26,556,374,559.56l.35.61,6.22-3.59C380.49,556.38,380.37,556.18,380.26,556Z"/><path class="cls-9" d="M405.27,572.13l-.64,7.3.7.06.64-7.3Z"/><path class="cls-9" d="M383.47,560.6l-5.53,4.64.45.53,5.53-4.63Q383.68,560.87,383.47,560.6Z"/><path class="cls-9" d="M376.49,545.39l-7,1.24.12.69,7-1.24Q376.54,545.74,376.49,545.39Z"/><path class="cls-9" d="M377.91,550.85l-6.72,2.45.24.65,6.72-2.44C378.07,551.29,378,551.07,377.91,550.85Z"/><path class="cls-9" d="M377.07,548.15,370.18,550l.18.68,6.9-1.85C377.19,548.61,377.13,548.38,377.07,548.15Z"/><path class="cls-9" d="M381.76,558.36l-5.89,4.12.4.58,5.9-4.13Z"/><path class="cls-9" d="M387.42,564.6l-4.65,5.55.53.45,4.66-5.55Z"/><path class="cls-9" d="M402.49,571.75l-1.27,7.2.69.12,1.27-7.2Z"/><path class="cls-9" d="M397.08,570.26l-2.49,6.85.65.24,2.5-6.85Z"/><path class="cls-9" d="M399.75,571.12l-1.89,7.06.68.18,1.89-7.06C400.2,571.25,400,571.19,399.75,571.12Z"/><path class="cls-9" d="M394.49,569.17l-3.08,6.59.64.3,3.07-6.6Z"/><path class="cls-9" d="M389.64,566.33l-4.16,5.94.58.4,4.16-5.94Z"/><path class="cls-9" d="M392,567.86l-3.63,6.29.61.35,3.63-6.3Z"/><path class="cls-9" d="M391.35,521.89l-10.28-10.28-1.15,1.16L390.19,523C390.56,522.64,391,522.26,391.35,521.89Z"/><path class="cls-9" d="M426.53,523.16l10.4-10.39-1.16-1.16L425.39,522C425.78,522.37,426.16,522.76,426.53,523.16Z"/><path class="cls-9" d="M408.31,515.18l.93,0V500.62h-1.63v14.57Z"/><path class="cls-9" d="M383.49,540c0-.23,0-.47,0-.7H368.93v1.63h14.58C383.5,540.62,383.49,540.31,383.49,540Z"/><path class="cls-9" d="M433.11,539.3c0,.23,0,.47,0,.7s0,.62,0,.93h14.82V539.3Z"/><path class="cls-9" d="M425.27,558.11l10.5,10.51,1.16-1.15L426.42,557C426.05,557.36,425.66,557.74,425.27,558.11Z"/><path class="cls-9" d="M390.3,557.08l-10.38,10.39,1.15,1.15,10.4-10.39C391.07,557.86,390.68,557.48,390.3,557.08Z"/><path class="cls-9" d="M408.31,564.82h-.7v14.8h1.63V564.8Z"/><rect class="cls-10" x="308.59" y="471.69" width="43.39" height="14.84" rx="4" ry="4"/><path class="cls-8" d="M516.27,414.5c-25.48-31.49-62.73-48.13-107.71-48.13-1.92,0-3.82,0-5.72.1,42.43,1.36,77.61,17.89,102,48,24.78,30.61,37.88,73.92,37.88,125.25,0,50.45-13.11,93.53-37.91,124.59-24.64,30.87-59.82,47.79-102,49.18,1.89.06,3.8.11,5.72.11,44.7,0,81.93-17,107.68-49.29,24.8-31.06,37.91-74.14,37.91-124.59C554.15,488.42,541.05,445.11,516.27,414.5Z"/><g class="cls-11"><path class="cls-12" d="M334.18,463.7c14.58-27.12,38.23-43.16,68.65-44.94-1.87-.11-3.76-.17-5.69-.17-33.19,0-58.93,16.29-74.41,45.11Z"/><path class="cls-12" d="M340.05,626a107.71,107.71,0,0,1-5.79-9.71H322.85a103.23,103.23,0,0,0,5.79,9.71c16.12,23.82,39.81,36.41,68.5,36.41q2.88,0,5.7-.18C376.72,660.67,355.09,648.23,340.05,626Z"/><path class="cls-12" d="M317.71,539.75a193.93,193.93,0,0,1,5-45.23h-9.54a12.73,12.73,0,0,1-1.86-.15,207.59,207.59,0,0,0,.15,91.24,12.08,12.08,0,0,1,1.71-.13h9.67A194.55,194.55,0,0,1,317.71,539.75Z"/></g><rect class="cls-10" x="308.59" y="593.47" width="43.39" height="14.84" rx="4" ry="4"/><rect class="cls-13" x="76.25" y="695.93" width="74.07" height="20.1"/><polygon class="cls-13" points="150.32 695.93 166.01 688.09 166.01 708.67 150.32 716.02 150.32 695.93"/><polyline class="cls-14" points="166.01 706.35 150.32 714.2 76.25 714.2"/><polyline class="cls-14" points="166.01 704.07 150.32 711.91 76.25 711.91"/><polyline class="cls-14" points="166.01 701.79 150.32 709.63 76.25 709.63"/><polyline class="cls-14" points="166.01 699.5 150.32 707.35 76.25 707.35"/><polyline class="cls-14" points="166.01 697.22 150.32 705.06 76.25 705.06"/><polyline class="cls-14" points="166.01 694.94 150.32 702.78 76.25 702.78"/><polyline class="cls-14" points="166.01 692.65 150.32 700.5 76.25 700.5"/><polyline class="cls-14" points="166.01 690.37 150.32 698.21 76.25 698.21"/><polygon class="cls-15" points="76.25 695.93 91.94 688.09 166.01 688.09 150.32 695.93 76.25 695.93"/><path class="cls-16" d="M92.21,689.23l-11.13,5.56h69l11.13-5.56Zm55.42,4.42H88.34a.58.58,0,0,1-.25-1.09l2.46-1.23a9.2,9.2,0,0,1,4.08-1h59.29a.57.57,0,0,1,.25,1.08l-2.46,1.23A9.07,9.07,0,0,1,147.63,693.65Z"/><rect class="cls-17" x="107.57" y="695.36" width="11.42" height="21.24"/><polygon class="cls-17" points="107.57 695.36 124.03 687.51 134.62 687.51 118.99 695.36 107.57 695.36"/><rect class="cls-13" x="150.32" y="695.93" width="74.07" height="20.1"/><polygon class="cls-13" points="224.4 695.93 240.09 688.09 240.09 708.67 224.4 716.02 224.4 695.93"/><polyline class="cls-14" points="240.09 706.35 224.4 714.2 150.32 714.2"/><polyline class="cls-14" points="240.09 704.07 224.4 711.91 150.32 711.91"/><polyline class="cls-14" points="240.09 701.79 224.4 709.63 150.32 709.63"/><polyline class="cls-14" points="240.09 699.5 224.4 707.35 150.32 707.35"/><polyline class="cls-14" points="240.09 697.22 224.4 705.06 150.32 705.06"/><polyline class="cls-14" points="240.09 694.94 224.4 702.78 150.32 702.78"/><polyline class="cls-14" points="240.09 692.65 224.4 700.5 150.32 700.5"/><polyline class="cls-14" points="240.09 690.37 224.4 698.21 150.32 698.21"/><polygon class="cls-15" points="150.32 695.93 166.01 688.09 240.09 688.09 224.4 695.93 150.32 695.93"/><path class="cls-16" d="M166.28,689.23l-11.12,5.56h69l11.12-5.56Zm55.42,4.42H162.42a.58.58,0,0,1-.26-1.09l2.46-1.23a9.21,9.21,0,0,1,4.09-1H228a.57.57,0,0,1,.26,1.08l-2.47,1.23A9,9,0,0,1,221.7,693.65Z"/><rect class="cls-17" x="181.65" y="695.36" width="11.42" height="21.24"/><polygon class="cls-17" points="181.65 695.36 198.11 687.51 208.69 687.51 193.07 695.36 181.65 695.36"/><rect class="cls-13" x="73.96" y="676.48" width="74.07" height="20.1"/><polygon class="cls-13" points="148.04 676.48 163.73 668.64 163.73 689.23 148.04 696.58 148.04 676.48"/><polyline class="cls-14" points="163.73 686.91 148.04 694.75 73.96 694.75"/><polyline class="cls-14" points="163.73 684.63 148.04 692.47 73.96 692.47"/><polyline class="cls-14" points="163.73 682.34 148.04 690.18 73.96 690.18"/><polyline class="cls-14" points="163.73 680.06 148.04 687.9 73.96 687.9"/><polyline class="cls-14" points="163.73 677.78 148.04 685.62 73.96 685.62"/><polyline class="cls-14" points="163.73 675.49 148.04 683.34 73.96 683.34"/><polyline class="cls-14" points="163.73 673.21 148.04 681.05 73.96 681.05"/><polyline class="cls-14" points="163.73 670.92 148.04 678.77 73.96 678.77"/><polygon class="cls-15" points="73.96 676.48 89.66 668.64 163.73 668.64 148.04 676.48 73.96 676.48"/><path class="cls-16" d="M89.93,669.78,78.8,675.34h69l11.12-5.56Zm55.41,4.42H86.06a.57.57,0,0,1-.26-1.08l2.47-1.23a9.13,9.13,0,0,1,4.08-1h59.28a.57.57,0,0,1,.26,1.08l-2.46,1.23A9.21,9.21,0,0,1,145.34,674.2Z"/><rect class="cls-17" x="105.29" y="675.91" width="11.42" height="21.24"/><polygon class="cls-17" points="105.29 675.91 121.75 668.07 132.33 668.07 116.71 675.91 105.29 675.91"/><rect class="cls-13" x="148.04" y="676.48" width="74.07" height="20.1"/><polygon class="cls-13" points="222.11 676.48 237.81 668.64 237.81 689.23 222.11 696.58 222.11 676.48"/><polyline class="cls-14" points="237.81 686.91 222.11 694.75 148.04 694.75"/><polyline class="cls-14" points="237.81 684.63 222.11 692.47 148.04 692.47"/><polyline class="cls-14" points="237.81 682.34 222.11 690.18 148.04 690.18"/><polyline class="cls-14" points="237.81 680.06 222.11 687.9 148.04 687.9"/><polyline class="cls-14" points="237.81 677.78 222.11 685.62 148.04 685.62"/><polyline class="cls-14" points="237.81 675.49 222.11 683.34 148.04 683.34"/><polyline class="cls-14" points="237.81 673.21 222.11 681.05 148.04 681.05"/><polyline class="cls-14" points="237.81 670.92 222.11 678.77 148.04 678.77"/><polygon class="cls-15" points="148.04 676.48 163.73 668.64 237.81 668.64 222.11 676.48 148.04 676.48"/><path class="cls-16" d="M164,669.78l-11.12,5.56h69L233,669.78Zm55.42,4.42H160.13a.57.57,0,0,1-.25-1.08l2.46-1.23a9.2,9.2,0,0,1,4.08-1h59.29A.57.57,0,0,1,226,672l-2.46,1.23A9.2,9.2,0,0,1,219.42,674.2Z"/><rect class="cls-17" x="179.36" y="675.91" width="11.42" height="21.24"/><polygon class="cls-17" points="179.37 675.91 195.82 668.07 206.41 668.07 190.78 675.91 179.37 675.91"/><rect class="cls-13" x="77.39" y="655.93" width="74.07" height="20.1"/><polygon class="cls-13" points="151.46 655.93 167.16 648.09 167.16 668.68 151.46 676.03 151.46 655.93"/><polyline class="cls-14" points="167.16 666.36 151.46 674.2 77.39 674.2"/><polyline class="cls-14" points="167.16 664.08 151.46 671.92 77.39 671.92"/><polyline class="cls-14" points="167.16 661.79 151.46 669.63 77.39 669.63"/><polyline class="cls-14" points="167.16 659.51 151.46 667.35 77.39 667.35"/><polyline class="cls-14" points="167.16 657.22 151.46 665.07 77.39 665.07"/><polyline class="cls-14" points="167.16 654.94 151.46 662.78 77.39 662.78"/><polyline class="cls-14" points="167.16 652.66 151.46 660.5 77.39 660.5"/><polyline class="cls-14" points="167.16 650.37 151.46 658.22 77.39 658.22"/><polygon class="cls-15" points="77.39 655.93 93.08 648.09 167.16 648.09 151.46 655.93 77.39 655.93"/><path class="cls-16" d="M93.35,649.23l-11.12,5.56h69l11.13-5.56Zm55.42,4.42H89.48a.57.57,0,0,1-.25-1.08l2.46-1.23a9.07,9.07,0,0,1,4.08-1h59.29a.58.58,0,0,1,.25,1.09l-2.46,1.23A9.16,9.16,0,0,1,148.77,653.65Z"/><rect class="cls-17" x="108.72" y="655.36" width="11.42" height="21.24"/><polygon class="cls-17" points="108.72 655.36 125.17 647.52 135.76 647.52 120.13 655.36 108.72 655.36"/><rect class="cls-13" x="151.46" y="655.93" width="74.07" height="20.1"/><polygon class="cls-13" points="225.54 655.93 241.23 648.09 241.23 668.68 225.54 676.03 225.54 655.93"/><polyline class="cls-14" points="241.23 666.36 225.54 674.2 151.46 674.2"/><polyline class="cls-14" points="241.23 664.08 225.54 671.92 151.46 671.92"/><polyline class="cls-14" points="241.23 661.79 225.54 669.63 151.46 669.63"/><polyline class="cls-14" points="241.23 659.51 225.54 667.35 151.46 667.35"/><polyline class="cls-14" points="241.23 657.22 225.54 665.07 151.46 665.07"/><polyline class="cls-14" points="241.23 654.94 225.54 662.78 151.46 662.78"/><polyline class="cls-14" points="241.23 652.66 225.54 660.5 151.46 660.5"/><polyline class="cls-14" points="241.23 650.37 225.54 658.22 151.46 658.22"/><polygon class="cls-15" points="151.46 655.93 167.16 648.09 241.23 648.09 225.54 655.93 151.46 655.93"/><path class="cls-16" d="M167.42,649.23l-11.12,5.56h69l11.12-5.56Zm55.42,4.42H163.56a.57.57,0,0,1-.26-1.08l2.47-1.23a9,9,0,0,1,4.08-1h59.28a.58.58,0,0,1,.26,1.09l-2.46,1.23A9.21,9.21,0,0,1,222.84,653.65Z"/><rect class="cls-17" x="182.79" y="655.36" width="11.42" height="21.24"/><polygon class="cls-17" points="182.79 655.36 199.25 647.52 209.83 647.52 194.21 655.36 182.79 655.36"/><rect class="cls-13" x="110.36" y="635.38" width="74.07" height="20.1"/><polygon class="cls-13" points="184.43 635.38 200.13 627.54 200.13 648.13 184.43 655.48 184.43 635.38"/><polyline class="cls-14" points="200.13 645.81 184.43 653.65 110.36 653.65"/><polyline class="cls-14" points="200.13 643.52 184.43 651.37 110.36 651.37"/><polyline class="cls-14" points="200.13 641.24 184.43 649.08 110.36 649.08"/><polyline class="cls-14" points="200.13 638.96 184.43 646.8 110.36 646.8"/><polyline class="cls-14" points="200.13 636.67 184.43 644.51 110.36 644.51"/><polyline class="cls-14" points="200.13 634.39 184.43 642.23 110.36 642.23"/><polyline class="cls-14" points="200.13 632.11 184.43 639.95 110.36 639.95"/><polyline class="cls-14" points="200.13 629.82 184.43 637.66 110.36 637.66"/><polygon class="cls-15" points="110.36 635.38 126.05 627.54 200.13 627.54 184.43 635.38 110.36 635.38"/><path class="cls-16" d="M126.32,628.68l-11.12,5.56h69l11.13-5.56Zm55.42,4.42H122.45a.57.57,0,0,1-.25-1.08l2.46-1.23a9.08,9.08,0,0,1,4.09-1H188a.57.57,0,0,1,.26,1.08l-2.47,1.23A9,9,0,0,1,181.74,633.1Z"/><rect class="cls-17" x="141.69" y="634.81" width="11.42" height="21.24"/><polygon class="cls-17" points="141.69 634.81 158.14 626.97 168.73 626.97 153.1 634.81 141.69 634.81"/><rect class="cls-13" x="112.64" y="614.83" width="74.07" height="20.1"/><polygon class="cls-13" points="186.72 614.83 202.41 606.99 202.41 627.57 186.72 634.92 186.72 614.83"/><polyline class="cls-14" points="202.41 625.25 186.72 633.1 112.64 633.1"/><polyline class="cls-14" points="202.41 622.97 186.72 630.81 112.64 630.81"/><polyline class="cls-14" points="202.41 620.69 186.72 628.53 112.64 628.53"/><polyline class="cls-14" points="202.41 618.4 186.72 626.25 112.64 626.25"/><polyline class="cls-14" points="202.41 616.12 186.72 623.96 112.64 623.96"/><polyline class="cls-14" points="202.41 613.84 186.72 621.68 112.64 621.68"/><polyline class="cls-14" points="202.41 611.55 186.72 619.4 112.64 619.4"/><polyline class="cls-14" points="202.41 609.27 186.72 617.11 112.64 617.11"/><polygon class="cls-15" points="112.64 614.83 128.34 606.99 202.41 606.99 186.72 614.83 112.64 614.83"/><path class="cls-16" d="M128.6,608.13l-11.12,5.56h69l11.12-5.56ZM184,612.55H124.74a.58.58,0,0,1-.26-1.09l2.47-1.23a9.13,9.13,0,0,1,4.08-1h59.28a.57.57,0,0,1,.26,1.08l-2.46,1.23A9.08,9.08,0,0,1,184,612.55Z"/><rect class="cls-17" x="143.97" y="614.26" width="11.42" height="21.24"/><polygon class="cls-17" points="143.97 614.26 160.43 606.42 171.01 606.42 155.39 614.26 143.97 614.26"/><rect class="cls-13" x="109.22" y="594.28" width="74.07" height="20.1"/><polygon class="cls-13" points="183.29 594.28 198.99 586.43 198.99 607.02 183.29 614.37 183.29 594.28"/><polyline class="cls-14" points="198.99 604.7 183.29 612.54 109.22 612.54"/><polyline class="cls-14" points="198.99 602.42 183.29 610.26 109.22 610.26"/><polyline class="cls-14" points="198.99 600.14 183.29 607.98 109.22 607.98"/><polyline class="cls-14" points="198.99 597.85 183.29 605.7 109.22 605.7"/><polyline class="cls-14" points="198.99 595.57 183.29 603.41 109.22 603.41"/><polyline class="cls-14" points="198.99 593.28 183.29 601.13 109.22 601.13"/><polyline class="cls-14" points="198.99 591 183.29 598.84 109.22 598.84"/><polyline class="cls-14" points="198.99 588.72 183.29 596.56 109.22 596.56"/><polygon class="cls-15" points="109.22 594.28 124.91 586.43 198.99 586.43 183.29 594.28 109.22 594.28"/><path class="cls-16" d="M125.18,587.58l-11.12,5.56h69l11.13-5.56ZM180.6,592H121.31a.57.57,0,0,1-.25-1.08l2.46-1.23a9.2,9.2,0,0,1,4.08-1h59.29a.57.57,0,0,1,.25,1.08L184.68,591A9.2,9.2,0,0,1,180.6,592Z"/><rect class="cls-17" x="140.55" y="593.71" width="11.42" height="21.24"/><polygon class="cls-17" points="140.54 593.71 157 585.86 167.59 585.86 151.96 593.71 140.54 593.71"/><rect class="cls-13" x="112.64" y="573.73" width="74.07" height="20.1"/><polygon class="cls-13" points="186.72 573.73 202.41 565.88 202.41 586.47 186.72 593.82 186.72 573.73"/><polyline class="cls-14" points="202.41 584.15 186.72 591.99 112.64 591.99"/><polyline class="cls-14" points="202.41 581.87 186.72 589.71 112.64 589.71"/><polyline class="cls-14" points="202.41 579.58 186.72 587.43 112.64 587.43"/><polyline class="cls-14" points="202.41 577.3 186.72 585.14 112.64 585.14"/><polyline class="cls-14" points="202.41 575.02 186.72 582.86 112.64 582.86"/><polyline class="cls-14" points="202.41 572.73 186.72 580.58 112.64 580.58"/><polyline class="cls-14" points="202.41 570.45 186.72 578.29 112.64 578.29"/><polyline class="cls-14" points="202.41 568.17 186.72 576.01 112.64 576.01"/><polygon class="cls-15" points="112.64 573.73 128.34 565.88 202.41 565.88 186.72 573.73 112.64 573.73"/><path class="cls-16" d="M128.6,567l-11.12,5.55h69L197.57,567ZM184,571.44H124.74a.57.57,0,0,1-.26-1.08l2.47-1.23a9.13,9.13,0,0,1,4.08-1h59.28a.57.57,0,0,1,.26,1.08l-2.46,1.23A9.21,9.21,0,0,1,184,571.44Z"/><rect class="cls-17" x="143.97" y="573.15" width="11.42" height="21.24"/><polygon class="cls-17" points="143.97 573.15 160.43 565.31 171.01 565.31 155.39 573.15 143.97 573.15"/><rect class="cls-13" x="108.07" y="553.17" width="74.07" height="20.1"/><polygon class="cls-13" points="182.15 553.17 197.84 545.33 197.84 565.92 182.15 573.27 182.15 553.17"/><polyline class="cls-14" points="197.84 563.6 182.15 571.44 108.08 571.44"/><polyline class="cls-14" points="197.84 561.32 182.15 569.16 108.08 569.16"/><polyline class="cls-14" points="197.84 559.03 182.15 566.88 108.08 566.88"/><polyline class="cls-14" points="197.84 556.75 182.15 564.59 108.08 564.59"/><polyline class="cls-14" points="197.84 554.47 182.15 562.31 108.08 562.31"/><polyline class="cls-14" points="197.84 552.18 182.15 560.02 108.08 560.02"/><polyline class="cls-14" points="197.84 549.9 182.15 557.74 108.08 557.74"/><polyline class="cls-14" points="197.84 547.62 182.15 555.46 108.08 555.46"/><polygon class="cls-15" points="108.08 553.17 123.77 545.33 197.84 545.33 182.15 553.17 108.08 553.17"/><path class="cls-16" d="M124,546.47,112.91,552h69L193,546.47Zm55.42,4.42H120.17a.57.57,0,0,1-.25-1.08l2.46-1.23a9.06,9.06,0,0,1,4.08-1h59.29a.57.57,0,0,1,.25,1.08l-2.46,1.23A9.2,9.2,0,0,1,179.46,550.89Z"/><rect class="cls-17" x="139.4" y="552.6" width="11.42" height="21.24"/><polygon class="cls-17" points="139.4 552.6 155.86 544.76 166.44 544.76 150.82 552.6 139.4 552.6"/><rect class="cls-13" x="112.64" y="532.62" width="74.07" height="20.1"/><polygon class="cls-13" points="186.72 532.62 202.41 524.78 202.41 545.37 186.72 552.72 186.72 532.62"/><polyline class="cls-14" points="202.41 543.05 186.72 550.89 112.64 550.89"/><polyline class="cls-14" points="202.41 540.76 186.72 548.61 112.64 548.61"/><polyline class="cls-14" points="202.41 538.48 186.72 546.32 112.64 546.32"/><polyline class="cls-14" points="202.41 536.2 186.72 544.04 112.64 544.04"/><polyline class="cls-14" points="202.41 533.91 186.72 541.76 112.64 541.76"/><polyline class="cls-14" points="202.41 531.63 186.72 539.47 112.64 539.47"/><polyline class="cls-14" points="202.41 529.35 186.72 537.19 112.64 537.19"/><polyline class="cls-14" points="202.41 527.06 186.72 534.91 112.64 534.91"/><polygon class="cls-15" points="112.64 532.62 128.34 524.78 202.41 524.78 186.72 532.62 112.64 532.62"/><path class="cls-16" d="M128.6,525.92l-11.12,5.56h69l11.12-5.56ZM184,530.34H124.74a.57.57,0,0,1-.26-1.08L127,528a9,9,0,0,1,4.08-1h59.28a.57.57,0,0,1,.26,1.08l-2.46,1.24A9.21,9.21,0,0,1,184,530.34Z"/><rect class="cls-17" x="143.97" y="532.05" width="11.42" height="21.24"/><polygon class="cls-17" points="143.97 532.05 160.43 524.21 171.01 524.21 155.39 532.05 143.97 532.05"/><rect class="cls-13" x="111.5" y="512.07" width="74.07" height="20.1"/><polygon class="cls-13" points="185.57 512.07 201.27 504.23 201.27 524.81 185.57 532.17 185.57 512.07"/><polyline class="cls-14" points="201.27 522.5 185.57 530.34 111.5 530.34"/><polyline class="cls-14" points="201.27 520.21 185.57 528.05 111.5 528.05"/><polyline class="cls-14" points="201.27 517.93 185.57 525.77 111.5 525.77"/><polyline class="cls-14" points="201.27 515.65 185.57 523.49 111.5 523.49"/><polyline class="cls-14" points="201.27 513.36 185.57 521.21 111.5 521.21"/><polyline class="cls-14" points="201.27 511.08 185.57 518.92 111.5 518.92"/><polyline class="cls-14" points="201.27 508.8 185.57 516.64 111.5 516.64"/><polyline class="cls-14" points="201.27 506.51 185.57 514.35 111.5 514.35"/><polygon class="cls-15" points="111.5 512.07 127.19 504.23 201.27 504.23 185.57 512.07 111.5 512.07"/><path class="cls-16" d="M127.46,505.37l-11.12,5.56h69l11.12-5.56Zm55.42,4.42H123.6a.57.57,0,0,1-.26-1.08l2.46-1.23a9.08,9.08,0,0,1,4.09-1h59.28a.57.57,0,0,1,.26,1.08L187,508.82A9,9,0,0,1,182.88,509.79Z"/><rect class="cls-17" x="142.83" y="511.5" width="11.42" height="21.24"/><polygon class="cls-17" points="142.83 511.5 159.29 503.66 169.87 503.66 154.25 511.5 142.83 511.5"/><rect class="cls-13" x="117.21" y="491.52" width="74.07" height="20.1"/><polygon class="cls-13" points="191.28 491.52 206.98 483.68 206.98 504.26 191.28 511.62 191.28 491.52"/><polyline class="cls-14" points="206.98 501.94 191.28 509.79 117.21 509.79"/><polyline class="cls-14" points="206.98 499.66 191.28 507.5 117.21 507.5"/><polyline class="cls-14" points="206.98 497.38 191.28 505.22 117.21 505.22"/><polyline class="cls-14" points="206.98 495.09 191.28 502.94 117.21 502.94"/><polyline class="cls-14" points="206.98 492.81 191.28 500.65 117.21 500.65"/><polyline class="cls-14" points="206.98 490.53 191.28 498.37 117.21 498.37"/><polyline class="cls-14" points="206.98 488.24 191.28 496.09 117.21 496.09"/><polyline class="cls-14" points="206.98 485.96 191.28 493.8 117.21 493.8"/><polygon class="cls-15" points="117.21 491.52 132.9 483.68 206.98 483.68 191.28 491.52 117.21 491.52"/><path class="cls-16" d="M133.17,484.82l-11.12,5.56h69l11.13-5.56Zm55.42,4.42H129.31a.58.58,0,0,1-.26-1.09l2.46-1.23a9.21,9.21,0,0,1,4.09-1h59.28a.57.57,0,0,1,.26,1.08l-2.47,1.23A9,9,0,0,1,188.59,489.24Z"/><rect class="cls-17" x="148.54" y="490.95" width="11.42" height="21.24"/><polygon class="cls-17" points="148.54 490.95 165 483.11 175.58 483.11 159.96 490.95 148.54 490.95"/><rect class="cls-13" x="111.5" y="470.97" width="74.07" height="20.1"/><polygon class="cls-13" points="185.57 470.97 201.27 463.13 201.27 483.71 185.57 491.06 185.57 470.97"/><polyline class="cls-14" points="201.27 481.39 185.57 489.24 111.5 489.24"/><polyline class="cls-14" points="201.27 479.11 185.57 486.95 111.5 486.95"/><polyline class="cls-14" points="201.27 476.83 185.57 484.67 111.5 484.67"/><polyline class="cls-14" points="201.27 474.54 185.57 482.38 111.5 482.38"/><polyline class="cls-14" points="201.27 472.26 185.57 480.1 111.5 480.1"/><polyline class="cls-14" points="201.27 469.98 185.57 477.82 111.5 477.82"/><polyline class="cls-14" points="201.27 467.69 185.57 475.53 111.5 475.53"/><polyline class="cls-14" points="201.27 465.41 185.57 473.25 111.5 473.25"/><polygon class="cls-15" points="111.5 470.97 127.19 463.13 201.27 463.13 185.57 470.97 111.5 470.97"/><path class="cls-16" d="M127.46,464.27l-11.12,5.56h69l11.12-5.56Zm55.42,4.41H123.6a.57.57,0,0,1-.26-1.08l2.46-1.23a9.21,9.21,0,0,1,4.09-1h59.28a.57.57,0,0,1,.26,1.08L187,467.72A9.13,9.13,0,0,1,182.88,468.68Z"/><rect class="cls-17" x="142.83" y="470.4" width="11.42" height="21.24"/><polygon class="cls-17" points="142.83 470.4 159.29 462.55 169.87 462.55 154.25 470.4 142.83 470.4"/><rect class="cls-13" x="108.07" y="450.42" width="74.07" height="20.1"/><polygon class="cls-13" points="182.15 450.42 197.84 442.57 197.84 463.16 182.15 470.51 182.15 450.42"/><polyline class="cls-14" points="197.84 460.84 182.15 468.68 108.08 468.68"/><polyline class="cls-14" points="197.84 458.56 182.15 466.4 108.08 466.4"/><polyline class="cls-14" points="197.84 456.27 182.15 464.12 108.08 464.12"/><polyline class="cls-14" points="197.84 453.99 182.15 461.83 108.08 461.83"/><polyline class="cls-14" points="197.84 451.71 182.15 459.55 108.08 459.55"/><polyline class="cls-14" points="197.84 449.42 182.15 457.27 108.08 457.27"/><polyline class="cls-14" points="197.84 447.14 182.15 454.98 108.08 454.98"/><polyline class="cls-14" points="197.84 444.86 182.15 452.7 108.08 452.7"/><polygon class="cls-15" points="108.08 450.42 123.77 442.57 197.84 442.57 182.15 450.42 108.08 450.42"/><path class="cls-16" d="M124,443.71l-11.13,5.56h69L193,443.71Zm55.42,4.42H120.17a.57.57,0,0,1-.25-1.08l2.46-1.23a9.2,9.2,0,0,1,4.08-1h59.29a.57.57,0,0,1,.25,1.08l-2.46,1.23A9.2,9.2,0,0,1,179.46,448.13Z"/><rect class="cls-17" x="139.4" y="449.84" width="11.42" height="21.24"/><polygon class="cls-17" points="139.4 449.85 155.86 442 166.44 442 150.82 449.85 139.4 449.85"/><rect class="cls-13" x="80.67" y="429.86" width="74.07" height="20.1"/><polygon class="cls-13" points="154.75 429.86 170.44 422.02 170.44 442.61 154.75 449.96 154.75 429.86"/><polyline class="cls-14" points="170.44 440.29 154.75 448.13 80.67 448.13"/><polyline class="cls-14" points="170.44 438.01 154.75 445.85 80.67 445.85"/><polyline class="cls-14" points="170.44 435.72 154.75 443.56 80.67 443.56"/><polyline class="cls-14" points="170.44 433.44 154.75 441.28 80.67 441.28"/><polyline class="cls-14" points="170.44 431.16 154.75 439 80.67 439"/><polyline class="cls-14" points="170.44 428.87 154.75 436.71 80.67 436.71"/><polyline class="cls-14" points="170.44 426.59 154.75 434.43 80.67 434.43"/><polyline class="cls-14" points="170.44 424.31 154.75 432.15 80.67 432.15"/><polygon class="cls-15" points="80.67 429.86 96.37 422.02 170.44 422.02 154.75 429.86 80.67 429.86"/><path class="cls-16" d="M96.64,423.16l-11.13,5.56h69l11.12-5.56Zm55.41,4.42H92.77a.57.57,0,0,1-.26-1.08L95,425.27a9,9,0,0,1,4.08-1h59.28a.58.58,0,0,1,.26,1.09l-2.46,1.23A9.21,9.21,0,0,1,152.05,427.58Z"/><rect class="cls-17" x="112" y="429.29" width="11.42" height="21.24"/><polygon class="cls-17" points="112 429.29 128.46 421.45 139.04 421.45 123.42 429.29 112 429.29"/><rect class="cls-13" x="71.54" y="409.31" width="74.07" height="20.1"/><polygon class="cls-13" points="145.61 409.31 161.31 401.47 161.31 422.06 145.61 429.41 145.61 409.31"/><polyline class="cls-14" points="161.31 419.74 145.61 427.58 71.54 427.58"/><polyline class="cls-14" points="161.31 417.45 145.61 425.3 71.54 425.3"/><polyline class="cls-14" points="161.31 415.17 145.61 423.01 71.54 423.01"/><polyline class="cls-14" points="161.31 412.89 145.61 420.73 71.54 420.73"/><polyline class="cls-14" points="161.31 410.6 145.61 418.45 71.54 418.45"/><polyline class="cls-14" points="161.31 408.32 145.61 416.16 71.54 416.16"/><polyline class="cls-14" points="161.31 406.04 145.61 413.88 71.54 413.88"/><polyline class="cls-14" points="161.31 403.75 145.61 411.6 71.54 411.6"/><polygon class="cls-15" points="71.54 409.31 87.23 401.47 161.31 401.47 145.61 409.31 71.54 409.31"/><path class="cls-16" d="M87.5,402.61l-11.12,5.56h69l11.13-5.56ZM142.92,407H83.64a.57.57,0,0,1-.26-1.08l2.46-1.23a9.08,9.08,0,0,1,4.09-1h59.28a.57.57,0,0,1,.26,1.08L147,406.07A9.16,9.16,0,0,1,142.92,407Z"/><rect class="cls-17" x="102.87" y="408.74" width="11.42" height="21.24"/><polygon class="cls-17" points="102.87 408.74 119.33 400.9 129.91 400.9 114.28 408.74 102.87 408.74"/><rect class="cls-13" x="70.4" y="409.31" width="74.07" height="20.1"/><polygon class="cls-13" points="144.47 409.31 160.16 401.47 160.16 422.06 144.47 429.41 144.47 409.31"/><polyline class="cls-14" points="160.16 419.74 144.47 427.58 70.4 427.58"/><polyline class="cls-14" points="160.16 417.45 144.47 425.3 70.4 425.3"/><polyline class="cls-14" points="160.16 415.17 144.47 423.01 70.4 423.01"/><polyline class="cls-14" points="160.16 412.89 144.47 420.73 70.4 420.73"/><polyline class="cls-14" points="160.16 410.6 144.47 418.45 70.4 418.45"/><polyline class="cls-14" points="160.16 408.32 144.47 416.16 70.4 416.16"/><polyline class="cls-14" points="160.16 406.04 144.47 413.88 70.4 413.88"/><polyline class="cls-14" points="160.16 403.75 144.47 411.6 70.4 411.6"/><polygon class="cls-15" points="70.4 409.31 86.09 401.47 160.16 401.47 144.47 409.31 70.4 409.31"/><path class="cls-16" d="M86.36,402.61l-11.12,5.56h69l11.13-5.56ZM141.78,407H82.49a.57.57,0,0,1-.25-1.08l2.46-1.23a9.07,9.07,0,0,1,4.08-1h59.29a.57.57,0,0,1,.25,1.08l-2.46,1.24A9.2,9.2,0,0,1,141.78,407Z"/><rect class="cls-17" x="101.73" y="408.74" width="11.42" height="21.24"/><polygon class="cls-17" points="101.72 408.74 118.18 400.9 128.77 400.9 113.14 408.74 101.72 408.74"/><rect class="cls-13" x="85.24" y="388.76" width="74.07" height="20.1"/><polygon class="cls-13" points="159.31 388.76 175.01 380.92 175.01 401.5 159.31 408.86 159.31 388.76"/><polyline class="cls-14" points="175.01 399.19 159.31 407.03 85.24 407.03"/><polyline class="cls-14" points="175.01 396.9 159.31 404.75 85.24 404.75"/><polyline class="cls-14" points="175.01 394.62 159.31 402.46 85.24 402.46"/><polyline class="cls-14" points="175.01 392.34 159.31 400.18 85.24 400.18"/><polyline class="cls-14" points="175.01 390.05 159.31 397.89 85.24 397.89"/><polyline class="cls-14" points="175.01 387.77 159.31 395.61 85.24 395.61"/><polyline class="cls-14" points="175.01 385.49 159.31 393.33 85.24 393.33"/><polyline class="cls-14" points="175.01 383.2 159.31 391.04 85.24 391.04"/><polygon class="cls-15" points="85.24 388.76 100.93 380.92 175.01 380.92 159.31 388.76 85.24 388.76"/><path class="cls-16" d="M101.2,382.06l-11.12,5.56h69l11.13-5.56Zm55.42,4.42H97.34a.57.57,0,0,1-.26-1.08l2.46-1.23a9.08,9.08,0,0,1,4.09-1h59.28a.57.57,0,0,1,.26,1.08l-2.47,1.23A9,9,0,0,1,156.62,386.48Z"/><rect class="cls-17" x="116.57" y="388.19" width="11.42" height="21.24"/><polygon class="cls-17" points="116.57 388.19 133.03 380.35 143.61 380.35 127.99 388.19 116.57 388.19"/><rect class="cls-13" x="118.35" y="368.21" width="74.07" height="20.1"/><polygon class="cls-13" points="192.43 368.21 208.12 360.37 208.12 380.95 192.43 388.31 192.43 368.21"/><polyline class="cls-14" points="208.12 378.63 192.43 386.48 118.35 386.48"/><polyline class="cls-14" points="208.12 376.35 192.43 384.19 118.35 384.19"/><polyline class="cls-14" points="208.12 374.07 192.43 381.91 118.35 381.91"/><polyline class="cls-14" points="208.12 371.78 192.43 379.63 118.35 379.63"/><polyline class="cls-14" points="208.12 369.5 192.43 377.34 118.35 377.34"/><polyline class="cls-14" points="208.12 367.22 192.43 375.06 118.35 375.06"/><polyline class="cls-14" points="208.12 364.93 192.43 372.78 118.35 372.78"/><polyline class="cls-14" points="208.12 362.65 192.43 370.49 118.35 370.49"/><polygon class="cls-15" points="118.35 368.21 134.04 360.37 208.12 360.37 192.43 368.21 118.35 368.21"/><path class="cls-16" d="M134.31,361.51l-11.12,5.56h69l11.12-5.56Zm55.42,4.42H130.45a.58.58,0,0,1-.26-1.09l2.47-1.23a9.13,9.13,0,0,1,4.08-1H196a.57.57,0,0,1,.26,1.08L193.81,365A9,9,0,0,1,189.73,365.93Z"/><rect class="cls-17" x="149.68" y="367.64" width="11.42" height="21.24"/><polygon class="cls-17" points="149.68 367.64 166.14 359.8 176.72 359.8 161.1 367.64 149.68 367.64"/><path class="cls-18" d="M1009.6,717.14H932.08s-26.27-254.88-26.27-257.91c-1,5-77.69,257.91-77.69,257.91H765.37s-77.78-251.85-78.79-257.91c0,3-25.16,257.91-25.16,257.91H583.89L633,363.29h89s74.48,244.49,75,247.52c.51-2.52,74.57-247.52,74.57-247.52h89Z"/><polygon class="cls-19" points="583.89 717.13 601.96 697.73 647.69 366.72 632.96 363.29 583.89 717.13"/><polygon class="cls-20" points="583.89 717.13 661.42 717.13 655.69 697.73 601.96 697.73 583.89 717.13"/><polygon class="cls-21" points="661.42 717.13 686.58 459.23 686.58 414.7 655.69 697.73 661.42 717.13"/><polygon class="cls-19" points="765.38 717.13 686.58 459.23 686.58 414.7 778.84 697.73 765.38 717.13"/><polygon class="cls-20" points="765.38 717.13 778.84 697.73 815.4 697.73 828.12 717.13 765.38 717.13"/><polygon class="cls-21" points="905.13 414.7 815.4 697.73 828.12 717.13 905.81 459.23 905.13 414.7"/><polygon class="cls-19" points="932.08 717.13 905.81 459.23 905.13 414.7 937.79 697.73 932.08 717.13"/><polygon class="cls-20" points="932.08 717.13 937.79 697.73 991.53 697.73 1009.6 717.13 932.08 717.13"/><polygon class="cls-21" points="1009.6 717.13 991.53 697.73 945.8 366.72 960.54 363.29 1009.6 717.13"/><polygon class="cls-21" points="960.54 363.29 945.8 366.72 875.87 366.72 871.53 363.29 960.54 363.29"/><polygon class="cls-19" points="797.06 624.63 796.96 610.81 871.53 363.29 875.87 366.72 797.06 624.63"/><polygon class="cls-21" points="718.38 366.72 721.97 363.29 796.96 610.81 797.06 624.63 718.38 366.72"/><polygon class="cls-21" points="632.96 363.29 721.97 363.29 718.38 366.72 647.69 366.72 632.96 363.29"/><path class="cls-22" d="M937.8,697.73c-7.77-75.32-32.67-283-32.67-283s-59.52,183.64-89.73,283H778.84c-30.49-98.64-92.26-283-92.26-283s-23.42,207.66-30.89,283H602l45.73-331h70.69l78.68,257.91,78.81-257.91h69.94l45.72,331Z"/></g></svg>