<svg xmlns="http://www.w3.org/2000/svg" viewBox="0 0 1080 1080"><defs><style>.cls-1{fill:#191919;}.cls-10,.cls-2{fill:#4d4d4e;}.cls-3{fill:#333;}.cls-4{fill:#b3b4b4;}.cls-5{fill:gray;}.cls-6{fill:#999;}.cls-7{fill:#e6e6e6;}.cls-8{fill:#ed2024;}.cls-9{fill:#cccccb;}.cls-10{stroke:#000;stroke-linecap:round;stroke-linejoin:round;}</style></defs><title>Artboard 3</title><g id="Layer_3" data-name="Layer 3"><polygon class="cls-1" points="836.5 318.47 836.5 546.47 910.5 606.47 836.5 318.47"/><path class="cls-2" d="M836.5,546.47,320.27,669.41l17.22,93.17a10,10,0,0,0,12.64,7.78L910.5,606.47Z"/><path class="cls-3" d="M320.27,669.41,271.41,405.79a10,10,0,0,1,8.49-11.73l556.6-75.59v228Z"/><polygon class="cls-4" points="233.5 376.97 201.5 402.47 278.17 820.47 315.25 815.47 233.5 376.97"/><polygon class="cls-3" points="233.5 376.97 162.5 273.47 142.5 286.47 201.5 402.47 233.5 376.97"/><path class="cls-1" d="M142.5,286.47V500.2a100,100,0,0,0,7.89,38.94L276.5,837.47l1.67-17-76.67-418Z"/><polygon class="cls-5" points="276.5 837.47 310.5 840.47 315.25 815.47 278.17 820.47 276.5 837.47"/><polygon class="cls-6" points="310.5 840.47 925.5 638.47 930.5 622.47 315.25 815.47 310.5 840.47"/><path class="cls-2" d="M162.5,273.47l411.92-33.61a100.19,100.19,0,0,1,33.65,3L841.5,304.47,233.5,377Z"/><polygon class="cls-7" points="841.5 304.47 857.5 318.47 937.5 611.47 930.5 622.47 841.5 304.47"/><polygon class="cls-7" points="925.5 638.47 933.5 626.47 937.5 611.47 930.5 622.47 925.5 638.47"/><path class="cls-1" d="M774.5,367V527.41a10,10,0,0,1-7.87,9.77l-431.1,96.89a10,10,0,0,1-12.08-8.84l-18.07-193.3a10,10,0,0,1,8.53-10.82l449.16-64A10,10,0,0,1,774.5,367Z"/><path class="cls-3" d="M353.6,470.85v36.77l-14.08,14.16-4.73-3V468Zm-18.81,110.3V530.44l4.73-4.76,14.08,9v36.77Zm80.2-3.28-68.41,14.44q-9.4,0-11.79-7.26l18.81-9.7,54.72-11.2Zm-6.67-119.61L353.84,467,335,464.09q2.36-8.16,11.79-11.55L415,442.11Zm4.45,38.92V457.55l6.64-16.11q8.8.53,11,7.68v52.45L426,506.11ZM426,509.86l4.38,2.95v52.44q-2.19,8-11,11.69l-6.64-13.7V523.61Z"/><path class="cls-3" d="M480.65,450.39v34.82L468,498.49l-4.23-2.92v-48ZM463.79,554.65v-48l4.23-4.47,12.63,8.69v34.82Zm72-2.28-61.43,13c-5.62,0-9.15-2.37-10.56-7l16.86-9,49.13-10.05Zm-6-113.48-48.92,7.8L464,443.84q2.12-7.71,10.57-10.84l61.21-9.37Zm4,36.95V438.26l6-15.24q7.92.57,9.88,7.38v49.75l-3.94,4.27ZM545.69,488l3.94,2.83v49.75q-2,7.53-9.88,11l-6-13.06V500.89Z"/><path class="cls-3" d="M594.91,432v33.07l-11.38,12.5-3.82-2.81V429.18Zm-15.2,98.84V485.26l3.82-4.2,11.38,8.36v33.07Zm65-1.45-55.45,11.71q-7.62-.14-9.53-6.75l15.2-8.37,44.36-9.08Zm-5.42-107.94-44.17,7-15.2-2.84q1.9-7.29,9.53-10.22L644.69,407Zm3.62,35.15V420.86l5.4-14.44q7.15.6,8.93,7.08v47.33l-3.56,4Zm10.77,11.65,3.56,2.73v47.32a14.86,14.86,0,0,1-8.93,10.33l-5.4-12.47V480.42Z"/><path class="cls-3" d="M698.23,415.35v31.48l-10.32,11.81-3.46-2.7V412.56Zm-13.78,94V465.94l3.46-4L698.23,470v31.48Zm58.95-.76-50.32,10.62c-4.59-.14-7.48-2.31-8.63-6.52l13.78-7.82,40.25-8.24Zm-4.92-102.93L698.4,412l-13.78-2.81a13.45,13.45,0,0,1,8.63-9.66l50.15-7.67Zm3.28,33.53V405.09l4.91-13.72q6.51.61,8.12,6.81V443.3l-3.24,3.81Zm9.79,11.19,3.24,2.63v45.12a13.82,13.82,0,0,1-8.12,9.77l-4.91-11.94V461.86Z"/><path class="cls-8" d="M412.77,497.18V457.55l6.64-16.11q8.79.53,11,7.68v52.45L426,506.11ZM426,509.86l4.38,2.95v52.44q-2.19,8-11,11.69l-6.64-13.7V523.61Z"/><path class="cls-8" d="M480.65,450.39v34.82L468,498.49l-4.23-2.92v-48Zm49.13-11.5-48.92,7.8L464,443.84q2.12-7.71,10.57-10.84l61.21-9.37Zm4,36.95V438.26l6-15.24q7.92.57,9.88,7.38v49.75l-3.94,4.27ZM545.69,488l3.94,2.83v49.75q-2,7.53-9.88,11l-6-13.06V500.89Z"/><path class="cls-8" d="M594.91,432v33.07l-11.38,12.5-3.82-2.81V429.18Zm-15.2,98.84V485.26l3.82-4.2,11.38,8.36v33.07Zm65-1.45-55.45,11.71q-7.62-.14-9.53-6.75l15.2-8.37,44.36-9.08Zm-5.42-107.94-44.17,7-15.2-2.84q1.9-7.29,9.53-10.22L644.69,407Zm3.62,35.15V420.86l5.4-14.44q7.15.6,8.93,7.08v47.33l-3.56,4Zm10.77,11.65,3.56,2.73v47.32a14.86,14.86,0,0,1-8.93,10.33l-5.4-12.47V480.42Z"/><path class="cls-8" d="M687.91,458.64l-3.46-2.7V409.23a13.42,13.42,0,0,1,8.63-9.66L698.23,412v34.79ZM698.23,470v34.8l-5.15,14.34c-4.59-.14-7.48-2.31-8.63-6.52V465.94l3.46-4Zm43.53-26,6.54,5.3L741.76,457l-43.53,8.07-6.87-5.38,6.87-7.88ZM701.64,438l40.12-45.84c6.54-1,10.87.49,13,4.45l-43,49.51-10.18,1.8Zm49.91,12.38,3.24,2.63v45.12a13.82,13.82,0,0,1-8.12,9.77l-4.91-11.94V461.86Z"/><path class="cls-1" d="M377.84,700.27l65.43-17.49a4,4,0,0,1,4.63,2.13l7.78,16.17a4,4,0,0,1-2.59,5.6L386.8,724.15a4,4,0,0,1-4.7-2.3l-6.91-16.14A4,4,0,0,1,377.84,700.27Z"/><polygon class="cls-7" points="385.2 721.47 385.2 710.47 453.5 692.47 453.5 702.47 385.2 721.47"/><polygon class="cls-9" points="385.2 710.47 377.5 692.47 444.84 674.47 453.5 692.47 385.2 710.47"/><polygon class="cls-4" points="385.2 721.47 377.5 704.47 377.5 692.47 385.2 710.47 385.2 721.47"/><path class="cls-1" d="M480.82,671.27l64.55-17.48a4,4,0,0,1,4.65,2.15l7.67,16.16a4,4,0,0,1-2.58,5.58l-65.4,17.46a4,4,0,0,1-4.72-2.31l-6.81-16.14A4,4,0,0,1,480.82,671.27Z"/><polygon class="cls-7" points="488.1 692.47 488.1 681.47 555.5 663.47 555.5 673.47 488.1 692.47"/><polygon class="cls-9" points="488.1 681.47 480.5 663.47 546.96 645.47 555.5 663.47 488.1 681.47"/><polygon class="cls-4" points="488.1 692.47 480.5 675.47 480.5 663.47 488.1 681.47 488.1 692.47"/><path class="cls-1" d="M579.82,644.27l64.55-17.48a4,4,0,0,1,4.65,2.15l7.67,16.16a4,4,0,0,1-2.58,5.58l-65.4,17.46a4,4,0,0,1-4.72-2.31l-6.81-16.14A4,4,0,0,1,579.82,644.27Z"/><polygon class="cls-7" points="587.1 665.47 587.1 654.47 654.5 636.47 654.5 646.47 587.1 665.47"/><polygon class="cls-9" points="587.1 654.47 579.5 636.47 645.96 618.47 654.5 636.47 587.1 654.47"/><polygon class="cls-4" points="587.1 665.47 579.5 648.47 579.5 636.47 587.1 654.47 587.1 665.47"/><path class="cls-9" d="M841.5,304.47,233.5,377l81.75,438.5,615.25-193ZM279.9,394.06l547.78-74.39a10,10,0,0,1,11,7.42l69.38,270a10,10,0,0,1-6.88,12.08L350.12,770.36a10,10,0,0,1-12.64-7.78L271.41,405.79A10,10,0,0,1,279.9,394.06Z"/><polygon class="cls-10" points="172 277.97 594 242.97 815.5 302.47 237 369.97 172 277.97"/><line class="cls-10" x1="594" y1="242.97" x2="172" y2="277.97"/><line class="cls-10" x1="607.84" y1="246.69" x2="176.06" y2="283.72"/><line class="cls-10" x1="621.69" y1="250.41" x2="180.13" y2="289.47"/><line class="cls-10" x1="635.53" y1="254.12" x2="184.19" y2="295.22"/><line class="cls-10" x1="649.38" y1="257.84" x2="188.25" y2="300.97"/><line class="cls-10" x1="663.22" y1="261.56" x2="192.31" y2="306.72"/><line class="cls-10" x1="677.06" y1="265.28" x2="196.38" y2="312.47"/><line class="cls-10" x1="690.91" y1="269" x2="200.44" y2="318.22"/><line class="cls-10" x1="704.75" y1="272.72" x2="204.5" y2="323.97"/><line class="cls-10" x1="718.59" y1="276.44" x2="208.56" y2="329.72"/><line class="cls-10" x1="732.44" y1="280.16" x2="212.63" y2="335.47"/><line class="cls-10" x1="746.28" y1="283.87" x2="216.69" y2="341.22"/><line class="cls-10" x1="760.13" y1="287.59" x2="220.75" y2="346.97"/><line class="cls-10" x1="773.97" y1="291.31" x2="224.81" y2="352.72"/><line class="cls-10" x1="787.81" y1="295.03" x2="228.88" y2="358.47"/><line class="cls-10" x1="801.66" y1="298.75" x2="232.94" y2="364.22"/><line class="cls-10" x1="815.5" y1="302.47" x2="237" y2="369.97"/></g></svg>