<svg xmlns="http://www.w3.org/2000/svg" xmlns:xlink="http://www.w3.org/1999/xlink" viewBox="0 0 1080 1080"><defs><style>.cls-1{fill:none;}.cls-2{fill:#e6e6e6;}.cls-3{fill:#3f3f41;}.cls-3,.cls-6{stroke:#3f3f41;}.cls-3,.cls-4,.cls-6{stroke-miterlimit:10;stroke-width:2px;}.cls-4,.cls-5{fill:#58585a;}.cls-4{stroke:#58585a;}.cls-6{fill:#01281d;}.cls-7{fill:#4395d1;}.cls-8{fill:#fff;}.cls-9{opacity:0.2;}.cls-13,.cls-9{writing-mode:tb;text-orientation:upright;glyph-orientation-vertical:0deg;font-size:22.02px;fill:#6abd45;}.cls-11,.cls-13,.cls-9{font-family:MatrixCodeNFI, Matrix Code NFI;}.cls-10{font-family:MyriadPro-Regular, Myriad Pro;}.cls-12{clip-path:url(#clip-path);}</style><clipPath id="clip-path"><path class="cls-1" d="M181,571.05V521.53h34.29V363.43l-25.52,13.33-20.58-44.19,58.67-28.19h41.53V521.53H304v49.52ZM333,494.1c0-23.24,11-56,46.47-72-16.38-10.29-28.19-27.43-28.19-52.58,0-34.28,24.38-68.95,76.2-68.95,51.05,0,76.19,34.28,76.19,68.57,0,25.53-11.43,42.67-27.43,53,35.43,16,45.33,48.76,45.33,71.62,0,40.38-30.09,81.14-94.09,81.14C363.05,574.86,333,534.48,333,494.1Zm134.1-5.33c0-21.34-13.72-41.53-39.62-41.53-26.29,0-40.39,20.19-40.39,41.53,0,22.09,14.1,39.62,40.39,39.62C453,528.39,467.06,510.86,467.06,488.77Zm-13.72-116.2c0-16-9.52-29.33-25.9-29.33-17.15,0-26.67,13.33-26.67,29.33,0,17.14,8.76,31.24,26.67,31.24S453.34,389.71,453.34,372.57Zm168-18.67v40.77c9.14-3.81,21.71-6.1,33.52-6.1,64.77,0,94.1,44.95,94.1,90.67,0,49.15-33.14,95.62-97.91,95.62-61.33,0-93-35-100.57-65.52l46.85-20.57c6.1,16,24,36.19,51.44,36.19,30.09,0,45-23.24,45-46.48S678.85,432,649.52,432c-18.67,0-30.1,8.76-35.81,17.53l-41.15-23.24V304.38h148.2V353.9ZM787.78,571.05V521.53h34.29V363.43l-25.52,13.33L776,332.57l58.67-28.19h41.53V521.53h34.67v49.52Z"/></clipPath></defs><title>Artboard 6</title><g id="Layer_6" data-name="Layer 6"><ellipse class="cls-2" cx="548.05" cy="880.99" rx="272.66" ry="40.23"/><path class="cls-3" d="M987,691.69V180.3a21.51,21.51,0,0,0-21.51-21.51H114.54A21.51,21.51,0,0,0,93,180.3V691.68Z"/><path class="cls-4" d="M93,691.68v62.57a21.52,21.52,0,0,0,21.51,21.52H965.46A21.51,21.51,0,0,0,987,754.26V691.69Z"/><path class="cls-4" d="M670.81,877.38H409.73c-10.77-.42-14.88-3.46-14.88-3.46v2.83a11.69,11.69,0,0,0,6.72,3.46,51.47,51.47,0,0,0,8.16.66H670.81a50.1,50.1,0,0,0,8.16-.66,11.67,11.67,0,0,0,6.72-3.46v-2.83S681.57,877,670.81,877.38Z"/><path class="cls-5" d="M543.24,172.6a3.1,3.1,0,1,1-3.1-3.1,3.1,3.1,0,0,1,3.1,3.1"/><rect class="cls-6" x="124.84" y="194.2" width="830.32" height="467.11"/><path class="cls-3" d="M682.76,869.71S660.47,852,654.69,847.16c-10.87-8.15-12.49-35.63-12.49-35.63l-3.93-35.76h-196l-3.92,35.76s-1.62,27.48-12.49,35.63c-5.78,4.87-28.08,22.55-28.08,22.55s-3.38,2.6-2.87,4.21c0,0,4.11,3,14.88,3.46h261c10.77-.42,14.88-3.46,14.88-3.46C686.15,872.31,682.76,869.71,682.76,869.71Z"/><circle class="cls-7" cx="539.75" cy="732.47" r="23.87" transform="translate(-292.11 1101.05) rotate(-77.51)"/><path class="cls-8" d="M538.15,726.18v12.37H534.6v-.83a6.48,6.48,0,0,1,.07-.87,4.32,4.32,0,0,1-3.75,2,4.12,4.12,0,0,1-3.22-1.45,5.7,5.7,0,0,1-1.26-3.88v-7.35H530v7.15a2.67,2.67,0,0,0,.66,1.93,2.22,2.22,0,0,0,3.18,0,2.54,2.54,0,0,0,.75-1.85v-7.25Z"/><path class="cls-8" d="M544.31,744.89h-3.42V726.18h3.54v1.24a4.8,4.8,0,0,1,3.6-1.52,4.7,4.7,0,0,1,3.92,1.9,7.24,7.24,0,0,1,1.46,4.52,7.43,7.43,0,0,1-1.43,4.57,4.63,4.63,0,0,1-3.92,1.92,4.7,4.7,0,0,1-3.75-1.88Zm2.81-9.23a2.41,2.41,0,0,0,2-.94,4.25,4.25,0,0,0,0-4.72,2.41,2.41,0,0,0-2-.93,2.49,2.49,0,0,0-2,.91,3.61,3.61,0,0,0-.76,2.36,3.67,3.67,0,0,0,.78,2.32A2.36,2.36,0,0,0,547.12,735.66Z"/><text class="cls-9" transform="translate(939.05 199.33)">Excerpt<tspan x="0" y="154.14"> </tspan><tspan x="0" y="165.15">&amp;</tspan><tspan x="0" y="187.17"> </tspan><tspan x="0" y="198.18">Burb</tspan><tspan x="-14.01" y="0">Blurb:</tspan><tspan x="-14.01" y="132.12"> </tspan><tspan x="-14.01" y="143.13">Giving</tspan><tspan x="-14.01" y="275.24"> </tspan><tspan x="-14.01" y="286.25">and</tspan><tspan x="-14.01" y="352.31"> </tspan><tspan x="-14.01" y="363.32">vol</tspan><tspan x="-15.16" y="429.38">-</tspan><tspan x="-28.03" y="0">unteering</tspan><tspan x="-28.03" y="198.18"> </tspan><tspan x="-28.03" y="209.19">is</tspan><tspan x="-28.03" y="253.22"> </tspan><tspan x="-28.03" y="264.23">a</tspan><tspan x="-28.03" y="286.25"> </tspan><tspan x="-42.04" y="0">win-win-win</tspan><tspan x="-42.04" y="242.21"> </tspan><tspan class="cls-10" x="-42.04" y="253.22">—</tspan><tspan x="-42.04" y="275.24"> </tspan><tspan x="-42.04" y="286.25">for</tspan><tspan x="-42.04" y="352.31"> </tspan><tspan x="-42.04" y="363.32">the</tspan><tspan x="-42.04" y="429.38"> </tspan><tspan x="-56.05" y="0">employee,</tspan><tspan x="-56.06" y="198.18"> </tspan><tspan x="-56.05" y="209.19">for</tspan><tspan x="-56.06" y="275.24"> </tspan><tspan x="-56.05" y="286.25">the</tspan><tspan x="-56.06" y="352.31"> </tspan><tspan x="-56.05" y="363.32">or</tspan><tspan x="-57.2" y="407.36">-</tspan><tspan x="-70.07" y="0">ganisation,</tspan><tspan x="-70.07" y="242.21"> </tspan><tspan x="-70.07" y="253.22">for</tspan><tspan x="-70.07" y="319.28"> </tspan><tspan x="-70.07" y="330.29">the</tspan><tspan x="-70.07" y="396.35"> </tspan><tspan x="-84.08" y="0">world.Excerpt:</tspan><tspan x="-84.08" y="308.27"> </tspan><tspan x="-84.08" y="319.28">Corpo</tspan><tspan x="-85.23" y="429.38">-</tspan><tspan x="-98.1" y="0">rate</tspan><tspan x="-98.1" y="88.08"> </tspan><tspan x="-98.1" y="99.09">giving</tspan><tspan x="-98.1" y="231.21"> </tspan><tspan x="-98.1" y="242.21">and</tspan><tspan x="-98.1" y="308.27"> </tspan><tspan x="-98.1" y="319.28">volun</tspan><tspan x="-99.24" y="429.38">-</tspan><tspan x="-112.11" y="0">teering</tspan><tspan x="-112.11" y="154.14"> </tspan><tspan x="-112.11" y="165.15">has</tspan><tspan x="-112.11" y="231.21"> </tspan><tspan x="-112.11" y="242.21">in</tspan><tspan x="-112.11" y="286.25"> </tspan><tspan x="-112.11" y="297.26">past</tspan><tspan x="-112.11" y="385.34"> </tspan><tspan x="-126.12" y="0">years</tspan><tspan x="-126.12" y="110.1"> </tspan><tspan x="-126.12" y="121.11">transformed</tspan><tspan x="-126.12" y="363.32"> </tspan><tspan x="-140.14" y="0">into</tspan><tspan x="-140.14" y="88.08"> </tspan><tspan x="-140.14" y="99.09">something</tspan><tspan x="-140.14" y="297.26"> </tspan><tspan x="-140.14" y="308.27">more</tspan><tspan x="-140.14" y="396.35"> </tspan><tspan x="-154.15" y="0">sophisticated,</tspan><tspan x="-154.15" y="308.27"> </tspan><tspan x="-154.15" y="319.28">from</tspan><tspan x="-154.15" y="407.36"> </tspan><tspan x="-168.17" y="0">simple</tspan><tspan x="-168.17" y="132.12"> </tspan><tspan x="-168.17" y="143.13">donations</tspan><tspan x="-168.17" y="341.3"> </tspan><tspan x="-168.17" y="352.31">to</tspan><tspan x="-168.17" y="396.35"> </tspan><tspan x="-182.18" y="0">actions,</tspan><tspan x="-182.18" y="176.16"> </tspan><tspan x="-182.18" y="187.17">from</tspan><tspan x="-182.18" y="275.24"> </tspan><tspan x="-182.18" y="286.25">side</tspan><tspan x="-182.18" y="374.33"> </tspan><tspan x="-196.19" y="0">projects</tspan><tspan x="-196.19" y="176.16"> </tspan><tspan x="-196.19" y="187.17">to</tspan><tspan x="-196.19" y="231.21"> </tspan><tspan x="-196.19" y="242.21">an</tspan><tspan x="-196.19" y="286.25"> </tspan><tspan x="-196.19" y="297.26">inte</tspan><tspan x="-197.34" y="385.34">-</tspan><tspan x="-210.21" y="0">gral</tspan><tspan x="-210.21" y="88.08"> </tspan><tspan x="-210.21" y="99.09">part</tspan><tspan x="-210.21" y="187.17"> </tspan><tspan x="-210.21" y="198.18">of</tspan><tspan x="-210.21" y="242.21"> </tspan><tspan x="-210.21" y="253.22">running</tspan><tspan x="-210.21" y="407.36"> </tspan><tspan x="-210.21" y="418.37">a</tspan><tspan x="-210.21" y="440.39"> </tspan><tspan x="-224.22" y="0">business.</tspan><tspan x="-224.22" y="198.18"> </tspan><tspan x="-224.22" y="209.19">It</tspan><tspan class="cls-10" x="-224.22" y="253.22">’</tspan><tspan x="-224.22" y="275.24">s</tspan><tspan x="-224.22" y="297.26"> </tspan><tspan x="-224.22" y="308.27">no</tspan><tspan x="-224.22" y="352.31"> </tspan><tspan x="-238.24" y="0">longer</tspan><tspan x="-238.24" y="132.12"> </tspan><tspan x="-238.24" y="143.13">enough</tspan><tspan x="-238.24" y="275.24"> </tspan><tspan x="-238.24" y="286.25">to</tspan><tspan x="-238.24" y="330.29"> </tspan><tspan x="-238.24" y="341.3">write</tspan><tspan x="-238.24" y="451.4"> </tspan><tspan x="-252.25" y="0">a</tspan><tspan x="-252.25" y="22.02"> </tspan><tspan x="-252.25" y="33.03">check.</tspan><tspan x="-252.25" y="165.15"> </tspan><tspan x="-252.25" y="176.16">You</tspan><tspan x="-252.25" y="242.21"> </tspan><tspan x="-252.25" y="253.22">and</tspan><tspan x="-252.25" y="319.28"> </tspan><tspan x="-252.25" y="330.29">your</tspan><tspan x="-252.25" y="418.37"> </tspan><tspan x="-266.26" y="0">employees</tspan><tspan x="-266.26" y="198.18"> </tspan><tspan x="-266.26" y="209.19">need</tspan><tspan x="-266.26" y="297.26"> </tspan><tspan x="-266.26" y="308.27">to</tspan><tspan x="-266.26" y="352.31"> </tspan><tspan x="-266.26" y="363.32">be</tspan><tspan x="-266.26" y="407.36"> </tspan><tspan x="-280.28" y="0">out</tspan><tspan x="-280.28" y="66.06"> </tspan><tspan x="-280.28" y="77.07">there,</tspan><tspan x="-280.28" y="209.19"> </tspan><tspan x="-280.28" y="220.2">in</tspan><tspan x="-280.28" y="264.23"> </tspan><tspan x="-280.28" y="275.24">the</tspan><tspan x="-280.28" y="341.3"> </tspan><tspan x="-294.29" y="0">world,</tspan><tspan x="-294.29" y="132.12"> </tspan><tspan x="-294.29" y="143.13">doing</tspan><tspan x="-294.29" y="253.22"> </tspan><tspan x="-294.29" y="264.23">some</tspan><tspan x="-295.44" y="352.31">-</tspan><tspan x="-308.3" y="0">thing</tspan><tspan x="-308.31" y="110.1"> </tspan><tspan x="-308.3" y="121.11">that</tspan><tspan x="-308.31" y="209.19"> </tspan><tspan x="-308.3" y="220.2">matters.</tspan><tspan x="-308.31" y="396.35"> </tspan><tspan x="-322.32" y="0">Making</tspan><tspan x="-322.32" y="132.12"> </tspan><tspan x="-322.32" y="143.13">that</tspan><tspan x="-322.32" y="231.21"> </tspan><tspan x="-322.32" y="242.21">change</tspan><tspan x="-322.32" y="374.33"> </tspan><tspan x="-336.33" y="0">happen.BlogGive</tspan><tspan x="-336.33" y="330.29"> </tspan><tspan x="-336.33" y="341.3">it</tspan><tspan x="-336.33" y="385.34"> </tspan><tspan x="-350.35" y="0">away</tspan><tspan x="-350.35" y="88.08"> </tspan><tspan x="-350.35" y="99.09">now:</tspan><tspan x="-350.35" y="187.17"> </tspan><tspan x="-350.35" y="198.18">the</tspan><tspan x="-350.35" y="264.23"> </tspan><tspan x="-350.35" y="275.24">impor</tspan><tspan x="-351.49" y="385.34">-</tspan><tspan x="-364.36" y="0">tance</tspan><tspan x="-364.36" y="110.1"> </tspan><tspan x="-364.36" y="121.11">of</tspan><tspan x="-364.36" y="165.15"> </tspan><tspan x="-364.36" y="176.16">doing</tspan><tspan x="-364.36" y="286.25"> </tspan><tspan x="-364.36" y="297.26">good</tspan><tspan x="-364.36" y="385.34"> </tspan><tspan x="-378.37" y="0">(with</tspan><tspan x="-378.37" y="110.1"> </tspan><tspan x="-378.37" y="121.11">the</tspan><tspan x="-378.37" y="187.17"> </tspan><tspan x="-378.37" y="198.18">right</tspan><tspan x="-378.37" y="308.27"> </tspan><tspan x="-378.37" y="319.28">soft</tspan><tspan x="-379.52" y="407.36">-</tspan><tspan x="-392.39" y="0">ware)</tspan><tspan x="-392.39" y="110.1"> </tspan><tspan x="-406.4" y="0">In</tspan><tspan x="-406.4" y="44.04"> </tspan><tspan x="-406.4" y="55.05">a</tspan><tspan x="-406.4" y="77.07"> </tspan><tspan x="-406.4" y="88.08">2012</tspan><tspan x="-406.4" y="176.16"> </tspan><tspan x="-406.4" y="187.17">interview,</tspan><tspan x="-406.4" y="407.36"> </tspan><tspan x="-420.42" y="0">Geoff</tspan><tspan x="-420.42" y="110.1"> </tspan><tspan x="-420.42" y="121.11">McDonald,</tspan><tspan x="-420.42" y="319.28"> </tspan><tspan x="-420.42" y="330.29">who</tspan><tspan x="-420.42" y="396.35"> </tspan><tspan x="-420.42" y="407.36">at</tspan><tspan x="-420.42" y="451.4"> </tspan><tspan x="-434.43" y="0">the</tspan><tspan x="-434.43" y="66.06"> </tspan><tspan x="-434.43" y="77.07">time</tspan><tspan x="-434.43" y="165.15"> </tspan><tspan x="-434.43" y="176.16">was</tspan><tspan x="-434.43" y="242.21"> </tspan><tspan x="-434.43" y="253.22">the</tspan><tspan x="-434.43" y="319.28"> </tspan><tspan x="-448.44" y="0">global</tspan><tspan x="-448.44" y="132.12"> </tspan><tspan x="-448.44" y="143.13">vice</tspan><tspan x="-448.44" y="231.21"> </tspan><tspan x="-448.44" y="242.21">president</tspan><tspan x="-448.44" y="440.39"> </tspan><tspan x="-462.46" y="0">of</tspan><tspan x="-462.46" y="44.04"> </tspan><tspan x="-462.46" y="55.05">human</tspan><tspan x="-462.46" y="165.15"> </tspan><tspan x="-462.46" y="176.16">resources</tspan><tspan x="-462.46" y="374.33"> </tspan><tspan x="-462.46" y="385.34">at</tspan><tspan x="-462.46" y="429.38"> </tspan><tspan x="-476.47" y="0">Unilever,</tspan><tspan x="-476.47" y="198.18"> </tspan><tspan x="-476.47" y="209.19">spoke</tspan><tspan x="-476.47" y="319.28"> </tspan><tspan x="-476.47" y="330.29">of</tspan><tspan x="-476.47" y="374.33"> </tspan><tspan x="-490.48" y="0">something</tspan><tspan x="-490.48" y="198.18"> </tspan><tspan x="-490.48" y="209.19">he</tspan><tspan x="-490.48" y="253.22"> </tspan><tspan x="-490.48" y="264.23">believed</tspan><tspan x="-490.48" y="440.39"> </tspan><tspan x="-504.5" y="0">to</tspan><tspan x="-504.5" y="44.04"> </tspan><tspan x="-504.5" y="55.05">be</tspan><tspan x="-504.5" y="99.09"> </tspan><tspan x="-504.5" y="110.1">missing</tspan><tspan x="-504.5" y="264.23"> </tspan><tspan x="-504.5" y="275.24">when</tspan><tspan x="-504.5" y="363.32"> </tspan><tspan x="-504.5" y="374.33">it</tspan><tspan x="-504.5" y="418.37"> </tspan><tspan x="-518.51" y="0">came</tspan><tspan x="-518.51" y="88.08"> </tspan><tspan x="-518.51" y="99.09">to</tspan><tspan x="-518.51" y="143.13"> </tspan><tspan x="-518.51" y="154.14">organisations</tspan><tspan x="-518.51" y="440.39"> </tspan><tspan x="-532.53" y="0">and</tspan><tspan x="-532.53" y="66.06"> </tspan><tspan x="-532.53" y="77.07">corporate</tspan><tspan x="-532.53" y="275.24"> </tspan><tspan x="-532.53" y="286.25">social</tspan><tspan x="-532.53" y="418.37"> </tspan><tspan x="-546.54" y="0">responsibility</tspan><tspan x="-546.54" y="308.27"> </tspan><tspan x="-546.54" y="319.28">(CSR).</tspan><tspan class="cls-10"><tspan x="-560.55" y="0">“</tspan><tspan class="cls-11" x="-560.55" y="22.02">What</tspan><tspan class="cls-11" x="-560.55" y="110.1"> </tspan><tspan class="cls-11" x="-560.55" y="121.11">I</tspan><tspan class="cls-11" x="-560.55" y="143.13"> </tspan><tspan class="cls-11" x="-560.55" y="154.14">think</tspan><tspan class="cls-11" x="-560.55" y="264.23"> </tspan><tspan class="cls-11" x="-560.55" y="275.24">is</tspan><tspan class="cls-11" x="-560.55" y="319.28"> </tspan><tspan class="cls-11" x="-560.55" y="330.29">lack</tspan><tspan class="cls-11" x="-561.7" y="418.37">-</tspan></tspan><tspan x="-574.57" y="0">ing,</tspan><tspan x="-574.57" y="88.08"> </tspan><tspan x="-574.57" y="99.09">as</tspan><tspan x="-574.57" y="143.13"> </tspan><tspan x="-574.57" y="154.14">I</tspan><tspan x="-574.57" y="176.16"> </tspan><tspan x="-574.57" y="187.17">look</tspan><tspan x="-574.57" y="275.24"> </tspan><tspan x="-574.57" y="286.25">around,</tspan><tspan x="-574.57" y="440.39"> </tspan><tspan x="-588.58" y="0">is</tspan><tspan x="-588.58" y="44.04"> </tspan><tspan x="-588.58" y="55.05">that</tspan><tspan x="-588.58" y="143.13"> </tspan><tspan x="-588.58" y="154.14">aspect</tspan><tspan x="-588.58" y="286.25"> </tspan><tspan x="-588.58" y="297.26">of</tspan><tspan x="-588.58" y="341.3"> </tspan><tspan x="-588.58" y="352.31">how</tspan><tspan x="-588.58" y="418.37"> </tspan><tspan x="-602.6" y="0">can</tspan><tspan x="-602.6" y="66.06"> </tspan><tspan x="-602.6" y="77.07">you</tspan><tspan x="-602.6" y="143.13"> </tspan><tspan x="-602.6" y="154.14">shift</tspan><tspan x="-602.6" y="264.23"> </tspan><tspan x="-602.6" y="275.24">the</tspan><tspan x="-602.6" y="341.3"> </tspan><tspan x="-602.6" y="352.31">cul</tspan><tspan x="-603.74" y="418.37">-</tspan><tspan x="-616.61" y="0">ture</tspan><tspan x="-616.61" y="88.08"> </tspan><tspan x="-616.61" y="99.09">of</tspan><tspan x="-616.61" y="143.13"> </tspan><tspan x="-616.61" y="154.14">whatever</tspan><tspan x="-616.61" y="330.29"> </tspan><tspan x="-616.61" y="341.3">or</tspan><tspan x="-617.75" y="385.34">-</tspan><tspan x="-630.62" y="0">ganisation</tspan><tspan x="-630.62" y="220.2"> </tspan><tspan x="-630.62" y="231.21">you</tspan><tspan x="-630.62" y="297.26"> </tspan><tspan x="-630.62" y="308.27">are</tspan><tspan x="-630.62" y="374.33"> </tspan><tspan x="-630.62" y="385.34">a</tspan><tspan x="-630.62" y="407.36"> </tspan><tspan x="-644.64" y="0">part</tspan><tspan x="-644.64" y="88.08"> </tspan><tspan x="-644.64" y="99.09">of</tspan><tspan x="-644.64" y="143.13"> </tspan><tspan x="-644.64" y="154.14">to</tspan><tspan x="-644.64" y="198.18"> </tspan><tspan x="-644.64" y="209.19">really</tspan><tspan x="-644.64" y="341.3"> </tspan><tspan x="-644.64" y="352.31">get</tspan><tspan x="-644.64" y="418.37"> </tspan><tspan x="-658.65" y="0">your</tspan><tspan x="-658.65" y="88.08"> </tspan><tspan x="-658.65" y="99.09">employees</tspan><tspan x="-658.65" y="297.26"> </tspan><tspan class="cls-10" x="-658.65" y="308.27">…</tspan><tspan x="-658.65" y="330.29"> </tspan><tspan x="-658.65" y="341.3">to</tspan><tspan x="-658.65" y="385.34"> </tspan><tspan x="-658.65" y="396.35">a</tspan><tspan x="-658.65" y="418.37"> </tspan><tspan x="-672.67" y="0">stage</tspan><tspan x="-672.67" y="110.1"> </tspan><tspan x="-672.67" y="121.11">where</tspan><tspan x="-672.67" y="231.21"> </tspan><tspan x="-672.67" y="242.21">they</tspan><tspan x="-672.67" y="330.29"> </tspan><tspan x="-672.67" y="341.3">are</tspan><tspan x="-672.67" y="407.36"> </tspan><tspan x="-686.68" y="0">not</tspan><tspan x="-686.68" y="66.06"> </tspan><tspan x="-686.68" y="77.07">only</tspan><tspan x="-686.68" y="165.15"> </tspan><tspan x="-686.68" y="176.16">aware</tspan><tspan x="-686.68" y="286.25"> </tspan><tspan x="-686.68" y="297.26">around</tspan><tspan x="-686.68" y="429.38"> </tspan><tspan x="-700.69" y="0">sustainability</tspan><tspan x="-700.69" y="308.27"> </tspan><tspan x="-714.71" y="0">issues,</tspan><tspan x="-714.71" y="154.14"> </tspan><tspan x="-714.71" y="165.15">but</tspan><tspan x="-714.71" y="231.21"> </tspan><tspan x="-714.71" y="242.21">they</tspan><tspan x="-714.71" y="330.29"> </tspan><tspan x="-714.71" y="341.3">now</tspan><tspan x="-714.71" y="407.36"> </tspan><tspan x="-728.72" y="0">feel</tspan><tspan x="-728.72" y="88.08"> </tspan><tspan x="-728.72" y="99.09">engaged</tspan><tspan x="-728.72" y="253.22"> </tspan><tspan x="-728.72" y="264.23">to</tspan><tspan x="-728.72" y="308.27"> </tspan><tspan x="-728.72" y="319.28">take</tspan><tspan x="-728.72" y="407.36"> </tspan><tspan x="-742.73" y="0">action,</tspan><tspan class="cls-10" x="-742.73" y="154.14">”</tspan><tspan x="-742.73" y="176.16"> </tspan><tspan x="-742.73" y="187.17">he</tspan><tspan x="-742.73" y="231.21"> </tspan><tspan x="-742.73" y="242.21">said.</tspan><tspan x="-756.75" y="0">At</tspan><tspan x="-756.75" y="44.04"> </tspan><tspan x="-756.75" y="55.05">GoodUp,</tspan><tspan x="-756.75" y="209.19"> </tspan><tspan x="-756.75" y="220.2">we</tspan><tspan x="-756.75" y="264.23"> </tspan><tspan x="-756.75" y="275.24">stand</tspan><tspan x="-756.75" y="385.34"> </tspan><tspan x="-770.76" y="0">alongside</tspan><tspan x="-770.76" y="198.18"> </tspan><tspan x="-770.76" y="209.19">this</tspan><tspan x="-770.76" y="297.26"> </tspan><tspan x="-770.76" y="308.27">state</tspan><tspan x="-771.91" y="418.37">-</tspan><tspan x="-784.78" y="0">ment.</tspan><tspan x="-784.78" y="110.1"> </tspan><tspan x="-784.78" y="121.11">Acts</tspan><tspan x="-784.78" y="209.19"> </tspan><tspan x="-784.78" y="220.2">of</tspan><tspan x="-784.78" y="264.23"> </tspan><tspan x="-784.78" y="275.24">corpo</tspan><tspan x="-785.92" y="385.34">-</tspan><tspan x="-798.79" y="0">rate</tspan><tspan x="-798.79" y="88.08"> </tspan><tspan x="-798.79" y="99.09">giving</tspan><tspan x="-798.79" y="231.21"> </tspan><tspan x="-798.79" y="242.21">and</tspan><tspan x="-798.79" y="308.27"> </tspan><tspan x="-798.79" y="319.28">volun</tspan><tspan x="-799.94" y="429.38">-</tspan></text><g class="cls-12"><text class="cls-13" transform="translate(939.05 199.33)">Excerpt<tspan x="0" y="154.14"> </tspan><tspan x="0" y="165.15">&amp;</tspan><tspan x="0" y="187.17"> </tspan><tspan x="0" y="198.18">Burb</tspan><tspan x="-14.01" y="0">Blurb:</tspan><tspan x="-14.01" y="132.12"> </tspan><tspan x="-14.01" y="143.13">Giving</tspan><tspan x="-14.01" y="275.24"> </tspan><tspan x="-14.01" y="286.25">and</tspan><tspan x="-14.01" y="352.31"> </tspan><tspan x="-14.01" y="363.32">vol</tspan><tspan x="-15.16" y="429.38">-</tspan><tspan x="-28.03" y="0">unteering</tspan><tspan x="-28.03" y="198.18"> </tspan><tspan x="-28.03" y="209.19">is</tspan><tspan x="-28.03" y="253.22"> </tspan><tspan x="-28.03" y="264.23">a</tspan><tspan x="-28.03" y="286.25"> </tspan><tspan x="-42.04" y="0">win-win-win</tspan><tspan x="-42.04" y="242.21"> </tspan><tspan class="cls-10" x="-42.04" y="253.22">—</tspan><tspan x="-42.04" y="275.24"> </tspan><tspan x="-42.04" y="286.25">for</tspan><tspan x="-42.04" y="352.31"> </tspan><tspan x="-42.04" y="363.32">the</tspan><tspan x="-42.04" y="429.38"> </tspan><tspan x="-56.05" y="0">employee,</tspan><tspan x="-56.06" y="198.18"> </tspan><tspan x="-56.05" y="209.19">for</tspan><tspan x="-56.06" y="275.24"> </tspan><tspan x="-56.05" y="286.25">the</tspan><tspan x="-56.06" y="352.31"> </tspan><tspan x="-56.05" y="363.32">or</tspan><tspan x="-57.2" y="407.36">-</tspan><tspan x="-70.07" y="0">ganisation,</tspan><tspan x="-70.07" y="242.21"> </tspan><tspan x="-70.07" y="253.22">for</tspan><tspan x="-70.07" y="319.28"> </tspan><tspan x="-70.07" y="330.29">the</tspan><tspan x="-70.07" y="396.35"> </tspan><tspan x="-84.08" y="0">world.Excerpt:</tspan><tspan x="-84.08" y="308.27"> </tspan><tspan x="-84.08" y="319.28">Corpo</tspan><tspan x="-85.23" y="429.38">-</tspan><tspan x="-98.1" y="0">rate</tspan><tspan x="-98.1" y="88.08"> </tspan><tspan x="-98.1" y="99.09">giving</tspan><tspan x="-98.1" y="231.21"> </tspan><tspan x="-98.1" y="242.21">and</tspan><tspan x="-98.1" y="308.27"> </tspan><tspan x="-98.1" y="319.28">volun</tspan><tspan x="-99.24" y="429.38">-</tspan><tspan x="-112.11" y="0">teering</tspan><tspan x="-112.11" y="154.14"> </tspan><tspan x="-112.11" y="165.15">has</tspan><tspan x="-112.11" y="231.21"> </tspan><tspan x="-112.11" y="242.21">in</tspan><tspan x="-112.11" y="286.25"> </tspan><tspan x="-112.11" y="297.26">past</tspan><tspan x="-112.11" y="385.34"> </tspan><tspan x="-126.12" y="0">years</tspan><tspan x="-126.12" y="110.1"> </tspan><tspan x="-126.12" y="121.11">transformed</tspan><tspan x="-126.12" y="363.32"> </tspan><tspan x="-140.14" y="0">into</tspan><tspan x="-140.14" y="88.08"> </tspan><tspan x="-140.14" y="99.09">something</tspan><tspan x="-140.14" y="297.26"> </tspan><tspan x="-140.14" y="308.27">more</tspan><tspan x="-140.14" y="396.35"> </tspan><tspan x="-154.15" y="0">sophisticated,</tspan><tspan x="-154.15" y="308.27"> </tspan><tspan x="-154.15" y="319.28">from</tspan><tspan x="-154.15" y="407.36"> </tspan><tspan x="-168.17" y="0">simple</tspan><tspan x="-168.17" y="132.12"> </tspan><tspan x="-168.17" y="143.13">donations</tspan><tspan x="-168.17" y="341.3"> </tspan><tspan x="-168.17" y="352.31">to</tspan><tspan x="-168.17" y="396.35"> </tspan><tspan x="-182.18" y="0">actions,</tspan><tspan x="-182.18" y="176.16"> </tspan><tspan x="-182.18" y="187.17">from</tspan><tspan x="-182.18" y="275.24"> </tspan><tspan x="-182.18" y="286.25">side</tspan><tspan x="-182.18" y="374.33"> </tspan><tspan x="-196.19" y="0">projects</tspan><tspan x="-196.19" y="176.16"> </tspan><tspan x="-196.19" y="187.17">to</tspan><tspan x="-196.19" y="231.21"> </tspan><tspan x="-196.19" y="242.21">an</tspan><tspan x="-196.19" y="286.25"> </tspan><tspan x="-196.19" y="297.26">inte</tspan><tspan x="-197.34" y="385.34">-</tspan><tspan x="-210.21" y="0">gral</tspan><tspan x="-210.21" y="88.08"> </tspan><tspan x="-210.21" y="99.09">part</tspan><tspan x="-210.21" y="187.17"> </tspan><tspan x="-210.21" y="198.18">of</tspan><tspan x="-210.21" y="242.21"> </tspan><tspan x="-210.21" y="253.22">running</tspan><tspan x="-210.21" y="407.36"> </tspan><tspan x="-210.21" y="418.37">a</tspan><tspan x="-210.21" y="440.39"> </tspan><tspan x="-224.22" y="0">business.</tspan><tspan x="-224.22" y="198.18"> </tspan><tspan x="-224.22" y="209.19">It</tspan><tspan class="cls-10" x="-224.22" y="253.22">’</tspan><tspan x="-224.22" y="275.24">s</tspan><tspan x="-224.22" y="297.26"> </tspan><tspan x="-224.22" y="308.27">no</tspan><tspan x="-224.22" y="352.31"> </tspan><tspan x="-238.24" y="0">longer</tspan><tspan x="-238.24" y="132.12"> </tspan><tspan x="-238.24" y="143.13">enough</tspan><tspan x="-238.24" y="275.24"> </tspan><tspan x="-238.24" y="286.25">to</tspan><tspan x="-238.24" y="330.29"> </tspan><tspan x="-238.24" y="341.3">write</tspan><tspan x="-238.24" y="451.4"> </tspan><tspan x="-252.25" y="0">a</tspan><tspan x="-252.25" y="22.02"> </tspan><tspan x="-252.25" y="33.03">check.</tspan><tspan x="-252.25" y="165.15"> </tspan><tspan x="-252.25" y="176.16">You</tspan><tspan x="-252.25" y="242.21"> </tspan><tspan x="-252.25" y="253.22">and</tspan><tspan x="-252.25" y="319.28"> </tspan><tspan x="-252.25" y="330.29">your</tspan><tspan x="-252.25" y="418.37"> </tspan><tspan x="-266.26" y="0">employees</tspan><tspan x="-266.26" y="198.18"> </tspan><tspan x="-266.26" y="209.19">need</tspan><tspan x="-266.26" y="297.26"> </tspan><tspan x="-266.26" y="308.27">to</tspan><tspan x="-266.26" y="352.31"> </tspan><tspan x="-266.26" y="363.32">be</tspan><tspan x="-266.26" y="407.36"> </tspan><tspan x="-280.28" y="0">out</tspan><tspan x="-280.28" y="66.06"> </tspan><tspan x="-280.28" y="77.07">there,</tspan><tspan x="-280.28" y="209.19"> </tspan><tspan x="-280.28" y="220.2">in</tspan><tspan x="-280.28" y="264.23"> </tspan><tspan x="-280.28" y="275.24">the</tspan><tspan x="-280.28" y="341.3"> </tspan><tspan x="-294.29" y="0">world,</tspan><tspan x="-294.29" y="132.12"> </tspan><tspan x="-294.29" y="143.13">doing</tspan><tspan x="-294.29" y="253.22"> </tspan><tspan x="-294.29" y="264.23">some</tspan><tspan x="-295.44" y="352.31">-</tspan><tspan x="-308.3" y="0">thing</tspan><tspan x="-308.31" y="110.1"> </tspan><tspan x="-308.3" y="121.11">that</tspan><tspan x="-308.31" y="209.19"> </tspan><tspan x="-308.3" y="220.2">matters.</tspan><tspan x="-308.31" y="396.35"> </tspan><tspan x="-322.32" y="0">Making</tspan><tspan x="-322.32" y="132.12"> </tspan><tspan x="-322.32" y="143.13">that</tspan><tspan x="-322.32" y="231.21"> </tspan><tspan x="-322.32" y="242.21">change</tspan><tspan x="-322.32" y="374.33"> </tspan><tspan x="-336.33" y="0">happen.BlogGive</tspan><tspan x="-336.33" y="330.29"> </tspan><tspan x="-336.33" y="341.3">it</tspan><tspan x="-336.33" y="385.34"> </tspan><tspan x="-350.35" y="0">away</tspan><tspan x="-350.35" y="88.08"> </tspan><tspan x="-350.35" y="99.09">now:</tspan><tspan x="-350.35" y="187.17"> </tspan><tspan x="-350.35" y="198.18">the</tspan><tspan x="-350.35" y="264.23"> </tspan><tspan x="-350.35" y="275.24">impor</tspan><tspan x="-351.49" y="385.34">-</tspan><tspan x="-364.36" y="0">tance</tspan><tspan x="-364.36" y="110.1"> </tspan><tspan x="-364.36" y="121.11">of</tspan><tspan x="-364.36" y="165.15"> </tspan><tspan x="-364.36" y="176.16">doing</tspan><tspan x="-364.36" y="286.25"> </tspan><tspan x="-364.36" y="297.26">good</tspan><tspan x="-364.36" y="385.34"> </tspan><tspan x="-378.37" y="0">(with</tspan><tspan x="-378.37" y="110.1"> </tspan><tspan x="-378.37" y="121.11">the</tspan><tspan x="-378.37" y="187.17"> </tspan><tspan x="-378.37" y="198.18">right</tspan><tspan x="-378.37" y="308.27"> </tspan><tspan x="-378.37" y="319.28">soft</tspan><tspan x="-379.52" y="407.36">-</tspan><tspan x="-392.39" y="0">ware)</tspan><tspan x="-392.39" y="110.1"> </tspan><tspan x="-406.4" y="0">In</tspan><tspan x="-406.4" y="44.04"> </tspan><tspan x="-406.4" y="55.05">a</tspan><tspan x="-406.4" y="77.07"> </tspan><tspan x="-406.4" y="88.08">2012</tspan><tspan x="-406.4" y="176.16"> </tspan><tspan x="-406.4" y="187.17">interview,</tspan><tspan x="-406.4" y="407.36"> </tspan><tspan x="-420.42" y="0">Geoff</tspan><tspan x="-420.42" y="110.1"> </tspan><tspan x="-420.42" y="121.11">McDonald,</tspan><tspan x="-420.42" y="319.28"> </tspan><tspan x="-420.42" y="330.29">who</tspan><tspan x="-420.42" y="396.35"> </tspan><tspan x="-420.42" y="407.36">at</tspan><tspan x="-420.42" y="451.4"> </tspan><tspan x="-434.43" y="0">the</tspan><tspan x="-434.43" y="66.06"> </tspan><tspan x="-434.43" y="77.07">time</tspan><tspan x="-434.43" y="165.15"> </tspan><tspan x="-434.43" y="176.16">was</tspan><tspan x="-434.43" y="242.21"> </tspan><tspan x="-434.43" y="253.22">the</tspan><tspan x="-434.43" y="319.28"> </tspan><tspan x="-448.44" y="0">global</tspan><tspan x="-448.44" y="132.12"> </tspan><tspan x="-448.44" y="143.13">vice</tspan><tspan x="-448.44" y="231.21"> </tspan><tspan x="-448.44" y="242.21">president</tspan><tspan x="-448.44" y="440.39"> </tspan><tspan x="-462.46" y="0">of</tspan><tspan x="-462.46" y="44.04"> </tspan><tspan x="-462.46" y="55.05">human</tspan><tspan x="-462.46" y="165.15"> </tspan><tspan x="-462.46" y="176.16">resources</tspan><tspan x="-462.46" y="374.33"> </tspan><tspan x="-462.46" y="385.34">at</tspan><tspan x="-462.46" y="429.38"> </tspan><tspan x="-476.47" y="0">Unilever,</tspan><tspan x="-476.47" y="198.18"> </tspan><tspan x="-476.47" y="209.19">spoke</tspan><tspan x="-476.47" y="319.28"> </tspan><tspan x="-476.47" y="330.29">of</tspan><tspan x="-476.47" y="374.33"> </tspan><tspan x="-490.48" y="0">something</tspan><tspan x="-490.48" y="198.18"> </tspan><tspan x="-490.48" y="209.19">he</tspan><tspan x="-490.48" y="253.22"> </tspan><tspan x="-490.48" y="264.23">believed</tspan><tspan x="-490.48" y="440.39"> </tspan><tspan x="-504.5" y="0">to</tspan><tspan x="-504.5" y="44.04"> </tspan><tspan x="-504.5" y="55.05">be</tspan><tspan x="-504.5" y="99.09"> </tspan><tspan x="-504.5" y="110.1">missing</tspan><tspan x="-504.5" y="264.23"> </tspan><tspan x="-504.5" y="275.24">when</tspan><tspan x="-504.5" y="363.32"> </tspan><tspan x="-504.5" y="374.33">it</tspan><tspan x="-504.5" y="418.37"> </tspan><tspan x="-518.51" y="0">came</tspan><tspan x="-518.51" y="88.08"> </tspan><tspan x="-518.51" y="99.09">to</tspan><tspan x="-518.51" y="143.13"> </tspan><tspan x="-518.51" y="154.14">organisations</tspan><tspan x="-518.51" y="440.39"> </tspan><tspan x="-532.53" y="0">and</tspan><tspan x="-532.53" y="66.06"> </tspan><tspan x="-532.53" y="77.07">corporate</tspan><tspan x="-532.53" y="275.24"> </tspan><tspan x="-532.53" y="286.25">social</tspan><tspan x="-532.53" y="418.37"> </tspan><tspan x="-546.54" y="0">responsibility</tspan><tspan x="-546.54" y="308.27"> </tspan><tspan x="-546.54" y="319.28">(CSR).</tspan><tspan class="cls-10"><tspan x="-560.55" y="0">“</tspan><tspan class="cls-11" x="-560.55" y="22.02">What</tspan><tspan class="cls-11" x="-560.55" y="110.1"> </tspan><tspan class="cls-11" x="-560.55" y="121.11">I</tspan><tspan class="cls-11" x="-560.55" y="143.13"> </tspan><tspan class="cls-11" x="-560.55" y="154.14">think</tspan><tspan class="cls-11" x="-560.55" y="264.23"> </tspan><tspan class="cls-11" x="-560.55" y="275.24">is</tspan><tspan class="cls-11" x="-560.55" y="319.28"> </tspan><tspan class="cls-11" x="-560.55" y="330.29">lack</tspan><tspan class="cls-11" x="-561.7" y="418.37">-</tspan></tspan><tspan x="-574.57" y="0">ing,</tspan><tspan x="-574.57" y="88.08"> </tspan><tspan x="-574.57" y="99.09">as</tspan><tspan x="-574.57" y="143.13"> </tspan><tspan x="-574.57" y="154.14">I</tspan><tspan x="-574.57" y="176.16"> </tspan><tspan x="-574.57" y="187.17">look</tspan><tspan x="-574.57" y="275.24"> </tspan><tspan x="-574.57" y="286.25">around,</tspan><tspan x="-574.57" y="440.39"> </tspan><tspan x="-588.58" y="0">is</tspan><tspan x="-588.58" y="44.04"> </tspan><tspan x="-588.58" y="55.05">that</tspan><tspan x="-588.58" y="143.13"> </tspan><tspan x="-588.58" y="154.14">aspect</tspan><tspan x="-588.58" y="286.25"> </tspan><tspan x="-588.58" y="297.26">of</tspan><tspan x="-588.58" y="341.3"> </tspan><tspan x="-588.58" y="352.31">how</tspan><tspan x="-588.58" y="418.37"> </tspan><tspan x="-602.6" y="0">can</tspan><tspan x="-602.6" y="66.06"> </tspan><tspan x="-602.6" y="77.07">you</tspan><tspan x="-602.6" y="143.13"> </tspan><tspan x="-602.6" y="154.14">shift</tspan><tspan x="-602.6" y="264.23"> </tspan><tspan x="-602.6" y="275.24">the</tspan><tspan x="-602.6" y="341.3"> </tspan><tspan x="-602.6" y="352.31">cul</tspan><tspan x="-603.74" y="418.37">-</tspan><tspan x="-616.61" y="0">ture</tspan><tspan x="-616.61" y="88.08"> </tspan><tspan x="-616.61" y="99.09">of</tspan><tspan x="-616.61" y="143.13"> </tspan><tspan x="-616.61" y="154.14">whatever</tspan><tspan x="-616.61" y="330.29"> </tspan><tspan x="-616.61" y="341.3">or</tspan><tspan x="-617.75" y="385.34">-</tspan><tspan x="-630.62" y="0">ganisation</tspan><tspan x="-630.62" y="220.2"> </tspan><tspan x="-630.62" y="231.21">you</tspan><tspan x="-630.62" y="297.26"> </tspan><tspan x="-630.62" y="308.27">are</tspan><tspan x="-630.62" y="374.33"> </tspan><tspan x="-630.62" y="385.34">a</tspan><tspan x="-630.62" y="407.36"> </tspan><tspan x="-644.64" y="0">part</tspan><tspan x="-644.64" y="88.08"> </tspan><tspan x="-644.64" y="99.09">of</tspan><tspan x="-644.64" y="143.13"> </tspan><tspan x="-644.64" y="154.14">to</tspan><tspan x="-644.64" y="198.18"> </tspan><tspan x="-644.64" y="209.19">really</tspan><tspan x="-644.64" y="341.3"> </tspan><tspan x="-644.64" y="352.31">get</tspan><tspan x="-644.64" y="418.37"> </tspan><tspan x="-658.65" y="0">your</tspan><tspan x="-658.65" y="88.08"> </tspan><tspan x="-658.65" y="99.09">employees</tspan><tspan x="-658.65" y="297.26"> </tspan><tspan class="cls-10" x="-658.65" y="308.27">…</tspan><tspan x="-658.65" y="330.29"> </tspan><tspan x="-658.65" y="341.3">to</tspan><tspan x="-658.65" y="385.34"> </tspan><tspan x="-658.65" y="396.35">a</tspan><tspan x="-658.65" y="418.37"> </tspan><tspan x="-672.67" y="0">stage</tspan><tspan x="-672.67" y="110.1"> </tspan><tspan x="-672.67" y="121.11">where</tspan><tspan x="-672.67" y="231.21"> </tspan><tspan x="-672.67" y="242.21">they</tspan><tspan x="-672.67" y="330.29"> </tspan><tspan x="-672.67" y="341.3">are</tspan><tspan x="-672.67" y="407.36"> </tspan><tspan x="-686.68" y="0">not</tspan><tspan x="-686.68" y="66.06"> </tspan><tspan x="-686.68" y="77.07">only</tspan><tspan x="-686.68" y="165.15"> </tspan><tspan x="-686.68" y="176.16">aware</tspan><tspan x="-686.68" y="286.25"> </tspan><tspan x="-686.68" y="297.26">around</tspan><tspan x="-686.68" y="429.38"> </tspan><tspan x="-700.69" y="0">sustainability</tspan><tspan x="-700.69" y="308.27"> </tspan><tspan x="-714.71" y="0">issues,</tspan><tspan x="-714.71" y="154.14"> </tspan><tspan x="-714.71" y="165.15">but</tspan><tspan x="-714.71" y="231.21"> </tspan><tspan x="-714.71" y="242.21">they</tspan><tspan x="-714.71" y="330.29"> </tspan><tspan x="-714.71" y="341.3">now</tspan><tspan x="-714.71" y="407.36"> </tspan><tspan x="-728.72" y="0">feel</tspan><tspan x="-728.72" y="88.08"> </tspan><tspan x="-728.72" y="99.09">engaged</tspan><tspan x="-728.72" y="253.22"> </tspan><tspan x="-728.72" y="264.23">to</tspan><tspan x="-728.72" y="308.27"> </tspan><tspan x="-728.72" y="319.28">take</tspan><tspan x="-728.72" y="407.36"> </tspan><tspan x="-742.73" y="0">action,</tspan><tspan class="cls-10" x="-742.73" y="154.14">”</tspan><tspan x="-742.73" y="176.16"> </tspan><tspan x="-742.73" y="187.17">he</tspan><tspan x="-742.73" y="231.21"> </tspan><tspan x="-742.73" y="242.21">said.</tspan><tspan x="-756.75" y="0">At</tspan><tspan x="-756.75" y="44.04"> </tspan><tspan x="-756.75" y="55.05">GoodUp,</tspan><tspan x="-756.75" y="209.19"> </tspan><tspan x="-756.75" y="220.2">we</tspan><tspan x="-756.75" y="264.23"> </tspan><tspan x="-756.75" y="275.24">stand</tspan><tspan x="-756.75" y="385.34"> </tspan><tspan x="-770.76" y="0">alongside</tspan><tspan x="-770.76" y="198.18"> </tspan><tspan x="-770.76" y="209.19">this</tspan><tspan x="-770.76" y="297.26"> </tspan><tspan x="-770.76" y="308.27">state</tspan><tspan x="-771.91" y="418.37">-</tspan><tspan x="-784.78" y="0">ment.</tspan><tspan x="-784.78" y="110.1"> </tspan><tspan x="-784.78" y="121.11">Acts</tspan><tspan x="-784.78" y="209.19"> </tspan><tspan x="-784.78" y="220.2">of</tspan><tspan x="-784.78" y="264.23"> </tspan><tspan x="-784.78" y="275.24">corpo</tspan><tspan x="-785.92" y="385.34">-</tspan><tspan x="-798.79" y="0">rate</tspan><tspan x="-798.79" y="88.08"> </tspan><tspan x="-798.79" y="99.09">giving</tspan><tspan x="-798.79" y="231.21"> </tspan><tspan x="-798.79" y="242.21">and</tspan><tspan x="-798.79" y="308.27"> </tspan><tspan x="-798.79" y="319.28">volun</tspan><tspan x="-799.94" y="429.38">-</tspan></text></g></g></svg>