<svg xmlns="http://www.w3.org/2000/svg" viewBox="0 0 1080 1080"><defs><style>.cls-1{fill:#2a1a57;}.cls-2{isolation:isolate;}.cls-3{fill:#f2f2f3;}.cls-4{fill:#818386;}.cls-5{fill:#e6e6e6;}.cls-6{fill:#cccccb;}.cls-7{fill:#4e983e;}.cls-8{fill:#c11b26;}.cls-9{fill:#d6d7d8;}.cls-10{fill:#180f3a;}.cls-11{fill:#fff;}.cls-12{fill:#4595d1;}.cls-13{fill:#231f20;}.cls-14{fill:#271e50;}.cls-15{fill:#4395d1;}.cls-16{fill:#911a1f;}.cls-17{fill:#da202c;}.cls-18{fill:#e52929;}.cls-19{fill:#4495d1;}</style></defs><title>Artboard 5</title><g id="Layer_5" data-name="Layer 5"><path class="cls-1" d="M373.56,821a10.73,10.73,0,0,1-4.2-.85l-226.8-95.27-22.77,65.53a10.85,10.85,0,0,1-20.49-7.12l26.57-76.44a10.83,10.83,0,0,1,14.44-6.44l229.32,96.33L486.07,627.23a10.84,10.84,0,0,1,17.87,12.28L382.5,816.25A10.82,10.82,0,0,1,373.56,821Z"/><path class="cls-1" d="M752.51,1021a11,11,0,0,1-3.75-.67L688.58,998.1a10.86,10.86,0,0,1-6.71-13l54.78-202.23L584.79,625.73a10.84,10.84,0,0,1,15.59-15.07L756.52,772.21a10.88,10.88,0,0,1,2.67,10.37L705.4,981.19,756.27,1000a10.85,10.85,0,0,1-3.76,21Z"/><path class="cls-1" d="M859.86,412.72a9.75,9.75,0,0,1-5.89-2L729.28,316.42a9.76,9.76,0,0,1,11.77-15.57l120.67,91.28,138.3-44a9.75,9.75,0,1,1,5.92,18.59L862.82,412.26A9.73,9.73,0,0,1,859.86,412.72Z"/><g class="cls-2"><path class="cls-3" d="M365.85,478.31,365.57,685a6,6,0,0,0,.44,2.29,5.05,5.05,0,0,0,1.2,1.76,4.63,4.63,0,0,0,1.79,1,4.93,4.93,0,0,0,2.18.19l379.61-50a5.47,5.47,0,0,0,2.06-.73,6.52,6.52,0,0,0,1.68-1.47,7.12,7.12,0,0,0,1.16-2,6.75,6.75,0,0,0,.45-2.33l3.29-199.92Z"/><path class="cls-4" d="M735,468.58a3.62,3.62,0,0,0-.83-1.31,3.33,3.33,0,0,0-2.79-1l-91.22,10.55a4.05,4.05,0,0,0-1.58.53,4.85,4.85,0,0,0-1.29,1.11,5.24,5.24,0,0,0-.89,1.52,5.31,5.31,0,0,0-.34,1.78l0,3v1.12l-.74,62.47h0l-.82,70a8.54,8.54,0,0,0,.57,3.22,7.14,7.14,0,0,0,1.63,2.49,6.34,6.34,0,0,0,2.43,1.51,6.55,6.55,0,0,0,3,.28l83.39-10.76a7.79,7.79,0,0,0,3-1.05,9.25,9.25,0,0,0,2.44-2.12,10.33,10.33,0,0,0,1.67-2.88,10,10,0,0,0,.65-3.35l1.08-69.42,1-66A4.42,4.42,0,0,0,735,468.58Z"/><path class="cls-3" d="M636.84,548.18l-.83,70a6.7,6.7,0,0,0,.46,2.58,5.55,5.55,0,0,0,1.3,2,5.17,5.17,0,0,0,1.94,1.21,5.42,5.42,0,0,0,2.39.22l83.39-10.75a6.38,6.38,0,0,0,2.38-.83,7.68,7.68,0,0,0,2-1.7,8.14,8.14,0,0,0,1.33-2.31,7.79,7.79,0,0,0,.52-2.68l1.08-69.43Z"/><path class="cls-4" d="M716.6,594.19a3.26,3.26,0,0,1,1.47.14,3.2,3.2,0,0,1,1.2.75,3.47,3.47,0,0,1,.79,1.24,4.16,4.16,0,0,1,.28,1.61,5.15,5.15,0,0,1-1.16,3.12,4.71,4.71,0,0,1-1.22,1.06,4,4,0,0,1-1.49.52l-64.18,8.21a3.33,3.33,0,0,1-1.49-.15,3.16,3.16,0,0,1-1.22-.75,3.49,3.49,0,0,1-.8-1.24,4.45,4.45,0,0,1-.29-1.62,5.08,5.08,0,0,1,.33-1.69,5.29,5.29,0,0,1,.84-1.46,4.77,4.77,0,0,1,1.23-1.06,3.88,3.88,0,0,1,1.51-.52Z"/><path class="cls-4" d="M616,482.38a3.73,3.73,0,0,0-.86-1.32,3.25,3.25,0,0,0-1.28-.81,3.45,3.45,0,0,0-1.58-.17L519,490.86a4,4,0,0,0-1.61.54,4.71,4.71,0,0,0-1.32,1.12,5.15,5.15,0,0,0-.9,1.54,5.38,5.38,0,0,0-.34,1.8l0,3V500l-.94,133.83a8.6,8.6,0,0,0,.59,3.26,7.43,7.43,0,0,0,1.68,2.51,6.72,6.72,0,0,0,2.49,1.52,6.87,6.87,0,0,0,3.05.28l85.2-11a8,8,0,0,0,3-1.06,9.52,9.52,0,0,0,2.48-2.14,10.79,10.79,0,0,0,1.7-2.92,10.2,10.2,0,0,0,.65-3.39l.77-70.12.73-66.69A4.69,4.69,0,0,0,616,482.38Z"/><path class="cls-3" d="M515.47,633.64a6.8,6.8,0,0,0,.47,2.6,5.86,5.86,0,0,0,1.34,2,5.23,5.23,0,0,0,2,1.21,5.39,5.39,0,0,0,2.45.23l85.2-11a6.37,6.37,0,0,0,2.42-.85,7.73,7.73,0,0,0,2-1.72,8.56,8.56,0,0,0,1.35-2.33,8,8,0,0,0,.51-2.71L614,551l-98,12Z"/><path class="cls-4" d="M597.73,609.29a3.45,3.45,0,0,1,1.51.14,3.3,3.3,0,0,1,1.22.76,3.58,3.58,0,0,1,.82,1.25,4.45,4.45,0,0,1,.29,1.62,4.85,4.85,0,0,1-.33,1.7,5.15,5.15,0,0,1-.84,1.46,4.71,4.71,0,0,1-1.25,1.07,3.9,3.9,0,0,1-1.51.53l-65.57,8.38a3.32,3.32,0,0,1-2.77-.9,3.6,3.6,0,0,1-.83-1.25,4.3,4.3,0,0,1-.3-1.63,5.14,5.14,0,0,1,.32-1.71,5.26,5.26,0,0,1,.86-1.47,4.47,4.47,0,0,1,1.26-1.08,3.83,3.83,0,0,1,1.53-.53Z"/><path class="cls-4" d="M494.29,496.48a4,4,0,0,0-.88-1.34,3.59,3.59,0,0,0-2.93-1l-95.26,11a4.31,4.31,0,0,0-1.64.55,4.91,4.91,0,0,0-1.35,1.14,5.6,5.6,0,0,0-.91,1.55,5.33,5.33,0,0,0-.33,1.82v4.2l-.31,135.22a8.57,8.57,0,0,0,.62,3.29,7.4,7.4,0,0,0,1.73,2.53,6.68,6.68,0,0,0,2.56,1.53,6.88,6.88,0,0,0,3.12.28l87.06-11.23a8.1,8.1,0,0,0,3.08-1.08,9.69,9.69,0,0,0,2.53-2.17,10.47,10.47,0,0,0,1.72-2.95,9.89,9.89,0,0,0,.65-3.42l.44-70.85.43-67.37A4.59,4.59,0,0,0,494.29,496.48Z"/><path class="cls-3" d="M392.27,649.45a6.72,6.72,0,0,0,.51,2.62,5.78,5.78,0,0,0,1.37,2,5.49,5.49,0,0,0,2.05,1.22,5.62,5.62,0,0,0,2.5.23l87.07-11.23a6.45,6.45,0,0,0,2.47-.86,7.55,7.55,0,0,0,2-1.73,8.19,8.19,0,0,0,1.37-2.36,7.93,7.93,0,0,0,.52-2.74l.44-70.85L392.44,578Z"/><path class="cls-4" d="M476.28,624.72a3.41,3.41,0,0,1,1.54.15,3.14,3.14,0,0,1,1.26.76,3.57,3.57,0,0,1,.84,1.26,4.13,4.13,0,0,1,.3,1.64,4.72,4.72,0,0,1-.32,1.71,5.08,5.08,0,0,1-.86,1.48,4.61,4.61,0,0,1-1.26,1.08,4.1,4.1,0,0,1-1.55.54l-67,8.57a3.67,3.67,0,0,1-1.56-.14,3.43,3.43,0,0,1-1.28-.77,3.55,3.55,0,0,1-.85-1.27,4.17,4.17,0,0,1-.32-1.64,5,5,0,0,1,.33-1.73,5.13,5.13,0,0,1,.86-1.49,4.91,4.91,0,0,1,1.28-1.09,4.13,4.13,0,0,1,1.57-.54Z"/><path class="cls-5" d="M366.05,326.58l395.8-39.46-2.42,146.71L365.85,478.31Z"/><path class="cls-4" d="M457,349a35.31,35.31,0,0,1,15.65,1.85,34.67,34.67,0,0,1,12.7,8.12A38.32,38.32,0,0,1,493.85,372a44.61,44.61,0,0,1,3,16.74,50.15,50.15,0,0,1-3.25,17.38A51.43,51.43,0,0,1,485,421a47.38,47.38,0,0,1-12.77,10.77,40.53,40.53,0,0,1-15.63,5.16,35.33,35.33,0,0,1-15.65-1.72,34.53,34.53,0,0,1-12.78-8,38.45,38.45,0,0,1-8.62-13.05,44.66,44.66,0,0,1-3.12-16.83,50.18,50.18,0,0,1,3.24-17.51,51.46,51.46,0,0,1,8.73-14.95A47.42,47.42,0,0,1,441.28,354,40.43,40.43,0,0,1,457,349Z"/><path class="cls-4" d="M675.18,326.6a32.57,32.57,0,0,1,27.17,9.84,37.56,37.56,0,0,1,8.06,12.85,44.74,44.74,0,0,1,2.78,16.44,51.08,51.08,0,0,1-11.71,31.61,46,46,0,0,1-12.37,10.55,38.45,38.45,0,0,1-15.06,5,32.63,32.63,0,0,1-27.24-9.62,37.53,37.53,0,0,1-8.17-12.83A44.66,44.66,0,0,1,635.78,374,50.51,50.51,0,0,1,639,356.77a51.16,51.16,0,0,1,8.52-14.65A46,46,0,0,1,660,331.55,38.41,38.41,0,0,1,675.18,326.6Z"/><path class="cls-4" d="M567.16,337.67a34.19,34.19,0,0,1,15.33,1.85,33.8,33.8,0,0,1,12.42,8.06,37.88,37.88,0,0,1,8.27,13,44.65,44.65,0,0,1,2.9,16.58,50.43,50.43,0,0,1-3.25,17.22,51.28,51.28,0,0,1-8.55,14.7,46.58,46.58,0,0,1-12.56,10.66,39.59,39.59,0,0,1-15.35,5.1,34.16,34.16,0,0,1-15.32-1.73,33.66,33.66,0,0,1-12.5-7.95,37.88,37.88,0,0,1-8.39-12.94,44.63,44.63,0,0,1-3-16.67,50.5,50.5,0,0,1,3.25-17.35A51.36,51.36,0,0,1,539,353.37a46.33,46.33,0,0,1,12.69-10.68A39.35,39.35,0,0,1,567.16,337.67Z"/><path class="cls-3" d="M366.29,144l-.24,182.57,395.8-39.46,2.9-176.46Z"/><polygon class="cls-6" points="365.85 478.31 315.09 453.83 315 304.63 366.05 326.58 365.85 478.31"/><path class="cls-5" d="M367.1,688.9a5.19,5.19,0,0,1-.82-1.09,5.34,5.34,0,0,1-.52-1.33,6.14,6.14,0,0,1-.19-1.52l.28-206.66-50.76-24.47.13,203.28a6,6,0,0,0,.19,1.49,5.19,5.19,0,0,0,.52,1.31,4.5,4.5,0,0,0,.81,1.07,4.56,4.56,0,0,0,1.05.8l50.37,27.92A4.55,4.55,0,0,1,367.1,688.9Z"/><polygon class="cls-5" points="366.05 326.58 315 304.63 314.89 125.14 366.29 144.01 366.05 326.58"/><path class="cls-1" d="M764.84,79.44a5.63,5.63,0,0,0-1.11-1.85,4.7,4.7,0,0,0-1.68-1.16,4.51,4.51,0,0,0-2.08-.31L372.09,107.35a5.61,5.61,0,0,0-2.24.67,6.59,6.59,0,0,0-1.83,1.5,7.37,7.37,0,0,0-1.24,2.1,7.14,7.14,0,0,0-.45,2.49l0,29.9,398.46-33.34.47-28.9A6.27,6.27,0,0,0,764.84,79.44Z"/><path class="cls-7" d="M402.16,117.56a4.29,4.29,0,0,1,3.48,1.31,5,5,0,0,1,1.05,1.63,5.83,5.83,0,0,1,.38,2.08,6.15,6.15,0,0,1-.39,2.14,6.47,6.47,0,0,1-1.06,1.8,5.53,5.53,0,0,1-1.57,1.29,4.77,4.77,0,0,1-1.92.58,4.37,4.37,0,0,1-1.92-.26,4.61,4.61,0,0,1-1.56-1,5.07,5.07,0,0,1-1-1.64,5.62,5.62,0,0,1-.38-2.08,6.05,6.05,0,0,1,.39-2.13,6.16,6.16,0,0,1,1.06-1.81,5.53,5.53,0,0,1,1.57-1.29A4.78,4.78,0,0,1,402.16,117.56Z"/><path class="cls-8" d="M383.24,119.11a4.24,4.24,0,0,1,1.92.27,4.56,4.56,0,0,1,1.57,1,5.07,5.07,0,0,1,1,1.64,5.62,5.62,0,0,1,.39,2.08,6.23,6.23,0,0,1-1.46,4,5.53,5.53,0,0,1-1.57,1.29,4.94,4.94,0,0,1-1.93.59,4.36,4.36,0,0,1-3.49-1.3,4.91,4.91,0,0,1-1.05-1.64,5.62,5.62,0,0,1-.39-2.08,6.11,6.11,0,0,1,.39-2.14,6,6,0,0,1,1.07-1.81,5.74,5.74,0,0,1,1.57-1.3A4.76,4.76,0,0,1,383.24,119.11Z"/><path class="cls-9" d="M749.38,85.72a6.45,6.45,0,0,1,3,.45,6.62,6.62,0,0,1,2.42,1.67,7.73,7.73,0,0,1,1.61,2.65,9.37,9.37,0,0,1,.55,3.36,10.31,10.31,0,0,1-2.35,6.37,9.08,9.08,0,0,1-2.48,2.08,7.46,7.46,0,0,1-3,.94,6.49,6.49,0,0,1-3-.44,6.87,6.87,0,0,1-2.43-1.67,7.82,7.82,0,0,1-1.61-2.65,9.21,9.21,0,0,1-.56-3.37,10.47,10.47,0,0,1,.66-3.46,10,10,0,0,1,1.71-2.92,8.93,8.93,0,0,1,2.48-2.08A7.6,7.6,0,0,1,749.38,85.72Z"/><path class="cls-10" d="M705.2,59.19l-.06,0h0l-.06,0H705l-.1,0-.07,0h-.08l-.1,0-.14,0-.1,0h-.86l-383,30.09a3.4,3.4,0,0,0-.46.06H320l-.16,0-.23,0-.14,0-.17,0-.13,0-.22.09-.15,0-.05,0-.28.14-.11,0,0,0,0,0-.09,0-.26.17-.08,0-.06,0-.12.08-.2.15-.09.07,0,0-.07,0-.19.17-.15.14,0,0h0l-.17.17-.16.18,0,0h0l0,0-.08.1-.15.19-.11.14v0l0,0-.14.21-.13.21,0,0,0,0s-.05.09-.07.14l-.14.25,0,.1,0,.06a.47.47,0,0,0-.05.1l-.12.27s0,.08,0,.12,0,0,0,0v0l0,.08c0,.09,0,.18-.08.27l-.08.24s0,0,0,0a2.82,2.82,0,0,0-.07.31,1.89,1.89,0,0,0,0,.23v0c0,.12,0,.24-.05.36s0,.14,0,.21v0c0,.2,0,.4,0,.6l0,29.4L366.29,144l0-29.9q0-.31,0-.63l0-.2c0-.14,0-.28.05-.42l.06-.24c0-.12.05-.24.08-.36s.05-.16.08-.25.07-.24.11-.36l0-.06c.06-.17.14-.34.21-.5l0-.07.26-.49,0,0c.1-.17.21-.33.32-.49l0,0c.11-.15.22-.3.34-.44l0,0,.39-.42,0,0c.13-.13.27-.25.41-.37l0,0c.14-.11.28-.22.42-.31l.07,0c.14-.09.28-.18.43-.26l.08,0a4.69,4.69,0,0,1,.45-.21l.14-.06.36-.13.18,0,.36-.09.17,0a4.68,4.68,0,0,1,.54-.07L760,76.12a2.82,2.82,0,0,1,.41,0h.41l.15,0,.25,0,.15,0,.33.08Z"/></g><path class="cls-11" d="M605.65,442.9l-10.57-23.44,30.28-18.88,21.36-2.26-.22,120.47,17.79-2,0,27.46-63.31,7.19.05-27.55,17.69-2,.16-87.84-13.18,8.83M481.17,456.09c.05-28.79,20.38-44.79,40.24-46.88,19.42-2,38.58,8.88,38.53,33.94,0,12.31-4,24-14.29,32.34,17.19,4.07,23.08,20,23.06,33.56-.06,28.44-19.46,50.38-47.58,53.58-30.61,3.48-45.31-13.4-47.88-25.92L497,522.13c2.37,7,9.71,15.31,22.82,13.84,12.68-1.42,20.43-11.86,20.45-24.39s-8.48-19.9-22.56-18.35l-4.17.45,0-23.41c9.92-1.08,18.85-7.79,18.87-20.34,0-8.29-5.32-13.67-11.86-13s-11.73,6.78-11.75,16.15l-27.65,3M442.93,332.32l-.46,246.41a11.65,11.65,0,0,0,13,11.6l225-25.82A15.54,15.54,0,0,0,694.2,549.1l.33-173.63L442.8,401.79l.13-69.47"/><path class="cls-12" d="M442.9,346.35l-.1,55.44,251.73-26.32.1-55.62a11.65,11.65,0,0,0-12.83-11.61L456.88,330.91A15.56,15.56,0,0,0,442.9,346.35Z"/><path class="cls-13" d="M521.41,409.21c-19.86,2.09-40.19,18.09-40.24,46.88l27.65-3c0-9.37,5.19-15.45,11.75-16.15s11.88,4.68,11.86,13c0,12.55-8.95,19.26-18.87,20.34l0,23.41,4.17-.45c14.08-1.55,22.59,5.8,22.56,18.35s-7.77,23-20.45,24.39c-13.11,1.47-20.45-6.86-22.82-13.84l-23.72,14.58c2.57,12.52,17.27,29.4,47.88,25.92,28.12-3.2,47.52-25.14,47.58-53.58,0-13.59-5.87-29.49-23.06-33.56,10.3-8.34,14.27-20,14.29-32.34,0-25.06-19.11-36-38.53-33.94"/><polyline class="cls-13" points="646.72 398.32 625.36 400.58 595.08 419.46 605.65 442.9 618.83 434.07 618.67 521.91 600.98 523.89 600.93 551.44 664.24 544.25 664.29 516.79 646.5 518.79 646.72 398.32"/><path class="cls-14" d="M510.89,376.61c3.51-.36,6.18-1.86,8.85-2.14,4.55-.47,4.78,6-3.91,6.87-5.94.62-7.56-1.86-6.22-4.71a7.9,7.9,0,0,0,1.28,0m5-16.68c-2.63.27-4.55-1.13-4.55-4.2s1.8-5,4.56-5.29,4.5,1.29,4.5,4.36a4.77,4.77,0,0,1-4.51,5.13m7.69-19.07-3.07,4.07a10.52,10.52,0,0,0-4.59-.48,12.1,12.1,0,0,0-11.1,11.95,10,10,0,0,0,2.51,7.17c-3.32,3.09-4.08,7.73-2.3,10.52-4.27,6.43-1.71,14.86,10.81,13.56,16.64-1.74,16.77-20.6,4.18-19.3-3.31.34-4.8,1.5-7.07,1.74-3.26.34-3.06-2-.93-4.15a14,14,0,0,0,3.86.08,12,12,0,0,0,11-11.89,9.62,9.62,0,0,0-2.15-6.24l2.87-3.36-4.05-3.67"/><path class="cls-14" d="M541.36,362.13c-3.46.35-5.87-2.32-5.86-6.29s2.33-7.06,5.88-7.43,5.81,2.32,5.81,6.24-2.34,7.12-5.83,7.48m0-20.33c-7.06.72-12.6,7.05-12.61,14.73s5.5,12.89,12.56,12.16,12.56-7.07,12.58-14.74-5.49-12.87-12.53-12.15"/><path class="cls-14" d="M568.41,359.34c-3.44.36-5.85-2.31-5.84-6.27s2.32-7.06,5.87-7.42,5.79,2.31,5.78,6.22-2.32,7.11-5.81,7.47m0-20.3c-7,.72-12.56,7-12.57,14.71s5.49,12.87,12.52,12.14,12.54-7.05,12.55-14.71-5.48-12.86-12.5-12.14"/><path class="cls-14" d="M595.18,356.64c-3.53.36-5.34-2.57-5.34-6.32s1.79-7,5.36-7.41c3.18-.33,5.29,2.31,5.28,6.27,0,3.53-2.16,7.13-5.3,7.46m12.11-34.79-6.86.69,0,16.41a8.23,8.23,0,0,0-6.95-2.46c-6.62.68-10.41,7.56-10.42,14.42s3.6,13.15,10.32,12.46a10.61,10.61,0,0,0,7.26-4.65v3.37l6.61-.68.07-39.56"/><path class="cls-11" d="M627.1,331.28a1.42,1.42,0,0,0-1,.61,2.29,2.29,0,0,0-.39,1.35,2,2,0,0,0,.39,1.26,1.09,1.09,0,0,0,1,.45,1.41,1.41,0,0,0,1.06-.63,2.46,2.46,0,0,0,.37-1.35,2.07,2.07,0,0,0-.36-1.28,1.12,1.12,0,0,0-1.06-.41m-7.65,4.6a1.24,1.24,0,0,0,.8-.45,1.63,1.63,0,0,0,.39-1.07v-4l1.84-.18,0,6.88-1.83.18v-.46a3.67,3.67,0,0,1,0-.49,2.5,2.5,0,0,1-1.94,1.31,1.84,1.84,0,0,1-1.66-.63,3,3,0,0,1-.65-2.09v-4.09l1.85-.19v4a1.39,1.39,0,0,0,.34,1,1,1,0,0,0,.84.3m6.27-5.37a2.64,2.64,0,0,1,1.85-1,2.14,2.14,0,0,1,2,.85,3.91,3.91,0,0,1,.75,2.43,4.65,4.65,0,0,1-.75,2.62,2.61,2.61,0,0,1-2,1.28,2.13,2.13,0,0,1-1.93-.85v4.43l-1.76.18,0-10.41,1.83-.18v.69m-2.4-10.22c-6.8.68-12.32,7.18-12.34,14.52s5.49,12.71,12.29,12,12.31-7.2,12.32-14.52-5.48-12.71-12.27-12"/><path class="cls-15" d="M622.48,330.15l-1.84.18v4a1.63,1.63,0,0,1-.39,1.07,1.24,1.24,0,0,1-.8.45,1,1,0,0,1-.84-.3,1.39,1.39,0,0,1-.34-1v-4l-1.85.19v4.09a3,3,0,0,0,.65,2.09,1.84,1.84,0,0,0,1.66.63,2.5,2.5,0,0,0,1.94-1.31,3.67,3.67,0,0,0,0,.49v.46l1.83-.18,0-6.88"/><path class="cls-15" d="M627.09,335a1.09,1.09,0,0,1-1-.45,2,2,0,0,1-.39-1.26,2.29,2.29,0,0,1,.39-1.35,1.42,1.42,0,0,1,1-.61,1.12,1.12,0,0,1,1.06.41,2.07,2.07,0,0,1,.36,1.28,2.46,2.46,0,0,1-.37,1.35,1.41,1.41,0,0,1-1.06.63m.48-5.48a2.64,2.64,0,0,0-1.85,1v-.69l-1.83.18,0,10.41,1.76-.18V335.8a2.13,2.13,0,0,0,1.93.85,2.61,2.61,0,0,0,2-1.28,4.65,4.65,0,0,0,.75-2.62,3.91,3.91,0,0,0-.75-2.43,2.14,2.14,0,0,0-2-.85"/><path class="cls-16" d="M772.9,125.23c-1.55-3.11-8.34-7.77-8.34-7.77L366.05,154.08h0L315,134.46s-8.3,2.42-9.86,7.86,61.15,22.53,61.15,22.53l0-.84C385.62,162.32,774.42,128.26,772.9,125.23Z"/><path class="cls-17" d="M359.37,156.8l-46.83-18.63a5.42,5.42,0,0,0-7.24,3.56,65.68,65.68,0,0,0-.39,34.36,15.49,15.49,0,0,0,8.62,10.18l41,18.53a46.68,46.68,0,0,0,24.17,3.88L761.27,167.8A15.51,15.51,0,0,0,775,154.94a72.7,72.7,0,0,0-1.26-28,5.45,5.45,0,0,0-5.81-4.22L373.7,158.87A31,31,0,0,1,359.37,156.8Z"/><path class="cls-1" d="M622.55,291.89c-10.28,0-18.65-10.11-18.65-22.53s8.37-22.53,18.65-22.53,18.65,10.11,18.65,22.53S632.83,291.89,622.55,291.89Zm0-38.85c-6.85,0-12.43,7.32-12.43,16.32s5.58,16.32,12.43,16.32S635,278.36,635,269.36,629.41,253,622.55,253Z"/><path class="cls-14" d="M608,230.36a5.4,5.4,0,0,0,4.79-5.68c-1-13.61,9.43-26,23.33-27.64s26.06,8.14,27.09,21.75a4.9,4.9,0,0,0,5.57,4.47,5.41,5.41,0,0,0,4.79-5.68c-1.46-19.21-18.61-33-38.22-30.68s-34.38,19.78-32.91,39a4.9,4.9,0,0,0,5.56,4.47"/><path class="cls-14" d="M476.08,245.78a5.42,5.42,0,0,0,4.79-5.68c-1-13.62,9.43-26,23.33-27.64s26.05,8.13,27.09,21.75a4.91,4.91,0,0,0,5.56,4.47,5.41,5.41,0,0,0,4.79-5.68c-1.46-19.21-18.6-33-38.21-30.69s-34.38,19.79-32.92,39a4.92,4.92,0,0,0,5.57,4.47"/><path class="cls-18" d="M700,233.66a14.26,14.26,0,0,0-12.63,15A12.93,12.93,0,0,0,702,260.41a14.26,14.26,0,0,0,12.63-15A13,13,0,0,0,700,233.66"/><path class="cls-18" d="M446.33,259.66a14.26,14.26,0,0,0-12.64,15,12.94,12.94,0,0,0,14.67,11.78,14.26,14.26,0,0,0,12.64-15,12.93,12.93,0,0,0-14.67-11.78"/><path class="cls-19" d="M368.47,269a15.54,15.54,0,0,1-31.08,0c0-8.58,15.54-38.07,15.54-38.07S368.47,260.39,368.47,269Z"/><path class="cls-11" d="M362.43,260.81a15.8,15.8,0,0,1,.6,3.63,13.88,13.88,0,0,1-13.85,13.86,13.66,13.66,0,0,1-3.92-.58A11.63,11.63,0,0,0,364.58,269C364.58,267.31,363.75,264.38,362.43,260.81Z"/><path class="cls-1" d="M77,463.68a9.76,9.76,0,0,1-6.45-17.08L179,351.18a9.78,9.78,0,0,1,5.68-2.4l151.8-11.93A9.76,9.76,0,0,1,338,356.31L189.45,368l-106,93.27A9.71,9.71,0,0,1,77,463.68Z"/></g></svg>