<svg xmlns="http://www.w3.org/2000/svg" xmlns:xlink="http://www.w3.org/1999/xlink" viewBox="0 0 1080 1080"><defs><style>.cls-1,.cls-3{fill:none;}.cls-2{fill:#faac19;}.cls-3{clip-path:url(#clip-path);}.cls-4{fill:#6ca5d9;}.cls-5{fill:#da202c;}.cls-6{fill:#271e50;}.cls-7{fill:#5a9dd5;}.cls-8{fill:#4395d1;}.cls-9{fill:#599dd5;}.cls-10{fill:#59aa47;}.cls-11{fill:#e52929;}.cls-12{fill:#f68d61;}.cls-13{clip-path:url(#clip-path-2);}.cls-14{clip-path:url(#clip-path-3);}.cls-15{fill:#f79226;}.cls-16{fill:#371b14;}</style><clipPath id="clip-path"><rect class="cls-2" x="1135.67" y="361.92" width="280.83" height="401.18"/></clipPath><clipPath id="clip-path-2"><path class="cls-1" d="M1160.6,669.72l58-27.32c5.85,16.59,23.9,37.56,56.09,37.56,31.21,0,50.23-22,50.23-50.72s-21-47.8-55.6-47.8h-10.24V527.79c24.39,0,46.33-13.17,46.33-41.94,0-19-13.16-32.68-29.26-32.68s-28.77,12.68-28.77,34.14h-67.8c0-65.84,49.75-97.54,98.52-97.54,47.8,0,95.11,29.75,95.11,87.3,0,28.29-9.76,54.14-35.12,70.72,42.43,13.65,57.06,51.7,57.06,82.91,0,65.35-47.79,110.71-117,110.71C1203,741.41,1166.94,699,1160.6,669.72Z"/></clipPath><clipPath id="clip-path-3"><rect class="cls-3" x="1135.67" y="361.92" width="280.83" height="401.18"/></clipPath></defs><title>Artboard 1</title><g id="Layer_1" data-name="Layer 1"><path class="cls-4" d="M822,637.64s-1.86-38.69-13.65-35.06c-48.68,14.95-37.35,77.66-49.14,81.33s-50.71,19.53-70.61,28.68l.21,7.87,7.09,7.16s81.48-9,92.47-20.47C803.29,691.51,822,637.64,822,637.64Z"/><path class="cls-5" d="M692,673.85,769.88,324l71,15.8-25,112.44c-2.34,10.5-5.79,21.27-6.12,22.77A135.75,135.75,0,0,1,825,458l105.78-98.13,80.46,17.92L889.08,490.63l62.75,241.1-84-18.7L832.18,557.69c-2.49-10-3.88-20.28-3.88-20.28-.49-.11-7.72,8.77-14.89,15.05l-24.66,21.25L762.92,689.65Z"/><path class="cls-6" d="M694.93,752a1.78,1.78,0,0,1-1.64-1c-2.47-4.85-14-30.64-13.78-33.4.31-3.13,9.72-5.26,9.72-5.26a26.11,26.11,0,0,0,2.4,8.49c1.16,2.57,4.16,5.52,5.23,8.51C700.29,739,702.79,751.57,694.93,752Z"/><path class="cls-7" d="M826,625.69s-47.1-11.58-47.72.83c-2.53,51.2,59.71,61.42,59.14,73.84s1,54.69,2.85,76.65l7.42,2.48,9.09-4.29S876,695,869,680.65C859.41,661.17,826,625.69,826,625.69Z"/><path class="cls-6" d="M879.15,784.39a1.75,1.75,0,0,1-1.47,1.21c-5.37.7-33.38,2.89-35.87,1.69-2.81-1.35-1.61-11-1.61-11a25.65,25.65,0,0,0,8.74.62c2.79-.23,6.56-2.07,9.72-2.06C868.82,774.89,881.44,776.81,879.15,784.39Z"/><path class="cls-6" d="M827.77,630.12l-49.4-3.57s6.35-75.23,12.89-83.55,21.26-37.59,34.3-10.22C848,579.8,827.77,630.12,827.77,630.12Z"/><ellipse class="cls-8" cx="806.23" cy="518.52" rx="29.15" ry="31.42" transform="matrix(1, -0.05, 0.05, 1, -22.91, 37.48)"/><path class="cls-4" d="M817.3,450.53s-2.67-8.06-6.1-6,2.14,10.08,2.14,10.08Z"/><path class="cls-7" d="M829.32,459.82s9.3-8.55-.76-15.18-15.45,9.8-15.45,9.8Z"/><path class="cls-6" d="M789.38,564.58c.62-42,23.73-110.14,23.73-110.14l16.21,5.38L814.15,563"/><path class="cls-7" d="M565.77,469s7.5-5,9.09-1.1-8.35,7.08-8.35,7.08Z"/><path class="cls-6" d="M515.37,583.22c26.74-35.74,51.41-108.17,51.41-108.17L549.57,469l-54.11,96.66"/><path class="cls-7" d="M549.57,469s-2.32-13.28,10.49-12.27,6.72,18.35,6.72,18.35Z"/><path class="cls-7" d="M521.47,448.16s-3.61-8.27-7.07-5.81,3.23,10.46,3.23,10.46Z"/><path class="cls-4" d="M515.68,631.11s-14.29-43.73-24.58-35.46c-49.75,40-4.73,78.79-16.82,109.77-15.35,39.32-19.28,66.85-18.79,90.26l7.76,3.12,10-4s24.84-63.34,31.22-79.07C513.14,694.4,515.68,631.11,515.68,631.11Z"/><path class="cls-6" d="M496.57,806.05a1.9,1.9,0,0,1-1.65,1.19c-5.77.38-35.83.88-38.41-.55-2.92-1.61-1-11.77-1-11.77a27.45,27.45,0,0,0,9.3,1.23c3,0,7.14-1.76,10.52-1.54C486.16,795.3,499.52,798.16,496.57,806.05Z"/><path class="cls-9" d="M518.52,627.07s-52.11-10.74-50,2.29c8.59,53.78,76.25,63.77,78.39,76.8s-.06,41.53-2.21,64.85l7.36,4,10.37-2.8s23.7-80.18,13.2-93.51C561.33,660.54,518.52,627.07,518.52,627.07Z"/><path class="cls-6" d="M584.33,785.93a1.9,1.9,0,0,1-1.77,1c-5.79-.27-35.71-3.16-38.12-4.87-2.72-1.93.33-11.8.33-11.8a27.65,27.65,0,0,0,9.1,2.26c3,.28,7.29-.95,10.62-.35C575.19,774.08,588.14,778.42,584.33,785.93Z"/><path class="cls-6" d="M525,631.3l-56.81-2.47,18.14-83.19s24.69-38.78,37.19-9.07C545,587.63,525,631.3,525,631.3Z"/><path class="cls-10" d="M696.56,402.58c13.64,96.31-20.65,197.35-133,243.78l-29.62-55.78c77.3-31.12,93.59-98.59,93.59-98.59l-1.16-.87c-15.44,18.74-34.64,29.22-62.52,33.17C495.4,534,444.7,486.35,435.58,422c-10.06-71,31.8-136.88,110.88-148.09C629.09,262.18,684.7,318.93,696.56,402.58Zm-189.65,8.25c4.74,33.46,29.33,61,67.35,55.61,39-5.53,55.94-39.47,51.13-73.43-4.74-33.46-30-61.94-69-56.41C518.87,341.91,502.17,377.37,506.91,410.83Z"/><path class="cls-8" d="M534.81,516.54A34.91,34.91,0,0,0,529,497c-5.63-8.43-9.54,9.61-31.55-12.4-2.21-2.2-25,13.27-25,31.7s13.85,33.43,31.08,33.49S534.75,535,534.81,516.54Z"/><path class="cls-11" d="M549.9,473.44c7,3.88-60.17,67.77-69.75,64.49-3.53-1.21-24.66-30.88-3.49-47.18s36.38,2.59,43.65,1S542.3,469.22,549.9,473.44Z"/><path class="cls-6" d="M502.6,571.55c-3.34-44.51,14.78-118.84,14.78-118.84l17.78,4.12-6.31,110.59"/><path class="cls-7" d="M535.16,456.83s9.1-9.95-2.25-16-15.53,11.87-15.53,11.87Z"/><ellipse class="cls-7" cx="477.49" cy="489.42" rx="5.07" ry="3.16" transform="translate(-197.96 383.1) rotate(-36.76)"/><path class="cls-12" d="M186.16,610.13c-8.3-96.92,31.53-195.91,146.28-236.06l26.5,57.34C280,458.21,260,524.67,260,524.67l1.1.93c16.46-17.85,36.21-27.25,64.27-29.65,68.87-5.9,116.86,44.46,122.4,109.25,6.12,71.42-39.32,134.92-118.9,141.73C245.76,754.05,193.37,694.3,186.16,610.13ZM376,612.38c-2.88-33.67-25.91-62.53-64.17-59.25-39.28,3.36-58,36.31-55.11,70.49,2.88,33.67,26.51,63.51,65.79,60.14C360.23,680.53,378.86,646.05,376,612.38Z"/><path class="cls-9" d="M150.75,611.68s-18.6-12.25-20.51-.15c-3,19,5.46,69.14-3.23,77.78s-36.5,47-49.81,64.18L81,760.27l9.5,3s74.94-56.37,79.35-71.49C175.83,671.23,150.75,611.68,150.75,611.68Z"/><path class="cls-6" d="M108.5,774.68c.27.62.32,1.58-.31,1.82C97,780.92,70.39,771.38,68.82,767c-1-2.85,8.79-14.11,8.79-14.11a24.31,24.31,0,0,0,5.79,6.2c2.12,1.67,6,2.8,8.24,4.88C98.82,770.7,105.34,767.6,108.5,774.68Z"/><path class="cls-4" d="M177.72,616.66s-46.3-14-47.51-1.86c-5,50.28,56.37,63.72,55.21,75.92s-1.62,53.88-.89,75.58l7.24,2.8,9.21-3.78s23-78.05,16.7-92.49C209.16,653.2,177.72,616.66,177.72,616.66Z"/><path class="cls-6" d="M222.75,775.44a1.74,1.74,0,0,1-1.51,1.13c-5.35.42-33.23,1.23-35.64-.07-2.73-1.46-1.07-10.9-1.07-10.9a25.51,25.51,0,0,0,8.64,1c2.77-.08,6.6-1.71,9.74-1.55C213,765.59,225.4,768.09,222.75,775.44Z"/><path class="cls-6" d="M178.68,621.11l-48.8-5.89s3.58-45.55,24.32-78.34c0,0,28.77-.89,29.73,2.64C197.5,589.53,178.68,621.11,178.68,621.11Z"/><ellipse class="cls-8" cx="174.92" cy="509.63" rx="33.7" ry="31.49" transform="translate(-357.85 590.05) rotate(-79.64)"/><path class="cls-6" d="M154.2,543.56c39.78-11.5,122.16-11.33,122.16-11.33L276,549.16,174.38,564.45"/><path class="cls-7" d="M281.26,535.08s6.82-4.86,3.93-7.53-8.88,4.92-8.88,4.92Z"/><path class="cls-4" d="M276,549.16s10.77,6.36,14.1-5.09-13.73-11.84-13.73-11.84Z"/></g><g id="Layer_2" data-name="Layer 2"><g class="cls-13"><rect class="cls-2" x="1135.67" y="361.92" width="280.83" height="401.18"/><g class="cls-14"><path class="cls-15" d="M1122.7,706.88a12.33,12.33,0,0,0-.64-3.81c0-.17-.1-.34-.14-.52a7,7,0,0,0-.19-.69c-1.54-4.21-.47-7.74,3.31-10.86l.13-.1-1-8.56h-.29c-.51,0-1,.09-1.5.14a11.31,11.31,0,0,1-3.23.07c-3.33-.58-5.57-3.32-5.84-7.17-.06-.84-.07-1.7-.09-2.54,0-.39,0-.79,0-1.18v-.11l-.08-.08-.26-.33a3.83,3.83,0,0,0-.7-.75c-2.41-1.86-5.32-4.5-6.49-8.51l-.16-.56-.38.45c-.52.62-1,1.29-1.47,1.93a20.68,20.68,0,0,1-2.48,3,5.31,5.31,0,0,1-4.14,1.81c-1.47-.18-2.89-1.29-4.21-3.32a48.87,48.87,0,0,1-2.56-4.65c-.38-.77-.77-1.54-1.18-2.3l-.21-.44a3.49,3.49,0,0,0-.93-1.35l-.15-.12-.17.07a21.92,21.92,0,0,0-3.66,2.17,18.28,18.28,0,0,1-4.1,2.34l-.25.08,0,.26c.11.67.25,1.34.39,2a17.86,17.86,0,0,1,.54,3.79v.15c0,1.93-.21,3.73-2,4.58a5.48,5.48,0,0,1-5.75-.5c-1.12-.78-2.47-1.56-4.19-.8l-.19.09v14.62l.34,0c2.73-.23,5.77-.89,7.7-4,.63-1,1.76-1.47,3.43-1.38,3.56.2,6.66,3.41,6.43,6.74a4.91,4.91,0,0,1-1.64,3.34c-1,1-2.19,1.94-3.3,2.84-.88.71-1.78,1.44-2.63,2.21a5.45,5.45,0,0,0-1.06,6.87l2.47,4.17a4.42,4.42,0,0,1,.17,4.72l-.14.24.22.17a4.09,4.09,0,0,0,4.88.1,10.07,10.07,0,0,0,4.2-5,15.1,15.1,0,0,1,5.33-6.56c2.69-1.95,7.76-1.39,9.69,1.08l.17.21.23-.13a8.21,8.21,0,0,1,4.42-1.27c2.27.09,3.39,1,3.85,3.2a10.54,10.54,0,0,1,.21,2.18,29.26,29.26,0,0,1-.25,3.24l-.15,1.32c-.11,1.16-.2,2.2-.2,3.27a12.19,12.19,0,0,0,.38,3.21c.43,1.63,1.18,2.15,1.75,2.3s1.4.08,2.49-1C1121.09,713.59,1122.7,710.39,1122.7,706.88Zm-23.24-14.13c-4.18-1-6.49-4-6.49-8.49v-.08c0-.11,0-.24,0-.4,0-.4.1-1,.2-1.51a30.19,30.19,0,0,1,2.85-8.26,2.44,2.44,0,0,1,1.93-1.41,3.15,3.15,0,0,1,2.73,1.16c3.3,3.86,4.77,7.21,4.77,10.86,0,.49,0,1-.08,1.48a9.15,9.15,0,0,1-1.94,5.28A3.8,3.8,0,0,1,1099.46,692.75Z"/><path class="cls-15" d="M1078.89,419.17l.29-.42-.5-.07a16.49,16.49,0,0,1-4.68-1.41c-1.94-.91-2.36-2.14-1.48-4.14a8.28,8.28,0,0,1,1.29-2c1-1.2,1.87-2.28,2.64-3.31a5.93,5.93,0,0,0,1.12-5.12c-.43-1.79-1.23-2.4-1.83-2.59s-1.57-.18-2.93,1a9.38,9.38,0,0,0-1.13,1.14,3.72,3.72,0,0,1-2.88,1.42h-.31v14.26l.17.09a4.82,4.82,0,0,1,2.25,4.12,3.82,3.82,0,0,1-.05.68c-.07.4-.17.82-.28,1.22,0,.19-.1.37-.14.56l-.14.59.56-.22C1073.64,423.8,1076.76,422.24,1078.89,419.17Z"/><path class="cls-15" d="M1097,481.27c1-.11,2.09-.24,3.13-.29a8,8,0,0,0,3.85-1.1,55.91,55.91,0,0,0,6.57-5l1.82-1.51c3.68-3,6.38-3.13,10-.41l.33.24.15-.37.27-.64c.2-.45.4-.92.57-1.4a10.32,10.32,0,0,0,.63-3.32c0-2.44-1.23-4.29-3.86-5.82a16.5,16.5,0,0,0-2.82-1.18l-.41-.14c-.82-.28-.85-.53-.77-1h0a1.34,1.34,0,0,0,.84-1.23l.21-1.41L1116,459l0,0a9.36,9.36,0,0,1-8.08,1.86l-1.25-.25a36.22,36.22,0,0,1-7.26-1.94c-2.95-1.23-3.89-2.5-3.89-5.21a16,16,0,0,1,.1-1.73,12.82,12.82,0,0,1,2.77-6.65l.23-.29-.32-.18a4.91,4.91,0,0,0-5.15.24c-.46.27-.91.58-1.35.88l-.59.4-.17.11,0,.2c1,5.74-.61,10.07-4.93,13.33-2.74,2.07-5.5,3.9-9.09,3.58l-.26,0-.07.25a1.84,1.84,0,0,1-.7.88,3.63,3.63,0,0,0-.65.65,2.46,2.46,0,0,0-.57,1.36c0,.9,1,1.2,1.38,1.31a19.18,19.18,0,0,0,2.57.52l.21,0,1,.14a9.31,9.31,0,0,1,3.17.8l.24.1a2,2,0,0,1,.3.14,1.42,1.42,0,0,1-.24.22l-.68.49.84.07c4.34.34,6.28,2.14,6.91,6.44,0,.29.09.58.14.87l.09.52c.47,2.77,1.46,3.54,4.24,3.3C1095.62,481.44,1096.33,481.36,1097,481.27Zm5.36-8.13a3.47,3.47,0,0,1-2.35-2.07,5.74,5.74,0,0,1-.5-2.34,5.87,5.87,0,0,1,1.54-4,3.15,3.15,0,0,1,2.37-.81,6.17,6.17,0,0,0,.92-.1c1.95,0,3,.9,3.19,2.65q0,.36,0,.72a6.59,6.59,0,0,1-2.39,5.12A3.23,3.23,0,0,1,1102.4,473.14Z"/><path class="cls-16" d="M1088.66,406.7a10.93,10.93,0,0,0-4-6.37,6.18,6.18,0,0,1-2.37-5.64,8.59,8.59,0,0,0-5.09-9,9.64,9.64,0,0,0-8.4-.51v18.77a4,4,0,0,0,3.11-1.53,10.38,10.38,0,0,1,1.09-1.11c2-1.72,3.63-1.16,4.26,1.47a5.62,5.62,0,0,1-1.07,4.86c-.84,1.12-1.72,2.21-2.63,3.28a8.76,8.76,0,0,0-1.33,2.1c-1,2.14-.46,3.58,1.63,4.55a16.8,16.8,0,0,0,4.76,1.44C1086.43,419.28,1090,413.29,1088.66,406.7Z"/><path class="cls-16" d="M1080.5,705.81q-1.24-2.09-2.47-4.17a5.16,5.16,0,0,1,1-6.48c1.93-1.74,4.07-3.24,5.94-5a5.29,5.29,0,0,0,1.73-3.55c.24-3.49-3-6.87-6.72-7.07a3.79,3.79,0,0,0-3.72,1.52c-1.75,2.81-4.45,3.57-7.45,3.83v25.33c3.13,3.2,8.76,4.17,11.86.68A4.71,4.71,0,0,0,1080.5,705.81Z"/><path class="cls-16" d="M1102.66,370.77c2.82-1.56,4.31-4.32,6.24-6.67a2.78,2.78,0,0,0,.89-2.4h-30.66a27.24,27.24,0,0,1,.15,6.51c-.67,4.37,1.89,6.45,5.89,4.71a8.08,8.08,0,0,1,8.12.58c.18.11.38.19.54.31,2.43,1.72,4.44,1.17,6.91-1.24A10.15,10.15,0,0,1,1102.66,370.77Z"/><path class="cls-16" d="M1080.89,667.2c0-2.05-.62-4-.93-6a5.1,5.1,0,0,1-.83-1.82,39.85,39.85,0,0,0-4-8.71c-1.48-2.19-3.25-4.06-6.28-3.69v23.77c1.47-.65,2.65-.09,3.88.77a5.8,5.8,0,0,0,6.07.52C1080.68,671.11,1080.86,669.12,1080.89,667.2Z"/><path class="cls-16" d="M1070.74,424.63c.15-.61.33-1.2.43-1.81a5.19,5.19,0,0,0-2.36-5.13v9.7A11.05,11.05,0,0,0,1070.74,424.63Z"/><path class="cls-16" d="M1120.93,634.4a20.27,20.27,0,0,0,3-4.94,6.25,6.25,0,0,1,3.63-3.65,51.2,51.2,0,0,1,5.88-2.06,17.18,17.18,0,0,0,4.82-2.18,5.27,5.27,0,0,0,2.76-4.76,9.92,9.92,0,0,0-4.14-7.92c-2.51-2-5.31-3.55-7.57-5.94a17.47,17.47,0,0,1-4.8-9.71c-.5-3.34-.06-6.66-.06-10,0-4.9-1.22-9.1-6.34-11.07-3.43-1.31-7-2.14-10.52-.87-4.08,1.49-5.93,4.09-4.67,8.8A28.54,28.54,0,0,0,1104,583c2.23,3.11,5.31,5.42,7.81,8.25s5,5.27,6.54,8.66a14.24,14.24,0,0,0,1.09,1.89c3.34,5.11,3,10.49,1,15.89-1.36,3.68-4.52,4.27-7,1.23-2.73-3.39-6.36-5.54-9.77-8-4.22-3.08-9.18-4.88-13.36-8a6.67,6.67,0,0,1-1.86-2.24c-.53-1-.13-1.35.86-1.29a17.61,17.61,0,0,1,5.07,1.54c1.9.72,3.89,1.45,5.58-.12s1.51-3.51,1-5.54a7.42,7.42,0,0,0-2.25-3.69c-2.67-2.38-4.82-5.35-8-7.14-.17-.09-.27-.3-.41-.45-1.46-.91-2.49-2.35-4-3.16-5.91-3.07-10.8,0-11.13,6.38-.21,4.18,1.9,7.45,5.29,9.88a4.51,4.51,0,0,1,1.07,6.45,13.07,13.07,0,0,1-4.73,3.75,1.6,1.6,0,0,0-1,1.53,8.12,8.12,0,0,0,3.22,7.1,22.33,22.33,0,0,0,8.87,4.1c4.65.92,8.12,3.69,11.31,6.76,2.3,2.22,4.37,4.68,6.83,6.79a14.87,14.87,0,0,0,6.84,3.52C1116,637.7,1118.84,637.09,1120.93,634.4Z"/><path class="cls-16" d="M1110.84,495.58c1.11-2.09,2.65-3.42,5.14-3.38a3.77,3.77,0,0,0,1.83-.35c3.31-1.71,5.85-4.08,6.92-7.79,1.2-4.16.86-8-2.17-11.34-3.8-2.88-6.66-2.6-10.35.42a79.21,79.21,0,0,1-8.35,6.47,7.6,7.6,0,0,1-3.71,1.06c-1.76.09-3.51.37-5.28.52-2.62.22-3.47-.45-3.9-3-.07-.46-.16-.92-.23-1.39-.65-4.41-2.74-6.36-7.2-6.7-5,1.15-7.65,4.65-6.91,9.47.35,2.25.84,4.58,2.36,6.37,2,2.4,2.89,5.39,4.29,8.09s4.48,3.3,6.49,1c.61-.71,1.16-1.48,1.8-2.15,2.25-2.34,4.43-2.42,6.36-.15a21,21,0,0,1,2.89,4.25,4.73,4.73,0,0,0,6.74,2.06A8.05,8.05,0,0,0,1110.84,495.58Z"/><path class="cls-16" d="M1094.82,555.38c1-1.71,1.94-3.44,3-5.09,2.38-3.59,5.07-7,6.19-11.29a55.43,55.43,0,0,0,1.46-9.23c.34-3.94.82-7.88,1.06-11.82.15-2.46-1-3.84-3.33-4.66a23,23,0,0,0-4.72-.92c-2.58-.36-5-1.8-7.65-1.47-2.82-.33-5.35.35-7.08,2.68a19.16,19.16,0,0,0-2.78,5.53,23.82,23.82,0,0,1-4.37,8,19.59,19.59,0,0,0-3.78,6,5.5,5.5,0,0,0,.81,5.62,37.34,37.34,0,0,0,5,5.15,8.82,8.82,0,0,1,3.45,7.14,19.27,19.27,0,0,0,1.11,6.58,4.5,4.5,0,0,0,5.61,2.9A11,11,0,0,0,1094.82,555.38Zm-9.4-14.12c-2.06-6.76-1.58-13.26,2.49-19.26a2.91,2.91,0,0,1,1.31-1.06c.22-.28.41-.61.82-.66a.87.87,0,0,1,.44-.76,5.36,5.36,0,0,1,7.79,2.35c1.46,1.82,1.53,4,1.64,6.2a13.71,13.71,0,0,1-1.66,7.85,18.52,18.52,0,0,1-8.45,7.3A3,3,0,0,1,1085.42,541.26Z"/><path class="cls-16" d="M1091.35,446.46c-1.19-1.66-2.43-3.12-4.82-2.76-3.47.53-5.81,2.66-6.19,6.18a7.48,7.48,0,0,1-4.47,6.44,14.64,14.64,0,0,0-1.45.91c-1.72,1.09-2.05,2.22-1.23,4a3.86,3.86,0,0,0,3.81,2.45c3.7.33,6.51-1.54,9.3-3.64C1090.93,456.6,1092.3,452,1091.35,446.46Z"/><path class="cls-16" d="M1103.05,739.24c3.26-4.24.06-9.3-1.86-12.32-.4-.64-.75-1.19-1-1.62-1-1.86-3.85-2.53-6-2.53-3,0-5.46,1-6.71,2.71a13.4,13.4,0,0,1-4.18,3.48,18.15,18.15,0,0,0-3.72,2.79,9.56,9.56,0,0,0-2.89,6.77c.06,2.81,1.53,5.58,4.37,8.23a6.69,6.69,0,0,0,4.73,1.76c7.23,0,16.76-8.78,17.16-9.16Z"/><path class="cls-16" d="M1111.87,756.08c.11-6.7-6.46-13.06-9.55-12.27s-3.76,7.7-5.4,10.4-.9,8.34-3.29,9.55-4.65-.59-5.4-3.79-7.43-8-10.56-6.66-.24,15.05-.24,15.05h32.67C1110.87,768.53,1111.75,762.78,1111.87,756.08Z"/></g></g></g></svg>