<?xml version="1.0" encoding="utf-8"?>
<!-- Generator: Adobe Illustrator 22.0.1, SVG Export Plug-In . SVG Version: 6.00 Build 0)  -->
<svg version="1.1" xmlns="http://www.w3.org/2000/svg" xmlns:xlink="http://www.w3.org/1999/xlink" x="0px" y="0px"
	 viewBox="0 0 340.2 510.2" style="enable-background:new 0 0 340.2 510.2;" xml:space="preserve">
<style type="text/css">
	.st0{fill:#3C96DC;}
	.st1{fill:#FAB814;}
	.st2{fill:#281E50;}
	.st3{fill:#AAA9A9;}
	.st4{fill:#5D5D5D;}
	.st5{fill:#C1C1C1;}
	.st6{fill:none;stroke:#281E50;stroke-width:3.5;stroke-linecap:round;stroke-miterlimit:10;}
	.st7{fill:#E62828;}
	.st8{fill:#CBCBCB;}
	.st9{fill:#656767;}
	.st10{fill:#FFFFFF;}
	.st11{fill:none;stroke:#281E50;stroke-width:2;stroke-miterlimit:10;}
	.st12{fill:none;stroke:#656767;stroke-width:3;stroke-miterlimit:10;}
	.st13{opacity:0.3;}
	.st14{fill:#E5E5E5;}
	.st15{fill:none;stroke:#FFFFFF;stroke-width:0.5;stroke-miterlimit:10;}
	.st16{fill:#991613;}
	.st17{fill:#A8A8A8;}
	.st18{fill:#B4AEAD;}
	.st19{opacity:0.2;fill:#E62828;}
	.st20{fill:none;stroke:#FFFFFF;stroke-miterlimit:10;}
	.st21{opacity:0.4;fill:#FFFFFF;}
	.st22{fill:#FBB42A;}
	.st23{fill:#C0C1C2;}
	.st24{fill:#818386;}
	.st25{fill:none;stroke:#281E50;stroke-miterlimit:10;}
	.st26{fill:none;stroke:#656767;stroke-miterlimit:10;}
	.st27{opacity:0.5;fill:url(#SVGID_1_);}
	.st28{fill:#4FA0DF;}
	.st29{fill:#FF8C64;}
	.st30{fill:#64A03C;}
	.st31{opacity:0.3;fill:#FFFFFF;}
	.st32{opacity:0.8;fill:#C1C1C1;}
	.st33{fill-rule:evenodd;clip-rule:evenodd;fill:#FFFFFF;}
	.st34{fill:#262728;}
	.st35{fill:#9ACAE5;}
	.st36{font-family:'Edmondsans-Bold';}
	.st37{font-size:13.4838px;}
	.st38{font-size:13.7084px;}
	.st39{fill-rule:evenodd;clip-rule:evenodd;fill:#3C96DC;}
	.st40{fill:#E26B4B;}
</style>
<g id="Laag_1">
</g>
<g id="Laag_2">
	<g>
		<ellipse class="st34" cx="174.4" cy="455.9" rx="122" ry="50.5"/>
		<path class="st1" d="M246.7,51.3c0,0,10.4,11.9,14.9,14c4.1,1.9,10.1,5.6,20.5,6.9c3.4,0.4,11.6,4.1,14.1,5.8
			c4.5,3.2,15.4,15,15.4,15l27.2-34.5c0,0-2.5-4.8-4.9-8c-2.8-3.6-5.8-5.8-8-7.4c-2.4-1.7-5.8-3.7-9.8-5.1
			c-3.9-1.4-9.6-2.6-13.8-3.7c-1.6-0.4-2.3-1-3.6-1.3c-3.6-0.9-6.2-2.8-8.4-4.3c-1.5-1.1-5.1-2.9-7.7-5.5c-4.1-3.9-7.2-8.7-7.2-8.7
			L246.7,51.3z"/>
		<g>
			<path class="st2" d="M220.5,86.9l56.8-69.9c-0.2-1.4-3.1-3.9-4.5-3.5L216,83.4C216,84.8,219.1,87.1,220.5,86.9z"/>
		</g>
		<path class="st1" d="M93.4,52.9c0,0-10.4,11.9-14.9,14c-4.1,1.9-10.1,5.6-20.5,6.9c-3.4,0.4-11.6,4.1-14.1,5.8
			c-4.5,3.2-15.4,15-15.4,15L1.4,60.2c0,0,2.5-4.8,4.9-8c2.8-3.6,5.8-5.8,8-7.4c2.4-1.7,5.8-3.7,9.8-5.1c3.9-1.4,9.6-2.6,13.8-3.7
			c1.6-0.4,2.3-1,3.6-1.3c3.6-0.9,6.2-2.8,8.4-4.3c1.5-1.1,5.1-2.9,7.7-5.5c4.1-3.9,7.2-8.7,7.2-8.7L93.4,52.9z"/>
		<g>
			<path class="st2" d="M119.7,88.5L62.8,18.7c0.2-1.4,3.1-3.9,4.5-3.5L124.2,85C124.2,86.4,121.1,88.7,119.7,88.5z"/>
		</g>
		<ellipse class="st4" cx="174.4" cy="451.3" rx="122" ry="50.5"/>
		<path class="st10" d="M124.6,454.9c-7.2-0.1-6.2-6.8-6.2-8c0-88.9,0-294.7,0-383.6c0-23.3,18.2-45.1,41.1-49.4
			c29.9-5.7,57.3,13.7,61.9,43.7c0.3,1.7,0.2,3.4,0.2,5.2c0,75,0,310.8,0.1,385.8c0,3.1-0.8,4.6-3.8,5.5
			C207.2,457.6,124.6,454.9,124.6,454.9z"/>
		<rect x="118.4" y="252.9" class="st35" width="103.4" height="80"/>
		<rect x="118.4" y="103.3" class="st35" width="103.4" height="80"/>
		<path class="st4" d="M167.7,80.4c0.8-0.8,4-0.8,4.8,0v371.4h-4.8V80.4z"/>
		<text transform="matrix(1 0 0 1 180.2591 136.6939)"><tspan x="0" y="0" class="st2 st36 st37">extra</tspan><tspan x="0" y="16.2" class="st2 st36 st37">good</tspan></text>
		<path class="st5" d="M206.3,464.8c-12.8,12.8-59.6,12.8-72.5,0c-8.7-8.7,0-49.2,0-49.2h72.5C206.3,415.7,215,456.2,206.3,464.8z"
			/>
		<ellipse class="st4" cx="170.1" cy="415.7" rx="36.2" ry="10.2"/>
		<path class="st5" d="M182.8,416.5c-4.5,6.1-20.8,6.1-25.3,0c-3-4.2,0-15.5,0-15.5h25.3C182.8,401,185.8,412.3,182.8,416.5z"/>
		<ellipse class="st4" cx="170.1" cy="401" rx="12.7" ry="4.9"/>
		<g class="st13">
			<path class="st4" d="M185.4,121.2c3.3,8.3-0.8,17.7-9.1,21c-8.3,3.3-17.7-0.8-21-9.1c-3.3-8.3,0.8-17.7,9.1-21
				C172.8,108.8,182.2,112.9,185.4,121.2"/>
		</g>
		<g>
			<path class="st0" d="M184.5,121.7c3.1,7.7-0.7,16.5-8.5,19.6c-7.7,3.1-16.5-0.7-19.6-8.5c-3.1-7.7,0.7-16.5,8.5-19.6
				C172.7,110.2,181.4,114,184.5,121.7"/>
			<path class="st10" d="M168.1,124l2.8,7.1l-2,0.8l-0.2-0.5c0-0.1-0.1-0.3-0.2-0.5c-0.2,1-0.8,1.7-1.7,2c-0.8,0.3-1.5,0.3-2.2-0.1
				c-0.7-0.4-1.2-1-1.6-1.9l-1.7-4.2l2.1-0.8l1.6,4.1c0.2,0.5,0.5,0.8,0.8,1c0.4,0.2,0.7,0.2,1.1,0c0.3-0.1,0.6-0.4,0.7-0.7
				c0.2-0.4,0.2-0.8,0-1.2l-1.7-4.2L168.1,124z"/>
			<path class="st10" d="M175.5,127.4c0.5-0.2,0.8-0.5,1-1c0.1-0.5,0.1-1-0.1-1.5c-0.2-0.6-0.5-1-1-1.2c-0.4-0.2-0.9-0.3-1.4-0.1
				c-0.5,0.2-0.8,0.5-0.9,1c-0.2,0.5-0.1,1,0.1,1.5c0.2,0.5,0.5,0.9,1,1.2C174.5,127.6,175,127.6,175.5,127.4 M175.9,133.4l-2,0.8
				l-4.3-10.8l2-0.8l0.3,0.7c0.3-0.8,0.9-1.4,1.7-1.7c0.9-0.4,1.8-0.3,2.7,0.2c0.8,0.5,1.5,1.3,1.9,2.3c0.4,1,0.5,2,0.2,3
				c-0.3,1-0.9,1.6-1.8,2c-0.8,0.3-1.7,0.3-2.6-0.2L175.9,133.4z"/>
		</g>
		<g>
			<path class="st0" d="M182.4,401.8c-1.2,3-7.8,5.2-14.6,4.7c-6.8-0.4-11.3-3.2-10.1-6.3c1.2-3,7.8-5.2,14.6-4.7
				C179.1,396,183.6,398.8,182.4,401.8"/>
			<path class="st10" d="M169.8,399.6l-1.1,2.8l-1.8-0.1l0.1-0.2c0,0,0.1-0.1,0.1-0.2c-0.6,0.3-1.3,0.4-2.1,0.3
				c-0.7,0-1.2-0.2-1.5-0.4c-0.3-0.2-0.4-0.5-0.3-0.9l0.7-1.7l1.8,0.1l-0.7,1.6c-0.1,0.2,0,0.3,0.2,0.5c0.2,0.1,0.4,0.2,0.8,0.2
				c0.3,0,0.6,0,0.8-0.1c0.3-0.1,0.5-0.2,0.5-0.4l0.7-1.6L169.8,399.6z"/>
			<path class="st10" d="M173.5,402c0.4,0,0.8,0,1.1-0.1c0.3-0.1,0.5-0.3,0.6-0.5c0.1-0.2,0-0.4-0.1-0.6c-0.2-0.2-0.5-0.2-1-0.3
				c-0.4,0-0.8,0-1.1,0.1c-0.3,0.1-0.5,0.3-0.6,0.5c-0.1,0.2,0,0.4,0.2,0.5C172.8,401.9,173.1,402,173.5,402 M171.2,404l-1.7-0.1
				l1.7-4.2l1.8,0.1l-0.1,0.3c0.6-0.2,1.2-0.3,2-0.2c0.8,0.1,1.4,0.2,1.8,0.6c0.4,0.3,0.5,0.7,0.3,1.1c-0.2,0.4-0.5,0.7-1.1,1
				c-0.6,0.3-1.3,0.4-2.2,0.3c-0.7,0-1.3-0.2-1.7-0.5L171.2,404z"/>
		</g>
		<text transform="matrix(1 0 0 1 130.0159 370.6587)" class="st2 st36 st38">good</text>
		<text transform="matrix(1 0 0 1 178.4078 288.3571)"><tspan x="0" y="0" class="st2 st36 st37">pretty</tspan><tspan x="0" y="16.2" class="st2 st36 st37">good</tspan></text>
		<text transform="matrix(1 0 0 1 124.7138 211.205)"><tspan x="0" y="0" class="st2 st36 st37">super</tspan><tspan x="3.6" y="16.2" class="st2 st36 st37">good</tspan></text>
		<g>
			<path class="st2" d="M146.6,50.2l1.5-1.7l2,1.8l-1.4,1.4c0.7,0.8,1.1,1.8,1.1,2.9c0,2.9-2.4,4.9-5.3,4.9c-0.7,0-1.3-0.1-1.9-0.2
				c-1,0.9-1.1,1.9,0.5,1.9c1.1,0,1.8-0.5,3.4-0.5c6.1,0,6.1,8.5-2,8.5c-6.1,0-7.3-3.9-5.3-6.6c-0.9-1.3-0.5-3.4,1.1-4.7
				c-0.8-0.8-1.2-2-1.2-3.4c0-2.9,2.4-4.9,5.4-4.9C145.2,49.7,145.9,49.9,146.6,50.2z M141.4,64c-0.6,1.2,0.1,2.4,3,2.4
				c4.2,0,4.1-2.9,1.9-2.9c-1.3,0-2.6,0.6-4.3,0.6C141.8,64,141.6,64,141.4,64z M144.4,56.7c1.3,0,2.2-0.7,2.2-2.1
				c0-1.4-0.9-2.2-2.2-2.2c-1.3,0-2.2,0.8-2.2,2.2C142.2,56,143.1,56.7,144.4,56.7z"/>
			<path class="st2" d="M150.7,55.8c0-3.5,2.7-6.1,6.1-6.1c3.4,0,6.1,2.6,6.1,6.1c0,3.5-2.7,6.1-6.1,6.1
				C153.3,61.9,150.7,59.3,150.7,55.8z M159.6,55.8c0-1.8-1.1-3.1-2.8-3.1c-1.7,0-2.9,1.3-2.9,3.1c0,1.8,1.2,3.1,2.9,3.1
				C158.5,58.9,159.6,57.6,159.6,55.8z"/>
			<path class="st2" d="M163.8,55.8c0-3.5,2.7-6.1,6.1-6.1c3.4,0,6.1,2.6,6.1,6.1c0,3.5-2.7,6.1-6.1,6.1
				C166.5,61.9,163.8,59.3,163.8,55.8z M172.8,55.8c0-1.8-1.1-3.1-2.8-3.1c-1.7,0-2.9,1.3-2.9,3.1c0,1.8,1.2,3.1,2.9,3.1
				C171.6,58.9,172.8,57.6,172.8,55.8z"/>
			<path class="st2" d="M185.7,61.7v-1.5c-0.9,1.1-2.2,1.8-3.5,1.8c-3.3,0-5.1-3-5.1-6.1c0-3.1,1.8-6.1,5.1-6.1
				c1.3,0,2.5,0.5,3.4,1.4v-7.5h3.4v18H185.7z M185.6,55.8c0-1.8-1-3.1-2.6-3.1c-1.7,0-2.6,1.4-2.6,3.1c0,1.7,0.9,3.1,2.6,3.1
				C184.5,58.9,185.6,57.4,185.6,55.8z"/>
			<g>
				<circle class="st39" cx="196.8" cy="49.7" r="6"/>
				<g>
					<g>
						<path class="st10" d="M196.4,48.2v3.1h-0.9v-0.2c0-0.1,0-0.1,0-0.2c-0.2,0.3-0.6,0.5-0.9,0.5c-0.3,0-0.6-0.1-0.8-0.4
							c-0.2-0.2-0.3-0.6-0.3-1v-1.9h0.9V50c0,0.2,0.1,0.4,0.2,0.5c0.1,0.1,0.2,0.2,0.4,0.2c0.1,0,0.3-0.1,0.4-0.2
							c0.1-0.1,0.2-0.3,0.2-0.5v-1.8H196.4z"/>
						<path class="st10" d="M197.9,52.9h-0.9v-4.7h0.9v0.3c0.2-0.3,0.5-0.4,0.9-0.4c0.4,0,0.7,0.2,1,0.5c0.2,0.3,0.4,0.7,0.4,1.1
							c0,0.4-0.1,0.8-0.4,1.2c-0.2,0.3-0.6,0.5-1,0.5c-0.4,0-0.7-0.2-0.9-0.5V52.9z M198.6,50.6c0.2,0,0.4-0.1,0.5-0.2
							c0.1-0.2,0.2-0.4,0.2-0.6c0-0.2-0.1-0.4-0.2-0.6c-0.1-0.2-0.3-0.2-0.5-0.2c-0.2,0-0.4,0.1-0.5,0.2c-0.1,0.2-0.2,0.4-0.2,0.6
							c0,0.2,0.1,0.4,0.2,0.6S198.4,50.6,198.6,50.6z"/>
					</g>
				</g>
			</g>
		</g>
		<g>
			<polygon class="st29" points="252.2,472.1 218,491.2 204,460.2 241.3,448 			"/>
			
				<ellipse transform="matrix(0.9108 -0.4128 0.4128 0.9108 -177.512 129.4949)" class="st40" cx="211" cy="475.6" rx="10.5" ry="17.2"/>
			
				<ellipse transform="matrix(0.9108 -0.4128 0.4128 0.9108 -167.8779 142.8533)" class="st29" cx="246.7" cy="460" rx="10.6" ry="13.2"/>
			<path class="st29" d="M204,398.4c-1.7-0.7-6.1,1.3-6.7,3.1l25.5,56.3l6.7-3.1L204,398.4z"/>
		</g>
		<g>
			<g>
				<g>
					<circle class="st7" cx="170.7" cy="11.9" r="8"/>
				</g>
			</g>
			<path class="st10" d="M172.6,8.8c-0.8,0-1.5,0.4-1.9,1.1c-0.4-0.7-1.1-1.1-1.9-1.1c-1.2,0-2.2,1-2.2,2.2c0,1.8,3.1,5.2,4.1,5.2
				s4.1-3.5,4.1-5.2C174.8,9.8,173.9,8.8,172.6,8.8z"/>
		</g>
		<g>
			<g>
				<g>
					<circle class="st7" cx="190.3" cy="15.1" r="8"/>
				</g>
			</g>
			<path class="st10" d="M193.2,13c-0.7-0.3-1.6-0.2-2.2,0.3c-0.1-0.7-0.6-1.4-1.3-1.7c-1.1-0.5-2.4,0.1-2.9,1.3
				c-0.7,1.6,1,6,1.8,6.4c0.9,0.4,5.1-1.7,5.7-3.3C194.9,14.7,194.4,13.4,193.2,13z"/>
		</g>
		<g>
			<g>
				<g>
					<circle class="st7" cx="205.8" cy="24.1" r="8"/>
				</g>
			</g>
			<path class="st10" d="M209.1,22.7c-0.7-0.5-1.5-0.5-2.2-0.2c0.1-0.8-0.3-1.5-0.9-2c-1-0.7-2.4-0.4-3.1,0.6
				c-1,1.4-0.5,6.1,0.3,6.6c0.8,0.5,5.4-0.5,6.4-1.9C210.3,24.8,210.1,23.4,209.1,22.7z"/>
		</g>
		<g>
			<g>
				<g>
					<circle class="st7" cx="217" cy="40.3" r="8"/>
				</g>
			</g>
			<path class="st10" d="M220.6,39.9c-0.5-0.6-1.3-0.9-2-0.8c0.3-0.7,0.2-1.5-0.4-2.1c-0.8-0.9-2.2-1.1-3.1-0.3
				c-1.4,1.1-2.1,5.7-1.5,6.5c0.6,0.7,5.3,0.9,6.6-0.1C221.2,42.2,221.4,40.8,220.6,39.9z"/>
		</g>
		<g>
			<g>
				<g>
					<circle class="st7" cx="222.1" cy="57.8" r="8"/>
				</g>
			</g>
			<path class="st10" d="M225.6,58.8c-0.2-0.8-0.8-1.3-1.5-1.5c0.5-0.5,0.8-1.3,0.5-2.1c-0.3-1.2-1.6-1.9-2.7-1.5
				c-1.7,0.5-4.2,4.4-4,5.3c0.3,0.9,4.5,3,6.1,2.6C225.2,61.2,225.9,60,225.6,58.8z"/>
		</g>
		<g>
			<g>
				<g>
					<circle class="st7" cx="150.5" cy="14.8" r="8"/>
				</g>
			</g>
			<path class="st10" d="M147.5,12.7c0.7-0.3,1.6-0.2,2.2,0.3c0.1-0.7,0.6-1.4,1.3-1.7c1.1-0.5,2.4,0.1,2.9,1.3c0.7,1.6-1,6-1.8,6.4
				c-0.9,0.4-5.1-1.7-5.7-3.3C145.8,14.4,146.4,13.1,147.5,12.7z"/>
		</g>
		<g>
			<g>
				<g>
					<circle class="st7" cx="135" cy="23.9" r="8"/>
				</g>
			</g>
			<path class="st10" d="M131.6,22.4c0.7-0.5,1.5-0.5,2.2-0.2c-0.1-0.8,0.3-1.5,0.9-2c1-0.7,2.4-0.4,3.1,0.6c1,1.4,0.5,6.1-0.3,6.6
				c-0.8,0.5-5.4-0.5-6.4-1.9C130.4,24.5,130.6,23.1,131.6,22.4z"/>
		</g>
		<g>
			<g>
				<g>
					<circle class="st7" cx="123.8" cy="40.1" r="8"/>
				</g>
			</g>
			<path class="st10" d="M120.1,39.6c0.5-0.6,1.3-0.9,2-0.8c-0.3-0.7-0.2-1.5,0.4-2.1c0.8-0.9,2.2-1.1,3.1-0.3
				c1.4,1.1,2.1,5.7,1.5,6.5c-0.6,0.7-5.3,0.9-6.6-0.1C119.5,41.9,119.4,40.5,120.1,39.6z"/>
		</g>
		<g>
			<g>
				<g>
					<circle class="st7" cx="118.7" cy="57.5" r="8"/>
				</g>
			</g>
			<path class="st10" d="M115.2,58.6c0.2-0.8,0.8-1.3,1.5-1.5c-0.5-0.5-0.8-1.3-0.5-2.1c0.3-1.2,1.6-1.9,2.7-1.5
				c1.7,0.5,4.2,4.4,4,5.3s-4.5,3-6.1,2.6C115.6,60.9,114.8,59.7,115.2,58.6z"/>
		</g>
	</g>
</g>
</svg>
