<svg xmlns="http://www.w3.org/2000/svg" xmlns:xlink="http://www.w3.org/1999/xlink" viewBox="0 0 1080 1080"><defs><style>.cls-1{fill:none;}.cls-2{fill:#59aa47;}.cls-3,.cls-5{fill:#a7d49d;}.cls-4{clip-path:url(#clip-path);}.cls-5{fill-rule:evenodd;}</style><clipPath id="clip-path"><path class="cls-1" d="M1014.76,703.76C696.34,648.22,383.64,799.6,65.24,743.59Q97.12,549.25,129,354.93C404.75,403,675.38,272.74,951.15,320.44Q983,512.1,1014.76,703.76Z"/></clipPath></defs><title>Artboard 4</title><g id="Layer_7" data-name="Layer 7"><path class="cls-2" d="M1014.76,703.76C696.34,648.22,383.64,799.6,65.24,743.59Q97.12,549.25,129,354.93C404.75,403,675.38,272.74,951.15,320.44Q983,512.1,1014.76,703.76Z"/><path class="cls-2" d="M65.24,743.59v9.78a5,5,0,0,0,4.16,4.94C384.81,812,694.67,663.93,1010.09,717a4,4,0,0,0,4.67-3.94v-9.26C697.91,649.52,382.07,798.37,65.24,743.59Z"/><path class="cls-3" d="M956.09,350.23C677,302,403.11,433.83,124,385.14l5-30.21C404.75,403,675.38,272.74,951.15,320.44Q953.61,335.34,956.09,350.23Z"/><path class="cls-3" d="M1014.76,703.76C696.34,648.22,383.64,799.6,65.24,743.59l5-30.21C385.28,768.78,694.71,619,1009.82,674Q1012.28,688.87,1014.76,703.76Z"/><path class="cls-3" d="M65.24,743.59Q97.12,549.25,129,354.93c9.23,1.73,18.53,3.25,27.84,4.54Q127.11,554.16,97.39,748.83C86.63,747.23,76,745.49,65.24,743.59Z"/><path class="cls-3" d="M982.61,698.56Q953,507.25,923.31,315.94c9.3,1.28,18.61,2.78,27.84,4.5Q983,512.1,1014.76,703.76C1004.05,701.87,993.37,700.14,982.61,698.56Z"/><g class="cls-4"><path class="cls-3" d="M199.45,364.64c-5.34,39.37-40.95,74.61-82.53,66.9s-65.23-53.63-57.61-93.27c7.31-38.09,43.54-66,82.53-58.77C181.17,286.76,204.65,326.31,199.45,364.64Z"/><path class="cls-3" d="M146.62,754.72c-6,44.17-50.34,73.47-93.38,65.49-43.26-8-77-51.69-68.47-95.94,8.18-42.66,53.3-63.51,93.38-56.1C118.84,675.69,152.46,711.73,146.62,754.72Z"/><path class="cls-3" d="M1021.77,338.27c7.62,38-19.43,65.45-57.62,57.73-40-8.09-76.33-43.13-82.53-84.1-5.3-35,18.59-73.33,57.62-65.85C980.83,254,1013.84,298.83,1021.77,338.27Z"/><path class="cls-3" d="M1096.31,724.27c9.2,45.68-31.91,60.9-68.47,55.06-41.52-6.63-86.53-40.92-93.39-85.51-6.24-40.6,29-71.94,68.47-64.45C1047,637.75,1087.54,680.74,1096.31,724.27Z"/></g><path class="cls-5" d="M620,518.71c1.3,45.49-36,85.22-80,92.14-43,6.76-81.42-23.36-80-67.88,1.42-43.56,36.59-85.29,80-92.12C582.18,444.21,618.82,476.58,620,518.71Z"/><path class="cls-2" d="M534.81,511q0,20.35-.08,40.7L523,553.51l0-2.75a23.63,23.63,0,0,1,.27-2.88c-3.1,4.87-7.27,7.71-12.47,8.51q-6.48,1-10.6-3.13c-2.75-2.74-4.07-6.8-4-12.14l.39-24.24,11.67-1.78c-.12,9.42-.17,14.13-.29,23.55q0,4.1,2.1,6a6.17,6.17,0,0,0,5.33,1.43,8.81,8.81,0,0,0,5.17-3,10,10,0,0,0,2.5-6.48c.06-9.54.1-14.32.16-23.86Z"/><path class="cls-2" d="M555.24,569.34l-11.42,1.78-.07-61.52,11.58-1.79,0,4.08a18.3,18.3,0,0,1,11.71-6.81q8-1.24,12.87,4.28t5,14.07a27,27,0,0,1-4.49,15.73,18.16,18.16,0,0,1-12.88,8.27,13.53,13.53,0,0,1-12.47-4.24Zm9.13-31.75a9.5,9.5,0,0,0,6.7-4.12,13.83,13.83,0,0,0,2.29-8.1,11.05,11.05,0,0,0-2.43-7.43q-2.35-2.67-6.75-2a9.57,9.57,0,0,0-6.46,4,13.33,13.33,0,0,0-2.45,8.13,10.62,10.62,0,0,0,2.59,7.23A6.83,6.83,0,0,0,564.37,537.59Z"/><path class="cls-2" d="M534.81,511q0,20.35-.08,40.7L523,553.51l0-2.75a23.63,23.63,0,0,1,.27-2.88c-3.1,4.87-7.27,7.71-12.47,8.51q-6.48,1-10.6-3.13c-2.75-2.74-4.07-6.8-4-12.14l.39-24.24,11.67-1.78c-.12,9.42-.17,14.13-.29,23.55q0,4.1,2.1,6a6.17,6.17,0,0,0,5.33,1.43,8.81,8.81,0,0,0,5.17-3,10,10,0,0,0,2.5-6.48c.06-9.54.1-14.32.16-23.86Z"/><path class="cls-2" d="M555.24,569.34l-11.42,1.78-.07-61.52,11.58-1.79,0,4.08a18.3,18.3,0,0,1,11.71-6.81q8-1.24,12.87,4.28t5,14.07a27,27,0,0,1-4.49,15.73,18.16,18.16,0,0,1-12.88,8.27,13.53,13.53,0,0,1-12.47-4.24Zm9.13-31.75a9.5,9.5,0,0,0,6.7-4.12,13.83,13.83,0,0,0,2.29-8.1,11.05,11.05,0,0,0-2.43-7.43q-2.35-2.67-6.75-2a9.57,9.57,0,0,0-6.46,4,13.33,13.33,0,0,0-2.45,8.13,10.62,10.62,0,0,0,2.59,7.23A6.83,6.83,0,0,0,564.37,537.59Z"/><path class="cls-3" d="M715.57,398.94c-117.23,12-232.84,35.71-350.06,47.66-10.75,1-18.57-8.05-17.69-18.45q2.44-32.82,4.9-65.65c125.9-11.24,249.73-38.22,375.63-49.46q2.45,32.18,4.9,64.35A20.16,20.16,0,0,1,715.57,398.94Z"/><path class="cls-2" d="M380.38,424.55l.4-6.41c1.67-.17,2.5-.26,4.17-.45.5-8.17.74-12.26,1.24-20.44L383,399.31l-2.13-5.45,7.29-4.41,5-.55L391.54,417l4.22-.49c-.15,2.57-.22,3.85-.36,6.41C389.39,423.58,386.39,423.91,380.38,424.55Z"/><path class="cls-2" d="M414.75,385.85c9-1.12,13.62,5.59,13.17,15.87-.45,10-5.81,18.37-14.92,19.5s-13.76-6-13.21-16C400.35,395,405.71,387,414.75,385.85Zm-1.43,28.82c5-.62,7.79-5.82,8.08-12.11s-2-10.69-7-10.07-7.79,5.6-8.12,11.94S408.31,415.3,413.32,414.67Z"/><path class="cls-2" d="M484.16,410.93,477.05,412c-.63-7.63-.94-11.44-1.55-19.07a54.18,54.18,0,0,1-.23-5.58c-.1.5-.63,3.07-1.29,5.61-2.59,8.17-3.89,12.26-6.51,20.44l-5.77.83c-2.18-7.46-3.26-11.2-5.4-18.67-.56-2.32-.94-4.76-1-5.33,0,.29-.15,3-.47,5.68-1.07,7.87-1.61,11.81-2.7,19.68l-7.11,1q2.89-17.49,5.73-35l8.07-1.13c2.18,7.91,3.27,11.87,5.49,19.78.28,1.28.51,2.95.55,3.24a33.93,33.93,0,0,1,.74-3.38c2.74-8.64,4.1-13,6.8-21.6l8.07-1.19Q482.29,394.11,484.16,410.93Z"/><path class="cls-2" d="M493.75,373.78a3.63,3.63,0,0,1,4.14,3.87,5.46,5.46,0,0,1-4.31,5.15,3.62,3.62,0,0,1-4.14-3.87A5.48,5.48,0,0,1,493.75,373.78Zm-4.06,36.32c.19-9.56.29-14.34.48-23.91l6.58-1c-.16,9.56-.24,14.34-.41,23.9Z"/><path class="cls-2" d="M502.67,408.14l.54-36.72,6.51-1-.45,36.71Z"/><path class="cls-2" d="M515.22,406.21l.36-36.69,6.51-1-.27,36.67Z"/><path class="cls-2" d="M531.53,368a3.68,3.68,0,0,1,4.21,3.84,5.36,5.36,0,0,1-4.25,5.15,3.65,3.65,0,0,1-4.2-3.84A5.38,5.38,0,0,1,531.53,368ZM528,404.23l.11-23.85,6.59-1-.06,23.84Z"/><path class="cls-2" d="M539.59,390.47c0-7.08,5.16-13.21,11.75-14.23s11.79,3.5,11.85,10.57A14.26,14.26,0,0,1,551.44,401C544.79,402.07,539.58,397.55,539.59,390.47Zm17.26-2.68c0-3.61-2.21-6-5.49-5.45s-5.49,3.54-5.48,7.15,2.29,6,5.54,5.49S556.87,391.45,556.85,387.79Z"/><path class="cls-2" d="M574.36,397.06l-6.51,1-.25-23.8,6.45-1,0,1.61a16.07,16.07,0,0,1-.12,1.68,9.49,9.49,0,0,1,6.77-4.89c4.65-.71,8.22,2.61,8.34,9,.11,5.65.17,8.47.27,14.12l-6.55,1c-.09-5.49-.14-8.24-.23-13.74,0-3.31-2.07-4.71-4.24-4.38a5.36,5.36,0,0,0-4.13,5.47Z"/><path class="cls-2" d="M610,391.71l-.93-34c7.82-1.14,11.72-1.7,19.54-2.8l.22,6.17-13.06,1.86.2,6.81,9.18-1.31.2,6.12-9.2,1.32.27,8.75c5.27-.76,7.9-1.14,13.17-1.88.09,2.47.13,3.71.22,6.18C621.86,390,617.9,390.55,610,391.71Z"/><path class="cls-2" d="M656.85,385.22l-6.51.85-.07-1.6a11.83,11.83,0,0,1,.07-1.67,9.14,9.14,0,0,1-6.72,4.76c-4.7.63-8.38-2.72-8.61-9.08-.21-5.63-.32-8.45-.53-14.08l6.5-.89c.21,5.47.32,8.21.54,13.69.13,3.3,2.2,4.73,4.38,4.44,2-.26,4-2.15,4-5.37l-.6-13.88,6.45-.85C656.2,371,656.41,375.75,656.85,385.22Z"/><path class="cls-2" d="M669.31,383.64l-6.51.82c-.46-9.47-.69-14.2-1.14-23.67l6.45-.81.08,1.6a18.09,18.09,0,0,1-.11,2.36c1.16-2.73,3.08-4.92,6-5.28l.35,6.64c-3.37.41-5.94,2.78-5.75,6.66Z"/><path class="cls-2" d="M678,370.64A12.75,12.75,0,0,1,689.08,357c6.59-.74,12.08,4,12.53,11a12.59,12.59,0,0,1-11.07,13.59C683.89,382.32,678.39,377.66,678,370.64Zm17.26-2c-.22-3.59-2.55-6-5.83-5.65s-5.34,3.29-5.14,6.88,2.63,6,5.88,5.67S695.49,372.3,695.27,368.67Z"/><path class="cls-3" d="M730.24,613c-127,12.92-252.36,38.72-379.41,51.64-11.49,1.38-21.08,10.47-22.31,22.1q-2.44,32.82-4.9,65.64C469,739.44,612,708.1,757.45,695.21Q755,663,752.55,630.85C751.47,619.6,741.29,612,730.24,613Z"/><path class="cls-2" d="M362.08,719.09l.4-6.4,4.65-.5c.5-8.18.74-12.27,1.24-20.45l-3.55,2.1c-1-2.17-1.45-3.25-2.41-5.42,3.25-1.79,4.87-2.69,8.11-4.5l5.58-.62q-.81,14-1.63,28.07l4.71-.53c-.15,2.56-.22,3.84-.36,6.4C372.12,718,368.78,718.38,362.08,719.09Z"/><path class="cls-2" d="M400.18,680c10-1.23,15.17,5.45,14.78,15.66-.36,9.58-6.55,18.47-16.53,19.71-10.2,1.27-15.3-5.85-14.83-15.82C384.05,690,390.23,681.18,400.18,680Zm-1.43,28.83c5.59-.7,8.66-5.93,8.95-12.23s-2.31-10.65-7.85-10-8.66,5.7-9,12S393.17,709.48,398.75,708.79Z"/><path class="cls-2" d="M477.72,703.92l-7.93,1.18c-.72-7.62-1.08-11.42-1.78-19a50.25,50.25,0,0,1-.27-5.58c-.12.51-.69,3.09-1.43,5.64-2.86,8.21-4.29,12.32-7.19,20.54l-6.43.93c-2.45-7.43-3.67-11.15-6.08-18.58a49.24,49.24,0,0,1-1.16-5.31c0,.29-.15,3-.5,5.69-1.16,7.88-1.75,11.83-2.93,19.71-3.17.45-4.75.67-7.92,1.1q3.15-17.52,6.24-35.07c3.6-.5,5.4-.75,9-1.27,2.45,7.88,3.69,11.82,6.19,19.69.32,1.27.58,2.94.62,3.23a33.44,33.44,0,0,1,.82-3.39c3-8.69,4.53-13,7.52-21.71l9-1.33Q475.6,687.14,477.72,703.92Z"/><path class="cls-2" d="M488.33,666.62a3.82,3.82,0,0,1,4.63,3.79,5.76,5.76,0,0,1-4.8,5.22,3.82,3.82,0,0,1-4.63-3.79A5.78,5.78,0,0,1,488.33,666.62ZM483.88,703c.19-9.57.29-14.35.48-23.91L491.7,678c-.16,9.56-.24,14.34-.41,23.9Z"/><path class="cls-2" d="M498.34,700.8l.54-36.71,7.26-1.11-.45,36.7Z"/><path class="cls-2" d="M512.33,698.66l.36-36.69,7.26-1.12-.27,36.67Z"/><path class="cls-2" d="M530.48,660.14a3.89,3.89,0,0,1,4.7,3.77,5.67,5.67,0,0,1-4.73,5.23,3.88,3.88,0,0,1-4.7-3.77A5.69,5.69,0,0,1,530.48,660.14Zm-3.91,36.32c0-9.55.07-14.32.12-23.86l7.35-1.14c0,9.54,0,14.31-.06,23.85Z"/><path class="cls-2" d="M539.48,682.49c0-7.09,5.75-13.31,13.1-14.45s13.14,3.29,13.21,10.37-5.69,13.28-13.1,14.43S539.47,689.57,539.48,682.49Zm19.24-3c0-3.61-2.46-5.92-6.11-5.35a7.15,7.15,0,0,0-6.12,7.25c0,3.66,2.55,6,6.17,5.39A7.13,7.13,0,0,0,558.72,679.5Z"/><path class="cls-2" d="M578.22,688.46,571,689.57l-.25-23.79,7.19-1.11,0,1.61a12.25,12.25,0,0,1-.13,1.68,10.8,10.8,0,0,1,7.55-5c5.19-.79,9.16,2.47,9.29,8.85l.27,14.12L587.6,687c-.09-5.5-.13-8.24-.23-13.74,0-3.31-2.29-4.68-4.71-4.31a5.66,5.66,0,0,0-4.62,5.54Z"/><path class="cls-2" d="M617.91,682.51l-.93-34c8.72-1.28,13.08-1.91,21.81-3.13l.21,6.17c-5.82.82-8.74,1.23-14.57,2.08.09,2.72.13,4.08.21,6.8l10.23-1.46c.08,2.45.12,3.67.21,6.12l-10.26,1.47c.11,3.5.16,5.25.26,8.75,5.87-.85,8.81-1.26,14.68-2.09l.22,6.17C631.15,680.58,626.74,681.22,617.91,682.51Z"/><path class="cls-2" d="M670.13,675.27l-7.25,1-.07-1.6a12.12,12.12,0,0,1,.08-1.67,10.42,10.42,0,0,1-7.5,4.86c-5.23.7-9.31-2.59-9.55-8.95-.21-5.63-.32-8.45-.53-14.09l7.25-1c.21,5.48.32,8.22.54,13.7.13,3.3,2.43,4.69,4.86,4.37a5.33,5.33,0,0,0,4.5-5.43l-.6-13.88,7.19-.94Z"/><path class="cls-2" d="M684,673.51l-7.26.91c-.45-9.47-.68-14.2-1.14-23.67l7.2-.9.08,1.6a17.29,17.29,0,0,1-.14,2.36c1.31-2.75,3.47-5,6.76-5.36l.35,6.64c-3.76.45-6.64,2.86-6.45,6.74Z"/><path class="cls-2" d="M693.78,660.38c-.38-7,5.09-13,12.43-13.83s13.44,3.85,13.88,10.87-5,12.91-12.42,13.74S694.17,667.4,693.78,660.38Zm19.25-2.2c-.22-3.58-2.81-6-6.46-5.57a6.34,6.34,0,0,0-5.77,6.95,5.63,5.63,0,0,0,6.51,5.59A6.31,6.31,0,0,0,713,658.18Z"/><path class="cls-3" d="M192.25,596.24c.67-5.27,1-7.91,1.67-13.18,3.64.18,5.46.26,9.1.4l5.19-42.1c-2.84,1.32-4.26,2-7.11,3.26-1.57-4.8-2.34-7.21-3.88-12,6.49-2.68,9.73-4,16.2-6.83,4.31.15,6.47.21,10.79.31q-3.42,28.92-6.83,57.83c3.68.09,5.52.12,9.2.17-.6,5.27-.9,7.91-1.51,13.19C214.11,597.05,203.2,596.71,192.25,596.24Z"/><path class="cls-3" d="M270.83,525c19.21-1.12,28.42,18.7,26.82,35.21-1.78,18.47-14,37-34.16,37.73-19.71.69-29.21-19-26.91-36.19C239,543.71,251.41,526.09,270.83,525Zm-6,59.45c12-.48,17.59-13.33,18.66-23.58,1-9.24-2.09-22.65-14.06-22.18s-17.57,12.86-18.73,23C249.65,571.07,252.78,584.9,264.85,584.41Z"/><path class="cls-3" d="M388.55,587.56c-6.21.73-9.32,1.08-15.54,1.75q-1-19.75-2-39.5a109.78,109.78,0,0,1-.06-11.55c-.27,1-1.59,6.3-3.21,11.49q-7.78,20.88-15.69,41.69c-5,.48-7.56.71-12.6,1.15q-5.13-19.61-10.06-39.24a111.86,111.86,0,0,1-1.71-11.16c0,.61-.59,6.19-1.52,11.7q-3.79,20.19-7.64,40.37c-6.22.44-9.33.65-15.55,1q8-35.76,15.74-71.59c7-.47,10.45-.73,17.42-1.29q5,20.77,10.11,41.51c.51,2.67.87,6.16.92,6.76.14-.52.9-4.11,1.89-6.92q8.28-22,16.38-44c7-.71,10.45-1.08,17.42-1.85Q385.61,552.73,388.55,587.56Z"/><path class="cls-3" d="M694.65,544.05c-.29-5.17-.44-7.76-.73-12.94,3.64-.42,5.46-.62,9.1-1l-2.5-41.28L694.05,493c-2.42-4.37-3.63-6.56-6-10.92,6-3.66,8.91-5.48,14.83-9.09,4.32-.46,6.47-.69,10.79-1.13q1.86,28.34,3.73,56.66c3.69-.37,5.53-.56,9.21-.91.36,5.17.53,7.75.89,12.92Q711,542.2,694.65,544.05Z"/><path class="cls-3" d="M760.08,466.89c19.78-1.36,31.75,16,33.47,33.89,1.75,18.12-7.78,36.12-27.49,37.47S733.79,523.32,732.47,505C731.19,487.12,740.3,468.25,760.08,466.89ZM765,525.05c11.87-.81,15.35-13.8,14.46-23.56s-6.46-22-18.21-21.2S745.85,494,746.62,503.77C747.39,513.68,753.06,525.87,765,525.05Z"/><path class="cls-3" d="M891,535.73c-6.22-.33-9.33-.46-15.55-.67q-4.67-19.65-9.28-39.32a114.19,114.19,0,0,1-2.2-11.42c-.08,1-.46,6-1.16,10.94q-4,19.68-8.29,39.33c-5-.06-7.56-.07-12.6-.06q-8.76-19.66-17.44-39.35c-1.92-4.84-3.45-9.88-3.78-11.07.06.6.54,6.05.61,11.42q-.12,19.62-.32,39.26c-6.22.14-9.33.23-15.55.46q1.49-34.87,2.77-69.74c7-.19,10.45-.26,17.42-.34q8.91,20.88,17.92,41.7c1,2.68,2,6.15,2.18,6.74a58.22,58.22,0,0,1,.64-6.63q4.35-20.82,8.56-41.67c7,.15,10.45.25,17.42.53Q881.54,500.8,891,535.73Z"/></g></svg>