<svg xmlns="http://www.w3.org/2000/svg" xmlns:xlink="http://www.w3.org/1999/xlink" viewBox="0 0 1080 1080"><defs><style>.cls-1{fill:none;}.cls-2{clip-path:url(#clip-path);}.cls-3{opacity:0.3;}.cls-3,.cls-8{writing-mode:tb;text-orientation:upright;glyph-orientation-vertical:0deg;font-size:27.88px;fill:#6abd45;}.cls-3,.cls-5,.cls-8{font-family:MatrixCodeNFI, Matrix Code NFI;}.cls-4{font-family:MyriadPro-Regular, Myriad Pro;}.cls-6{clip-path:url(#clip-path-2);}.cls-7{fill:#01281d;stroke:#3f3f41;stroke-miterlimit:10;stroke-width:2px;}</style><clipPath id="clip-path"><polygon class="cls-1" points="1054.78 830 25.22 830 25.22 361.44 42.95 361.44 42.95 304.45 61.1 304.45 63 250 78.62 250 80.52 275.33 93.81 275.33 95.92 250 113.02 250 115.34 333.58 130.33 333.58 132.23 250 147.63 250 149.53 276.59 166 276.59 168.11 250 183.94 250 185.84 304.45 201.88 304.45 203.99 304.45 219.19 304.45 221.08 250 238.39 250 240.08 277.86 255.06 277.86 256.75 250 273.43 250 275.54 304.45 290.31 304.45 292.42 304.45 307.2 304.45 309.1 334.85 324.93 334.85 326.83 250 343.5 250 345.4 275.33 360.6 275.33 363.13 250 380.44 250 382.55 336.11 395.84 336.11 397.95 250 415.47 250 417.37 275.33 432.78 275.33 434.89 305.72 449.24 305.72 450.93 275.33 469.08 275.33 471.4 250 486.18 250 488.08 275.33 504.54 275.33 506.44 336.11 521 336.11 523.12 250 537.04 250 538.95 275.33 556.25 275.33 558.36 250 573.56 250 575.46 303.19 592.34 303.19 594.24 250 609.44 250 611.55 277.86 625.9 277.86 628.43 329.78 645.32 329.78 647.43 329.78 663.68 329.78 665.58 329.78 680.57 329.78 682.68 250 698.72 250 700.62 276.59 715.82 276.59 717.5 276.59 733.54 276.59 735.44 250 752.54 250 754.44 276.59 769.85 276.59 772.59 250 786.1 250 788.21 328.51 804.88 328.51 806.99 250 822.61 250 824.93 275.33 840.98 275.33 843.51 250 858.92 250 860.6 304.45 874.96 304.45 876.86 360.18 893.32 360.18 895.64 250 911.47 250 913.58 275.33 928.99 275.33 931.1 331.05 946.72 331.05 948.62 250 965.29 250 967.82 275.33 980.91 275.33 983.44 250 1001.38 250 1004.76 334.85 1017.63 334.85 1020.17 250 1035.58 250 1037.9 275.33 1054.78 275.33 1054.78 830"/></clipPath><clipPath id="clip-path-2"><path class="cls-1" d="M86,721.16V658.44h43.42V458.23L97.07,475.11l-26-56,74.29-35.7H197.9v275h43.9v62.72Zm192.47-97.45c0-29.43,14-70.92,58.86-91.19-20.75-13-35.7-34.73-35.7-66.57,0-43.42,30.87-87.33,96.49-87.33,64.64,0,96.48,43.42,96.48,86.84,0,32.33-14.47,54-34.73,67.06,44.87,20.27,57.41,61.76,57.41,90.7,0,51.14-38.11,102.77-119.16,102.77C316.55,726,278.44,674.85,278.44,623.71ZM448.26,617c0-27-17.37-52.58-50.17-52.58C364.8,564.37,347,589.94,347,617c0,28,17.85,50.18,51.14,50.18C430.41,667.13,448.26,644.93,448.26,617ZM430.89,469.8c0-20.26-12.06-37.14-32.8-37.14-21.72,0-33.78,16.88-33.78,37.14,0,21.72,11.1,39.57,33.78,39.57S430.89,491.52,430.89,469.8Zm212.73-23.63v51.62c11.58-4.83,27.5-7.72,42.46-7.72,82,0,119.16,56.93,119.16,114.82,0,62.24-42,121.1-124,121.1-77.67,0-117.71-44.39-127.36-83l59.34-26c7.72,20.26,30.39,45.83,65.13,45.83,38.11,0,56.93-29.42,56.93-58.85s-18.82-58.86-56-58.86c-23.64,0-38.11,11.09-45.35,22.19l-52.1-29.43V383.45H769.54v62.72Zm210.8,275V658.44h43.42V458.23l-32.32,16.88-26.06-56,74.3-35.7h52.59v275h43.9v62.72Z"/></clipPath></defs><title>Artboard 6</title><g id="Layer_6" data-name="Layer 6"><g class="cls-2"><text class="cls-3" transform="translate(1045.98 250.42)">Excerpt<tspan x="0" y="195.19"> </tspan><tspan x="0" y="209.14">&amp;</tspan><tspan x="0" y="237.02"> </tspan><tspan x="0" y="250.96">Burb</tspan><tspan x="-17.75" y="0">Blurb:</tspan><tspan x="-17.75" y="167.31"> </tspan><tspan x="-17.75" y="181.25">Giving</tspan><tspan x="-17.75" y="348.56"> </tspan><tspan x="-17.75" y="362.5">and</tspan><tspan x="-17.75" y="446.16"> </tspan><tspan x="-17.75" y="460.1">vol</tspan><tspan x="-19.2" y="543.75">-</tspan><tspan x="-35.49" y="0">unteering</tspan><tspan x="-35.49" y="250.96"> </tspan><tspan x="-35.49" y="264.91">is</tspan><tspan x="-35.49" y="320.67"> </tspan><tspan x="-35.49" y="334.62">a</tspan><tspan x="-35.49" y="362.5"> </tspan><tspan x="-53.24" y="0">win-win-win</tspan><tspan x="-53.24" y="306.73"> </tspan><tspan class="cls-4" x="-53.24" y="320.67">—</tspan><tspan x="-53.24" y="348.56"> </tspan><tspan x="-53.24" y="362.5">for</tspan><tspan x="-53.24" y="446.16"> </tspan><tspan x="-53.24" y="460.1">the</tspan><tspan x="-53.24" y="543.75"> </tspan><tspan x="-70.99" y="0">employee,</tspan><tspan x="-70.99" y="250.96"> </tspan><tspan x="-70.99" y="264.91">for</tspan><tspan x="-70.99" y="348.56"> </tspan><tspan x="-70.99" y="362.5">the</tspan><tspan x="-70.99" y="446.16"> </tspan><tspan x="-70.99" y="460.1">or</tspan><tspan x="-72.44" y="515.87">-</tspan><tspan x="-88.73" y="0">ganisation,</tspan><tspan x="-88.73" y="306.73"> </tspan><tspan x="-88.73" y="320.67">for</tspan><tspan x="-88.73" y="404.33"> </tspan><tspan x="-88.73" y="418.27">the</tspan><tspan x="-88.73" y="501.93"> </tspan><tspan x="-106.48" y="0">world.Excerpt:</tspan><tspan x="-106.48" y="390.39"> </tspan><tspan x="-106.48" y="404.33">Corpo</tspan><tspan x="-107.93" y="543.75">-</tspan><tspan x="-124.23" y="0">rate</tspan><tspan x="-124.23" y="111.54"> </tspan><tspan x="-124.23" y="125.48">giving</tspan><tspan x="-124.23" y="292.79"> </tspan><tspan x="-124.23" y="306.73">and</tspan><tspan x="-124.23" y="390.39"> </tspan><tspan x="-124.23" y="404.33">volun</tspan><tspan x="-125.68" y="543.75">-</tspan><tspan x="-141.97" y="0">teering</tspan><tspan x="-141.97" y="195.19"> </tspan><tspan x="-141.97" y="209.14">has</tspan><tspan x="-141.97" y="292.79"> </tspan><tspan x="-141.97" y="306.73">in</tspan><tspan x="-141.97" y="362.5"> </tspan><tspan x="-141.97" y="376.44">past</tspan><tspan x="-141.97" y="487.98"> </tspan><tspan x="-159.72" y="0">years</tspan><tspan x="-159.72" y="139.42"> </tspan><tspan x="-159.72" y="153.37">transformed</tspan><tspan x="-159.72" y="460.1"> </tspan><tspan x="-177.47" y="0">into</tspan><tspan x="-177.47" y="111.54"> </tspan><tspan x="-177.47" y="125.48">something</tspan><tspan x="-177.47" y="376.44"> </tspan><tspan x="-177.47" y="390.39">more</tspan><tspan x="-177.47" y="501.93"> </tspan><tspan x="-195.21" y="0">sophisticated,</tspan><tspan x="-195.21" y="390.39"> </tspan><tspan x="-195.21" y="404.33">from</tspan><tspan x="-195.21" y="515.87"> </tspan><tspan x="-212.96" y="0">simple</tspan><tspan x="-212.96" y="167.31"> </tspan><tspan x="-212.96" y="181.25">donations</tspan><tspan x="-212.96" y="432.21"> </tspan><tspan x="-212.96" y="446.16">to</tspan><tspan x="-212.96" y="501.93"> </tspan><tspan x="-230.71" y="0">actions,</tspan><tspan x="-230.71" y="223.08"> </tspan><tspan x="-230.71" y="237.02">from</tspan><tspan x="-230.71" y="348.56"> </tspan><tspan x="-230.71" y="362.5">side</tspan><tspan x="-230.71" y="474.04"> </tspan><tspan x="-248.46" y="0">projects</tspan><tspan x="-248.45" y="223.08"> </tspan><tspan x="-248.46" y="237.02">to</tspan><tspan x="-248.45" y="292.79"> </tspan><tspan x="-248.46" y="306.73">an</tspan><tspan x="-248.45" y="362.5"> </tspan><tspan x="-248.46" y="376.44">inte</tspan><tspan x="-249.9" y="487.98">-</tspan><tspan x="-266.2" y="0">gral</tspan><tspan x="-266.2" y="111.54"> </tspan><tspan x="-266.2" y="125.48">part</tspan><tspan x="-266.2" y="237.02"> </tspan><tspan x="-266.2" y="250.96">of</tspan><tspan x="-266.2" y="306.73"> </tspan><tspan x="-266.2" y="320.67">running</tspan><tspan x="-266.2" y="515.87"> </tspan><tspan x="-266.2" y="529.81">a</tspan><tspan x="-266.2" y="557.7"> </tspan><tspan x="-283.95" y="0">business.</tspan><tspan x="-283.95" y="250.96"> </tspan><tspan x="-283.95" y="264.91">It</tspan><tspan class="cls-4" x="-283.95" y="320.67">’</tspan><tspan x="-283.95" y="348.56">s</tspan><tspan x="-283.95" y="376.44"> </tspan><tspan x="-283.95" y="390.39">no</tspan><tspan x="-283.95" y="446.16"> </tspan><tspan x="-301.7" y="0">longer</tspan><tspan x="-301.7" y="167.31"> </tspan><tspan x="-301.7" y="181.25">enough</tspan><tspan x="-301.7" y="348.56"> </tspan><tspan x="-301.7" y="362.5">to</tspan><tspan x="-301.7" y="418.27"> </tspan><tspan x="-301.7" y="432.21">write</tspan><tspan x="-301.7" y="571.64"> </tspan><tspan x="-319.44" y="0">a</tspan><tspan x="-319.44" y="27.88"> </tspan><tspan x="-319.44" y="41.83">check.</tspan><tspan x="-319.44" y="209.14"> </tspan><tspan x="-319.44" y="223.08">You</tspan><tspan x="-319.44" y="306.73"> </tspan><tspan x="-319.44" y="320.67">and</tspan><tspan x="-319.44" y="404.33"> </tspan><tspan x="-319.44" y="418.27">your</tspan><tspan x="-319.44" y="529.81"> </tspan><tspan x="-337.19" y="0">employees</tspan><tspan x="-337.19" y="250.96"> </tspan><tspan x="-337.19" y="264.91">need</tspan><tspan x="-337.19" y="376.44"> </tspan><tspan x="-337.19" y="390.39">to</tspan><tspan x="-337.19" y="446.16"> </tspan><tspan x="-337.19" y="460.1">be</tspan><tspan x="-337.19" y="515.87"> </tspan><tspan x="-354.94" y="0">out</tspan><tspan x="-354.94" y="83.65"> </tspan><tspan x="-354.94" y="97.6">there,</tspan><tspan x="-354.94" y="264.91"> </tspan><tspan x="-354.94" y="278.85">in</tspan><tspan x="-354.94" y="334.62"> </tspan><tspan x="-354.94" y="348.56">the</tspan><tspan x="-354.94" y="432.21"> </tspan><tspan x="-372.68" y="0">world,</tspan><tspan x="-372.68" y="167.31"> </tspan><tspan x="-372.68" y="181.25">doing</tspan><tspan x="-372.68" y="320.67"> </tspan><tspan x="-372.68" y="334.62">some</tspan><tspan x="-374.13" y="446.16">-</tspan><tspan x="-390.43" y="0">thing</tspan><tspan x="-390.43" y="139.42"> </tspan><tspan x="-390.43" y="153.37">that</tspan><tspan x="-390.43" y="264.91"> </tspan><tspan x="-390.43" y="278.85">matters.</tspan><tspan x="-390.43" y="501.93"> </tspan><tspan x="-408.18" y="0">Making</tspan><tspan x="-408.18" y="167.31"> </tspan><tspan x="-408.18" y="181.25">that</tspan><tspan x="-408.18" y="292.79"> </tspan><tspan x="-408.18" y="306.73">change</tspan><tspan x="-408.18" y="474.04"> </tspan><tspan x="-425.92" y="0">happen.BlogGive</tspan><tspan x="-425.92" y="418.27"> </tspan><tspan x="-425.92" y="432.21">it</tspan><tspan x="-425.92" y="487.98"> </tspan><tspan x="-443.67" y="0">away</tspan><tspan x="-443.67" y="111.54"> </tspan><tspan x="-443.67" y="125.48">now:</tspan><tspan x="-443.67" y="237.02"> </tspan><tspan x="-443.67" y="250.96">the</tspan><tspan x="-443.67" y="334.62"> </tspan><tspan x="-443.67" y="348.56">impor</tspan><tspan x="-445.12" y="487.98">-</tspan><tspan x="-461.42" y="0">tance</tspan><tspan x="-461.42" y="139.42"> </tspan><tspan x="-461.42" y="153.37">of</tspan><tspan x="-461.42" y="209.14"> </tspan><tspan x="-461.42" y="223.08">doing</tspan><tspan x="-461.42" y="362.5"> </tspan><tspan x="-461.42" y="376.44">good</tspan><tspan x="-461.42" y="487.98"> </tspan><tspan x="-479.16" y="0">(with</tspan><tspan x="-479.16" y="139.42"> </tspan><tspan x="-479.16" y="153.37">the</tspan><tspan x="-479.16" y="237.02"> </tspan><tspan x="-479.16" y="250.96">right</tspan><tspan x="-479.16" y="390.39"> </tspan><tspan x="-479.16" y="404.33">soft</tspan><tspan x="-480.61" y="515.87">-</tspan><tspan x="-496.91" y="0">ware)</tspan><tspan x="-496.91" y="139.42"> </tspan><tspan x="-514.66" y="0">In</tspan><tspan x="-514.66" y="55.77"> </tspan><tspan x="-514.66" y="69.71">a</tspan><tspan x="-514.66" y="97.6"> </tspan><tspan x="-514.66" y="111.54">2012</tspan><tspan x="-514.66" y="223.08"> </tspan><tspan x="-514.66" y="237.02">interview,</tspan><tspan x="-514.66" y="515.87"> </tspan><tspan x="-532.4" y="0">Geoff</tspan><tspan x="-532.4" y="139.42"> </tspan><tspan x="-532.4" y="153.37">McDonald,</tspan><tspan x="-532.4" y="404.33"> </tspan><tspan x="-532.4" y="418.27">who</tspan><tspan x="-532.4" y="501.93"> </tspan><tspan x="-532.4" y="515.87">at</tspan><tspan x="-532.4" y="571.64"> </tspan><tspan x="-550.15" y="0">the</tspan><tspan x="-550.15" y="83.65"> </tspan><tspan x="-550.15" y="97.6">time</tspan><tspan x="-550.15" y="209.14"> </tspan><tspan x="-550.15" y="223.08">was</tspan><tspan x="-550.15" y="306.73"> </tspan><tspan x="-550.15" y="320.67">the</tspan><tspan x="-550.15" y="404.33"> </tspan><tspan x="-567.9" y="0">global</tspan><tspan x="-567.9" y="167.31"> </tspan><tspan x="-567.9" y="181.25">vice</tspan><tspan x="-567.9" y="292.79"> </tspan><tspan x="-567.9" y="306.73">president</tspan><tspan x="-567.9" y="557.7"> </tspan><tspan x="-585.64" y="0">of</tspan><tspan x="-585.64" y="55.77"> </tspan><tspan x="-585.64" y="69.71">human</tspan><tspan x="-585.64" y="209.14"> </tspan><tspan x="-585.64" y="223.08">resources</tspan><tspan x="-585.64" y="474.04"> </tspan><tspan x="-585.64" y="487.98">at</tspan><tspan x="-585.64" y="543.75"> </tspan><tspan x="-603.39" y="0">Unilever,</tspan><tspan x="-603.39" y="250.96"> </tspan><tspan x="-603.39" y="264.91">spoke</tspan><tspan x="-603.39" y="404.33"> </tspan><tspan x="-603.39" y="418.27">of</tspan><tspan x="-603.39" y="474.04"> </tspan><tspan x="-621.14" y="0">something</tspan><tspan x="-621.14" y="250.96"> </tspan><tspan x="-621.14" y="264.91">he</tspan><tspan x="-621.14" y="320.67"> </tspan><tspan x="-621.14" y="334.62">believed</tspan><tspan x="-621.14" y="557.7"> </tspan><tspan x="-638.88" y="0">to</tspan><tspan x="-638.88" y="55.77"> </tspan><tspan x="-638.88" y="69.71">be</tspan><tspan x="-638.88" y="125.48"> </tspan><tspan x="-638.88" y="139.42">missing</tspan><tspan x="-638.88" y="334.62"> </tspan><tspan x="-638.88" y="348.56">when</tspan><tspan x="-638.88" y="460.1"> </tspan><tspan x="-638.88" y="474.04">it</tspan><tspan x="-638.88" y="529.81"> </tspan><tspan x="-656.63" y="0">came</tspan><tspan x="-656.63" y="111.54"> </tspan><tspan x="-656.63" y="125.48">to</tspan><tspan x="-656.63" y="181.25"> </tspan><tspan x="-656.63" y="195.19">organisations</tspan><tspan x="-656.63" y="557.7"> </tspan><tspan x="-674.38" y="0">and</tspan><tspan x="-674.38" y="83.65"> </tspan><tspan x="-674.38" y="97.6">corporate</tspan><tspan x="-674.38" y="348.56"> </tspan><tspan x="-674.38" y="362.5">social</tspan><tspan x="-674.38" y="529.81"> </tspan><tspan x="-692.13" y="0">responsibility</tspan><tspan x="-692.12" y="390.39"> </tspan><tspan x="-692.13" y="404.33">(CSR).</tspan><tspan class="cls-4"><tspan x="-709.87" y="0">“</tspan><tspan class="cls-5" x="-709.87" y="27.88">What</tspan><tspan class="cls-5" x="-709.87" y="139.42"> </tspan><tspan class="cls-5" x="-709.87" y="153.37">I</tspan><tspan class="cls-5" x="-709.87" y="181.25"> </tspan><tspan class="cls-5" x="-709.87" y="195.19">think</tspan><tspan class="cls-5" x="-709.87" y="334.62"> </tspan><tspan class="cls-5" x="-709.87" y="348.56">is</tspan><tspan class="cls-5" x="-709.87" y="404.33"> </tspan><tspan class="cls-5" x="-709.87" y="418.27">lack</tspan><tspan class="cls-5" x="-711.32" y="529.81">-</tspan></tspan><tspan x="-727.62" y="0">ing,</tspan><tspan x="-727.62" y="111.54"> </tspan><tspan x="-727.62" y="125.48">as</tspan><tspan x="-727.62" y="181.25"> </tspan><tspan x="-727.62" y="195.19">I</tspan><tspan x="-727.62" y="223.08"> </tspan><tspan x="-727.62" y="237.02">look</tspan><tspan x="-727.62" y="348.56"> </tspan><tspan x="-727.62" y="362.5">around,</tspan><tspan x="-727.62" y="557.7"> </tspan><tspan x="-745.37" y="0">is</tspan><tspan x="-745.36" y="55.77"> </tspan><tspan x="-745.37" y="69.71">that</tspan><tspan x="-745.36" y="181.25"> </tspan><tspan x="-745.37" y="195.19">aspect</tspan><tspan x="-745.36" y="362.5"> </tspan><tspan x="-745.37" y="376.44">of</tspan><tspan x="-745.36" y="432.21"> </tspan><tspan x="-745.37" y="446.16">how</tspan><tspan x="-745.36" y="529.81"> </tspan><tspan x="-763.11" y="0">can</tspan><tspan x="-763.11" y="83.65"> </tspan><tspan x="-763.11" y="97.6">you</tspan><tspan x="-763.11" y="181.25"> </tspan><tspan x="-763.11" y="195.19">shift</tspan><tspan x="-763.11" y="334.62"> </tspan><tspan x="-763.11" y="348.56">the</tspan><tspan x="-763.11" y="432.21"> </tspan><tspan x="-763.11" y="446.16">cul</tspan><tspan x="-764.56" y="529.81">-</tspan><tspan x="-780.86" y="0">ture</tspan><tspan x="-780.86" y="111.54"> </tspan><tspan x="-780.86" y="125.48">of</tspan><tspan x="-780.86" y="181.25"> </tspan><tspan x="-780.86" y="195.19">whatever</tspan><tspan x="-780.86" y="418.27"> </tspan><tspan x="-780.86" y="432.21">or</tspan><tspan x="-782.31" y="487.98">-</tspan><tspan x="-798.61" y="0">ganisation</tspan><tspan x="-798.61" y="278.85"> </tspan><tspan x="-798.61" y="292.79">you</tspan><tspan x="-798.61" y="376.44"> </tspan><tspan x="-798.61" y="390.39">are</tspan><tspan x="-798.61" y="474.04"> </tspan><tspan x="-798.61" y="487.98">a</tspan><tspan x="-798.61" y="515.87"> </tspan><tspan x="-816.35" y="0">part</tspan><tspan x="-816.35" y="111.54"> </tspan><tspan x="-816.35" y="125.48">of</tspan><tspan x="-816.35" y="181.25"> </tspan><tspan x="-816.35" y="195.19">to</tspan><tspan x="-816.35" y="250.96"> </tspan><tspan x="-816.35" y="264.91">really</tspan><tspan x="-816.35" y="432.21"> </tspan><tspan x="-816.35" y="446.16">get</tspan><tspan x="-816.35" y="529.81"> </tspan><tspan x="-834.1" y="0">your</tspan><tspan x="-834.1" y="111.54"> </tspan><tspan x="-834.1" y="125.48">employees</tspan><tspan x="-834.1" y="376.44"> </tspan><tspan class="cls-4" x="-834.1" y="390.39">…</tspan><tspan x="-834.1" y="418.27"> </tspan><tspan x="-834.1" y="432.21">to</tspan><tspan x="-834.1" y="487.98"> </tspan><tspan x="-834.1" y="501.93">a</tspan><tspan x="-834.1" y="529.81"> </tspan><tspan x="-851.85" y="0">stage</tspan><tspan x="-851.85" y="139.42"> </tspan><tspan x="-851.85" y="153.37">where</tspan><tspan x="-851.85" y="292.79"> </tspan><tspan x="-851.85" y="306.73">they</tspan><tspan x="-851.85" y="418.27"> </tspan><tspan x="-851.85" y="432.21">are</tspan><tspan x="-851.85" y="515.87"> </tspan><tspan x="-869.59" y="0">not</tspan><tspan x="-869.59" y="83.65"> </tspan><tspan x="-869.59" y="97.6">only</tspan><tspan x="-869.59" y="209.14"> </tspan><tspan x="-869.59" y="223.08">aware</tspan><tspan x="-869.59" y="362.5"> </tspan><tspan x="-869.59" y="376.44">around</tspan><tspan x="-869.59" y="543.75"> </tspan><tspan x="-887.34" y="0">sustainability</tspan><tspan x="-887.34" y="390.39"> </tspan><tspan x="-905.09" y="0">issues,</tspan><tspan x="-905.09" y="195.19"> </tspan><tspan x="-905.09" y="209.14">but</tspan><tspan x="-905.09" y="292.79"> </tspan><tspan x="-905.09" y="306.73">they</tspan><tspan x="-905.09" y="418.27"> </tspan><tspan x="-905.09" y="432.21">now</tspan><tspan x="-905.09" y="515.87"> </tspan><tspan x="-922.83" y="0">feel</tspan><tspan x="-922.83" y="111.54"> </tspan><tspan x="-922.83" y="125.48">engaged</tspan><tspan x="-922.83" y="320.67"> </tspan><tspan x="-922.83" y="334.62">to</tspan><tspan x="-922.83" y="390.39"> </tspan><tspan x="-922.83" y="404.33">take</tspan><tspan x="-922.83" y="515.87"> </tspan><tspan x="-940.58" y="0">action,</tspan><tspan class="cls-4" x="-940.58" y="195.19">”</tspan><tspan x="-940.58" y="223.08"> </tspan><tspan x="-940.58" y="237.02">he</tspan><tspan x="-940.58" y="292.79"> </tspan><tspan x="-940.58" y="306.73">said.</tspan><tspan x="-958.33" y="0">At</tspan><tspan x="-958.33" y="55.77"> </tspan><tspan x="-958.33" y="69.71">GoodUp,</tspan><tspan x="-958.33" y="264.91"> </tspan><tspan x="-958.33" y="278.85">we</tspan><tspan x="-958.33" y="334.62"> </tspan><tspan x="-958.33" y="348.56">stand</tspan><tspan x="-958.33" y="487.98"> </tspan><tspan x="-976.07" y="0">alongside</tspan><tspan x="-976.07" y="250.96"> </tspan><tspan x="-976.07" y="264.91">this</tspan><tspan x="-976.07" y="376.44"> </tspan><tspan x="-976.07" y="390.39">state</tspan><tspan x="-977.52" y="529.81">-</tspan><tspan x="-993.82" y="0">ment.</tspan><tspan x="-993.82" y="139.42"> </tspan><tspan x="-993.82" y="153.37">Acts</tspan><tspan x="-993.82" y="264.91"> </tspan><tspan x="-993.82" y="278.85">of</tspan><tspan x="-993.82" y="334.62"> </tspan><tspan x="-993.82" y="348.56">corpo</tspan><tspan x="-995.27" y="487.98">-</tspan><tspan x="-1011.57" y="0">rate</tspan><tspan x="-1011.57" y="111.54"> </tspan><tspan x="-1011.57" y="125.48">giving</tspan><tspan x="-1011.57" y="292.79"> </tspan><tspan x="-1011.57" y="306.73">and</tspan><tspan x="-1011.57" y="390.39"> </tspan><tspan x="-1011.57" y="404.33">volun</tspan><tspan x="-1013.02" y="543.75">-</tspan></text></g><g class="cls-6"><rect class="cls-7" x="14.88" y="243.92" width="1051.5" height="591.54"/><text class="cls-8" transform="translate(1045.98 250.42)">Excerpt<tspan x="0" y="195.19"> </tspan><tspan x="0" y="209.14">&amp;</tspan><tspan x="0" y="237.02"> </tspan><tspan x="0" y="250.96">Burb</tspan><tspan x="-17.75" y="0">Blurb:</tspan><tspan x="-17.75" y="167.31"> </tspan><tspan x="-17.75" y="181.25">Giving</tspan><tspan x="-17.75" y="348.56"> </tspan><tspan x="-17.75" y="362.5">and</tspan><tspan x="-17.75" y="446.16"> </tspan><tspan x="-17.75" y="460.1">vol</tspan><tspan x="-19.2" y="543.75">-</tspan><tspan x="-35.49" y="0">unteering</tspan><tspan x="-35.49" y="250.96"> </tspan><tspan x="-35.49" y="264.91">is</tspan><tspan x="-35.49" y="320.67"> </tspan><tspan x="-35.49" y="334.62">a</tspan><tspan x="-35.49" y="362.5"> </tspan><tspan x="-53.24" y="0">win-win-win</tspan><tspan x="-53.24" y="306.73"> </tspan><tspan class="cls-4" x="-53.24" y="320.67">—</tspan><tspan x="-53.24" y="348.56"> </tspan><tspan x="-53.24" y="362.5">for</tspan><tspan x="-53.24" y="446.16"> </tspan><tspan x="-53.24" y="460.1">the</tspan><tspan x="-53.24" y="543.75"> </tspan><tspan x="-70.99" y="0">employee,</tspan><tspan x="-70.99" y="250.96"> </tspan><tspan x="-70.99" y="264.91">for</tspan><tspan x="-70.99" y="348.56"> </tspan><tspan x="-70.99" y="362.5">the</tspan><tspan x="-70.99" y="446.16"> </tspan><tspan x="-70.99" y="460.1">or</tspan><tspan x="-72.44" y="515.87">-</tspan><tspan x="-88.73" y="0">ganisation,</tspan><tspan x="-88.73" y="306.73"> </tspan><tspan x="-88.73" y="320.67">for</tspan><tspan x="-88.73" y="404.33"> </tspan><tspan x="-88.73" y="418.27">the</tspan><tspan x="-88.73" y="501.93"> </tspan><tspan x="-106.48" y="0">world.Excerpt:</tspan><tspan x="-106.48" y="390.39"> </tspan><tspan x="-106.48" y="404.33">Corpo</tspan><tspan x="-107.93" y="543.75">-</tspan><tspan x="-124.23" y="0">rate</tspan><tspan x="-124.23" y="111.54"> </tspan><tspan x="-124.23" y="125.48">giving</tspan><tspan x="-124.23" y="292.79"> </tspan><tspan x="-124.23" y="306.73">and</tspan><tspan x="-124.23" y="390.39"> </tspan><tspan x="-124.23" y="404.33">volun</tspan><tspan x="-125.68" y="543.75">-</tspan><tspan x="-141.97" y="0">teering</tspan><tspan x="-141.97" y="195.19"> </tspan><tspan x="-141.97" y="209.14">has</tspan><tspan x="-141.97" y="292.79"> </tspan><tspan x="-141.97" y="306.73">in</tspan><tspan x="-141.97" y="362.5"> </tspan><tspan x="-141.97" y="376.44">past</tspan><tspan x="-141.97" y="487.98"> </tspan><tspan x="-159.72" y="0">years</tspan><tspan x="-159.72" y="139.42"> </tspan><tspan x="-159.72" y="153.37">transformed</tspan><tspan x="-159.72" y="460.1"> </tspan><tspan x="-177.47" y="0">into</tspan><tspan x="-177.47" y="111.54"> </tspan><tspan x="-177.47" y="125.48">something</tspan><tspan x="-177.47" y="376.44"> </tspan><tspan x="-177.47" y="390.39">more</tspan><tspan x="-177.47" y="501.93"> </tspan><tspan x="-195.21" y="0">sophisticated,</tspan><tspan x="-195.21" y="390.39"> </tspan><tspan x="-195.21" y="404.33">from</tspan><tspan x="-195.21" y="515.87"> </tspan><tspan x="-212.96" y="0">simple</tspan><tspan x="-212.96" y="167.31"> </tspan><tspan x="-212.96" y="181.25">donations</tspan><tspan x="-212.96" y="432.21"> </tspan><tspan x="-212.96" y="446.16">to</tspan><tspan x="-212.96" y="501.93"> </tspan><tspan x="-230.71" y="0">actions,</tspan><tspan x="-230.71" y="223.08"> </tspan><tspan x="-230.71" y="237.02">from</tspan><tspan x="-230.71" y="348.56"> </tspan><tspan x="-230.71" y="362.5">side</tspan><tspan x="-230.71" y="474.04"> </tspan><tspan x="-248.46" y="0">projects</tspan><tspan x="-248.45" y="223.08"> </tspan><tspan x="-248.46" y="237.02">to</tspan><tspan x="-248.45" y="292.79"> </tspan><tspan x="-248.46" y="306.73">an</tspan><tspan x="-248.45" y="362.5"> </tspan><tspan x="-248.46" y="376.44">inte</tspan><tspan x="-249.9" y="487.98">-</tspan><tspan x="-266.2" y="0">gral</tspan><tspan x="-266.2" y="111.54"> </tspan><tspan x="-266.2" y="125.48">part</tspan><tspan x="-266.2" y="237.02"> </tspan><tspan x="-266.2" y="250.96">of</tspan><tspan x="-266.2" y="306.73"> </tspan><tspan x="-266.2" y="320.67">running</tspan><tspan x="-266.2" y="515.87"> </tspan><tspan x="-266.2" y="529.81">a</tspan><tspan x="-266.2" y="557.7"> </tspan><tspan x="-283.95" y="0">business.</tspan><tspan x="-283.95" y="250.96"> </tspan><tspan x="-283.95" y="264.91">It</tspan><tspan class="cls-4" x="-283.95" y="320.67">’</tspan><tspan x="-283.95" y="348.56">s</tspan><tspan x="-283.95" y="376.44"> </tspan><tspan x="-283.95" y="390.39">no</tspan><tspan x="-283.95" y="446.16"> </tspan><tspan x="-301.7" y="0">longer</tspan><tspan x="-301.7" y="167.31"> </tspan><tspan x="-301.7" y="181.25">enough</tspan><tspan x="-301.7" y="348.56"> </tspan><tspan x="-301.7" y="362.5">to</tspan><tspan x="-301.7" y="418.27"> </tspan><tspan x="-301.7" y="432.21">write</tspan><tspan x="-301.7" y="571.64"> </tspan><tspan x="-319.44" y="0">a</tspan><tspan x="-319.44" y="27.88"> </tspan><tspan x="-319.44" y="41.83">check.</tspan><tspan x="-319.44" y="209.14"> </tspan><tspan x="-319.44" y="223.08">You</tspan><tspan x="-319.44" y="306.73"> </tspan><tspan x="-319.44" y="320.67">and</tspan><tspan x="-319.44" y="404.33"> </tspan><tspan x="-319.44" y="418.27">your</tspan><tspan x="-319.44" y="529.81"> </tspan><tspan x="-337.19" y="0">employees</tspan><tspan x="-337.19" y="250.96"> </tspan><tspan x="-337.19" y="264.91">need</tspan><tspan x="-337.19" y="376.44"> </tspan><tspan x="-337.19" y="390.39">to</tspan><tspan x="-337.19" y="446.16"> </tspan><tspan x="-337.19" y="460.1">be</tspan><tspan x="-337.19" y="515.87"> </tspan><tspan x="-354.94" y="0">out</tspan><tspan x="-354.94" y="83.65"> </tspan><tspan x="-354.94" y="97.6">there,</tspan><tspan x="-354.94" y="264.91"> </tspan><tspan x="-354.94" y="278.85">in</tspan><tspan x="-354.94" y="334.62"> </tspan><tspan x="-354.94" y="348.56">the</tspan><tspan x="-354.94" y="432.21"> </tspan><tspan x="-372.68" y="0">world,</tspan><tspan x="-372.68" y="167.31"> </tspan><tspan x="-372.68" y="181.25">doing</tspan><tspan x="-372.68" y="320.67"> </tspan><tspan x="-372.68" y="334.62">some</tspan><tspan x="-374.13" y="446.16">-</tspan><tspan x="-390.43" y="0">thing</tspan><tspan x="-390.43" y="139.42"> </tspan><tspan x="-390.43" y="153.37">that</tspan><tspan x="-390.43" y="264.91"> </tspan><tspan x="-390.43" y="278.85">matters.</tspan><tspan x="-390.43" y="501.93"> </tspan><tspan x="-408.18" y="0">Making</tspan><tspan x="-408.18" y="167.31"> </tspan><tspan x="-408.18" y="181.25">that</tspan><tspan x="-408.18" y="292.79"> </tspan><tspan x="-408.18" y="306.73">change</tspan><tspan x="-408.18" y="474.04"> </tspan><tspan x="-425.92" y="0">happen.BlogGive</tspan><tspan x="-425.92" y="418.27"> </tspan><tspan x="-425.92" y="432.21">it</tspan><tspan x="-425.92" y="487.98"> </tspan><tspan x="-443.67" y="0">away</tspan><tspan x="-443.67" y="111.54"> </tspan><tspan x="-443.67" y="125.48">now:</tspan><tspan x="-443.67" y="237.02"> </tspan><tspan x="-443.67" y="250.96">the</tspan><tspan x="-443.67" y="334.62"> </tspan><tspan x="-443.67" y="348.56">impor</tspan><tspan x="-445.12" y="487.98">-</tspan><tspan x="-461.42" y="0">tance</tspan><tspan x="-461.42" y="139.42"> </tspan><tspan x="-461.42" y="153.37">of</tspan><tspan x="-461.42" y="209.14"> </tspan><tspan x="-461.42" y="223.08">doing</tspan><tspan x="-461.42" y="362.5"> </tspan><tspan x="-461.42" y="376.44">good</tspan><tspan x="-461.42" y="487.98"> </tspan><tspan x="-479.16" y="0">(with</tspan><tspan x="-479.16" y="139.42"> </tspan><tspan x="-479.16" y="153.37">the</tspan><tspan x="-479.16" y="237.02"> </tspan><tspan x="-479.16" y="250.96">right</tspan><tspan x="-479.16" y="390.39"> </tspan><tspan x="-479.16" y="404.33">soft</tspan><tspan x="-480.61" y="515.87">-</tspan><tspan x="-496.91" y="0">ware)</tspan><tspan x="-496.91" y="139.42"> </tspan><tspan x="-514.66" y="0">In</tspan><tspan x="-514.66" y="55.77"> </tspan><tspan x="-514.66" y="69.71">a</tspan><tspan x="-514.66" y="97.6"> </tspan><tspan x="-514.66" y="111.54">2012</tspan><tspan x="-514.66" y="223.08"> </tspan><tspan x="-514.66" y="237.02">interview,</tspan><tspan x="-514.66" y="515.87"> </tspan><tspan x="-532.4" y="0">Geoff</tspan><tspan x="-532.4" y="139.42"> </tspan><tspan x="-532.4" y="153.37">McDonald,</tspan><tspan x="-532.4" y="404.33"> </tspan><tspan x="-532.4" y="418.27">who</tspan><tspan x="-532.4" y="501.93"> </tspan><tspan x="-532.4" y="515.87">at</tspan><tspan x="-532.4" y="571.64"> </tspan><tspan x="-550.15" y="0">the</tspan><tspan x="-550.15" y="83.65"> </tspan><tspan x="-550.15" y="97.6">time</tspan><tspan x="-550.15" y="209.14"> </tspan><tspan x="-550.15" y="223.08">was</tspan><tspan x="-550.15" y="306.73"> </tspan><tspan x="-550.15" y="320.67">the</tspan><tspan x="-550.15" y="404.33"> </tspan><tspan x="-567.9" y="0">global</tspan><tspan x="-567.9" y="167.31"> </tspan><tspan x="-567.9" y="181.25">vice</tspan><tspan x="-567.9" y="292.79"> </tspan><tspan x="-567.9" y="306.73">president</tspan><tspan x="-567.9" y="557.7"> </tspan><tspan x="-585.64" y="0">of</tspan><tspan x="-585.64" y="55.77"> </tspan><tspan x="-585.64" y="69.71">human</tspan><tspan x="-585.64" y="209.14"> </tspan><tspan x="-585.64" y="223.08">resources</tspan><tspan x="-585.64" y="474.04"> </tspan><tspan x="-585.64" y="487.98">at</tspan><tspan x="-585.64" y="543.75"> </tspan><tspan x="-603.39" y="0">Unilever,</tspan><tspan x="-603.39" y="250.96"> </tspan><tspan x="-603.39" y="264.91">spoke</tspan><tspan x="-603.39" y="404.33"> </tspan><tspan x="-603.39" y="418.27">of</tspan><tspan x="-603.39" y="474.04"> </tspan><tspan x="-621.14" y="0">something</tspan><tspan x="-621.14" y="250.96"> </tspan><tspan x="-621.14" y="264.91">he</tspan><tspan x="-621.14" y="320.67"> </tspan><tspan x="-621.14" y="334.62">believed</tspan><tspan x="-621.14" y="557.7"> </tspan><tspan x="-638.88" y="0">to</tspan><tspan x="-638.88" y="55.77"> </tspan><tspan x="-638.88" y="69.71">be</tspan><tspan x="-638.88" y="125.48"> </tspan><tspan x="-638.88" y="139.42">missing</tspan><tspan x="-638.88" y="334.62"> </tspan><tspan x="-638.88" y="348.56">when</tspan><tspan x="-638.88" y="460.1"> </tspan><tspan x="-638.88" y="474.04">it</tspan><tspan x="-638.88" y="529.81"> </tspan><tspan x="-656.63" y="0">came</tspan><tspan x="-656.63" y="111.54"> </tspan><tspan x="-656.63" y="125.48">to</tspan><tspan x="-656.63" y="181.25"> </tspan><tspan x="-656.63" y="195.19">organisations</tspan><tspan x="-656.63" y="557.7"> </tspan><tspan x="-674.38" y="0">and</tspan><tspan x="-674.38" y="83.65"> </tspan><tspan x="-674.38" y="97.6">corporate</tspan><tspan x="-674.38" y="348.56"> </tspan><tspan x="-674.38" y="362.5">social</tspan><tspan x="-674.38" y="529.81"> </tspan><tspan x="-692.13" y="0">responsibility</tspan><tspan x="-692.12" y="390.39"> </tspan><tspan x="-692.13" y="404.33">(CSR).</tspan><tspan class="cls-4"><tspan x="-709.87" y="0">“</tspan><tspan class="cls-5" x="-709.87" y="27.88">What</tspan><tspan class="cls-5" x="-709.87" y="139.42"> </tspan><tspan class="cls-5" x="-709.87" y="153.37">I</tspan><tspan class="cls-5" x="-709.87" y="181.25"> </tspan><tspan class="cls-5" x="-709.87" y="195.19">think</tspan><tspan class="cls-5" x="-709.87" y="334.62"> </tspan><tspan class="cls-5" x="-709.87" y="348.56">is</tspan><tspan class="cls-5" x="-709.87" y="404.33"> </tspan><tspan class="cls-5" x="-709.87" y="418.27">lack</tspan><tspan class="cls-5" x="-711.32" y="529.81">-</tspan></tspan><tspan x="-727.62" y="0">ing,</tspan><tspan x="-727.62" y="111.54"> </tspan><tspan x="-727.62" y="125.48">as</tspan><tspan x="-727.62" y="181.25"> </tspan><tspan x="-727.62" y="195.19">I</tspan><tspan x="-727.62" y="223.08"> </tspan><tspan x="-727.62" y="237.02">look</tspan><tspan x="-727.62" y="348.56"> </tspan><tspan x="-727.62" y="362.5">around,</tspan><tspan x="-727.62" y="557.7"> </tspan><tspan x="-745.37" y="0">is</tspan><tspan x="-745.36" y="55.77"> </tspan><tspan x="-745.37" y="69.71">that</tspan><tspan x="-745.36" y="181.25"> </tspan><tspan x="-745.37" y="195.19">aspect</tspan><tspan x="-745.36" y="362.5"> </tspan><tspan x="-745.37" y="376.44">of</tspan><tspan x="-745.36" y="432.21"> </tspan><tspan x="-745.37" y="446.16">how</tspan><tspan x="-745.36" y="529.81"> </tspan><tspan x="-763.11" y="0">can</tspan><tspan x="-763.11" y="83.65"> </tspan><tspan x="-763.11" y="97.6">you</tspan><tspan x="-763.11" y="181.25"> </tspan><tspan x="-763.11" y="195.19">shift</tspan><tspan x="-763.11" y="334.62"> </tspan><tspan x="-763.11" y="348.56">the</tspan><tspan x="-763.11" y="432.21"> </tspan><tspan x="-763.11" y="446.16">cul</tspan><tspan x="-764.56" y="529.81">-</tspan><tspan x="-780.86" y="0">ture</tspan><tspan x="-780.86" y="111.54"> </tspan><tspan x="-780.86" y="125.48">of</tspan><tspan x="-780.86" y="181.25"> </tspan><tspan x="-780.86" y="195.19">whatever</tspan><tspan x="-780.86" y="418.27"> </tspan><tspan x="-780.86" y="432.21">or</tspan><tspan x="-782.31" y="487.98">-</tspan><tspan x="-798.61" y="0">ganisation</tspan><tspan x="-798.61" y="278.85"> </tspan><tspan x="-798.61" y="292.79">you</tspan><tspan x="-798.61" y="376.44"> </tspan><tspan x="-798.61" y="390.39">are</tspan><tspan x="-798.61" y="474.04"> </tspan><tspan x="-798.61" y="487.98">a</tspan><tspan x="-798.61" y="515.87"> </tspan><tspan x="-816.35" y="0">part</tspan><tspan x="-816.35" y="111.54"> </tspan><tspan x="-816.35" y="125.48">of</tspan><tspan x="-816.35" y="181.25"> </tspan><tspan x="-816.35" y="195.19">to</tspan><tspan x="-816.35" y="250.96"> </tspan><tspan x="-816.35" y="264.91">really</tspan><tspan x="-816.35" y="432.21"> </tspan><tspan x="-816.35" y="446.16">get</tspan><tspan x="-816.35" y="529.81"> </tspan><tspan x="-834.1" y="0">your</tspan><tspan x="-834.1" y="111.54"> </tspan><tspan x="-834.1" y="125.48">employees</tspan><tspan x="-834.1" y="376.44"> </tspan><tspan class="cls-4" x="-834.1" y="390.39">…</tspan><tspan x="-834.1" y="418.27"> </tspan><tspan x="-834.1" y="432.21">to</tspan><tspan x="-834.1" y="487.98"> </tspan><tspan x="-834.1" y="501.93">a</tspan><tspan x="-834.1" y="529.81"> </tspan><tspan x="-851.85" y="0">stage</tspan><tspan x="-851.85" y="139.42"> </tspan><tspan x="-851.85" y="153.37">where</tspan><tspan x="-851.85" y="292.79"> </tspan><tspan x="-851.85" y="306.73">they</tspan><tspan x="-851.85" y="418.27"> </tspan><tspan x="-851.85" y="432.21">are</tspan><tspan x="-851.85" y="515.87"> </tspan><tspan x="-869.59" y="0">not</tspan><tspan x="-869.59" y="83.65"> </tspan><tspan x="-869.59" y="97.6">only</tspan><tspan x="-869.59" y="209.14"> </tspan><tspan x="-869.59" y="223.08">aware</tspan><tspan x="-869.59" y="362.5"> </tspan><tspan x="-869.59" y="376.44">around</tspan><tspan x="-869.59" y="543.75"> </tspan><tspan x="-887.34" y="0">sustainability</tspan><tspan x="-887.34" y="390.39"> </tspan><tspan x="-905.09" y="0">issues,</tspan><tspan x="-905.09" y="195.19"> </tspan><tspan x="-905.09" y="209.14">but</tspan><tspan x="-905.09" y="292.79"> </tspan><tspan x="-905.09" y="306.73">they</tspan><tspan x="-905.09" y="418.27"> </tspan><tspan x="-905.09" y="432.21">now</tspan><tspan x="-905.09" y="515.87"> </tspan><tspan x="-922.83" y="0">feel</tspan><tspan x="-922.83" y="111.54"> </tspan><tspan x="-922.83" y="125.48">engaged</tspan><tspan x="-922.83" y="320.67"> </tspan><tspan x="-922.83" y="334.62">to</tspan><tspan x="-922.83" y="390.39"> </tspan><tspan x="-922.83" y="404.33">take</tspan><tspan x="-922.83" y="515.87"> </tspan><tspan x="-940.58" y="0">action,</tspan><tspan class="cls-4" x="-940.58" y="195.19">”</tspan><tspan x="-940.58" y="223.08"> </tspan><tspan x="-940.58" y="237.02">he</tspan><tspan x="-940.58" y="292.79"> </tspan><tspan x="-940.58" y="306.73">said.</tspan><tspan x="-958.33" y="0">At</tspan><tspan x="-958.33" y="55.77"> </tspan><tspan x="-958.33" y="69.71">GoodUp,</tspan><tspan x="-958.33" y="264.91"> </tspan><tspan x="-958.33" y="278.85">we</tspan><tspan x="-958.33" y="334.62"> </tspan><tspan x="-958.33" y="348.56">stand</tspan><tspan x="-958.33" y="487.98"> </tspan><tspan x="-976.07" y="0">alongside</tspan><tspan x="-976.07" y="250.96"> </tspan><tspan x="-976.07" y="264.91">this</tspan><tspan x="-976.07" y="376.44"> </tspan><tspan x="-976.07" y="390.39">state</tspan><tspan x="-977.52" y="529.81">-</tspan><tspan x="-993.82" y="0">ment.</tspan><tspan x="-993.82" y="139.42"> </tspan><tspan x="-993.82" y="153.37">Acts</tspan><tspan x="-993.82" y="264.91"> </tspan><tspan x="-993.82" y="278.85">of</tspan><tspan x="-993.82" y="334.62"> </tspan><tspan x="-993.82" y="348.56">corpo</tspan><tspan x="-995.27" y="487.98">-</tspan><tspan x="-1011.57" y="0">rate</tspan><tspan x="-1011.57" y="111.54"> </tspan><tspan x="-1011.57" y="125.48">giving</tspan><tspan x="-1011.57" y="292.79"> </tspan><tspan x="-1011.57" y="306.73">and</tspan><tspan x="-1011.57" y="390.39"> </tspan><tspan x="-1011.57" y="404.33">volun</tspan><tspan x="-1013.02" y="543.75">-</tspan></text></g></g></svg>