<svg xmlns="http://www.w3.org/2000/svg" viewBox="0 0 1080 1080"><defs><style>.cls-1{fill:#333;}.cls-2{fill:#191919;}.cls-3{fill:#4d4d4e;}.cls-4{fill:#ed2024;}.cls-5{fill:#cccccb;}</style></defs><title>Artboard 3</title><g id="Layer_3" data-name="Layer 3"><path class="cls-1" d="M848.5,310.6h0a39.74,39.74,0,0,0-16-8.51L608.07,242.84a100.19,100.19,0,0,0-33.65-3l-404.37,33a30.07,30.07,0,0,0-13.9,4.75h0a30,30,0,0,0-13.65,25.14V500.2a100,100,0,0,0,7.89,38.94L266.6,814a42.27,42.27,0,0,0,35.24,25.66h0a42.2,42.2,0,0,0,16.92-1.94L916.23,641.51a28.17,28.17,0,0,0,14.68-11.16h0A27.88,27.88,0,0,0,934.7,622l.84-3.13a28.23,28.23,0,0,0,0-14.71L860.65,330A39.61,39.61,0,0,0,848.5,310.6Z"/><polygon class="cls-2" points="836.5 318.47 836.5 546.47 910.5 606.47 836.5 318.47"/><path class="cls-3" d="M836.5,546.47,320.27,669.41l17.22,93.17a10,10,0,0,0,12.64,7.78L910.5,606.47Z"/><path class="cls-1" d="M320.27,669.41,271.41,405.79a10,10,0,0,1,8.49-11.73l556.6-75.59v228Z"/><path class="cls-3" d="M223.1,379.87A10,10,0,0,0,225,366.25l-50.37-70.87a12.83,12.83,0,0,0-17.4-3.25h0a12.83,12.83,0,0,0-4.39,16.66L193,388.47a10,10,0,0,0,15.17,3.33Z"/><path class="cls-2" d="M774.5,367V527.41a10,10,0,0,1-7.87,9.77l-431.1,96.89a10,10,0,0,1-12.08-8.84l-18.07-193.3a10,10,0,0,1,8.53-10.82l449.16-64A10,10,0,0,1,774.5,367Z"/><path class="cls-1" d="M353.6,470.85v36.77l-14.08,14.16-4.73-3V468Zm-18.81,110.3V530.44l4.73-4.76,14.08,9v36.77Zm80.2-3.28-68.41,14.44q-9.4,0-11.79-7.26l18.81-9.7,54.72-11.2Zm-6.67-119.61L353.84,467,335,464.09q2.36-8.16,11.79-11.55L415,442.11Zm4.45,38.92V457.55l6.64-16.11q8.8.53,11,7.68v52.45L426,506.11ZM426,509.86l4.38,2.95v52.44q-2.19,8-11,11.69l-6.64-13.7V523.61Z"/><path class="cls-1" d="M480.65,450.39v34.82L468,498.49l-4.23-2.92v-48ZM463.79,554.65v-48l4.23-4.47,12.63,8.69v34.82Zm72-2.28-61.43,13c-5.62,0-9.15-2.37-10.56-7l16.86-9,49.13-10.05Zm-6-113.48-48.92,7.8L464,443.84q2.12-7.71,10.57-10.84l61.21-9.37Zm4,36.95V438.26l6-15.24q7.92.57,9.88,7.38v49.75l-3.94,4.27ZM545.69,488l3.94,2.83v49.75q-2,7.53-9.88,11l-6-13.06V500.89Z"/><path class="cls-1" d="M594.91,432v33.07l-11.38,12.5-3.82-2.81V429.18Zm-15.2,98.84V485.26l3.82-4.2,11.38,8.36v33.07Zm65-1.45-55.45,11.71q-7.62-.14-9.53-6.75l15.2-8.37,44.36-9.08Zm-5.42-107.94-44.17,7-15.2-2.84q1.9-7.29,9.53-10.22L644.69,407Zm3.62,35.15V420.86l5.4-14.44q7.15.6,8.93,7.08v47.33l-3.56,4Zm10.77,11.65,3.56,2.73v47.32a14.86,14.86,0,0,1-8.93,10.33l-5.4-12.47V480.42Z"/><path class="cls-1" d="M698.23,415.35v31.48l-10.32,11.81-3.46-2.7V412.56Zm-13.78,94V465.94l3.46-4L698.23,470v31.48Zm58.95-.76-50.32,10.62c-4.59-.14-7.48-2.31-8.63-6.52l13.78-7.82,40.25-8.24Zm-4.92-102.93L698.4,412l-13.78-2.81a13.45,13.45,0,0,1,8.63-9.66l50.15-7.67Zm3.28,33.53V405.09l4.91-13.72q6.51.61,8.12,6.81V443.3l-3.24,3.81Zm9.79,11.19,3.24,2.63v45.12a13.82,13.82,0,0,1-8.12,9.77l-4.91-11.94V461.86Z"/><path class="cls-4" d="M412.77,497.18V457.55l6.64-16.11q8.79.53,11,7.68v52.45L426,506.11ZM426,509.86l4.38,2.95v52.44q-2.19,8-11,11.69l-6.64-13.7V523.61Z"/><path class="cls-4" d="M480.65,450.39v34.82L468,498.49l-4.23-2.92v-48Zm49.13-11.5-48.92,7.8L464,443.84q2.12-7.71,10.57-10.84l61.21-9.37Zm4,36.95V438.26l6-15.24q7.92.57,9.88,7.38v49.75l-3.94,4.27ZM545.69,488l3.94,2.83v49.75q-2,7.53-9.88,11l-6-13.06V500.89Z"/><path class="cls-4" d="M594.91,432v33.07l-11.38,12.5-3.82-2.81V429.18Zm-15.2,98.84V485.26l3.82-4.2,11.38,8.36v33.07Zm65-1.45-55.45,11.71q-7.62-.14-9.53-6.75l15.2-8.37,44.36-9.08Zm-5.42-107.94-44.17,7-15.2-2.84q1.9-7.29,9.53-10.22L644.69,407Zm3.62,35.15V420.86l5.4-14.44q7.15.6,8.93,7.08v47.33l-3.56,4Zm10.77,11.65,3.56,2.73v47.32a14.86,14.86,0,0,1-8.93,10.33l-5.4-12.47V480.42Z"/><path class="cls-4" d="M687.91,458.64l-3.46-2.7V409.23a13.42,13.42,0,0,1,8.63-9.66L698.23,412v34.79ZM698.23,470v34.8l-5.15,14.34c-4.59-.14-7.48-2.31-8.63-6.52V465.94l3.46-4Zm43.53-26,6.54,5.3L741.76,457l-43.53,8.07-6.87-5.38,6.87-7.88ZM701.64,438l40.12-45.84c6.54-1,10.87.49,13,4.45l-43,49.51-10.18,1.8Zm49.91,12.38,3.24,2.63v45.12a13.82,13.82,0,0,1-8.12,9.77l-4.91-11.94V461.86Z"/><path class="cls-5" d="M851,312.82h0A28.44,28.44,0,0,0,828.91,306L242,376a29.94,29.94,0,0,0-15.14,6.33l-20.65,16.45a10,10,0,0,0-3.6,9.62l75.59,412.11h0c.68,6,10.15,15.48,15.35,18.5,4.93,2.87,9.6,3.46,22.84-.43,140.89-41.31,534.77-174.81,599.95-196.95a28.5,28.5,0,0,0,14.57-11.2h0a28.5,28.5,0,0,0,3.84-8.48l.79-3a28.59,28.59,0,0,0,0-14.89L859.76,326.75A28.43,28.43,0,0,0,851,312.82ZM279.9,394.06l547.78-74.39a10,10,0,0,1,11,7.42l69.38,270a10,10,0,0,1-6.88,12.08L350.12,770.36a10,10,0,0,1-12.64-7.78L271.41,405.79A10,10,0,0,1,279.9,394.06Z"/></g></svg>