<svg id="Layer_1" data-name="Layer 1" xmlns="http://www.w3.org/2000/svg" viewBox="0 0 2200 2200"><defs><style>.cls-1,.cls-11{fill:#fff;}.cls-2{fill:#333;}.cls-3{fill:#da202c;}.cls-4{fill:#89181c;}.cls-5{fill:#191919;}.cls-6{fill:#8dcbf0;}.cls-7{fill:#fdb913;}.cls-8{fill:#f68d61;}.cls-9{opacity:0.7;}.cls-10{fill:#bce0f2;}.cls-10,.cls-11{stroke:#000;stroke-linecap:round;stroke-linejoin:round;stroke-width:3px;}</style></defs><title>Artboard 1</title><path class="cls-1" d="M388.05,799.5s208-32,402-51,301-32,381-24c71-12,211,7,279,18s162,44,163,63,0,53,0,53l110,125,36,22h18c75,28,163,73,164,92s0,24,0,24,6,9,6,23c0,103-5,304-5,304s-321,90-384,99-116-30-128-74-25-148-71-178-139-33-192-20-88,144-88,204c-88-15-640-106-640-106s-4-83-18-113-36-42-88-39-65,82-74,123l-3-30-29.79-2.71a20,20,0,0,1-17.65-15.32c-4.88-20.72-13.44-60.57-15.56-93-3-46-5-110,10-173,12.58-52.82,57.48-162.56,71.67-196.66a23.91,23.91,0,0,1,15.4-13.78C306,815.47,338.86,807,388.05,799.5Z"/><path d="M421.05,1260.5c-14-30-36-42-88-39-47.4,2.73-64.89,82.75-74.42,127.94a10,10,0,0,0,9.78,12.06h58.64l107.72-37.88C432,1300.27,427.62,1274.56,421.05,1260.5Z"/><path d="M1430.05,1473.5c-12-44-25-148-71-178s-139-33-192-20-88,144-88,204c0,0,40,8,74-17,55.1,10,204.89,24.13,285.67,31.35A84.18,84.18,0,0,1,1430.05,1473.5Z"/><path d="M1235.81,1324c-52.06,13.7-91.76,74.57-91.76,148.47,0,83.41,50.37,151,112.5,151,14.24,0,59.76-4.74,70-4.74,62.14,0,112.5-67.62,112.5-151,0-75.18-40.89-137.66-94.49-149.1C1311.05,1311.5,1272.05,1314.5,1235.81,1324Z"/><ellipse class="cls-2" cx="1256.55" cy="1472.5" rx="112.5" ry="151.03"/><ellipse class="cls-3" cx="1257.55" cy="1476.5" rx="77.5" ry="104.04"/><ellipse class="cls-4" cx="1286.55" cy="1471.5" rx="36.5" ry="49"/><path d="M449.05,1248.35c-15.84,0-68-1.85-96.81,13-27.37,14.12-47.19,57-47.19,107.64,0,62.21,30,112.65,67,112.65,15.85,0,71-3.15,96.93-13.07,28.74-11,47.07-57,47.07-107.58C516.05,1298.79,486.06,1248.35,449.05,1248.35Z"/><ellipse class="cls-2" cx="372.05" cy="1369" rx="67" ry="112.65"/><ellipse class="cls-3" cx="373.05" cy="1370" rx="44" ry="75.67"/><path class="cls-4" d="M412.45,1336.29a11.86,11.86,0,0,0-7.4-2.79c-10.49,0-19,15.89-19,35.5s8.51,35.5,19,35.5a12.23,12.23,0,0,0,8.11-3.39,126.07,126.07,0,0,0-.71-64.82Z"/><path class="cls-2" d="M900.05,1066.5s480,16,502,16,69,2,232,2,299.59,1.42,299.59,1.42h0c-22.81-22.07-94.54-56.21-156.59-80.42-13.58-5.3-54-22-54-22l-110-125s1-34,0-53-95-52-163-63-208-30-279-18c-80-8-187,5-381,24s-402,51-402,51q-8.31,1.28-16,2.57Z"/><path class="cls-5" d="M1941.05,1097.5c-16.4.08-230.89,1.08-328,3-101,2-165,0-290-5s-422-18-422-18-224-83-364-137S274.65,834,274.64,834c-14.27,34.3-59,143.74-71.59,196.46-15,63-13,127-10,173,2.12,32.4,10.68,72.25,15.56,93a20,20,0,0,0,17.65,15.32l29.79,2.71,3,30c9-41,22-120,74-123s74,9,88,39,18,113,18,113,552,91,640,106c0-60,35-191,88-204s146-10,192,20,59,134,71,178,65,83,128,74,384-99,384-99,5-201,5-304c0-14-6-23-6-23S1942.05,1116.5,1941.05,1097.5Z"/><path class="cls-2" d="M1598.05,1510.5c-57,10-85-11-103-25s-33-95-32-115-23-104-87-125-174.22-35.2-223,19c-54,60-68.94,166.24-68.94,166.24s-542.06-73.24-598.06-81.24c-3-56-16-96-31-125s-93-43-140-14c-31,19.14-48.61,78.5-53.93,117.15-1.57,11.35-2.57,17.35-2.49,21.79,9.53-45.19,27-125.21,74.42-127.94,52-3,74,9,88,39s18,113,18,113,552,91,640,106c0-60,35-191,88-204s146-10,192,20,59,134,71,178,65,83,128,74,384-99,384-99,.23-9.25.6-24.78C1869.23,1443.19,1645.53,1502.17,1598.05,1510.5Z"/><path class="cls-6" d="M952.41,960.46l28-150.38a40,40,0,0,1,36.73-32.6l110.71-7.21a40,40,0,0,1,38.82,23l75.91,162.09A13,13,0,0,1,1231,973.83L967.41,978.2A15,15,0,0,1,952.41,960.46Z"/><path class="cls-6" d="M1613.05,858.5s.75-25.48.31-44.65c0,1.67.06,3.39.09,5.14,0,0-27.4-23.49-95.4-31.49s-218-23-256-16c-36.21,6.67-29.74,27.88-26.45,57.55a4,4,0,0,1-4,4.45h-5.9l72.33,142,425,8Z"/><path d="M1613.06,858.42c0-1.4.61-21.79.39-39.43,0,0-15.71-13.45-52.78-23.46C1575.31,813.42,1597.52,840.37,1613.06,858.42Z"/><path class="cls-5" d="M1613.45,819h0c-.06-4.86-.19-9.5-.4-13.49-1-19-95-52-163-63-63.69-10.3-190.54-27.62-264.7-19.92-.66.08-1.23.15-1.71.19q-3.41.38-6.66.83c-16.74,2.59-16.61,7.43-13.93,11.9,3,5,52,98,52,98h16.57a4,4,0,0,0,4-4.45c-3.29-29.67-9.76-50.88,26.45-57.55,38-7,188,8,256,16S1613.45,819,1613.45,819Z"/><path class="cls-4" d="M289.62,820.21s23.43-49.71,43.43-54.71,45-10,79-7,140.41,17.78,140.41,17.78L466.7,788s-76.65-14.51-81.65-11.51,3,23,3,23S321.18,810.92,289.62,820.21Z"/><path class="cls-7" d="M1611.74,1230.15l-36,1.64a15,15,0,0,1-15.69-15v-54.3a15,15,0,0,1,15-15h36a15,15,0,0,1,15,15v52.67A15,15,0,0,1,1611.74,1230.15Z"/><path class="cls-7" d="M1612.64,1293.92l-36,3.82a15,15,0,0,1-16.59-14.92v-22.2a15,15,0,0,1,14.1-15l36-2.19a15,15,0,0,1,15.9,15V1279A15,15,0,0,1,1612.64,1293.92Z"/><path d="M1634.05,1278.49V1157.34a10,10,0,0,1,9.84-10l292.92-4.68a10,10,0,0,1,10.16,10.09l-.84,97.74a10,10,0,0,1-9,9.87L1645,1288.45A10,10,0,0,1,1634.05,1278.49Z"/><path d="M1613.06,1318.29a15,15,0,0,1-15-15V1144.35a15.07,15.07,0,0,1,14.78-15h0l381-5.7a15,15,0,0,1,15.22,15v120.93a15,15,0,0,1-13.29,14.9l-381,43.71A16.31,16.31,0,0,1,1613.06,1318.29Zm-.08-178.94a5,5,0,0,0-4.93,5v158.94a5,5,0,0,0,5.57,5l381-43.7a5,5,0,0,0,4.43-5V1138.65a5,5,0,0,0-5.07-5l-381,5.7Z"/><path d="M1947.05,1339.65a5,5,0,0,1-1.32-9.82l31.5-8.65a5,5,0,1,1,2.65,9.64l-31.5,8.65A5.07,5.07,0,0,1,1947.05,1339.65Z"/><path d="M1947.05,1380.65a5,5,0,0,1-1.32-9.82l31.5-8.65a5,5,0,1,1,2.65,9.64l-31.5,8.65A5.07,5.07,0,0,1,1947.05,1380.65Z"/><polygon points="1947.83 1326.17 1935.58 1460 1908 1456.85 1907.6 1118 1930.93 1127.09 1947.83 1326.17"/><path d="M1744.55,1376a7,7,0,0,1-1.17-13.9l188-32a7,7,0,1,1,2.35,13.8l-188,32A6.8,6.8,0,0,1,1744.55,1376Z"/><path d="M1736.55,1502a7,7,0,0,1-1.83-13.76l188-51a7,7,0,0,1,3.67,13.52l-188,51A7.32,7.32,0,0,1,1736.55,1502Z"/><polygon points="1763.56 1360 1749.56 1513 1718.02 1509.4 1717.56 1122 1744.23 1132.39 1763.56 1360"/><path d="M1597.57,1379.15c-47,0-89.2-2.62-89.83-2.66a5,5,0,1,1,.63-10c1,.06,95.35,5.91,158.22,0l64-6a5,5,0,0,1,.93,10l-64,6C1646.17,1378.48,1621.27,1379.15,1597.57,1379.15Z"/><path d="M1597.75,1430.59c-40.27,0-74.63-3.06-75.15-3.11a5,5,0,0,1,.91-10c.76.07,77.17,6.87,135,0,58-6.88,70.64-9,70.76-9a5,5,0,1,1,1.65,9.86c-.5.08-12.79,2.1-71.24,9C1639.91,1429.81,1618.07,1430.59,1597.75,1430.59Z"/><rect class="cls-8" x="1439.05" y="1157.5" width="69" height="39" rx="5" ry="5"/><path class="cls-7" d="M1630.18,1503.39l-16,3.7a5,5,0,0,1-6.13-4.88v-21.73a5,5,0,0,1,3.88-4.87l16-3.7a5,5,0,0,1,6.12,4.88v21.73A5,5,0,0,1,1630.18,1503.39Z"/><rect class="cls-3" x="191.05" y="1118.5" width="30" height="27" rx="5" ry="5"/><path class="cls-3" d="M1613.05,1100.5c97.11-1.92,311.6-2.92,328-3h0c-.16-3.19-2.8-7.12-7.41-11.58h0s-136.59-1.42-299.59-1.42-210-2-232-2c-18.36,0-356-11.15-467-14.84a159.82,159.82,0,0,1-66.34-16.85L372.06,802.07c-40.34,6.8-67.79,13.9-81.89,18a23.87,23.87,0,0,0-15.44,13.79l-.09.2S397.06,886.5,537.05,940.5c107.09,41.3,263.32,103.09,330.86,129.85a200,200,0,0,0,68.79,14c82.66,2,287.88,7.2,386.35,11.14C1448.05,1100.5,1512.05,1102.5,1613.05,1100.5Z"/><g class="cls-9"><line class="cls-10" x1="1139.55" y1="771.25" x2="1135.54" y2="975.41"/><line class="cls-11" x1="210.64" y1="1008.72" x2="1260.05" y2="990.5"/><line class="cls-11" x1="193.37" y1="1170.1" x2="1186.05" y2="1222.5"/><line class="cls-11" x1="1302.05" y1="990.5" x2="1749.23" y2="996.44"/></g><path class="cls-3" d="M272.83,1120.25l1.19-52.4-9.66-.08.19-8.59,26.71,0-.2,8.77-9.92-.08-1.21,52.69Z"/><path class="cls-3" d="M295.74,1121.36l1.57-66.58h7.11l-.66,27.71a34.86,34.86,0,0,1-.3,3.48c2.39-4.15,6.16-7.23,10.86-7.15,7.64.12,12.83,7,12.52,19.28l-.62,24.74-7.4-.36.6-24.24c.19-7.5-3-11.54-7.47-11.64s-8.13,4.91-8.56,11.24l-.57,23.87Z"/><path class="cls-3" d="M334.11,1101.59c.31-12.32,7.26-22.35,17.81-22.18,11.47.19,16.35,10.75,16,23.28l-.06,2.43-26.26-.9c.52,8.46,5,12.51,10.08,12.73,4.77.2,8.14-2.53,10.19-6l5.23,5.24c-3.71,5.62-7.87,9.14-15.93,8.75C340.66,1124.44,333.78,1114.44,334.11,1101.59Zm7.89-3.78,18.18.54c-.5-6.62-3.7-10.79-8.54-10.89C347.12,1087.36,343.2,1090.86,342,1097.81Z"/><path class="cls-3" d="M426.5,1108.78l-18.09-.64-5.17,18.41-9.05-.44,20-66.7h9.23l16.77,68.91-9.44-.45ZM411,1099l13.37.39-4.57-20.71a66.25,66.25,0,0,1-1.34-7.5,73.94,73.94,0,0,1-1.77,7.64Z"/><path class="cls-3" d="M445.35,1105.11l.25-8.29,20.88.56-.26,8.4Z"/><path class="cls-3" d="M483.69,1130.44l1.94-60.87-13-.1.31-10,36.11,0-.34,10.21-13.42-.11-2,61.25Z"/><path class="cls-3" d="M507,1107.21c.45-13.88,9.34-25.16,22.76-25,14.62.24,20.79,12.19,20.3,26.34l-.09,2.75-33.45-1.15c.62,9.54,6.26,14.13,12.76,14.41a14.5,14.5,0,0,0,13-6.69l6.66,6c-4.77,6.32-10.09,10.27-20.36,9.77C515.21,1133,506.52,1121.68,507,1107.21Zm10-4.23,23.15.68c-.61-7.47-4.66-12.19-10.83-12.32C523.61,1091.21,518.61,1095.15,517,1103Z"/><path class="cls-3" d="M602.08,1136.15c-6.19-.3-9.23-4.13-10.47-9.5a20.53,20.53,0,0,1-18.74,9.16c-10.62-.52-15.67-8-15.4-15.5.31-9,7.37-16.35,21.64-15.93a55.68,55.68,0,0,1,12.12,2l.09-2.6c.23-6.4-3.89-10.83-10.48-11a13.08,13.08,0,0,0-10.94,5.75l-7.22-6.26a22,22,0,0,1,18.93-9.62c12.93.21,20.67,8.74,20.22,21.07l-.7,18.86a2.83,2.83,0,0,0,2.89,3.17l1.46.06-.39,10.48Zm-11.23-22.21a49.92,49.92,0,0,0-10.31-1.65c-7.43-.26-12.33,3-12.5,7.8-.12,3.52,2.26,6.51,7.45,6.73C584.15,1127.2,589.48,1120.61,590.85,1113.94Z"/><path class="cls-3" d="M614.71,1136.76l1.94-51.89,10.94.18-.12,3.11a27.22,27.22,0,0,1-.47,4,17.45,17.45,0,0,1,14.87-8.08c7.31.12,12.13,3.69,14.55,9.6a19.47,19.47,0,0,1,17.13-9.09c10.45.16,17.63,7.19,17.08,20.66l-1.43,35.13-11.75-.57,1.38-34.32c.26-6.51-3.42-10.94-9.39-11.07s-11.13,4.62-11.46,13l-1.23,31.42-11.31-.54,1.31-33.91c.25-6.28-3.31-10.28-8.85-10.41s-10.59,4.21-11.1,12l-1.19,31.4Z"/></svg>