<svg xmlns="http://www.w3.org/2000/svg" viewBox="0 0 855.45 971.3"><defs><style>.cls-1{fill:#ff8c64;}.cls-2{fill:#ffa98b;}.cls-3{fill:#e62828;}.cls-4{fill:#3c96dc;}.cls-5{fill:#281e50;}.cls-6{fill:#fff;}.cls-7{fill:none;stroke:#281e50;stroke-linecap:round;stroke-linejoin:round;stroke-width:2.75px;}</style></defs><title>Asset 33</title><g id="Layer_2" data-name="Layer 2"><g id="Arm_Bicep" data-name="Arm Bicep"><path class="cls-1" d="M585.89,105.66s-37.07,19.45-25.77,45.57,42.34,21.54,80.6,1.7-54.83-47.27-54.83-47.27"/><path class="cls-2" d="M789.84,242.94c-13.49-70.81-59.4-131-89.09-190.32-.83-1.66-1.66-3.21-2.49-4.69l.47,0c-10.29-20-20.87-31.38-35.13-43.13s-86,1.87-86,1.87-49.74,4.15-54.06,8.56a11.24,11.24,0,0,0-3.46,9.23,33.62,33.62,0,0,0-4.94,15.62c-.5,9.11,9.24,16.12,9.24,16.12-2.29,5.92-4.55,6.08-3.11,14C524.82,89.87,549,89.59,549,89.59c-9.31,6.89-7.42,9.89-2.66,23.2s27.78,19.38,39,27.55,14.09,31,36.73,56.27S667.74,228,667.74,228l.12.19c28.32,252.23-65.08,501-97.18,476C383.71,558.41,229.54,589,229.54,589c-16.27,60.82-55.06,273.32-55.06,273.32,99.09,39.48,373.61,67.62,472.36,70.46C829.57,938,826,432.9,789.84,242.94"/><path class="cls-3" d="M293.17,797.46a66.14,66.14,0,0,1-8.71-50.06c2.4-10.75,7.75-21.5,17-28.67,11-8.5,26.93-10.79,39.51-5.92s21.31,16.55,22.27,29.33c-1-17.07,3.45-35.63,16.69-48.4s36.53-17.29,50.48-6.72c30.07,22.8,17,78.27,3.77,107.93-30.18,67.79-107.92,58.44-141,2.51"/><path class="cls-4" d="M87,887.77c22.06-15.14,26.4-45.74,29.25-70.83,6.19-54.68,18.57-109.08,25.73-163.74,3.08-23.48,5.15-49.72,11.26-72.66,6.86-25.79,6.38-23.07-18.75-39.37C95.44,515.84,47.52,479.65,0,471.4V928.33C17.21,928.33,76.8,894.78,87,887.77Z"/><path class="cls-5" d="M181.34,877.93l-63.17-11c-8.18-1.43-13.74-9.53-12.36-18l45.76-281.1A15.18,15.18,0,0,1,168.94,555l63.17,11c8.17,1.43,13.74,9.53,12.36,18L198.71,865.12a15.18,15.18,0,0,1-17.37,12.81"/><path class="cls-4" d="M487.12,771.81a31,31,0,1,1-24.46-36.3,31,31,0,0,1,24.46,36.3"/><path class="cls-6" d="M456.27,757.65l-3,15.45-4.43-.86.2-1a9.67,9.67,0,0,1,.31-1.06,5.55,5.55,0,0,1-5.17,1.59,5.21,5.21,0,0,1-3.67-2.59,7.18,7.18,0,0,1-.64-5.15l1.79-9.18,4.46.87-1.74,8.93a3.41,3.41,0,0,0,.35,2.56,2.73,2.73,0,0,0,1.86,1.25,2.8,2.8,0,0,0,2.11-.44,3.27,3.27,0,0,0,1.39-2.13l1.76-9.05Z"/><path class="cls-6" d="M465.17,771.67A3.09,3.09,0,0,0,468,771a5.43,5.43,0,0,0,1.16-5.9,3.09,3.09,0,0,0-2.34-1.66,3.16,3.16,0,0,0-2.69.66,4.53,4.53,0,0,0-1.52,2.76,4.7,4.7,0,0,0,.4,3.08,3,3,0,0,0,2.21,1.73m-5.76,10.84-4.27-.83,4.55-23.36,4.43.86-.3,1.55a6.05,6.05,0,0,1,4.86-1,6,6,0,0,1,4.43,3.32,9.09,9.09,0,0,1,.72,6,9.44,9.44,0,0,1-2.9,5.37,5.89,5.89,0,0,1-5.35,1.44,6,6,0,0,1-4.23-3.26Z"/><path class="cls-7" d="M482.62,677.25V661.49m58.53,20.26V670.5m-213.88-45v-9M376.8,895.63a110.42,110.42,0,0,0-4.5,40.52m151-29.84-15.88-4m49.19,15.5a38.61,38.61,0,0,0-10.75,34.06M645.11,907a175.38,175.38,0,0,0-9.63,62.9M784.25,679.28a240,240,0,0,1,69.83-4.17m-65-84.51c10.09,2.89,15.43,16.33,10.08,25.35M793.3,499.39h36m-71.89-94.52-5.1,22.38m31.78-175.51a26,26,0,0,1,11.38-20.34M757.84,337.18a68.41,68.41,0,0,1,2.35-36.46M719,413.84c1.87-6.54-7.69-12.67-12.86-8.25"/><path class="cls-7" d="M367.83,675a9.64,9.64,0,0,0-9-2.11m108.66,76.67c3.52-9.84-3.67-22-14-23.66m-9.16,95.47A161,161,0,0,1,459.57,794M264.65,820.88a27.39,27.39,0,0,0-25.11-6m20.19,53.78v47.28m9.07-191.21c-6.38-2.66-13.88,2.24-16.57,8.6s-1.91,13.61-1.07,20.47m58.88-83a51.41,51.41,0,0,0-30-2.07m31.47-67.72a16.22,16.22,0,0,1-17.1-24.41m81.06,64.64c-1.36-8.28-2.71-16.8-.9-25s7.54-16.1,15.73-17.9M388.28,738a104.39,104.39,0,0,1,1.25-31.65m-11.09,82.5a14.5,14.5,0,0,1-18.28-2.81m-46.4,89.32V832.59m94.56,38.27a124.66,124.66,0,0,0-33.77-2.25m96.81,22.52-31.2-.13a210.52,210.52,0,0,0-7.31,38.38m56.22-128.46a47.79,47.79,0,0,0,4.38,50M458.82,679.46c-1.32-11.29-2.64-22.74-1-34s6.58-22.48,15.65-29.34m45.18,81.39v-27M611.51,828a25.72,25.72,0,0,0-18.63-20m14.38,56.36A38.41,38.41,0,0,0,609.07,892M553,812.41q-4.07,28.05-8.12,56.09M534.79,722.44a112,112,0,0,1-23.33,35.45m70.21-8.6v-27m77.81,112.47c1.55-10.35,3.08-21.07.21-31.13s-11.42-19.3-21.88-19.44m69.94,84.43c0,14.26,9,36.4,9,50.66m38.33-92.67c28.92,1.32,43.51,4.09,45.47,33m-52.29-99a105.81,105.81,0,0,0,36-6.86M627,650.18c-3.33-22.15-25.27-39.86-47.63-38.43m78.28,36.54a52.22,52.22,0,0,1-4.63-41m65.78,79a44.33,44.33,0,0,0-31.24-29.79M638,720V679.5m85.19,78.89A62,62,0,0,0,695,721m7.91,64.35a140.54,140.54,0,0,0,14,51.7m63-123.71a30.33,30.33,0,0,1,20.22-4.56m-70-141.9a136.78,136.78,0,0,1,20.72-44.82M696,618.66l4.83-45m-36.75-16.11c6.36-15.64-4.86-35.76-21.51-38.57m42.67-80.38c-10.37.41-36.59-.68-44.53-7.35m85-78.07-27-2.54m78.78-38.12,20.47-20m-2.88,127.67,20.47-20m-51.57,52h27m-78.46,6.77q-1.15,18-2.32,36m11-114.84H689.74M761,239.92a71,71,0,0,0-12.48,47.83m-34.23,2.68-26.81-16.1M764,594v56.28m5.11-152.08a61.81,61.81,0,0,1,33,41.81M767.44,388.59a133.91,133.91,0,0,1,45.12-55"/></g></g></svg>