<svg id="Layer_1" data-name="Layer 1" xmlns="http://www.w3.org/2000/svg" viewBox="0 0 555 550.63"><defs><style>.cls-1{fill:#e42b29;}.cls-2{fill:#991c1f;}</style></defs><title>1. We do good</title><path class="cls-1" d="M284.62,265.14C140,282.12,45.33,273.38,31.76,272c71.67,140.7,240.14,284.81,292.41,278.67,52.52-6.16,184.31-185.07,220.69-339.79l-1.83.22C534.34,214,434.12,247.59,284.62,265.14Z" transform="translate(0 -0.19)"/><path class="cls-1" d="M554,121.24C542.59,24.08,482.65-13.22,403.07,4.41,328.39,21,317.68,84.07,300.25,86.12c-23.64,2.77-75.57-94.59-180-69C26.78,39.94-7.35,112.38,1.29,186.13c3,25.19,13.9,54.42,30.16,85.23,49.61,15.31,126.17,26.56,247.46,12.32,46.08-5.41,78.52-1.92,116.37-4.66,1.9-.75,7.5-16.31,9.67-16.17.83,0,14.6,2.8,15.38,3,86-6,123.32-55,123.32-55l-.62.22,1.83-.22h0C553.27,177.45,557,146.66,554,121.24ZM110.72,61C104.44,82.44,80,95.15,57.47,119.3,31.85,143.62,25.64,177.14,24.55,179c-1.92,4.41-20-30.53,13.34-85.79C53.67,67,76.34,50.46,91,46.9,106.11,42.71,113.22,51.49,110.72,61Z" transform="translate(0 -0.19)"/><path class="cls-2" d="M91,46.9C76.34,50.46,53.67,67,37.89,93.19,4.57,148.45,22.63,183.39,24.55,179c1.09-1.84,7.3-35.36,32.92-59.68C80,95.15,104.44,82.44,110.72,61,113.22,51.49,106.11,42.71,91,46.9Z" transform="translate(0 -0.19)"/></svg>