<svg xmlns="http://www.w3.org/2000/svg" viewBox="0 0 651.72 919.17"><defs><style>.cls-1{isolation:isolate;}.cls-10,.cls-15,.cls-2{fill:none;}.cls-2{stroke:#281e50;stroke-width:6px;}.cls-15,.cls-2{stroke-miterlimit:10;}.cls-3{fill:#e5e5e5;mix-blend-mode:multiply;}.cls-4,.cls-7{fill:#3781c7;}.cls-5{fill:#e62828;}.cls-6{fill:#5f9ad2;}.cls-7{fill-rule:evenodd;}.cls-8{fill:#fff;}.cls-9{fill:#991613;}.cls-10{stroke:#b5b5b5;stroke-linejoin:round;stroke-width:3.67px;}.cls-10,.cls-15{stroke-linecap:round;}.cls-11{fill:#848483;}.cls-12{fill:#c1c1c1;}.cls-13{fill:#e6e6e6;}.cls-14{fill:#b5b5b5;}.cls-15{stroke:#1d143e;stroke-width:1.28px;}</style></defs><title>Asset 31</title><g class="cls-1"><g id="Layer_2" data-name="Layer 2"><g id="Dartboard"><line class="cls-2" x1="196.43" y1="81.22" x2="263.18" y2="119.47"/><line class="cls-2" x1="251.43" y1="27.47" x2="289.18" y2="92.72"/><line class="cls-2" x1="455.18" y1="81.22" x2="388.43" y2="120.72"/></g><g id="Hart"><ellipse class="cls-3" cx="506.65" cy="889.23" rx="134.1" ry="29.9" transform="translate(-10.77 6.22) rotate(-0.7)"/><path class="cls-4" d="M318.78,312.14c-170.52,0-279.46-23.08-295-26.59C87.91,458.88,264.22,649.38,325.86,649.38c61.93,0,239.62-190,303-364.86h-2.15C616.22,286.8,495.07,312.14,318.78,312.14ZM201.31,508.47c-14.86-9.2-42.2-36.32-67-72.33-52.25-76-49.21-110.48-45.72-104.68,1.72,2.52,20.5,43.76,53.6,81,30.17,36,57.67,59.23,71.81,86.38C220.06,510.82,216.92,518.61,201.31,508.47Z"/><path class="cls-5" d="M651.72,181.63c0-114.49-64.64-166-159.6-156.4C403,34.28,381.93,106.17,361.38,106.17c-27.88,0-75-120.25-200-104.8C49.58,15.19,0,94.73,0,181.63c0,29.69,8.75,65.15,23.46,103.19,13.36-2.21,107.13-16.6,277.56-16.6,54.33,0,105,1.4,149.36,3.37a16.72,16.72,0,0,1,7.3-.29,17.43,17.43,0,0,1,2.73.75c100.83,4.78,167.08,12.31,167.08,12.31l-.75.17h2.16C643.23,246.87,651.72,211.58,651.72,181.63ZM144.34,51.14c-10.23,24-40.4,35.48-69.89,60.47C41.34,136.4,29.55,174.51,28,176.5,25.19,181.36,9,138.29,55.24,78.59c21.93-28.29,50.55-44.42,68-46.55C141.48,29.23,148.55,40.41,144.34,51.14Z"/><path class="cls-6" d="M318.78,312.14c176.29,0,297.44-25.34,308-27.61l.75-.17s-66.25-7.53-167.08-12.31a16.86,16.86,0,0,1,11.1,15.62,48.87,48.87,0,0,1-7.54,1.89c-.88.15-1.77.28-2.68.39s-2.05.22-3.09.29-2.12.12-3.19.14h-1.93c-.82,0-1.64,0-2.44-.08h-.05c-1.6-.08-3.17-.23-4.69-.44a51.48,51.48,0,0,1-8.09-1.74,17.09,17.09,0,0,1,.26-3.25,16.87,16.87,0,0,1,12.31-13.27c-44.41-2-95-3.37-149.36-3.37-170.43,0-264.2,14.39-277.56,16.6l-1.67.28,1.94.45C39.32,289.06,148.26,312.14,318.78,312.14Zm46.36-19.9a15.51,15.51,0,0,1,2.05,7.54,47.6,47.6,0,0,1-11,2.26c-.79.07-1.6.13-2.42.17q-1,0-2,.06h-.76c-.63,0-1.26,0-1.88,0-1.18,0-2.35-.11-3.49-.22-1-.09-1.9-.21-2.83-.34a47.64,47.64,0,0,1-6.69-1.5,15.52,15.52,0,0,1,29-7.94Zm-80.76-19.51A16.85,16.85,0,0,1,304.2,286a17.13,17.13,0,0,1,.32,3.08,49.43,49.43,0,0,1-8.22,2,59,59,0,0,1-7.34.68c-.63,0-1.28,0-1.92,0h0c-.95,0-1.88,0-2.81-.07s-2-.11-2.93-.2-1.76-.19-2.61-.31a50.93,50.93,0,0,1-7.83-1.7A16.86,16.86,0,0,1,284.38,272.73ZM213.83,278a16.86,16.86,0,0,1,13.83,16.38,48.87,48.87,0,0,1-7.54,1.89c-.88.15-1.77.28-2.69.39s-2,.22-3.08.29-2.12.12-3.2.13l-1,0-.91,0c-.82,0-1.64,0-2.44-.08h0c-1.6-.09-3.17-.24-4.69-.44a50.36,50.36,0,0,1-8.09-1.75,16.22,16.22,0,0,1,.26-3.24A16.87,16.87,0,0,1,213.83,278Z"/><path class="cls-6" d="M142.23,412.46c-33.1-37.24-51.88-78.48-53.6-81-3.49-5.8-6.53,28.7,45.72,104.68,24.76,36,52.1,63.13,67,72.33,15.61,10.14,18.75,2.35,12.73-9.63C199.9,471.69,172.4,448.41,142.23,412.46Z"/><path class="cls-7" d="M293.74,286.31a1.85,1.85,0,0,0-2.74.54,2.47,2.47,0,0,0-.2,1.7,2.54,2.54,0,0,0,.84,1.47,1.63,1.63,0,0,0,1.47.42,1.68,1.68,0,0,0,1.26-.92,3,3,0,0,0-.63-3.21Z"/><path class="cls-7" d="M270.82,289.49a50.93,50.93,0,0,0,7.83,1.7l-.88-4.4,2.43-.48,1,4.86a1.78,1.78,0,0,0,.09.33c1,.09,1.94.16,2.93.2a1.91,1.91,0,0,0,.11-1.08l-1-4.93,2.41-.48,1.31,6.56c.64,0,1.29,0,1.92,0l-1.37-6.9,2.41-.48.17.84a3.31,3.31,0,0,1,2.24-1.52,3.25,3.25,0,0,1,2.92.76,5,5,0,0,1,1.6,2.87,5.2,5.2,0,0,1-.35,3.31,4.08,4.08,0,0,1-.28.44,49.43,49.43,0,0,0,8.22-2,17.13,17.13,0,0,0-.32-3.08,16.85,16.85,0,0,0-33.38,3.52Z"/><path class="cls-8" d="M280.2,286.31l-2.43.48.88,4.4c.85.12,1.72.23,2.61.31a1.78,1.78,0,0,1-.09-.33Z"/><path class="cls-8" d="M283.32,285.69l1,4.93a1.91,1.91,0,0,1-.11,1.08c.93.05,1.86.07,2.81.07h0l-1.31-6.56Z"/><path class="cls-8" d="M296.93,287.31a5,5,0,0,0-1.6-2.87,3.25,3.25,0,0,0-2.92-.76,3.31,3.31,0,0,0-2.24,1.52l-.17-.84-2.41.48,1.37,6.9a59,59,0,0,0,7.34-.68,4.08,4.08,0,0,0,.28-.44A5.2,5.2,0,0,0,296.93,287.31Zm-2.56,2.21a1.68,1.68,0,0,1-1.26.92,1.63,1.63,0,0,1-1.47-.42,2.54,2.54,0,0,1-.84-1.47,2.47,2.47,0,0,1,.2-1.7,1.85,1.85,0,0,1,2.74-.54,3,3,0,0,1,.63,3.21Z"/><path class="cls-7" d="M206.74,297h0a.43.43,0,0,0,0-.05Z"/><path class="cls-7" d="M217.54,294.06a1.84,1.84,0,0,0-2.75-.51,2.45,2.45,0,0,0-.81,1.51,2.55,2.55,0,0,0,.24,1.68c0,.07.09.13.13.19,1-.07,2.07-.17,3.08-.29a3,3,0,0,0,.3-.88A2.57,2.57,0,0,0,217.54,294.06Z"/><path class="cls-7" d="M194.22,291.55a16.22,16.22,0,0,0-.26,3.24,50.36,50.36,0,0,0,8.09,1.75l-.07-.09a4,4,0,0,1-.38-2.8l.91-5,2.44.45-.89,4.87a1.89,1.89,0,0,0,.21,1.4,1.54,1.54,0,0,0,1,.66,1.56,1.56,0,0,0,1.15-.25,1.78,1.78,0,0,0,.74-1.17l.9-4.94,2.42.44-1.27,7,.91,0,1,0,1.21-6.63,2.42.44-.15.84a3.47,3.47,0,0,1,5.08,1.19,5.08,5.08,0,0,1,.43,3.26.29.29,0,0,0,0,.09,48.87,48.87,0,0,0,7.54-1.89,16.86,16.86,0,0,0-33.44-2.81Z"/><path class="cls-8" d="M208.08,289.65l-.9,4.94a1.78,1.78,0,0,1-.74,1.17,1.56,1.56,0,0,1-1.15.25,1.54,1.54,0,0,1-1-.66,1.89,1.89,0,0,1-.21-1.4l.89-4.87-2.44-.45-.91,5a4,4,0,0,0,.38,2.8l.07.09c1.52.2,3.09.35,4.69.44l.06-.05a.43.43,0,0,1,0,.05c.8,0,1.62.07,2.44.08l1.27-7Z"/><path class="cls-8" d="M219.71,292.9a3.47,3.47,0,0,0-5.08-1.19l.15-.84-2.42-.44-1.21,6.63c1.08,0,2.15-.06,3.2-.13,0-.06-.09-.12-.13-.19a2.55,2.55,0,0,1-.24-1.68,2.45,2.45,0,0,1,.81-1.51,1.84,1.84,0,0,1,2.75.51,2.57,2.57,0,0,1,.19,1.7,3,3,0,0,1-.3.88c.92-.11,1.81-.24,2.69-.39a.29.29,0,0,1,0-.09A5.08,5.08,0,0,0,219.71,292.9Z"/><path class="cls-7" d="M450.59,290.29h.05v-.06A.15.15,0,0,1,450.59,290.29Z"/><path class="cls-7" d="M461.39,287.37a1.67,1.67,0,0,0-1.28-.89,1.7,1.7,0,0,0-1.46.38,2.44,2.44,0,0,0-.82,1.51,2.61,2.61,0,0,0,.24,1.68c0,.07.09.13.13.19,1-.07,2.07-.17,3.09-.29a3.25,3.25,0,0,0,.29-.88A2.59,2.59,0,0,0,461.39,287.37Z"/><path class="cls-7" d="M438.07,284.86a17.09,17.09,0,0,0-.26,3.25,51.48,51.48,0,0,0,8.09,1.74l-.07-.09a4,4,0,0,1-.38-2.8l.91-5,2.44.44-.89,4.87a1.88,1.88,0,0,0,.21,1.4,1.53,1.53,0,0,0,2.17.41,1.78,1.78,0,0,0,.74-1.17l.9-4.94,2.42.44-1.27,7H455l1.2-6.64,2.42.44-.15.85a3.47,3.47,0,0,1,5.08,1.19,5,5,0,0,1,.43,3.26.19.19,0,0,0,0,.08,48.87,48.87,0,0,0,7.54-1.89,16.86,16.86,0,0,0-11.1-15.62,17.43,17.43,0,0,0-2.73-.75,16.9,16.9,0,0,0-19.61,13.56Z"/><path class="cls-8" d="M454.35,283.4l-2.42-.44-.9,4.94a1.78,1.78,0,0,1-.74,1.17,1.53,1.53,0,0,1-2.17-.41,1.88,1.88,0,0,1-.21-1.4l.89-4.87-2.44-.44-.91,5a4,4,0,0,0,.38,2.8l.07.09c1.52.21,3.09.36,4.69.44a.15.15,0,0,0,.06-.05v.06c.8,0,1.62.07,2.44.08Z"/><path class="cls-8" d="M463.56,286.22a3.47,3.47,0,0,0-5.08-1.19l.15-.85-2.42-.44-1.2,6.64c1.07,0,2.14-.07,3.19-.14,0-.06-.09-.12-.13-.19a2.61,2.61,0,0,1-.24-1.68,2.44,2.44,0,0,1,.82-1.51,1.7,1.7,0,0,1,1.46-.38,1.67,1.67,0,0,1,1.28.89,2.59,2.59,0,0,1,.19,1.7,3.25,3.25,0,0,1-.29.88c.91-.11,1.8-.24,2.68-.39a.19.19,0,0,1,0-.08A5,5,0,0,0,463.56,286.22Z"/><path class="cls-7" d="M356.77,299.4a1.52,1.52,0,0,0,.83-1.17,2.31,2.31,0,0,0-.35-1.53,2.34,2.34,0,0,0-1.14-1.09,1.57,1.57,0,0,0-1.43.14,1.55,1.55,0,0,0-.8,1.13,2.29,2.29,0,0,0,.32,1.55,2.36,2.36,0,0,0,1.17,1A1.53,1.53,0,0,0,356.77,299.4Z"/><path class="cls-7" d="M344,286.52a15.5,15.5,0,0,0-7.78,13.66,47.64,47.64,0,0,0,6.69,1.5l-.54-.95,2-1.14,1.39,2.43c1.14.11,2.31.19,3.49.22a.69.69,0,0,0,0-.1l-2.31-4,2-1.13,3,5.27q1,0,2-.06l-3.49-6.08,2-1.12.4.68a3,3,0,0,1,1.51-2,3,3,0,0,1,2.77-.19,4.58,4.58,0,0,1,2.24,2,4.77,4.77,0,0,1,.66,3,3,3,0,0,1-1.56,2.31,3,3,0,0,1-2.67.15l.6,1.05a47.6,47.6,0,0,0,11-2.26A15.5,15.5,0,0,0,344,286.52Z"/><path class="cls-8" d="M346.83,298.13l2.31,4a.69.69,0,0,1,0,.1c.62,0,1.25,0,1.88,0h.76l-3-5.27Z"/><path class="cls-8" d="M342.32,300.73l.54.95c.93.13,1.87.25,2.83.34l-1.39-2.43Z"/><path class="cls-8" d="M358.29,300.84a3,3,0,0,0,1.56-2.31,4.77,4.77,0,0,0-.66-3,4.58,4.58,0,0,0-2.24-2,3,3,0,0,0-2.77.19,3,3,0,0,0-1.51,2l-.4-.68-2,1.12,3.49,6.08c.82,0,1.63-.1,2.42-.17l-.6-1.05A3,3,0,0,0,358.29,300.84Zm-4.09-2.41a2.29,2.29,0,0,1-.32-1.55,1.55,1.55,0,0,1,.8-1.13,1.57,1.57,0,0,1,1.43-.14,2.34,2.34,0,0,1,1.14,1.09,2.31,2.31,0,0,1,.35,1.53,1.62,1.62,0,0,1-2.23,1.24A2.36,2.36,0,0,1,354.2,298.43Z"/><path class="cls-9" d="M123.27,32c-17.48,2.13-46.1,18.26-68,46.55C9,138.29,25.19,181.36,28,176.5c1.52-2,13.31-40.1,46.42-64.89,29.49-25,59.66-36.43,69.89-60.47C148.55,40.41,141.48,29.23,123.27,32Z"/><path class="cls-4" d="M562.45,771.67c-6.91-3.26-112.08-2.71-115,0a2,2,0,0,0-.21.7L452.52,886c0,5.75,20.38,15.26,52.34,15.26s52.41-10.5,52.41-14.89L562.58,772A1.49,1.49,0,0,0,562.45,771.67Z"/><path class="cls-10" d="M562.58,772a1.49,1.49,0,0,0-.13-.37c-6.91-3.26-112.08-2.71-115,0a2,2,0,0,0-.21.7"/><path class="cls-7" d="M506.15,672.62a1.52,1.52,0,0,0,1.23.67,1.54,1.54,0,0,0,1.3-.56,2.72,2.72,0,0,0,.09-3,1.67,1.67,0,0,0-2.54-.07,2.19,2.19,0,0,0-.52,1.47A2.3,2.3,0,0,0,506.15,672.62Z"/><path class="cls-7" d="M503.6,650.92a80.37,80.37,0,0,1-11.17-1c-2.94,7.91-4.87,16.72-5,20.87a15.34,15.34,0,1,0,30.67.82c.11-4.11-1.22-12.91-3.59-20.9A82,82,0,0,1,503.6,650.92Zm-1.93,24-2.24-.06,0-.53a3.15,3.15,0,0,1,.06-.54,2.73,2.73,0,0,1-2.4,1.2,2.57,2.57,0,0,1-2-1,3.58,3.58,0,0,1-.73-2.46l.13-4.64,2.25.06-.12,4.51a1.67,1.67,0,0,0,.38,1.23,1.38,1.38,0,0,0,1,.45,1.41,1.41,0,0,0,1-.39,1.62,1.62,0,0,0,.5-1.15l.12-4.57,2.24.06Zm8.88-6.54a4.48,4.48,0,0,1,.85,2.87,4.72,4.72,0,0,1-1,2.86,3,3,0,0,1-4.84-.11l-.13,5-2.16-.06.32-11.79,2.23.06,0,.78a3,3,0,0,1,2.3-.9A2.94,2.94,0,0,1,510.55,668.42Z"/><path class="cls-8" d="M499.52,671.67a1.62,1.62,0,0,1-.5,1.15,1.41,1.41,0,0,1-1,.39,1.38,1.38,0,0,1-1-.45,1.67,1.67,0,0,1-.38-1.23l.12-4.51L494.5,667l-.13,4.64a3.58,3.58,0,0,0,.73,2.46,2.57,2.57,0,0,0,2,1,2.73,2.73,0,0,0,2.4-1.2,3.15,3.15,0,0,0-.06.54l0,.53,2.24.06.21-7.8-2.24-.06Z"/><path class="cls-8" d="M505.84,667.27l-2.23-.06L503.29,679l2.16.06.13-5a3,3,0,0,0,4.84.11,4.72,4.72,0,0,0,1-2.86,4.48,4.48,0,0,0-.85-2.87,2.94,2.94,0,0,0-2.43-1.27,3,3,0,0,0-2.3.9Zm.39,2.41a1.67,1.67,0,0,1,2.54.07,2.72,2.72,0,0,1-.09,3,1.54,1.54,0,0,1-1.3.56,1.52,1.52,0,0,1-1.23-.67,2.3,2.3,0,0,1-.44-1.47A2.19,2.19,0,0,1,506.23,669.68Z"/><path class="cls-11" d="M520.23,639.71c0,.61,0,1.21,0,1.81a111.38,111.38,0,0,1-16.5,1.29,37,37,0,0,1-14.52-2.67,17.9,17.9,0,0,0-.87-1.69c-2.56.66-3.92,1.57-3.95,2.61l-.17,4.89c0,1.53,2.82,3,8.22,3.92a80.37,80.37,0,0,0,11.17,1,82,82,0,0,0,10.93-.26c5.62-.57,8.69-1.83,8.74-3.4l.17-4.88C523.47,641.42,522.36,640.5,520.23,639.71Z"/><path class="cls-12" d="M405.28,497.48c-8.07-.43-31.89-1.71-36.2-1.86s-3.05,18,1.13,18.13c3.15.11,25-2.75,35.36-4.14a11.08,11.08,0,0,1-.29-12.13Z"/><path class="cls-12" d="M422.74,511c9.95,1.44,33,4.73,36.27,4.65,4.17-.09,5.55-18.21,1.32-18.11S433.79,498.63,425,499a11.08,11.08,0,0,1-2.25,12Z"/><path class="cls-12" d="M413.41,532.53a31.79,31.79,0,0,1,6.93,1l.7-21a11.07,11.07,0,0,1-14.22-1.35l-.74,22A31.16,31.16,0,0,1,413.41,532.53Z"/><path class="cls-11" d="M413.09,542c6,.2,11.25,1.7,14.06,3.76l.24-7c.07-2.16-2.78-4.13-7.05-5.27a31.79,31.79,0,0,0-6.93-1,31.16,31.16,0,0,0-7.33.59c-4.14.87-7,2.61-7,4.71l-.23,7C401.75,542.93,407.06,541.78,413.09,542Z"/><path class="cls-13" d="M413,553.77a41.82,41.82,0,0,1,15.88,3.36l.51-7.86c.05-1.26-.78-2.46-2.22-3.52-2.81-2.06-8-3.56-14.06-3.76s-11.34.94-14.28,2.81c-1.51,1-2.41,2.1-2.46,3.36l-.55,8.36C399.89,554.63,406.08,553.54,413,553.77Z"/><path class="cls-13" d="M338.56,603.93c.54-16.24,2.58-25.87,4.7-25.8l1.6.06c-.64-3.45-1.52-5.32-2.53-5.36l-5.24-.17c-2.55-.09-5,11.57-5.68,31.23s1,31.46,3.57,31.55l5.24.17c1,0,2.08-1.9,3-5.56l-1.69-.06C339.4,629.92,338,620.18,338.56,603.93Z"/><path class="cls-11" d="M345.45,603.92c0-13.75,2.19-19.76,3.6-19.76h.86c-.55-3.77-1.36-5.84-2.32-5.87l-2.73-.09-1.6-.06c-2.12-.07-4.16,9.56-4.7,25.8s.84,26,2.95,26.06l1.69.06,2.64.09c1.11,0,2.2-2.62,3.07-7.51l-1.84,0C346,622.58,345.45,617.67,345.45,603.92Z"/><path class="cls-14" d="M503.72,642.81a111.38,111.38,0,0,0,16.5-1.29c0-.6,0-1.2,0-1.81.11-11.53,1.59-24.08-6.35-33.25-18.23-21.05-48.25-18.75-61.31-19.19s-17.84-6.52-17.84-6.52l-.71-.14.58-17.17c.08-2.36-2.11-4.59-5.74-6.31A41.82,41.82,0,0,0,413,553.77c-6.9-.23-13.09.86-17.18,2.75-3.09,1.43-5,3.32-5.05,5.45l-.43,12.63c-1.94,3.43-6.41,9.73-13,9.51-3.35-.11-22.94,0-27.42,0h-.86c-1.41,0-3.6,6-3.6,19.76s.52,18.66,1.62,18.66l1.84,0c3.8.13,12.1.47,14,.53,9,.31,24,11.07,45.17,11.78s27.29-9.33,51.86-8.51c10.26.35,22.81,2.28,28.36,12a17.9,17.9,0,0,1,.87,1.69A37,37,0,0,0,503.72,642.81ZM419,594.45c.1-.41,3.78-6.13,3.41-13.11.05-6.54-1.74-11.67.28-15.63.94-1.73,3.16-2.05,4.77.59,1.62,2.48,2.63,7.93,1.33,13.87C426,592.68,418.67,595.35,419,594.45Z"/><path class="cls-13" d="M421,512.48a10.2,10.2,0,0,0,1.7-1.44A11.12,11.12,0,1,0,403.62,503a11.14,11.14,0,0,0,1.95,6.66,12.17,12.17,0,0,0,1.25,1.52A11.07,11.07,0,0,0,421,512.48Z"/><path class="cls-13" d="M427.45,566.3c-1.61-2.64-3.83-2.32-4.77-.59-2,4-.23,9.09-.28,15.63.37,7-3.31,12.7-3.41,13.11-.32.9,7.05-1.77,9.79-14.28C430.08,574.23,429.07,568.78,427.45,566.3Z"/><path class="cls-15" d="M570.66,765.86a4.24,4.24,0,0,0-8.47,0s.87,56.83-57.65,57.49l3,0h-5.64l3,0c-58.52-.66-57.65-57.49-57.65-57.49a4.24,4.24,0,0,0-8.47,0"/><path class="cls-8" d="M484.56,816.61a341.53,341.53,0,0,0,37.86.42,2.54,2.54,0,0,1,2.65,2.39l.15,3a2.53,2.53,0,0,1-2.45,2.64,352.55,352.55,0,0,1-38.74-.43,2.54,2.54,0,0,1-2.39-2.7c.07-1,.15-2,.22-3A2.55,2.55,0,0,1,484.56,816.61Z"/><polygon class="cls-14" points="453.71 772.55 447.34 774.17 440.13 767.03 443.58 763.57 453.71 772.55"/><polygon class="cls-14" points="555.94 772.25 562.3 773.88 569.52 766.74 566.06 763.28 555.94 772.25"/></g></g></g></svg>