<?xml version="1.0" encoding="UTF-8"?>
<svg width="989px" height="948px" viewBox="0 0 989 948" version="1.1" xmlns="http://www.w3.org/2000/svg" xmlns:xlink="http://www.w3.org/1999/xlink">
    <!-- Generator: Sketch 52.5 (67469) - http://www.bohemiancoding.com/sketch -->
    <title>Group</title>
    <desc>Created with Sketch.</desc>
    <g id="Page-1" stroke="none" stroke-width="1" fill="none" fill-rule="evenodd">
        <g id="A3" transform="translate(-342.000000, -254.000000)">
            <g id="Group" transform="translate(342.000000, 254.000000)">
                <path d="M120.063172,74.640121 L470,248.773723 L470,393.977984 L66.4168101,192.665482 C19.1517537,173.844412 4.08024012,142.44636 13.0949261,99.421707 C22.4520818,56.3970545 71.1274532,55.819051 120.063172,74.640121 Z" id="Rectangle-Copy-11" fill="#AC2828" fill-rule="nonzero"></path>
                <path d="M96.4805664,71.591524 L470,256.773723 L470,401.977984 L66.4168101,200.665482 C19.1517537,181.844412 -0.309140615,150.92155 8.70554534,107.896898 C18.0627011,64.8722454 47.5448475,52.7704541 96.4805664,71.591524 Z" id="Rectangle" fill="#D83131" fill-rule="nonzero"></path>
                <path d="M641.506651,11.5898858 L988.250108,147.487159 L988.250108,290.977984 L588.249964,127.478586 C540.984908,108.879608 518.35372,79.4750701 536.105106,36.6612903 C553.856492,-6.15248943 592.570932,-7.00909226 641.506651,11.5898858 Z" id="Rectangle-Copy-8" fill="#03509E" fill-rule="nonzero" transform="translate(759.161928, 145.509709) scale(-1, 1) translate(-759.161928, -145.509709) "></path>
                <path d="M616.863449,7.92772344 L986.799837,155.487159 L986.799837,298.977984 L586.799693,135.478586 C539.534637,116.879608 520.550332,68.1922362 534.604431,38.0599798 C548.658531,7.92772344 567.92773,-10.6712546 616.863449,7.92772344 Z" id="Rectangle-Copy" fill="#0066CC" fill-rule="nonzero" transform="translate(758.436792, 149.733464) scale(-1, 1) translate(-758.436792, -149.733464) "></path>
                <g id="Group-2" transform="translate(529.000000, 281.000000)" fill-rule="nonzero">
                    <path d="M115.059493,2.30719985 L456.009709,42.371643 L456.009709,185.862468 L66.1226126,146.862468 C8.48626757,135.619765 -8.10814835,101.734311 3.45892812,56.8671875 C15.0260046,12.0000644 38.9159594,-5.2109375 115.059493,2.30719985 Z" id="Rectangle-Copy-7" fill="#9E0202" transform="translate(228.004855, 93.232784) scale(-1, 1) translate(-228.004855, -93.232784) "></path>
                    <path d="M103.557553,11.0136528 L448.100613,50.6327481 L448.100613,194.123573 L72.3371734,148.921845 C15.307553,137.679142 -7.58307195,107.038453 3.86224055,62.1713299 C15.307553,17.3042068 37.0185814,0.387246382 103.557553,11.0136528 Z" id="Rectangle-Copy-2" fill="#CC0000" transform="translate(224.550306, 101.032669) scale(-1, 1) translate(-224.550306, -101.032669) "></path>
                </g>
                <path d="M107.188499,317.571557 L469.137893,413.204596 L469.137893,556.110006 L76.4331238,454.917112 C20.2529179,443.720277 -2.29676795,413.204596 8.97807499,368.520521 C20.2529179,323.836447 53.6233746,300.58009 107.188499,317.571557 Z" id="Rectangle-Copy-10" fill="#225882" fill-rule="nonzero"></path>
                <path d="M102.578125,322.594381 L470,418.619182 L470,562.110006 L71.3577454,460.502573 C14.328125,449.259871 -8.5625,418.619182 2.8828125,373.752058 C14.328125,328.884935 48.203125,305.533308 102.578125,322.594381 Z" id="Rectangle-Copy-3" fill="#296DA2" fill-rule="nonzero"></path>
                <path d="M470,153 L530,153 L530,936 C521.416667,943.932292 511.416667,947.898438 500,947.898438 C488.583333,947.898438 478.583333,943.932292 470,936 L470,153 Z" id="Rectangle" fill="#F6F6F6" fill-rule="nonzero"></path>
                <text id="Achmea" transform="translate(707.160715, 375.814046) rotate(-6.000000) translate(-707.160715, -375.814046) " font-family="Edmondsans-Medium, Edmondsans" font-size="64" font-weight="400" fill="#FFFFFF">
                    <tspan x="593.160715" y="398.314046">Achmea</tspan>
                </text>
                <text id="Unilever" transform="translate(694.584905, 153.589033) rotate(-22.000000) translate(-694.584905, -153.589033) " font-family="Edmondsans-Medium, Edmondsans" font-size="64" font-weight="400" fill="#FFFFFF">
                    <tspan x="580.084905" y="176.089033">Unilever</tspan>
                </text>
                <text id="DSM" transform="translate(238.545887, 217.193623) rotate(26.000000) translate(-238.545887, -217.193623) " font-family="Edmondsans-Medium, Edmondsans" font-size="64" font-weight="400" fill="#FFFFFF">
                    <tspan x="171.045887" y="239.693623">DSM</tspan>
                </text>
                <text id="KLM" transform="translate(238.652156, 433.511547) rotate(16.000000) translate(-238.652156, -433.511547) " font-family="Edmondsans-Medium, Edmondsans" font-size="64" font-weight="400" fill="#FFFFFF">
                    <tspan x="175.152156" y="456.011547">KLM</tspan>
                </text>
                <path d="M508.816406,911.994141 C515.066406,917.246094 520.757932,904.4107 521.714844,888.800781 C524.916706,836.569412 521.714844,687.857767 521.714844,543.5 C521.714844,412.251804 524.895638,271.552399 521.714844,209.894531 C520.351567,183.468204 513.988306,186.460938 512,186.460938 C505.372583,186.460938 505.75,355.999327 505.75,543.5 C505.75,731.000673 501.291726,905.671058 508.816406,911.994141 Z" id="Oval" fill-opacity="0.8" fill="#D8D8D8" fill-rule="nonzero"></path>
                <ellipse id="Oval" fill="#291F53" fill-rule="nonzero" cx="500" cy="152.5" rx="30" ry="26.5"></ellipse>
                <path d="M497.936,144.306625 L497.936,157.909625 L494.016,157.909625 L494.016,156.98975 C494.016,156.76675 494.044,156.43225 494.1,156.042 C493.204,157.32425 491.804,158.244125 489.956,158.244125 C487.128,158.244125 485,156.042 485,152.390375 L485,144.306625 L488.948,144.306625 L488.948,152.167375 C488.948,154.062875 490.152,155.0385 491.468,155.0385 C492.644,155.0385 493.932,154.118625 494.016,152.278875 L494.016,144.306625 L497.936,144.306625 Z M505.3,164.878375 L501.52,164.878375 L501.52,144.306625 L505.44,144.306625 L505.44,145.6725 C506.504,144.5575 507.904,144 509.416,144 C513.196,144 515.352,147.428625 515.352,151.052375 C515.352,154.731875 513.28,158.188375 509.444,158.188375 C507.848,158.188375 506.364,157.407875 505.3,156.125625 L505.3,164.878375 Z M508.408,154.731875 C510.424,154.731875 511.46,153.08725 511.46,151.108125 C511.46,149.101125 510.452,147.484375 508.408,147.484375 C506.588,147.484375 505.384,148.989625 505.384,151.08025 C505.384,152.947875 506.616,154.731875 508.408,154.731875 Z" id="up" fill="#FFFFFF"></path>
                <g id="Group-3" transform="translate(524.000000, 488.000000)">
                    <path d="M90.2328112,12.9101263 C222.016954,4.31877194 320.164502,0.023094776 384.675456,0.023094776 C385.391287,0.023094776 387.128501,2.89886006 389.887097,8.65039063 L389.887097,143.490825 L83.7838135,163.929267 C28.3983815,163.929267 0.86210653,144.337702 0.86210653,93.7595766 C0.86210653,43.1814516 34.8473792,12.9101263 90.2328112,12.9101263 Z" id="Rectangle-Copy-6" fill="#AF8631" fill-rule="nonzero" transform="translate(195.374602, 81.976181) scale(-1, 1) translate(-195.374602, -81.976181) "></path>
                    <path d="M83.5078125,21.9101263 L377.695312,9 L377.695312,152.490825 L83.5078125,163.683564 C29.1328125,163.683564 1,149.707001 1,99.1288763 C1,48.5507513 29.1328125,21.9101263 83.5078125,21.9101263 Z" id="Rectangle-Copy-4" fill="#C8993A" fill-rule="nonzero" transform="translate(189.347656, 86.341782) scale(-1, 1) translate(-189.347656, -86.341782) "></path>
                    <text id="EY" font-family="Edmondsans-Medium, Edmondsans" font-size="64" font-weight="400" fill="#FFFFFF">
                        <tspan x="129" y="110">EY</tspan>
                    </text>
                </g>
                <g id="Group-4" transform="translate(99.000000, 568.000000)">
                    <path d="M82.8125,10.9101263 L371,0.43359375 C375,4.88802083 377,7.11523437 377,7.11523438 C377,7.11523438 377,51.9070978 377,141.490825 L82.8125,152.683564 C28.4375,152.683564 0.3046875,138.707001 0.3046875,88.1288763 C0.3046875,37.5507513 28.4375,10.9101263 82.8125,10.9101263 Z" id="Rectangle-Copy-9" fill="#AF4925" fill-rule="nonzero"></path>
                    <path d="M82.8125,18.9101263 L377,6 L377,149.490825 L82.8125,160.683564 C28.4375,160.683564 0.3046875,146.707001 0.3046875,96.1288763 C0.3046875,45.5507513 28.4375,18.9101263 82.8125,18.9101263 Z" id="Rectangle-Copy-5" fill="#ED5D2A" fill-rule="nonzero"></path>
                    <text id="NN" transform="translate(190.458060, 86.619179) rotate(-3.000000) translate(-190.458060, -86.619179) " font-family="Edmondsans-Medium, Edmondsans" font-size="64" font-weight="400" fill="#FFFFFF">
                        <tspan x="148.95806" y="109.119179">NN</tspan>
                    </text>
                </g>
            </g>
        </g>
    </g>
</svg>