<?xml version="1.0" encoding="UTF-8"?>
<svg width="985px" height="900px" viewBox="0 0 985 900" version="1.1" xmlns="http://www.w3.org/2000/svg" xmlns:xlink="http://www.w3.org/1999/xlink">
    <!-- Generator: Sketch 52.5 (67469) - http://www.bohemiancoding.com/sketch -->
    <title>Group</title>
    <desc>Created with Sketch.</desc>
    <g id="Page-1" stroke="none" stroke-width="1" fill="none" fill-rule="evenodd">
        <g id="A3" transform="translate(-342.000000, -302.000000)">
            <g id="Group" transform="translate(342.000000, 302.000000)">
                <path d="M242.464844,89.0390625 L470,200.773723 L470,345.977984 L197.189576,205.908173 C149.924519,187.087103 134.853006,155.689051 143.867692,112.664399 C153.224847,69.639746 193.529125,70.2179925 242.464844,89.0390625 Z" id="Rectangle-Copy-11" fill="#AC2828" fill-rule="nonzero"></path>
                <path d="M226.993771,92.0774386 L470,208.773723 L470,353.977984 L196.930015,221.151396 C149.664958,202.330326 130.204064,171.407465 139.21875,128.382813 C148.575906,85.35816 178.058052,73.2563687 226.993771,92.0774386 Z" id="Rectangle" fill="#D83131" fill-rule="nonzero"></path>
                <path d="M641.506651,12.1698939 L855.148873,99.4871589 L855.148873,242.977984 L588.249964,128.058594 C540.984908,109.459616 518.35372,80.0550782 536.105106,37.2412985 C553.856492,-5.57248127 592.570932,-6.42908409 641.506651,12.1698939 Z" id="Rectangle-Copy-8" fill="#03509E" fill-rule="nonzero" transform="translate(692.611310, 121.799714) scale(-1, 1) translate(-692.611310, -121.799714) "></path>
                <path d="M616.863449,13.9028999 L853.702559,107.487159 L853.702559,243.933594 L586.799693,141.453762 C539.534637,122.854784 520.550332,74.1674126 534.604431,44.0351562 C548.658531,13.9028999 567.92773,-4.69607816 616.863449,13.9028999 Z" id="Rectangle-Copy" fill="#0066CC" fill-rule="nonzero" transform="translate(691.888153, 125.198857) scale(-1, 1) translate(-691.888153, -125.198857) "></path>
                <g id="Group-2" transform="translate(529.000000, 233.000000)" fill-rule="nonzero">
                    <path d="M115.059493,2.30719985 L456.009709,42.371643 L456.009709,185.862468 L66.1226126,146.862468 C8.48626757,135.619765 -8.10814835,101.734311 3.45892812,56.8671875 C15.0260046,12.0000644 38.9159594,-5.2109375 115.059493,2.30719985 Z" id="Rectangle-Copy-7" fill="#9E0202" transform="translate(228.004855, 93.232784) scale(-1, 1) translate(-228.004855, -93.232784) "></path>
                    <path d="M103.557553,11.0136528 L448.100613,50.6327481 L448.100613,194.123573 L72.3371734,148.921845 C15.307553,137.679142 -7.58307195,107.038453 3.86224055,62.1713299 C15.307553,17.3042068 37.0185814,0.387246382 103.557553,11.0136528 Z" id="Rectangle-Copy-2" fill="#CC0000" transform="translate(224.550306, 101.032669) scale(-1, 1) translate(-224.550306, -101.032669) "></path>
                </g>
                <path d="M107.188499,269.571557 L469.137893,365.204596 L469.137893,508.110006 L76.4331238,406.917112 C20.2529179,395.720277 -2.29676795,365.204596 8.97807499,320.520521 C20.2529179,275.836447 53.6233746,252.58009 107.188499,269.571557 Z" id="Rectangle-Copy-10" fill="#225882" fill-rule="nonzero"></path>
                <path d="M102.578125,274.594381 L470,370.619182 L470,514.110006 L71.3577454,412.502573 C14.328125,401.259871 -8.5625,370.619182 2.8828125,325.752058 C14.328125,280.884935 48.203125,257.533308 102.578125,274.594381 Z" id="Rectangle-Copy-3" fill="#296DA2" fill-rule="nonzero"></path>
                <path d="M470,105 L530,105 L530,888 C521.416667,895.932292 511.416667,899.898438 500,899.898438 C488.583333,899.898438 478.583333,895.932292 470,888 L470,105 Z" id="Rectangle" fill="#F6F6F6" fill-rule="nonzero"></path>
                <text id="Achmea" transform="translate(707.160715, 327.814046) rotate(-6.000000) translate(-707.160715, -327.814046) " font-family="Edmondsans-Medium, Edmondsans" font-size="64" font-weight="400" fill="#FFFFFF">
                    <tspan x="593.160715" y="350.314046">Achmea</tspan>
                </text>
                <text id="Unilever" transform="translate(678.584905, 116.589033) rotate(-22.000000) translate(-678.584905, -116.589033) " font-family="Edmondsans-Medium, Edmondsans" font-size="64" font-weight="400" fill="#FFFFFF">
                    <tspan x="564.084905" y="139.089033">Unilever</tspan>
                </text>
                <text id="DSM" transform="translate(303.545887, 200.193623) rotate(26.000000) translate(-303.545887, -200.193623) " font-family="Edmondsans-Medium, Edmondsans" font-size="64" font-weight="400" fill="#FFFFFF">
                    <tspan x="236.045887" y="222.693623">DSM</tspan>
                </text>
                <text id="KLM" transform="translate(238.652156, 385.511547) rotate(16.000000) translate(-238.652156, -385.511547) " font-family="Edmondsans-Medium, Edmondsans" font-size="64" font-weight="400" fill="#FFFFFF">
                    <tspan x="175.152156" y="408.011547">KLM</tspan>
                </text>
                <path d="M508.816406,863.994141 C515.066406,869.246094 520.757932,856.4107 521.714844,840.800781 C524.916706,788.569412 521.714844,639.857767 521.714844,495.5 C521.714844,364.251804 524.895638,223.552399 521.714844,161.894531 C520.351567,135.468204 513.988306,138.460938 512,138.460938 C505.372583,138.460938 505.75,307.999327 505.75,495.5 C505.75,683.000673 501.291726,857.671058 508.816406,863.994141 Z" id="Oval" fill-opacity="0.8" fill="#D8D8D8" fill-rule="nonzero"></path>
                <ellipse id="Oval" fill="#291F53" fill-rule="nonzero" cx="500" cy="104.5" rx="30" ry="26.5"></ellipse>
                <path d="M497.936,96.306625 L497.936,109.909625 L494.016,109.909625 L494.016,108.98975 C494.016,108.76675 494.044,108.43225 494.1,108.042 C493.204,109.32425 491.804,110.244125 489.956,110.244125 C487.128,110.244125 485,108.042 485,104.390375 L485,96.306625 L488.948,96.306625 L488.948,104.167375 C488.948,106.062875 490.152,107.0385 491.468,107.0385 C492.644,107.0385 493.932,106.118625 494.016,104.278875 L494.016,96.306625 L497.936,96.306625 Z M505.3,116.878375 L501.52,116.878375 L501.52,96.306625 L505.44,96.306625 L505.44,97.6725 C506.504,96.5575 507.904,96 509.416,96 C513.196,96 515.352,99.428625 515.352,103.052375 C515.352,106.731875 513.28,110.188375 509.444,110.188375 C507.848,110.188375 506.364,109.407875 505.3,108.125625 L505.3,116.878375 Z M508.408,106.731875 C510.424,106.731875 511.46,105.08725 511.46,103.108125 C511.46,101.101125 510.452,99.484375 508.408,99.484375 C506.588,99.484375 505.384,100.989625 505.384,103.08025 C505.384,104.947875 506.616,106.731875 508.408,106.731875 Z" id="up" fill="#FFFFFF"></path>
                <g id="Group-3" transform="translate(524.000000, 440.000000)">
                    <path d="M90.2328112,12.9101263 C222.016954,4.31877194 320.164502,0.023094776 384.675456,0.023094776 C385.391287,0.023094776 387.128501,2.89886006 389.887097,8.65039063 L389.887097,143.490825 L83.7838135,163.929267 C28.3983815,163.929267 0.86210653,144.337702 0.86210653,93.7595766 C0.86210653,43.1814516 34.8473792,12.9101263 90.2328112,12.9101263 Z" id="Rectangle-Copy-6" fill="#AF8631" fill-rule="nonzero" transform="translate(195.374602, 81.976181) scale(-1, 1) translate(-195.374602, -81.976181) "></path>
                    <path d="M83.5078125,21.9101263 L377.695312,9 L377.695312,152.490825 L83.5078125,163.683564 C29.1328125,163.683564 1,149.707001 1,99.1288763 C1,48.5507513 29.1328125,21.9101263 83.5078125,21.9101263 Z" id="Rectangle-Copy-4" fill="#C8993A" fill-rule="nonzero" transform="translate(189.347656, 86.341782) scale(-1, 1) translate(-189.347656, -86.341782) "></path>
                    <text id="EY" font-family="Edmondsans-Medium, Edmondsans" font-size="64" font-weight="400" fill="#FFFFFF">
                        <tspan x="129" y="110">EY</tspan>
                    </text>
                </g>
                <g id="Group-4" transform="translate(99.000000, 520.000000)">
                    <path d="M82.8125,10.9101263 L371,0.43359375 C375,4.88802083 377,7.11523437 377,7.11523438 C377,7.11523438 377,51.9070978 377,141.490825 L82.8125,152.683564 C28.4375,152.683564 0.3046875,138.707001 0.3046875,88.1288763 C0.3046875,37.5507513 28.4375,10.9101263 82.8125,10.9101263 Z" id="Rectangle-Copy-9" fill="#AF4925" fill-rule="nonzero"></path>
                    <path d="M82.8125,18.9101263 L377,6 L377,149.490825 L82.8125,160.683564 C28.4375,160.683564 0.3046875,146.707001 0.3046875,96.1288763 C0.3046875,45.5507513 28.4375,18.9101263 82.8125,18.9101263 Z" id="Rectangle-Copy-5" fill="#ED5D2A" fill-rule="nonzero"></path>
                    <text id="NN" transform="translate(190.458060, 86.619179) rotate(-3.000000) translate(-190.458060, -86.619179) " font-family="Edmondsans-Medium, Edmondsans" font-size="64" font-weight="400" fill="#FFFFFF">
                        <tspan x="148.95806" y="109.119179">NN</tspan>
                    </text>
                </g>
            </g>
        </g>
    </g>
</svg>