<?xml version="1.0" encoding="utf-8"?>
<!-- Generator: Adobe Illustrator 22.0.1, SVG Export Plug-In . SVG Version: 6.00 Build 0)  -->
<svg version="1.1" xmlns="http://www.w3.org/2000/svg" xmlns:xlink="http://www.w3.org/1999/xlink" x="0px" y="0px"
	 viewBox="0 0 530.1 444.7" style="enable-background:new 0 0 530.1 444.7;" xml:space="preserve">
<style type="text/css">
	.st0{fill:#3C96DC;}
	.st1{fill:#E5E5E5;}
	.st2{fill:#FFFFFF;}
	.st3{fill:#281E50;}
	.st4{fill:none;stroke:#FFFFFF;stroke-width:0.5;stroke-miterlimit:10;}
	.st5{fill:#E62828;}
	.st6{fill:#991613;}
	.st7{fill:#A8A8A8;}
	.st8{fill:#C1C1C1;}
	.st9{fill:#B4AEAD;}
	.st10{opacity:0.4;fill:#FFFFFF;}
	.st11{fill:#FBB42A;}
	.st12{fill:#C0C1C2;}
	.st13{fill:#818386;}
	.st14{fill:none;stroke:#281E50;stroke-miterlimit:10;}
	.st15{fill:#656767;}
	.st16{fill:#CBCBCB;}
	.st17{fill:none;stroke:#656767;stroke-miterlimit:10;}
	.st18{opacity:0.5;fill:url(#SVGID_1_);}
	.st19{fill:#FAB814;}
	.st20{fill:#4FA0DF;}
	.st21{fill:#5D5D5D;}
	.st22{fill:#FF8C64;}
	.st23{fill:#64A03C;}
	.st24{opacity:0.3;fill:#FFFFFF;}
	.st25{opacity:0.8;fill:#C1C1C1;}
	.st26{font-family:'Edmondsans-Bold';}
	.st27{font-size:12px;}
	.st28{fill:#AAA9A9;}
	.st29{fill:none;stroke:#281E50;stroke-width:3.5;stroke-linecap:round;stroke-miterlimit:10;}
	.st30{font-family:'BentonSans-Bold';}
	.st31{font-size:5.7934px;}
	.st32{fill:none;stroke:#281E50;stroke-width:2;stroke-miterlimit:10;}
	.st33{fill:none;stroke:#656767;stroke-width:3;stroke-miterlimit:10;}
	.st34{opacity:0.3;}
	.st35{opacity:0.2;fill:#E62828;}
	.st36{fill:none;stroke:#FFFFFF;stroke-miterlimit:10;}
	.st37{fill-rule:evenodd;clip-rule:evenodd;fill:#FFFFFF;}
	.st38{fill:#262728;}
	.st39{fill:#9ACAE5;}
	.st40{fill-rule:evenodd;clip-rule:evenodd;fill:#3C96DC;}
	.st41{fill:#E26B4B;}
</style>
<g id="Laag_1">
</g>
<g id="Layer_3">
	<g>
		<g>
			<path class="st19" d="M177.2,338.2c2.3-1.1,4.5-2.1,6.8-3.2c0.6,1.3,1.3,2.6,1.9,3.9c0.1,0.3,0.2,0.7,0.4,0.8
				c0.3,0.2,0.8,0.3,1.1,0.4c0.1-0.4,0.4-0.9,0.3-1.2c-0.5-1.2-1.1-2.4-1.6-3.6c-0.2-0.4-0.3-0.7-0.5-1.2c2.5-1.2,4.9-2.3,7.3-3.5
				c0.3,0.6,0.5,1.1,0.8,1.6c1.3,2.8,2.6,5.6,4,8.3c0.3,0.6,0.6,1.2,1.3,0.9c0.8-0.3,0.5-1,0.3-1.6c-1.4-3-2.8-5.9-4.2-8.9
				c-0.2-0.3-0.3-0.7-0.5-1.1c2.9-1.4,5.6-2.7,8.4-4c1-0.4,2.2,0.1,2.8,1c0.2,0.2,0.3,0.5,0.4,0.7c3,6.2,5.9,12.4,8.9,18.6
				c0.1,0.2,0.2,0.4,0.3,0.8c-0.4,0.2-0.8,0.4-1.2,0.6c-22,10.4-43.9,20.9-65.9,31.3c-0.6,0.3-1.6,0.5-1.2,1.4
				c0.5,1.1,1.3,0.4,1.9,0.1c22-10.4,43.9-20.9,65.9-31.3c0.4-0.2,0.7-0.4,1.2-0.6c0.2,0.3,0.4,0.6,0.5,0.9c0.9,1.9,1.8,3.9,2.8,5.8
				c1,2.1,0.6,3.3-1.5,4.3c-12.8,6.1-25.6,12.2-38.4,18.2c-47.4,22.5-81.8,38.8-129.2,61.3c-25.9,10.1-36.3-24.5-15.9-33.2
				c8-3.8,3-1.3,11-5.1c0.4-0.2,0.7-0.3,1.2-0.6c0.6,1.2,1.1,2.4,1.7,3.5c0.1,0.3,0.3,0.6,0.4,0.9c0.3,0.6,0.6,1.1,1.3,0.7
				c0.6-0.3,0.5-0.9,0.2-1.4c-0.5-1.1-1-2.1-1.5-3.2c-0.2-0.4-0.4-0.8-0.6-1.3c2.5-1.2,4.9-2.3,7.3-3.5c0.3,0.7,0.6,1.3,0.9,2
				c1.3,2.7,2.5,5.3,3.8,8c0.3,0.6,0.6,1.2,1.3,0.8c0.8-0.3,0.5-1,0.2-1.6c-1.6-3.3-3.1-6.5-4.7-9.9c2.2-1.1,4.4-2.1,6.8-3.2
				c0.5,1,0.9,1.9,1.4,2.9c0.2,0.5,0.5,1,0.7,1.5c0.3,0.5,0.6,1,1.3,0.7c0.7-0.3,0.5-0.9,0.2-1.5c-0.7-1.4-1.4-2.9-2.1-4.4
				c2.5-1.2,4.8-2.3,7.4-3.5c0.2,0.3,0.3,0.6,0.5,1c1.4,2.9,2.7,5.7,4.1,8.6c0.1,0.3,0.3,0.7,0.5,0.9c0.3,0.2,0.7,0.3,1,0.2
				c0.2-0.1,0.4-0.5,0.4-0.8c0-0.4-0.2-0.7-0.4-1.1c-1.5-3.2-3-6.4-4.6-9.6c2.3-1.1,4.5-2.1,6.8-3.2c0.6,1.3,1.2,2.6,1.9,3.9
				c0.1,0.3,0.2,0.7,0.4,0.8c0.3,0.2,0.8,0.3,1.1,0.4c0.1-0.4,0.4-0.9,0.3-1.2c-0.5-1.2-1.1-2.3-1.6-3.5c-0.2-0.4-0.4-0.8-0.6-1.2
				c2.5-1.2,4.9-2.3,7.3-3.5c0.5,1.1,1,2.2,1.5,3.2c1.1,2.2,2.1,4.5,3.2,6.7c0.3,0.6,0.6,1.1,1.3,0.8c0.8-0.3,0.5-1,0.2-1.6
				c-1.6-3.3-3.1-6.6-4.7-9.9c2.2-1.1,4.4-2.1,6.8-3.2c0.6,1.2,1.2,2.4,1.7,3.7c0.1,0.3,0.2,0.7,0.5,0.9c0.3,0.3,0.8,0.4,1.2,0.6
				c0.1-0.4,0.4-0.9,0.3-1.2c-0.4-1-0.9-1.9-1.3-2.9c-0.3-0.6-0.5-1.1-0.8-1.7c2.4-1.2,4.8-2.3,7.3-3.5c0.2,0.3,0.3,0.7,0.5,1
				c1.4,2.9,2.7,5.7,4.1,8.6c0.1,0.3,0.3,0.7,0.5,0.9c0.3,0.2,0.7,0.4,1,0.2c0.2-0.1,0.4-0.6,0.4-0.9c0-0.3-0.2-0.6-0.4-1
				c-1.3-2.8-2.7-5.7-4-8.5c-0.2-0.3-0.3-0.7-0.5-1.1c2.3-1.1,4.5-2.1,6.8-3.2c0.6,1.2,1.2,2.4,1.7,3.7c0.1,0.3,0.2,0.7,0.5,0.9
				c0.3,0.3,0.8,0.4,1.2,0.6c0.1-0.4,0.4-0.9,0.3-1.3c-0.5-1.2-1.1-2.3-1.6-3.5c-0.2-0.4-0.3-0.7-0.5-1.2c2.4-1.2,4.8-2.3,7.3-3.5
				c0.1,0.3,0.3,0.6,0.5,1c1.4,2.9,2.7,5.7,4.1,8.6c0.1,0.2,0.2,0.4,0.3,0.7c0.3,0.5,0.7,0.9,1.2,0.5c0.3-0.2,0.4-0.9,0.2-1.2
				c-0.6-1.4-1.3-2.8-2-4.2c-0.9-2-1.9-3.9-2.8-6c2.2-1.1,4.4-2.1,6.8-3.2c0.6,1.3,1.2,2.6,1.9,4c0.3,0.6,0.5,1.6,1.5,1.2
				c0.9-0.4,0.4-1.2,0.1-1.9c-0.6-1.3-1.2-2.6-1.9-4c2.4-1.2,4.8-2.3,7.3-3.5c0.2,0.3,0.3,0.7,0.5,1c1.3,2.8,2.7,5.7,4,8.5
				c0.1,0.2,0.2,0.5,0.3,0.6c0.4,0.3,0.8,0.4,1.2,0.6c0.1-0.5,0.4-1,0.2-1.3c-1.1-2.5-2.3-4.9-3.5-7.4c-0.4-0.9-0.9-1.8-1.3-2.7
				c2.3-1.1,4.5-2.1,6.8-3.2c0.6,1.2,1.2,2.4,1.7,3.6c0.1,0.3,0.3,0.6,0.4,0.8c0.3,0.5,0.6,1,1.3,0.7c0.6-0.3,0.5-0.9,0.2-1.4
				c-0.6-1.3-1.2-2.6-1.8-3.8c-0.1-0.2-0.1-0.4-0.2-0.6c2.4-1.1,4.8-2.3,7.3-3.5c0.4,0.9,0.8,1.7,1.2,2.5c1.2,2.5,2.4,5,3.6,7.5
				c0.3,0.5,0.6,1,1.2,0.8c0.7-0.3,0.5-0.9,0.3-1.5c-1.6-3.3-3.1-6.6-4.7-10c2.2-1.1,4.4-2.1,6.8-3.2c0.6,1.3,1.2,2.6,1.9,4
				c0.3,0.6,0.5,1.6,1.5,1.2c1-0.4,0.4-1.2,0.1-1.9c-0.6-1.3-1.2-2.6-1.9-4c2.4-1.2,4.8-2.3,7.3-3.5c0.2,0.3,0.3,0.6,0.5,1
				c1.4,2.9,2.8,5.8,4.1,8.7c0.1,0.3,0.2,0.6,0.5,0.8c0.3,0.2,0.7,0.3,1,0.2c0.2-0.1,0.4-0.5,0.4-0.8c0-0.4-0.2-0.7-0.4-1.1
				C180.3,344.6,178.8,341.4,177.2,338.2z M34.7,426.2c1.8,3.9,6.4,5.5,10.2,3.7c3.9-1.8,5.5-6.4,3.7-10.2
				c-1.8-3.9-6.4-5.5-10.2-3.7C34.5,417.8,32.9,422.3,34.7,426.2z"/>
		</g>
		<text transform="matrix(0.9044 -0.4268 0.4268 0.9044 61.4638 423.6865)" class="st3 st26 st27">IMPACT</text>
		<g>
			<path d="M171.5,305.5c1.4,2.4,0.6,5.5-1.8,7l-75.3,44.8c-2.4,1.4-5.5,0.6-7-1.8L4.1,215.6c-1.4-2.4-0.6-5.5,1.8-7l75.3-44.8
				c2.4-1.4,5.5-0.6,7,1.8L171.5,305.5z"/>
			<path class="st28" d="M157.7,290.9c1.4,2.4,0.3,5.8-2.6,7.5l-65.7,39.1c-2.9,1.7-6.4,1.2-7.8-1.3L17,227.8
				c-1.4-2.4-0.3-5.8,2.6-7.5l65.7-39.1c2.9-1.7,6.4-1.2,7.8,1.3L157.7,290.9z"/>
			<path class="st21" d="M56.7,190.4c0.4,0.7,0.2,1.6-0.5,2l-13.1,7.8c-0.7,0.4-1.6,0.2-2-0.5l0,0c-0.4-0.7-0.2-1.6,0.5-2l13.1-7.8
				C55.4,189.5,56.3,189.7,56.7,190.4L56.7,190.4z"/>
			<circle class="st21" cx="30.6" cy="205.5" r="2.8"/>
			<path class="st8" d="M81.5,336.2L17,227.8c-1.4-2.4-0.3-5.8,2.6-7.5l65.7-39.1C88.1,179.5,83,338.7,81.5,336.2z"/>
		</g>
		<g>
			<path class="st3" d="M167.8,335.7l-53,29.1c0,0-58.5-49-38.4-89.1c0,0,29.3-16.6,32.9-16.8C154.8,255.1,167.8,335.7,167.8,335.7z
				"/>
			<g>
				<path class="st0" d="M63.6,225.5c14-8.7,32.7-5,41.8,8.3c9.1,13.3,5,31.2-9,39.9c-14,8.7-32.7,5-41.8-8.3
					C45.6,252.1,49.6,234.3,63.6,225.5"/>
				<path class="st29" d="M97.4,252.5c1.4,11.7-14.2,20.2-21.9,13.4"/>
				<path class="st29" d="M91.8,229.5c-1.8-1.1-7.9-1.1-10.8,2.1"/>
				<path class="st29" d="M55.8,251.9c-0.1-2.1,2.6-7.6,6.8-8.7"/>
				<path class="st29" d="M90.4,235.7c-2.9-0.9-8.7,2.8-9.7,6.6"/>
				<path class="st29" d="M73.1,247.5c-3-0.8-8.6,3-9.5,6.8"/>
				<path class="st5" d="M66.3,259c1.4-0.9,3.2-0.5,4.1,0.8c0.9,1.3,0.5,3-0.9,3.9c-1.4,0.9-3.2,0.5-4.1-0.8
					C64.6,261.6,65,259.9,66.3,259"/>
				<path class="st5" d="M94.3,242.1c1.4-0.9,3.2-0.5,4.1,0.8c0.9,1.3,0.5,3-0.9,3.9c-1.4,0.9-3.2,0.5-4.1-0.8
					C92.6,244.7,93,243,94.3,242.1"/>
			</g>
		</g>
		<circle class="st19" cx="275.9" cy="160.3" r="41.5"/>
		<path class="st19" d="M302,242.8c-19.5-18.7-35.2-32.9-54.4-52.2c2.3,2.7-4.3-7.1-4.2-7.7c1.3-15.5,30.6-60.4,44.9-62.3
			c0.6-0.1,0.9,0.1,1.3,0.4c19.3,18.5,67.6,64.9,86.9,83.4C376.8,204.7,302.4,243.3,302,242.8z"/>
		<g>
			<circle class="st16" cx="277.9" cy="161.5" r="31.7"/>
			<circle class="st15" cx="277.9" cy="161.5" r="29.6"/>
			<circle class="st2" cx="277.9" cy="161.5" r="28.4"/>
			<text transform="matrix(0.7126 -0.7016 0.7016 0.7126 294.0226 147.9401)" class="st0 st30 st31">3</text>
			<g>
				<path class="st0" d="M270.5,142.5l-0.8,0.3l-1.9-4.5l0.8-0.3L270.5,142.5z"/>
				<path class="st0" d="M273.2,141.7l-0.9,0.2l-1.2-4.8l0.9-0.2L273.2,141.7z"/>
				<path class="st0" d="M276,141.2l-0.9,0.1l-0.6-4.9l0.9-0.1L276,141.2z"/>
				<path class="st0" d="M278.9,141.1l-0.9,0l0.1-4.9l0.9,0L278.9,141.1z"/>
				<path class="st0" d="M281.7,141.5l-0.9-0.1l0.8-4.9l0.9,0.1L281.7,141.5z"/>
				<path class="st0" d="M284.4,142.2l-0.8-0.3l1.5-4.7l0.8,0.3L284.4,142.2z"/>
				<path class="st0" d="M287,143.3l-0.8-0.4l2.1-4.4l0.8,0.4L287,143.3z"/>
				<path class="st0" d="M296.6,153.3l-0.4-0.8l4.5-2.1l0.4,0.8L296.6,153.3z"/>
				<path class="st0" d="M297.6,156l-0.3-0.8l4.7-1.4l0.3,0.8L297.6,156z"/>
				<path class="st0" d="M298.1,158.8l-0.1-0.9l4.9-0.7l0.1,0.9L298.1,158.8z"/>
				<path class="st0" d="M298.3,161.6l0-0.9l4.9-0.1l0,0.9L298.3,161.6z"/>
				<path class="st0" d="M298.1,164.5l0.1-0.9l4.9,0.6l-0.1,0.9L298.1,164.5z"/>
				<path class="st0" d="M297.5,167.2l0.2-0.9l4.8,1.3l-0.2,0.9L297.5,167.2z"/>
				<path class="st0" d="M296.5,169.9l0.3-0.8l4.5,1.9l-0.3,0.8L296.5,169.9z"/>
				<path class="st0" d="M286.8,179.8l0.8-0.4l2.2,4.4l-0.8,0.4L286.8,179.8z"/>
				<path class="st0" d="M284.1,180.9l0.8-0.3l1.6,4.7l-0.8,0.3L284.1,180.9z"/>
				<path class="st0" d="M281.4,181.6l0.9-0.2l0.9,4.8l-0.9,0.2L281.4,181.6z"/>
				<path class="st0" d="M278.6,181.8l0.9,0l0.3,4.9l-0.9,0L278.6,181.8z"/>
				<path class="st0" d="M275.7,181.7l0.9,0.1l-0.4,4.9l-0.9-0.1L275.7,181.7z"/>
				<path class="st0" d="M272.9,181.2l0.9,0.2l-1.1,4.8l-0.9-0.2L272.9,181.2z"/>
				<path class="st0" d="M270.2,180.3l0.8,0.3l-1.8,4.6l-0.8-0.3L270.2,180.3z"/>
				<path class="st0" d="M267.7,179.1l0.8,0.4l-2.4,4.3l-0.8-0.4L267.7,179.1z"/>
				<path class="st0" d="M259.9,171l0.4,0.8l-4.3,2.4l-0.4-0.8L259.9,171z"/>
				<path class="st0" d="M258.8,168.4l0.3,0.8l-4.6,1.8l-0.3-0.8L258.8,168.4z"/>
				<path class="st0" d="M258,165.7l0.2,0.9l-4.8,1.1l-0.2-0.9L258,165.7z"/>
				<path class="st0" d="M257.6,162.9l0.1,0.9l-4.9,0.4l-0.1-0.9L257.6,162.9z"/>
				<path class="st0" d="M257.6,160.1l0,0.9l-4.9-0.2l0-0.9L257.6,160.1z"/>
				<path class="st0" d="M258,157.2l-0.2,0.9l-4.8-0.9l0.2-0.9L258,157.2z"/>
				<path class="st0" d="M258.8,154.5l-0.3,0.8l-4.7-1.6l0.3-0.8L258.8,154.5z"/>
				<path class="st0" d="M259.9,151.9l-0.4,0.8l-4.4-2.2l0.4-0.8L259.9,151.9z"/>
			</g>
			<line class="st32" x1="279" y1="160.4" x2="286.9" y2="152.6"/>
			<polygon class="st3" points="285.1,150.8 291.2,148.5 288.9,154.6 			"/>
			<polygon class="st3" points="259,160.4 253.8,156.5 260.1,155.1 			"/>
			<line class="st33" x1="296.8" y1="142.8" x2="298.9" y2="140.8"/>
			<line class="st33" x1="257.3" y1="181.9" x2="259.5" y2="179.9"/>
			<text transform="matrix(0.7126 -0.7016 0.7016 0.7126 293.8099 179.5669)" class="st0 st30 st31">6</text>
			<text transform="matrix(0.7126 -0.7016 0.7016 0.7126 260.5887 148.6438)" class="st0 st30 st31">12</text>
			<text transform="matrix(0.7126 -0.7016 0.7016 0.7126 261.476 180.5923)" class="st0 st30 st31">9</text>
			<circle class="st3" cx="278.3" cy="161.2" r="2.8"/>
			<line class="st32" x1="278.1" y1="161" x2="256.8" y2="157.1"/>
			<line class="st33" x1="296.6" y1="179.9" x2="298.6" y2="182"/>
			<line class="st33" x1="257.1" y1="140.8" x2="259.1" y2="142.9"/>
		</g>
		<path class="st8" d="M347.5,3.9c2.9-0.9,5.8,0.5,6.7,3.1l73.9,235.4c0.8,2.6-0.8,5.4-3.7,6.3l-88,27.6c-2.9,0.9-5.8-0.5-6.7-3.1
			L255.8,37.9c-0.8-2.6,0.8-5.4,3.7-6.3L347.5,3.9z"/>
		<g>
			<g>
				<path class="st3" d="M360,93.6c3.7-1.2,7.4-2.3,11.1-3.5c7.7,24.4,15.3,48.8,23,73.2c-3.7,1.2-7.3,2.3-11.1,3.5
					C375.4,142.4,367.7,118.1,360,93.6z"/>
				<path class="st3" d="M321.2,22.6c3.7-1.2,7.3-2.3,11-3.5c3.4,10.7,6.7,21.4,10.1,32.2c-3.7,1.2-7.3,2.3-11,3.5
					C327.9,44.1,324.6,33.4,321.2,22.6z"/>
				<path class="st3" d="M297.4,60.4c-3.7,1.2-7.4,2.3-11.1,3.5c-2.9-9.2-5.8-18.3-8.7-27.6c3.7-1.2,7.4-2.3,11.1-3.5
					C291.7,42,294.5,51.1,297.4,60.4z"/>
				<path class="st3" d="M390.3,204.1c2.6,8.4,5.3,16.8,7.9,25.2c-3.7,1.2-7.4,2.3-11.1,3.5c-2.6-8.4-5.3-16.7-7.9-25.2
					C382.9,206.4,386.5,205.2,390.3,204.1z"/>
				<path class="st3" d="M363.2,208.6c3.7-1.2,7.3-2.3,11-3.5c2.5,7.9,5,15.8,7.4,23.7c-3.7,1.2-7.3,2.3-11,3.5
					C368.2,224.4,365.7,216.6,363.2,208.6z"/>
				<path class="st3" d="M292,31.8c3.7-1.2,7.3-2.3,11.1-3.5c2.4,7.6,3.1,9.7,5.5,17.4c-3.7,1.1-7.3,2.3-11.1,3.5
					C295.1,41.6,294.4,39.5,292,31.8z"/>
				<path class="st3" d="M350.3,217.1c3.7-1.2,7.3-2.3,11-3.4c2.1,6.6,4.1,13.1,6.2,19.7c-3.7,1.1-7.3,2.3-11,3.4
					C354.4,230.2,352.3,223.7,350.3,217.1z"/>
				<path class="st3" d="M365.2,71.2c1.6,5.1,3.2,10.3,4.8,15.4c-3.7,1.2-7.4,2.3-11.1,3.5c-1.6-5.1-3.2-10.3-4.8-15.4
					C357.8,73.5,361.5,72.3,365.2,71.2z"/>
				<path class="st3" d="M296.8,97.3c3.7-1.2,7.4-2.3,11.1-3.5c1.3,4.1,2.6,8.2,3.9,12.3c-3.7,1.2-7.3,2.3-11.1,3.5
					C299.4,105.5,298.1,101.4,296.8,97.3z"/>
				<path class="st3" d="M356.4,198.2c1.3,4.1,2.6,8.2,3.9,12.3c-3.7,1.2-7.4,2.3-11.1,3.5c-1.3-4.1-2.6-8.2-3.9-12.3
					C349,200.5,352.6,199.4,356.4,198.2z"/>
				<path class="st3" d="M355.6,195.6c-3.7,1.2-7.3,2.3-11.1,3.5c-1.3-4.1-2.6-8.2-3.9-12.4c3.7-1.2,7.3-2.3,11.1-3.5
					C353,187.4,354.3,191.4,355.6,195.6z"/>
				<path class="st3" d="M350.9,180.7c-3.7,1.2-7.3,2.3-11.1,3.5c-1.3-4.1-2.6-8.2-3.9-12.4c3.7-1.2,7.3-2.3,11.1-3.5
					C348.3,172.4,349.5,176.5,350.9,180.7z"/>
				<path class="st3" d="M318.9,78.8c1.3,4.1,2.6,8.2,3.9,12.3c-3.7,1.2-7.4,2.3-11.1,3.5c-1.3-4.1-2.6-8.2-3.9-12.3
					C311.5,81.1,315.1,79.9,318.9,78.8z"/>
				<path class="st3" d="M318.1,76.2c-3.7,1.2-7.4,2.3-11.1,3.5c-1.3-4.1-2.6-8.2-3.9-12.4c3.7-1.2,7.4-2.3,11.1-3.5
					C315.5,67.9,316.8,72,318.1,76.2z"/>
				<path class="st3" d="M368.7,187.4c-3.7,1.2-7.4,2.3-11.1,3.5c-1.3-4.1-2.6-8.2-3.9-12.4c3.7-1.2,7.4-2.3,11.1-3.5
					C366.1,179.1,367.4,183.2,368.7,187.4z"/>
				<path class="st3" d="M355.4,145c1.3,4.1,2.6,8.2,3.9,12.3c-3.7,1.2-7.3,2.3-11.1,3.5c-1.3-4.1-2.6-8.2-3.9-12.3
					C348,147.3,351.7,146.2,355.4,145z"/>
				<path class="st3" d="M315.2,55.8c-1.3-4.1-2.6-8.2-3.9-12.3c3.7-1.2,7.4-2.3,11.1-3.5c1.3,4.1,2.6,8.2,3.9,12.3
					C322.6,53.4,319,54.6,315.2,55.8z"/>
				<path class="st3" d="M371.3,143.5c1.3,4.1,2.6,8.2,3.9,12.3c-3.7,1.2-7.4,2.3-11.1,3.5c-1.3-4.1-2.6-8.2-3.9-12.3
					C363.9,145.8,367.6,144.7,371.3,143.5z"/>
				<path class="st3" d="M408.7,209.7c-3.7,1.2-7.4,2.3-11.1,3.5c-1.3-4.1-2.6-8.2-3.9-12.4c3.7-1.2,7.4-2.3,11.1-3.5
					C406.1,201.5,407.4,205.5,408.7,209.7z"/>
				<path class="st3" d="M330.9,167.1c-3.7,1.2-7.4,2.3-11.1,3.5c-1.3-4.1-2.6-8.2-3.9-12.3c3.7-1.2,7.3-2.3,11.1-3.5
					C328.4,158.9,329.6,162.9,330.9,167.1z"/>
				<path class="st3" d="M339,231.6c-1.3-4.2-2.6-8.2-3.9-12.3c3.7-1.2,7.4-2.3,11.1-3.5c1.3,4.1,2.6,8.2,3.9,12.3
					C346.4,229.3,342.7,230.4,339,231.6z"/>
				<path class="st3" d="M315,155.3c-1.3-4.1-2.6-8.2-3.9-12.3c3.7-1.2,7.4-2.3,11.1-3.5c1.3,4.1,2.6,8.2,3.9,12.3
					C322.5,153,318.8,154.2,315,155.3z"/>
				<path class="st3" d="M334.9,118.4c3.7-1.2,7.4-2.3,11.1-3.5c1.3,4.1,2.6,8.2,3.9,12.4c-3.7,1.2-7.4,2.3-11.1,3.5
					C337.5,126.7,336.2,122.6,334.9,118.4z"/>
				<path class="st3" d="M292,82c3.7-1.2,7.4-2.3,11.1-3.5c1.3,4.1,2.6,8.2,3.9,12.3c-3.7,1.2-7.4,2.3-11.1,3.5
					C294.6,90.2,293.3,86.2,292,82z"/>
				<path class="st3" d="M388.9,185.6c3.7-1.2,7.4-2.3,11.1-3.5c1.3,4.1,2.6,8.2,3.9,12.3c-3.7,1.2-7.4,2.3-11.1,3.5
					C391.5,193.8,390.2,189.8,388.9,185.6z"/>
				<path class="st3" d="M341.4,200.5c1.3,4.1,2.6,8.2,3.9,12.3c-3.7,1.2-7.4,2.3-11.1,3.5c-1.3-4.1-2.6-8.1-3.9-12.3
					C334,202.9,337.7,201.7,341.4,200.5z"/>
				<path class="st3" d="M370.5,140.9c-3.7,1.2-7.3,2.3-11.1,3.5c-1.3-4.1-2.6-8.2-3.9-12.4c3.7-1.2,7.3-2.3,11.1-3.5
					C367.9,132.7,369.1,136.7,370.5,140.9z"/>
				<path class="st3" d="M368.7,174.3c-1.3-4.1-2.6-8.2-3.9-12.3c3.7-1.2,7.4-2.3,11.1-3.5c1.3,4.1,2.6,8.2,3.9,12.3
					C376.1,171.9,372.5,173.1,368.7,174.3z"/>
				<path class="st3" d="M343.4,145.8c-1.3-4.1-2.6-8.1-3.8-12.3c3.7-1.2,7.4-2.3,11.1-3.5c1.3,4,2.5,8.1,3.8,12.3
					C350.9,143.5,347.2,144.6,343.4,145.8z"/>
				<path class="st3" d="M334,115.8c-1.3-4.1-2.6-8.1-3.8-12.3c3.7-1.2,7.4-2.3,11.1-3.5c1.3,4,2.5,8.1,3.8,12.3
					C341.5,113.4,337.8,114.6,334,115.8z"/>
				<path class="st3" d="M336.6,85c1.3,4.1,2.6,8.2,3.9,12.3c-3.7,1.2-7.4,2.3-11.1,3.5c-1.3-4.1-2.6-8.2-3.9-12.3
					C329.2,87.3,332.8,86.2,336.6,85z"/>
				<path class="st3" d="M335.7,82.3c-3.8,1.2-7.4,2.3-11.1,3.5c-1.3-4.1-2.6-8.2-3.9-12.3c3.7-1.2,7.4-2.3,11.1-3.5
					C333.2,74.1,334.4,78.2,335.7,82.3z"/>
				<path class="st3" d="M316,58.4c3.7-1.2,7.4-2.3,11.1-3.5c1.3,4.1,2.6,8.2,3.9,12.3c-3.7,1.2-7.4,2.3-11.1,3.5
					C318.6,66.6,317.3,62.6,316,58.4z"/>
				<path class="st3" d="M389.2,200.6c-3.7,1.2-7.4,2.3-11.1,3.5c-1.3-4.1-2.6-8.2-3.9-12.3c3.7-1.2,7.3-2.3,11.1-3.5
					C386.6,192.4,387.9,196.5,389.2,200.6z"/>
				<path class="st3" d="M380.7,173.4c1.3,4.1,2.6,8.2,3.9,12.3c-3.7,1.2-7.4,2.3-11.1,3.5c-1.3-4.1-2.6-8.2-3.9-12.3
					C373.3,175.7,376.9,174.6,380.7,173.4z"/>
				<path class="st3" d="M365.8,126c-3.7,1.2-7.4,2.3-11.1,3.5c-1.3-4.1-2.6-8.2-3.9-12.3c3.7-1.2,7.4-2.3,11.1-3.5
					C363.2,117.7,364.5,121.8,365.8,126z"/>
				<path class="st3" d="M357.2,98.8c1.3,4.1,2.6,8.2,3.9,12.3c-3.7,1.2-7.3,2.3-11.1,3.5c-1.3-4.1-2.6-8.1-3.9-12.3
					C349.8,101.1,353.5,99.9,357.2,98.8z"/>
				<path class="st3" d="M356.4,96.1c-3.7,1.2-7.3,2.3-11.1,3.5c-1.3-4.1-2.6-8.2-3.9-12.3c3.7-1.2,7.4-2.3,11.1-3.5
					C353.8,87.9,355.1,92,356.4,96.1z"/>
				<path class="st3" d="M336.8,72.4c3.7-1.2,7.4-2.3,11.1-3.5c1.3,4.1,2.6,8.1,3.9,12.3c-3.7,1.1-7.3,2.3-11.1,3.5
					C339.4,80.6,338.1,76.5,336.8,72.4z"/>
				<path class="st3" d="M343.2,54c1.3,4.1,2.6,8.2,3.9,12.3c-3.7,1.2-7.4,2.3-11.1,3.5c-1.3-4.1-2.6-8.2-3.9-12.3
					C335.8,56.3,339.5,55.1,343.2,54z"/>
				<path class="st3" d="M413.3,224.5c-3.7,1.2-7.4,2.3-11.1,3.5c-1.3-4.1-2.6-8.2-3.9-12.3c3.7-1.2,7.4-2.3,11.1-3.5
					C410.7,216.3,412,220.4,413.3,224.5z"/>
				<path class="st3" d="M395.2,166.9c1.3,4.1,2.6,8.2,3.9,12.3c-3.7,1.2-7.4,2.3-11.1,3.5c-1.3-4.1-2.6-8.1-3.9-12.3
					C387.8,169.2,391.5,168.1,395.2,166.9z"/>
				<path class="st3" d="M360.3,55.7c1.3,4.1,2.6,8.2,3.9,12.3c-3.7,1.2-7.4,2.3-11.1,3.5c-1.3-4.1-2.6-8.2-3.9-12.3
					C352.9,58.1,356.6,56.9,360.3,55.7z"/>
				<path class="st3" d="M324.6,185.8c-1.3-4.1-2.6-8.2-3.9-12.3c3.7-1.2,7.4-2.3,11.1-3.5c1.3,4.1,2.6,8.2,3.9,12.3
					C332,183.5,328.3,184.6,324.6,185.8z"/>
				<path class="st3" d="M340.5,197.6c-3.7,1.2-7.4,2.3-11.1,3.5c-1.3-4.1-2.6-8.2-3.9-12.3c3.7-1.2,7.3-2.3,11.1-3.5
					C337.9,189.4,339.2,193.4,340.5,197.6z"/>
				<path class="st3" d="M354.8,243.3c-3.7,1.2-7.3,2.3-11.1,3.5c-1.3-4.1-2.6-8.1-3.9-12.3c3.6-1.1,7.3-2.3,11.1-3.5
					C352.3,235.1,353.5,239.1,354.8,243.3z"/>
				<path class="st3" d="M331.2,156.9c3.7-1.2,7.4-2.3,11.1-3.5c1.3,4.1,2.6,8.2,3.9,12.3c-3.7,1.2-7.4,2.3-11.1,3.5
					C333.8,165.1,332.5,161,331.2,156.9z"/>
				<path class="st3" d="M330.4,154.2c-1.3-4.1-2.6-8.1-3.8-12.2c3.7-1.2,7.3-2.3,11.1-3.5c1.3,4,2.5,8.1,3.8,12.2
					C337.8,151.9,334.2,153,330.4,154.2z"/>
				<path class="st3" d="M321.9,127c3.7-1.2,7.4-2.3,11.1-3.5c1.3,4.1,2.6,8.2,3.9,12.3c-3.7,1.1-7.3,2.3-11.1,3.5
					C324.5,135.2,323.2,131.2,321.9,127z"/>
				<path class="st3" d="M328.3,108.6c1.3,4.1,2.6,8.2,3.9,12.3c-3.7,1.2-7.4,2.3-11.1,3.5c-1.3-4.1-2.6-8.1-3.9-12.3
					C320.9,111,324.5,109.8,328.3,108.6z"/>
				<path class="st3" d="M298.4,63.3c1.3,4.1,2.6,8.2,3.8,12.3c-3.7,1.2-7.4,2.3-11.1,3.5c-1.3-4.1-2.5-8.1-3.8-12.3
					C290.9,65.7,294.6,64.5,298.4,63.3z"/>
				<path class="st3" d="M312.5,97.2c3.7-1.2,7.3-2.3,11.1-3.5c1.3,4.1,2.6,8.2,3.9,12.3c-3.6,1.1-7.3,2.3-11.1,3.5
					C315.1,105.4,313.8,101.3,312.5,97.2z"/>
				<path class="st3" d="M301.6,112.5c3.7-1.2,7.4-2.3,11.1-3.5c1.3,4.1,2.6,8.2,3.9,12.3c-3.7,1.2-7.4,2.3-11.1,3.5
					C304.2,120.7,302.9,116.7,301.6,112.5z"/>
				<path class="st3" d="M298.4,52.3c3.7-1.2,7.3-2.3,11-3.5c1.3,4.1,2.6,8.2,3.9,12.4c-3.7,1.1-7.3,2.3-11,3.5
					C301,60.6,299.8,56.5,298.4,52.3z"/>
				<path class="st3" d="M358.5,193.5c3.7-1.2,7.4-2.3,11.1-3.5c1.3,4.1,2.6,8.2,3.9,12.3c-3.7,1.2-7.3,2.3-11.1,3.5
					C361,201.7,359.8,197.7,358.5,193.5z"/>
				<path class="st3" d="M349,163.5c3.7-1.2,7.4-2.3,11.1-3.5c1.3,4.1,2.6,8.2,3.9,12.3c-3.7,1.1-7.3,2.3-11.1,3.5
					C351.6,171.7,350.4,167.7,349,163.5z"/>
				<path class="st3" d="M310.3,140.1c-1.3-4.1-2.6-8.2-3.9-12.3c3.7-1.2,7.4-2.3,11.1-3.5c1.3,4.1,2.6,8.2,3.9,12.3
					C317.7,137.8,314,138.9,310.3,140.1z"/>
				<path class="st3" d="M315.9,171.9c-1.6,0.5-3.1,1-4.6,1.4c-0.9,0.3-1.7-0.2-2-1.1c-1-3.1-1.9-6.1-2.9-9.2c-0.3-0.9,0.1-1.7,1-2
					c1.5-0.6,3-1,4.6-1.5C313.3,163.6,314.6,167.7,315.9,171.9z"/>
				<path class="st3" d="M277.6,49.9c-1.6,0.5-3.1,1-4.6,1.4c-0.9,0.3-1.7-0.2-2-1.2c-1-3-1.9-6.1-2.9-9.1c-0.3-0.9,0-1.7,0.9-2.1
					c1.5-0.6,3.1-1,4.7-1.5C275,41.6,276.3,45.7,277.6,49.9z"/>
				<path class="st3" d="M307.2,144.2c1.3,4.2,2.6,8.2,3.9,12.4c-1.6,0.5-3.2,1.1-4.9,1.5c-0.8,0.2-1.5-0.3-1.7-1.1
					c-1-3.1-1.9-6.1-2.9-9.2c-0.3-0.9,0.1-1.7,0.9-2C304,145.1,305.6,144.7,307.2,144.2z"/>
				<path class="st3" d="M331.1,220.4c1.3,4.2,2.6,8.3,3.9,12.4c-1.6,0.5-3.2,1.1-4.7,1.5c-0.8,0.2-1.6-0.2-1.9-1.1
					c-1-3.1-2-6.2-2.9-9.3c-0.3-0.9,0.1-1.7,1-2.1C328,221.4,329.5,220.9,331.1,220.4z"/>
				<path class="st3" d="M288.1,83.2c1.3,4.2,2.6,8.2,3.9,12.4c-1.6,0.5-3.2,1.1-4.8,1.5c-0.8,0.2-1.5-0.2-1.8-1.1
					c-1-3.1-2-6.3-2.9-9.4c-0.3-0.9,0.1-1.6,1-1.9C284.9,84.2,286.4,83.7,288.1,83.2z"/>
				<path class="st3" d="M296.7,110.9c-1.6,0.5-3.1,1-4.6,1.4c-0.9,0.3-1.7-0.2-2-1.1c-1-3-1.9-6.1-2.9-9.1
					c-0.3-0.9,0.1-1.8,0.9-2.1c1.5-0.5,3-1,4.6-1.5C294.1,102.6,295.4,106.7,296.7,110.9z"/>
				<path class="st3" d="M330.2,217.6c-1.6,0.5-3.1,1-4.6,1.4c-0.9,0.2-1.7-0.2-1.9-1.1c-1-3.1-2-6.2-2.9-9.3c-0.3-0.9,0.1-1.7,1-2
					c1.5-0.5,3-1,4.6-1.5C327.6,209.4,328.9,213.5,330.2,217.6z"/>
				<path class="st3" d="M339.8,248.1c-1.6,0.5-3.2,1.1-4.7,1.5c-0.9,0.2-1.6-0.2-1.8-1.1c-1-3.1-2-6.1-2.9-9.2
					c-0.3-0.9,0.1-1.8,1-2.1c1.5-0.5,3-1,4.6-1.4C337.2,239.8,338.5,243.9,339.8,248.1z"/>
				<path class="st3" d="M316.8,174.7c1.3,4.2,2.6,8.2,3.9,12.4c-1.6,0.5-3.2,1.1-4.8,1.5c-0.8,0.2-1.5-0.2-1.7-1
					c-1-3.2-2-6.3-3-9.5c-0.3-0.9,0.1-1.6,1-1.9C313.6,175.6,315.2,175.2,316.8,174.7z"/>
				<path class="st3" d="M301.5,126.1c-1.6,0.5-3.1,1-4.6,1.4c-0.9,0.2-1.6-0.1-1.9-1c-1-3.1-2-6.3-3-9.4c-0.3-0.9,0.1-1.7,1-2
					c1.5-0.5,3-1,4.6-1.5C298.9,117.8,300.2,121.9,301.5,126.1z"/>
				<path class="st3" d="M325.4,202.4c-1.6,0.5-3.1,1-4.7,1.4c-0.9,0.2-1.6-0.2-1.9-1.1c-1-3.1-2-6.1-2.9-9.2c-0.3-1,0.1-1.7,1-2.1
					c1.2-0.4,2.5-0.8,3.7-1.2c0.3-0.1,0.5-0.1,0.9-0.2C322.8,194.1,324.1,198.2,325.4,202.4z"/>
				<path class="st3" d="M278.5,52.7c1.3,4.2,2.6,8.2,3.9,12.4c-1.7,0.5-3.3,1.1-5,1.5c-0.7,0.2-1.4-0.3-1.6-1.1
					c-1-3.1-1.9-6.1-2.9-9.2c-0.3-1,0.1-1.8,1.1-2.1C275.4,53.7,276.9,53.2,278.5,52.7z"/>
				<path class="st3" d="M302.4,129c1.3,4.1,2.6,8.2,3.9,12.4c-1.6,0.5-3.2,1.1-4.7,1.5c-0.9,0.2-1.6-0.2-1.8-1.1
					c-1-3.1-2-6.2-2.9-9.3c-0.3-0.8,0-1.6,0.8-1.9C299.2,130,300.8,129.5,302.4,129z"/>
				<path class="st3" d="M283.3,68c1.3,4.2,2.6,8.2,3.9,12.4c-1.6,0.5-3.2,1.1-4.8,1.5c-0.8,0.2-1.5-0.2-1.8-1.1
					c-1-3.1-2-6.3-2.9-9.4c-0.3-0.9,0.1-1.6,1-1.9C280.1,68.9,281.7,68.5,283.3,68z"/>
				<path class="st3" d="M351,26c-1.6,0.5-3.3,1.1-4.9,1.5c-0.6,0.2-1.1-0.2-1.3-0.8c-1-3.1-1.9-6.1-2.9-9.2c-0.2-0.7,0-1.3,0.7-1.6
					c1.5-0.5,3.1-1,4.7-1.5C348.6,18.3,349.8,22.1,351,26z"/>
				<path class="st3" d="M356,41.8c1.2,3.9,2.4,7.7,3.6,11.6c-1.7,0.5-3.4,1.1-5.2,1.6c-0.3,0.1-0.9-0.4-1-0.8c-1-3.1-2-6.3-3-9.4
					c-0.2-0.8,0-1.3,0.8-1.5C352.8,42.8,354.3,42.3,356,41.8z"/>
				<path class="st3" d="M355.4,40.1c-1.6,0.5-3.2,1-4.8,1.5c-1.3-4.1-2.6-8.2-3.9-12.3c1.6-0.5,3.1-1,4.8-1.5
					C352.8,31.8,354.1,35.9,355.4,40.1z"/>
				<path class="st3" d="M345,29.7c1.3,4.2,2.6,8.2,3.9,12.4c-1.3,0.4-2.6,0.9-3.9,1.2c-0.3,0.1-0.9-0.4-1-0.7
					c-1.1-3.4-2.2-6.8-3.3-10.3c-0.2-0.7,0.1-1.2,0.7-1.4C342.6,30.4,343.8,30.1,345,29.7z"/>
			</g>
			
				<rect x="293.2" y="27.5" transform="matrix(0.9541 -0.2995 0.2995 0.9541 3.9469 93.3643)" class="st3" width="26.7" height="12.6"/>
		</g>
		<g class="st34">
			<g>
				<path class="st3" d="M360.7,92.6c3.7-1.2,7.4-2.3,11.1-3.5c7.7,24.4,15.3,48.8,23,73.2l-0.7,1c-3.5,1.1-6.8,1.4-10.4,2.5
					c-7.6-24.2-16-47.9-23.7-72.2L360.7,92.6z"/>
				<path class="st3" d="M321.9,21.6c3.7-1.2,7.3-2.3,11-3.5c3.4,10.7,6.7,21.4,10.1,32.2c-0.2,0.1-0.5,0.9-0.7,1
					c-3.4,1.1-6.8,1.4-10.3,2.5c-3.3-10.6-7.4-20.5-10.8-31.2C321.2,22.5,321.9,21.7,321.9,21.6z"/>
				<path class="st3" d="M298.1,59.4c-0.2,0.1-0.5,0.9-0.7,1c-3.5,1.1-6.9,1.4-10.4,2.5c-2.8-9-6.5-17.5-9.4-26.6
					c0-0.1,0.7-0.8,0.7-1c3.7-1.2,7.4-2.3,11.1-3.5C292.4,41,295.2,50.1,298.1,59.4z"/>
				<path class="st3" d="M391,203.1c2.6,8.4,5.3,16.8,7.9,25.2c-3.7,1.2-7.4,2.3-11.1,3.5c-2.6-8.4-5.3-16.7-7.9-25.2
					C383.6,205.4,387.2,204.2,391,203.1z"/>
				<path class="st3" d="M363.9,207.6c3.7-1.2,7.3-2.3,11-3.5c2.5,7.9,5,15.8,7.4,23.7c-3.7,1.2-7.3,2.3-11,3.5
					C368.9,223.4,366.4,215.6,363.9,207.6z"/>
				<path class="st3" d="M292.7,30.8c3.7-1.2,7.3-2.3,11.1-3.5c2.4,7.6,3.1,9.7,5.5,17.4c-0.2,0.1-0.5,0.9-0.7,1
					c-3.5,1.1-6.8,1.4-10.4,2.5C295.8,40.6,295.1,38.5,292.7,30.8z"/>
				<path class="st3" d="M351,216.1c3.7-1.2,7.3-2.3,11-3.4c2.1,6.6,4.1,13.1,6.2,19.7c-3.7,1.1-7.3,2.3-11,3.4
					C355.1,229.2,353,222.7,351,216.1z"/>
				<path class="st3" d="M365.9,70.2c1.6,5.1,3.2,10.3,4.8,15.4c-0.2,0.1-0.5,0.9-0.7,1c-3.5,1.1-6.9,1.4-10.4,2.5
					c-1.6-5-4-9.4-5.5-14.4c0-0.1,0.7-0.9,0.7-1C358.5,72.5,362.2,71.4,365.9,70.2z"/>
				<path class="st3" d="M297.5,96.3c3.7-1.2,7.4-2.3,11.1-3.5c1.3,4.1,2.6,8.2,3.9,12.3c-0.1,0-0.6,1-0.7,1
					c-3.6,1.1-6.7,1.3-10.4,2.5c-1.2-4-3.2-7.2-4.5-11.2C296.9,97.3,297.6,96.4,297.5,96.3z"/>
				<path class="st3" d="M357.1,197.2c1.3,4.1,2.6,8.2,3.9,12.3c-3.7,1.2-7.4,2.3-11.1,3.5c-1.2-4-3.3-7.2-4.5-11.2
					c-0.1-0.2,0.7-1,0.7-1.1C349.7,199.5,353.3,198.4,357.1,197.2z"/>
				<path class="st3" d="M356.3,194.6l-0.7,1c-3.4,1.1-7,1.4-10.4,2.5c-1.3-4-3.3-7.3-4.6-11.4l0.7-1c3.7-1.2,7.3-2.3,11.1-3.5
					C353.7,186.4,355,190.4,356.3,194.6z"/>
				<path class="st3" d="M351.6,179.7l-0.7,1c-3.6,1.1-6.8,1.4-10.4,2.5c-1.3-4-3.3-7.3-4.6-11.4l0.7-1c3.7-1.2,7.3-2.3,11.1-3.5
					C349,171.4,350.2,175.5,351.6,179.7z"/>
				<path class="st3" d="M319.6,77.8c1.3,4.1,2.6,8.2,3.9,12.3c-0.2,0.1-0.5,0.9-0.7,1c-3.5,1.1-6.8,1.4-10.4,2.5
					c-1.3-4-3.3-7.3-4.6-11.3c0-0.1,0.7-0.9,0.7-1C312.2,80.1,315.8,78.9,319.6,77.8z"/>
				<path class="st3" d="M318.8,75.2c-0.2,0.1-0.5,0.9-0.7,1c-3.5,1.1-6.8,1.4-10.4,2.5c-1.3-4-3.3-7.3-4.6-11.4
					c0-0.1,0.7-0.9,0.7-1c3.7-1.2,7.4-2.3,11.1-3.5C316.2,66.9,317.5,71,318.8,75.2z"/>
				<path class="st3" d="M369.4,186.4l-0.7,1c-3.6,1.1-6.8,1.4-10.4,2.5c-1.3-4-3.3-7.3-4.6-11.4l0.7-1c3.7-1.2,7.4-2.3,11.1-3.5
					C366.8,178.1,368.1,182.2,369.4,186.4z"/>
				<path class="st3" d="M356.1,144c1.3,4.1,2.6,8.2,3.9,12.3c-0.1,0-0.6,0.9-0.7,1c-3.5,1.1-6.8,1.4-10.4,2.5
					c-1.3-4-3.3-7.3-4.6-11.3c0-0.1,0.7-0.9,0.7-1C348.7,146.3,352.4,145.2,356.1,144z"/>
				<path class="st3" d="M315.9,54.8c-1.3-4-3.3-7.3-4.6-11.3c0-0.1,0.7-0.9,0.7-1c3.7-1.2,7.4-2.3,11.1-3.5
					c1.3,4.1,2.6,8.2,3.9,12.3c-0.2,0.1-0.5,0.9-0.7,1C322.8,53.4,319.4,53.7,315.9,54.8z"/>
				<path class="st3" d="M372,142.5c1.3,4.1,2.6,8.2,3.9,12.3c-0.2,0.1-0.5,0.9-0.7,1c-3.5,1.1-6.9,1.4-10.4,2.5
					c-1.3-4-3.3-7.3-4.6-11.3c0-0.1,0.7-0.9,0.7-1C364.6,144.8,368.3,143.7,372,142.5z"/>
				<path class="st3" d="M409.4,208.7c-3.7,1.2-7.4,2.3-11.1,3.5c-1.3-4.1-2.6-8.2-3.9-12.4c3.7-1.2,7.4-2.3,11.1-3.5
					C406.8,200.5,408.1,204.6,409.4,208.7z"/>
				<path class="st3" d="M331.6,166.1l-0.7,1c-3.6,1.1-6.8,1.4-10.4,2.5c-1.3-4-3.3-7.3-4.6-11.4l0.7-1c3.7-1.2,7.3-2.3,11.1-3.5
					C329.1,157.9,330.3,161.9,331.6,166.1z"/>
				<path class="st3" d="M339.7,230.6c-1.3-4.2-2.6-8.2-3.9-12.3c3.7-1.2,7.4-2.3,11.1-3.5c1.3,4.1,2.6,8.2,3.9,12.3
					C347.1,228.3,343.4,229.4,339.7,230.6z"/>
				<path class="st3" d="M315.7,154.3c-1.3-4-3.3-7.3-4.6-11.3l0.7-1c3.7-1.2,7.4-2.3,11.1-3.5c1.3,4.1,2.6,8.2,3.9,12.3l-0.7,1
					C322.6,153,319.3,153.2,315.7,154.3z"/>
				<path class="st3" d="M335.6,117.5c3.7-1.2,7.4-2.3,11.1-3.5c1.3,4.1,2.6,8.2,3.9,12.4c-0.2,0-0.5,0.9-0.7,1
					c-3.5,1.1-6.8,1.4-10.4,2.5c-1.3-4-3.3-7.3-4.6-11.4C334.8,118.3,335.6,117.6,335.6,117.5z"/>
				<path class="st3" d="M292.7,81c3.7-1.2,7.4-2.3,11.1-3.5c1.3,4.1,2.6,8.2,3.9,12.3c-0.1,0-0.6,1-0.7,1
					c-3.6,1.1-6.8,1.4-10.4,2.5c-1.3-4-3.2-7.1-4.5-11.2C292.1,82.1,292.8,81.1,292.7,81z"/>
				<path class="st3" d="M389.6,184.6c3.7-1.2,7.4-2.3,11.1-3.5c1.3,4.1,2.6,8.2,3.9,12.3c-3.7,1.2-7.4,2.3-11.1,3.5
					c-1.3-4-3.3-7.3-4.6-11.3L389.6,184.6z"/>
				<path class="st3" d="M342.1,199.6c1.3,4.1,2.6,8.2,3.9,12.3c-3.7,1.2-7.4,2.3-11.1,3.5c-1.2-3.9-3.3-7.3-4.6-11.3l0.7-1
					C334.7,201.9,338.4,200.7,342.1,199.6z"/>
				<path class="st3" d="M371.2,139.9c-0.2,0.1-0.5,0.9-0.7,1c-3.5,1.1-6.8,1.4-10.4,2.5c-1.3-4-3.3-7.4-4.6-11.4
					c0-0.1,0.7-0.9,0.7-1c3.7-1.2,7.3-2.3,11.1-3.5C368.6,131.7,369.8,135.7,371.2,139.9z"/>
				<path class="st3" d="M369.4,173.3c-1.3-4-3.3-7.3-4.6-11.3l0.7-1c3.7-1.2,7.4-2.3,11.1-3.5c1.3,4.1,2.6,8.2,3.9,12.3
					c-0.1,0-0.7,1-0.7,1C376.3,171.9,373.1,172.1,369.4,173.3z"/>
				<path class="st3" d="M344.1,144.8c-1.2-4-3.3-7.3-4.5-11.3c0-0.1,0.7-0.9,0.7-1c3.7-1.2,7.4-2.3,11.1-3.5
					c1.3,4,2.5,8.1,3.8,12.3c-0.1,0-0.3,0.1-0.4,0.1C351.3,142.6,347.8,143.7,344.1,144.8z"/>
				<path class="st3" d="M334.7,114.8c-1.2-4-2.5-7.9-3.7-11.9c0-0.1-0.1-0.2-0.1-0.4c3.7-1.2,7.4-2.3,11.1-3.5
					c1.3,4,2.5,8.1,3.8,12.3c-0.3,0.1-0.6,0.2-0.9,0.3C341.6,112.6,338.2,113.7,334.7,114.8z"/>
				<path class="st3" d="M337.3,84c1.3,4.1,2.6,8.2,3.9,12.3c-0.2,0.1-0.5,0.9-0.7,1c-3.5,1.1-6.8,1.4-10.4,2.5
					c-1.3-4-3.3-7.2-4.6-11.3c0-0.1,0.7-0.9,0.7-1C329.9,86.3,333.5,85.2,337.3,84z"/>
				<path class="st3" d="M336.4,81.3c-0.1,0-0.6,0.9-0.7,1c-3.6,1.1-6.8,1.4-10.4,2.5c-1.3-4-3.3-7.3-4.6-11.3c0-0.1,0.7-0.9,0.7-1
					c3.7-1.2,7.4-2.3,11.1-3.5C333.9,73.1,335.1,77.2,336.4,81.3z"/>
				<path class="st3" d="M316.7,57.4c3.7-1.2,7.4-2.3,11.1-3.5c1.3,4.1,2.6,8.2,3.9,12.3c-0.2,0.1-0.5,0.9-0.7,1
					c-3.5,1.1-6.9,1.4-10.4,2.5c-1.2-3.9-3.3-7.2-4.5-11.2C316,58.4,316.8,57.6,316.7,57.4z"/>
				<path class="st3" d="M389.9,199.6c-3.7,1.2-7.4,2.3-11.1,3.5c-1.2-3.9-3.3-7.4-4.6-11.3l0.7-1c3.7-1.2,7.3-2.3,11.1-3.5
					C387.3,191.4,388.6,195.5,389.9,199.6z"/>
				<path class="st3" d="M381.4,172.4c1.3,4.1,2.6,8.2,3.9,12.3c-0.2,0.1-0.5,0.9-0.7,1c-3.5,1.1-6.9,1.4-10.4,2.5
					c-1.2-4-3.3-7.3-4.6-11.3l0.7-1C374,174.7,377.6,173.6,381.4,172.4z"/>
				<path class="st3" d="M366.5,125c-0.2,0.1-0.5,0.9-0.7,1c-3.6,1.1-6.8,1.4-10.4,2.5c-1.3-4-3.3-7.3-4.6-11.3c0-0.1,0.7-0.9,0.7-1
					c3.7-1.2,7.4-2.3,11.1-3.5C363.9,116.8,365.2,120.8,366.5,125z"/>
				<path class="st3" d="M357.9,97.8c1.3,4.1,2.6,8.2,3.9,12.3c-0.2,0-0.5,0.9-0.7,1c-0.1,0-7,1.4-10.4,2.5
					c-1.2-3.9-3.3-7.3-4.6-11.3c0-0.1,0.7-0.9,0.7-1C350.5,100.1,354.2,99,357.9,97.8z"/>
				<path class="st3" d="M357.1,95.1c-0.2,0.1-0.5,0.9-0.7,1c-3.5,1.1-6.8,1.4-10.4,2.5c-1.2-3.9-3.3-7.2-4.5-11.2
					c0-0.1,0.7-1,0.7-1.1c3.7-1.2,7.4-2.3,11.1-3.5C354.5,86.9,355.8,91,357.1,95.1z"/>
				<path class="st3" d="M337.5,71.4c3.7-1.2,7.4-2.3,11.1-3.5c1.3,4.1,2.6,8.1,3.9,12.3c-0.1,0-0.6,0.9-0.7,1
					c-3.5,1.1-6.8,1.4-10.4,2.5c-1.2-3.9-3.3-7.3-4.6-11.3C336.7,72.2,337.5,71.5,337.5,71.4z"/>
				<path class="st3" d="M343.9,53c1.3,4.1,2.6,8.2,3.9,12.3c-0.2,0.1-0.5,0.9-0.7,1c-3.5,1.1-6.9,1.4-10.4,2.5
					c-1.3-4-3.2-7.1-4.5-11.1c0-0.1,0.7-1.1,0.6-1.2C336.5,55.3,340.2,54.1,343.9,53z"/>
				<path class="st3" d="M414,223.5c-3.7,1.2-7.4,2.3-11.1,3.5c-1.3-4.1-2.6-8.2-3.9-12.3c3.7-1.2,7.4-2.3,11.1-3.5
					C411.4,215.3,412.7,219.4,414,223.5z"/>
				<path class="st3" d="M395.9,165.9c1.3,4.1,2.6,8.2,3.9,12.3l-0.7,1c-3.6,1.1-6.8,1.4-10.4,2.5c-1.3-4-3.3-7.3-4.6-11.3l0.7-1
					C388.5,168.2,392.2,167.1,395.9,165.9z"/>
				<path class="st3" d="M361,54.7c1.3,4.1,2.6,8.2,3.9,12.3c-0.2,0.1-0.5,0.9-0.7,1c-3.5,1.1-6.9,1.4-10.4,2.5
					c-1.2-4-3.3-7.3-4.6-11.3c0-0.1,0.7-0.9,0.7-1C353.6,57.1,357.3,55.9,361,54.7z"/>
				<path class="st3" d="M325.3,184.8c-1.3-4-3.3-7.3-4.6-11.3l0.7-1c3.7-1.2,7.4-2.3,11.1-3.5c1.3,4.1,2.6,8.2,3.9,12.3l-0.7,1
					C332.1,183.4,328.9,183.7,325.3,184.8z"/>
				<path class="st3" d="M341.2,196.6l-0.7,1c-3.6,1.1-6.8,1.4-10.4,2.5c-1.2-3.9-3.3-7.3-4.6-11.3l0.7-1c3.7-1.2,7.3-2.3,11.1-3.5
					C338.6,188.4,339.9,192.5,341.2,196.6z"/>
				<path class="st3" d="M355.5,242.3c-3.7,1.2-7.3,2.3-11.1,3.5c-1.3-4.1-2.6-8.1-3.9-12.3c3.6-1.1,7.3-2.3,11.1-3.5
					C353,234.1,354.2,238.2,355.5,242.3z"/>
				<path class="st3" d="M331.9,155.9c3.7-1.2,7.4-2.3,11.1-3.5c1.3,4.1,2.6,8.2,3.9,12.3l-0.7,1c-3.5,1.1-6.8,1.4-10.4,2.5
					c-1.3-4-3.3-7.2-4.6-11.3L331.9,155.9z"/>
				<path class="st3" d="M331.1,153.2c-1.3-4-3.3-7.2-4.5-11.3c0-0.1,0.7-0.9,0.7-1c3.7-1.2,7.3-2.3,11.1-3.5
					c1.3,4,2.5,8.1,3.8,12.2c-0.1,0-0.6,0.9-0.7,1C338,151.9,334.7,152.1,331.1,153.2z"/>
				<path class="st3" d="M322.6,126c3.7-1.2,7.4-2.3,11.1-3.5c1.3,4.1,2.6,8.2,3.9,12.3c-0.1,0-0.6,0.9-0.7,1
					c-3.5,1.1-6.8,1.4-10.4,2.5c-1.2-4-3.3-7.2-4.6-11.3C321.8,126.9,322.6,126.1,322.6,126z"/>
				<path class="st3" d="M329,107.6c1.3,4.1,2.6,8.2,3.9,12.3c-0.2,0.1-0.5,0.9-0.7,1c-3.5,1.1-6.9,1.4-10.4,2.5
					c-1.2-3.9-3.3-7.3-4.6-11.3c0-0.1,0.7-0.9,0.7-1C321.6,110,325.2,108.8,329,107.6z"/>
				<path class="st3" d="M299.1,62.3c1.3,4.1,2.6,8.2,3.8,12.3c-0.2,0.1-0.5,0.9-0.7,1c-3.5,1.1-6.8,1.4-10.4,2.5
					c-1.2-3.9-3.2-7.1-4.5-11.1c0-0.1,0.7-1,0.7-1.1C291.6,64.7,295.3,63.5,299.1,62.3z"/>
				<path class="st3" d="M313.2,96.2c3.7-1.2,7.3-2.3,11.1-3.5c1.3,4.1,2.6,8.2,3.9,12.3c-0.2,0.1-0.5,0.9-0.7,1
					c-3.5,1.1-6.8,1.4-10.4,2.5c-1.2-4-3.3-7.3-4.6-11.3C312.5,97,313.2,96.3,313.2,96.2z"/>
				<path class="st3" d="M302.3,111.5c3.7-1.2,7.4-2.3,11.1-3.5c1.3,4.1,2.6,8.2,3.9,12.3c-0.1,0-0.6,0.9-0.7,1
					c-3.5,1.1-6.8,1.4-10.4,2.5c-1.2-4-3.3-7.3-4.6-11.3C301.6,112.4,302.4,111.6,302.3,111.5z"/>
				<path class="st3" d="M299.1,51.3c3.7-1.2,7.3-2.3,11-3.5c1.3,4.1,2.6,8.2,3.9,12.4c-0.3,0.1-0.4,0.9-0.7,1
					c-3.4,1.1-6.9,1.4-10.3,2.5c-1.2-3.9-2.5-7.9-3.7-11.9C299.2,51.6,299.2,51.5,299.1,51.3z"/>
				<path class="st3" d="M359.2,192.5c3.7-1.2,7.4-2.3,11.1-3.5c1.3,4.1,2.6,8.2,3.9,12.3c-3.7,1.2-7.3,2.3-11.1,3.5
					c-1.2-3.8-3.3-7.4-4.6-11.3L359.2,192.5z"/>
				<path class="st3" d="M349.7,162.5c3.7-1.2,7.4-2.3,11.1-3.5c1.3,4.1,2.6,8.2,3.9,12.3c-0.1,0-0.6,1-0.7,1
					c-3.5,1.1-6.8,1.3-10.4,2.5c-1.2-4-3.3-7.2-4.6-11.3C349,163.4,349.8,162.6,349.7,162.5z"/>
				<path class="st3" d="M311,139.1c-1.3-4-3.3-7.3-4.6-11.3c0-0.1,0.7-0.9,0.7-1c3.7-1.2,7.4-2.3,11.1-3.5
					c1.3,4.1,2.6,8.2,3.9,12.3c-0.2,0-0.5,0.9-0.7,1C317.8,137.7,314.5,138,311,139.1z"/>
				<path class="st3" d="M316.6,170.9l-0.7,1c-1.5,0.5-2.5,0.1-3.9,0.4c-0.9,0.3-1.7-0.2-2-1.1c-1-3.1-2.7-5.4-3.7-8.5
					c-0.3-0.9,0.9-2.4,1.7-2.7c1.5-0.6,3-1,4.6-1.5C314,162.6,315.3,166.7,316.6,170.9z"/>
				<path class="st3" d="M278.3,48.9c-0.2,0.1-0.5,0.9-0.7,1c-1.4,0.5-2.5,0.1-3.9,0.4c-0.9,0.3-1.7-0.2-2-1.2c-1-3-2.7-5.4-3.7-8.5
					c-0.3-0.9,0.8-2.4,1.6-2.7c1.5-0.6,3.1-1,4.7-1.5C275.7,40.6,277,44.7,278.3,48.9z"/>
				<path class="st3" d="M307.9,143.2c1.3,4.2,2.6,8.2,3.9,12.4l-0.7,1c-1.5,0.5-2.7,0.2-4.2,0.5c-0.8,0.2-1.5-0.3-1.7-1.1
					c-1-3.1-2.7-5.4-3.7-8.5c-0.3-0.9,0.8-2.4,1.7-2.7C304.7,144.2,306.3,143.7,307.9,143.2z"/>
				<path class="st3" d="M331.8,219.4c1.3,4.2,2.6,8.3,3.9,12.4c-1.6,0.5-3.2,1.1-4.7,1.5c-0.8,0.2-1.6-0.2-1.9-1.1
					c-1-3.1-2-6.2-2.9-9.3c-0.3-0.9,0.1-1.7,1-2.1C328.7,220.4,330.2,219.9,331.8,219.4z"/>
				<path class="st3" d="M288.8,82.2c1.3,4.2,2.6,8.2,3.9,12.4c-0.2,0-0.5,0.9-0.7,1c-1.5,0.5-2.6,0.1-4.1,0.5
					c-0.8,0.2-1.5-0.2-1.8-1.1c-1-3.1-2.8-5.5-3.7-8.7c-0.3-0.9,0.9-2.3,1.7-2.6C285.6,83.2,287.1,82.7,288.8,82.2z"/>
				<path class="st3" d="M297.4,109.9c-0.2,0.1-0.5,0.9-0.7,1c-1.4,0.4-2.6,0.1-3.9,0.4c-0.9,0.3-1.7-0.2-2-1.1
					c-1-3-2.7-5.3-3.6-8.4c-0.3-0.9,0.8-2.5,1.7-2.9c1.5-0.5,3-1,4.6-1.5C294.8,101.6,296.1,105.7,297.4,109.9z"/>
				<path class="st3" d="M330.9,216.6c-1.6,0.5-3.1,1-4.6,1.4c-0.9,0.2-1.7-0.2-1.9-1.1c-1-3.1-2.8-5.6-3.7-8.7
					c-0.3-0.9,0.9-2.2,1.8-2.6c1.5-0.5,3-1,4.6-1.5C328.3,208.4,329.6,212.5,330.9,216.6z"/>
				<path class="st3" d="M340.5,247.1c-1.6,0.5-3.2,1.1-4.7,1.5c-0.9,0.2-1.6-0.2-1.8-1.1c-1-3.1-2-6.1-2.9-9.2
					c-0.3-0.9,0.1-1.8,1-2.1c1.5-0.5,3-1,4.6-1.4C337.9,238.8,339.2,242.9,340.5,247.1z"/>
				<path class="st3" d="M317.5,173.7c1.3,4.2,2.6,8.2,3.9,12.4l-0.7,1c-1.5,0.5-2.6,0.1-4.1,0.5c-0.8,0.2-1.5-0.2-1.7-1
					c-1-3.2-2.8-5.6-3.7-8.8c-0.3-0.9,0.9-2.3,1.7-2.6C314.3,174.7,315.9,174.2,317.5,173.7z"/>
				<path class="st3" d="M302.2,125.1c-0.2,0.1-0.5,0.9-0.7,1c-1.4,0.4-2.6,0.1-3.9,0.4c-0.9,0.2-1.6-0.1-1.9-1
					c-1-3.1-2.8-5.5-3.7-8.7c-0.3-0.9,0.9-2.4,1.8-2.7c1.5-0.5,3-1,4.6-1.5C299.6,116.9,300.9,120.9,302.2,125.1z"/>
				<path class="st3" d="M326.1,201.4c-0.2,0.1-0.5,0.9-0.7,1c-1.4,0.5-2.6,0.1-4,0.4c-0.9,0.2-1.6-0.2-1.9-1.1
					c-1-3.1-2.7-5.4-3.6-8.5c-0.3-1,0.8-2.4,1.7-2.8c1.2-0.4,2.5-0.8,3.7-1.2c0.3-0.1,0.5-0.1,0.9-0.2
					C323.5,193.1,324.8,197.2,326.1,201.4z"/>
				<path class="st3" d="M279.2,51.7c1.3,4.2,2.6,8.2,3.9,12.4c-0.2,0.1-0.5,0.9-0.7,1c-1.5,0.5-2.8,0.2-4.3,0.5
					c-0.7,0.2-1.4-0.3-1.6-1.1c-1-3.1-2.7-5.5-3.7-8.5c-0.3-1,0.9-2.5,1.9-2.8C276.1,52.7,277.6,52.2,279.2,51.7z"/>
				<path class="st3" d="M303.1,128c1.3,4.1,2.6,8.2,3.9,12.4c-0.2,0.1-0.5,0.9-0.7,1c-1.4,0.4-2.7,0.1-4,0.5
					c-0.9,0.2-1.6-0.2-1.8-1.1c-1-3.1-2.7-5.5-3.7-8.6c-0.3-0.8,0.8-2.3,1.6-2.6C299.9,129,301.5,128.5,303.1,128z"/>
				<path class="st3" d="M284,67c1.3,4.2,2.6,8.2,3.9,12.4c-0.2,0.1-0.5,0.9-0.7,1c-1.4,0.5-2.7,0.1-4.1,0.5
					c-0.8,0.2-1.5-0.2-1.8-1.1c-1-3.1-2.8-5.7-3.7-8.8c-0.3-0.9,0.9-2.2,1.7-2.5C280.8,68,282.4,67.5,284,67z"/>
				<path class="st3" d="M351.7,25c-0.2,0.1-0.5,0.9-0.7,1c-1.5,0.5-2.7,0.1-4.2,0.5c-0.6,0.2-1.1-0.2-1.3-0.8
					c-1-3.1-2.7-5.4-3.7-8.5c-0.2-0.7,0.8-2.1,1.5-2.3c1.5-0.5,3.1-1,4.7-1.5C349.3,17.3,350.5,21.1,351.7,25z"/>
				<path class="st3" d="M356.7,40.8c1.2,3.9,2.4,7.7,3.6,11.6c-0.2,0.1-0.5,0.9-0.7,1c-1.5,0.5-3,0.2-4.5,0.6
					c-0.3,0.1-0.9-0.4-1-0.8c-1-3.1-2.7-5.5-3.7-8.6c-0.2-0.8,0.8-2.1,1.6-2.3C353.5,41.8,355,41.3,356.7,40.8z"/>
				<path class="st3" d="M356.1,39.1c-0.2,0.1-0.5,0.9-0.7,1c-1.4,0.4-2.7,0.1-4.1,0.5c-1.3-4-3.3-7.3-4.6-11.3c0-0.1,0.7-0.9,0.7-1
					c1.6-0.5,3.1-1,4.8-1.5C353.5,30.8,354.8,34.9,356.1,39.1z"/>
				<path class="st3" d="M345.7,28.7c1.3,4.2,2.6,8.2,3.9,12.4c-0.2,0.1-0.5,0.9-0.7,1c-1.1,0.4-2.1-0.1-3.2,0.2
					c-0.3,0.1-0.9-0.4-1-0.7c-1.1-3.4-2.9-6-4-9.5c-0.2-0.7,0.8-2,1.4-2.2C343.3,29.5,344.5,29.1,345.7,28.7z"/>
			</g>
			<polygon class="st3" points="318.1,22.8 321.9,34.8 321.2,35.8 296.4,42.8 292,31.8 292.7,30.8 			"/>
		</g>
		<path class="st35" d="M416.9,263.8c1.2,2.4-2,5.4-5.7,7.2c-3.7,1.9-6.5,0.6-7.4-1.2c-1.3-2.5-0.6-5.5,3.1-7.4
			S415.7,261.4,416.9,263.8z"/>
		<path class="st8" d="M453.3,248.7l-43.8,21.6c-0.4,0.2-2.7-0.2-3.6-2l0,0c-0.9-1.8,0-4.3,0.4-4.5l45-19.3
			C452.3,244.2,454.1,248.4,453.3,248.7z"/>
		<path class="st8" d="M496.9,227.5l-44.1,21c-0.4,0.2-2.4,0.3-2.9-0.6l0,0c-0.5-1,0.8-2.6,1.2-2.8l44.7-19.8
			C496.9,224.9,497.7,227.1,496.9,227.5z"/>
		<circle class="st8" cx="496.1" cy="226.8" r="3.6"/>
		<path class="st36" d="M507.6,233.1c3.3-7.3,0-15.8-7.2-19.1"/>
		<path class="st36" d="M515.8,240.3c5.9-13.1,0.1-28.6-13.1-34.5"/>
		<path class="st36" d="M523.5,245.4c8.2-18.2,0.1-39.5-18.1-47.7"/>
		<g>
			<path class="st2" d="M429.1,206.1c0,0-2.7-1.1-5.5,5c-1.4,3.1-69.6-11.4-69.6-11.4l14-90l4.4-5.4l4.4-0.8l65.6,9.5L429.1,206.1z"
				/>
			<g>
				<path class="st3" d="M375.9,102.1c22.2,3.1,44.4,6.3,66.6,9.4c1.7,1.5,1.8,3.4,1.5,5.6c-4,28.1-8,56.1-11.9,84.2
					c-0.1,0.7-0.2,1.4-0.4,2c-0.6,1.9-0.3,3-2.6,2.7c4.3-30.2,8.8-62.4,13.1-92.8c-1.3-0.2-3.8-0.5-4.8-0.7
					c-19.8-2.8-39.5-5.6-59.3-8.4c-3.2-0.5-7.1,1.3-9.1,5.4c1.4,0.2,23.8,3.3,25.2,3.5c12.6,1.8,25.3,3.6,37.9,5.4
					c4.1,0.6,5.1,1.8,4.5,5.8c-3.9,27.8-7.9,55.6-11.8,83.4c-0.6,3.9-1.8,4.9-5.6,4.3c-20.2-2.8-40.4-5.7-60.5-8.6
					c-3.9-0.5-4.8-1.8-4.3-5.7c1.1-8.1,2.3-16.3,3.5-24.4c2.9-20.3,5.8-40.7,8.6-61c0.9-6,2.9-8.3,8.8-9.8
					C375.5,102.4,375.7,102.2,375.9,102.1z"/>
			</g>
			<polygon class="st5" points="388.7,142.3 385.7,137.6 382.2,138.9 385.8,112.4 387.7,108.9 395,109.9 393,113.7 			"/>
		</g>
		<g>
			
				<rect x="157.2" y="228.4" transform="matrix(0.4448 -0.8956 0.8956 0.4448 -127.8126 287.9189)" class="st8" width="22.2" height="37.3"/>
			<path class="st19" d="M149.5,343.8c-2.2,4.4-7.5,6.2-11.9,4L105,331.5c-4.4-2.2-6.2-7.5-4-11.9l33.4-67.3c2.2-4.4,7.5-6.2,11.9-4
				l32.6,16.2c4.4,2.2,6.2,7.5,4,11.9L149.5,343.8z"/>
			
				<rect x="157.3" y="241.2" transform="matrix(0.4448 -0.8956 0.8956 0.4448 -128.5658 279.9311)" class="st21" width="8.3" height="4.9"/>
			
				<rect x="169.4" y="247.2" transform="matrix(0.4448 -0.8956 0.8956 0.4448 -127.2296 294.103)" class="st21" width="8.3" height="4.9"/>
		</g>
		<path class="st5" d="M427.1,208c-6.1,2.7,1.1,19,7.3,16.2c1.3,5.7,1.2,11.1,0.1,16.4c-3.6,17.2-14,29.1-29.2,37.2
			c-0.9,0.5-1.8,0.9-2.7,1.3c-83.2,37.1-166.3,74.3-249.5,111.4c-15.1,6.7-30.5,7.4-45.7,0.4c-21.9-10.1-30.6-35.2-19.9-56.9
			c6-12.2,15.2-21.2,27.6-26.7c83.6-37.4,167.2-74.8,250.9-112c16.2-7.2,32.5-7,48.4,1.6C419.2,199.4,423.5,203,427.1,208z"/>
		<circle class="st19" cx="427.7" cy="217.3" r="9.6"/>
		<path class="st6" d="M427.1,208c-6.1,2.7,1.1,19,7.3,16.2c1.3,5.7,1.2,11.1,0.1,16.4c-3.6,17.2-14,29.1-29.2,37.2
			c-0.9,0.5-1.8,0.9-2.7,1.3c-83.2,37.1-156.6,70-239.8,107c-22.8,10.9-31.5,9.6-31.5,9.6c83.6-37.4,178-80,255.6-128.6
			c24.6-15.4,38.2-36.5,11.5-76.3C398.3,190.8,422.3,195.9,427.1,208z"/>
		<g>
			<circle class="st37" cx="136" cy="348.8" r="23.9"/>
			<g>
				<g>
					<path class="st0" d="M131.5,344.2l6.1,10.5l-3,1.7l-0.4-0.7c-0.1-0.2-0.2-0.4-0.4-0.8c-0.1,1.6-0.9,2.8-2.2,3.6
						c-1.1,0.6-2.3,0.8-3.5,0.4c-1.2-0.4-2.2-1.3-3-2.7l-3.6-6.3l3-1.8l3.5,6.1c0.4,0.7,0.9,1.1,1.5,1.3c0.6,0.2,1.2,0.1,1.7-0.2
						c0.5-0.3,0.8-0.7,1-1.3s0.1-1.3-0.3-1.9l-3.6-6.2L131.5,344.2z"/>
					<path class="st0" d="M146,357.1l-2.9,1.7l-9.2-15.9l3-1.7l0.6,1.1c0.3-1.3,1.1-2.4,2.3-3.1c1.4-0.8,2.8-0.9,4.3-0.3
						s2.6,1.6,3.5,3.1c0.9,1.5,1.2,3,1,4.6c-0.2,1.6-1,2.7-2.4,3.6c-1.3,0.7-2.6,0.8-4.1,0.3L146,357.1z M143.8,347.8
						c0.7-0.4,1.2-1,1.3-1.8c0.1-0.8-0.1-1.6-0.5-2.4c-0.5-0.8-1.1-1.4-1.8-1.7c-0.7-0.3-1.4-0.2-2.2,0.2c-0.7,0.4-1.1,1-1.2,1.8
						c-0.1,0.8,0,1.6,0.5,2.4c0.4,0.7,1,1.3,1.8,1.6C142.4,348.3,143.2,348.2,143.8,347.8z"/>
				</g>
			</g>
		</g>
	</g>
</g>
<g id="Laag_2">
</g>
</svg>
