<?xml version="1.0" encoding="utf-8"?>
<!-- Generator: Adobe Illustrator 22.0.1, SVG Export Plug-In . SVG Version: 6.00 Build 0)  -->
<svg version="1.1" xmlns="http://www.w3.org/2000/svg" xmlns:xlink="http://www.w3.org/1999/xlink" x="0px" y="0px"
	 viewBox="0 0 806.5 430.1" style="enable-background:new 0 0 806.5 430.1;" xml:space="preserve">
<style type="text/css">
	.st0{fill:#828282;}
	.st1{display:none;}
	.st2{display:inline;fill:#3C96DC;}
	.st3{fill:#E5E5E5;}
	.st4{fill:#69A1D5;}
	.st5{fill:#E6E6E7;}
	.st6{fill:#FAB914;}
	.st7{fill:#FCD572;}
	.st8{fill:#E62828;}
	.st9{fill:#BF2220;}
	.st10{opacity:0.85;}
	.st11{fill:#FBAB13;}
	.st12{fill:#3C96DC;}
	.st13{fill:#969696;}
	.st14{fill:#281E50;}
	.st15{fill-rule:evenodd;clip-rule:evenodd;fill:#3C96DC;}
	.st16{fill:#FFFFFF;}
	.st17{fill:#2F73AC;}
	.st18{fill:#EAEAEA;}
	.st19{fill:#CBCBCB;}
	.st20{fill:#439D37;}
	.st21{clip-path:url(#SVGID_2_);fill:none;stroke:#8EC487;stroke-width:0.4883;stroke-miterlimit:10;}
	.st22{clip-path:url(#SVGID_4_);fill:none;stroke:#8EC487;stroke-width:0.4789;stroke-miterlimit:10;}
	.st23{fill:#B5B5B5;}
	.st24{fill:#2C658F;}
	.st25{fill:#9DCBED;}
	.st26{fill:#5B5B5C;}
	.st27{fill:none;stroke:#5B5B5C;stroke-width:6;stroke-miterlimit:10;}
	.st28{fill:#F4F4F4;}
	.st29{fill:#FAFAFA;}
	.st30{fill:#FDE3A1;}
	.st31{fill:#FAB914;stroke:#FAB914;stroke-linecap:round;stroke-linejoin:round;stroke-miterlimit:10;}
	.st32{fill:#B71822;}
	.st33{fill:#DA202C;}
	.st34{fill:#FAB914;stroke:#FBB511;stroke-width:0.7955;stroke-miterlimit:10;}
	.st35{fill:#63ABE3;}
	.st36{fill:#4FA0DF;}
	.st37{fill:#FF9773;}
	.st38{fill:#3584C6;}
	.st39{fill:#FBB42A;}
	.st40{fill:#C0C1C2;}
	.st41{fill:#818386;}
	.st42{fill:#FF8C64;}
	.st43{fill:#F2F3F3;}
	.st44{fill:#3D3461;}
	.st45{fill-rule:evenodd;clip-rule:evenodd;fill:#FBB42A;}
	.st46{fill:#FDCD71;}
	.st47{clip-path:url(#SVGID_6_);}
	.st48{fill:none;stroke:#FAB914;stroke-width:9.4485;stroke-miterlimit:10;}
	.st49{fill:none;}
	.st50{fill:#1A1818;}
	.st51{fill:#DF725D;}
	.st52{fill:#FFAE92;}
	.st53{fill-rule:evenodd;clip-rule:evenodd;fill:#D8EAF8;}
	.st54{fill-rule:evenodd;clip-rule:evenodd;fill:#9DCAED;}
	.st55{fill-rule:evenodd;clip-rule:evenodd;fill:#281E50;}
	.st56{fill-rule:evenodd;clip-rule:evenodd;fill:#FFFFFF;}
	.st57{fill:#656767;}
	.st58{opacity:0.1;fill:#969696;}
	.st59{fill:#FDDC89;}
	.st60{clip-path:url(#SVGID_8_);}
	.st61{fill:none;stroke:#FAB914;stroke-width:10.004;stroke-miterlimit:10;}
	.st62{clip-path:url(#SVGID_10_);}
	.st63{clip-path:url(#SVGID_12_);}
	.st64{opacity:0.1;fill:#818386;}
	.st65{fill:#991613;}
	.st66{fill:none;stroke:#C1C1C1;stroke-width:9.2089;stroke-linecap:round;stroke-miterlimit:10;}
	.st67{clip-path:url(#SVGID_14_);}
	.st68{fill:none;stroke:#FAB914;stroke-width:4.9403;stroke-miterlimit:10;}
	.st69{fill:#A1CE9B;}
	.st70{fill:#E6E6E6;}
	.st71{fill:#1D143E;}
	.st72{fill:#3781C7;}
	.st73{fill:#E0E0E0;}
	.st74{fill:#5F9AD2;}
	.st75{fill:#332B51;}
	.st76{fill-rule:evenodd;clip-rule:evenodd;fill:#3781C7;}
	.st77{fill:#285D8F;}
	.st78{fill:#23537F;}
	.st79{fill:#214D77;}
	.st80{fill:#204B73;}
	.st81{fill:#1D4367;}
	.st82{fill:#DCDCDC;}
	.st83{clip-path:url(#SVGID_16_);}
	.st84{fill:none;stroke:#EAEAEA;stroke-width:1.5148;stroke-miterlimit:10;}
	.st85{fill:none;stroke:#FFFFFF;stroke-width:0.6513;stroke-linecap:round;stroke-miterlimit:10;}
	.st86{clip-path:url(#SVGID_18_);}
	.st87{fill:#64AA28;}
	.st88{fill:none;stroke:#EAEAEA;stroke-width:1.8688;stroke-linecap:round;stroke-miterlimit:10;}
	.st89{fill:none;stroke:#EAEAEA;stroke-width:0.6547;stroke-miterlimit:10;}
	.st90{fill:none;stroke:#EAEAEA;stroke-width:0.4839;stroke-miterlimit:10;}
	.st91{fill:none;stroke:#EAEAEA;stroke-width:0.544;stroke-miterlimit:10;}
	.st92{fill:none;stroke:#EAEAEA;stroke-width:0.4938;stroke-miterlimit:10;}
	.st93{fill:none;stroke:#EAEAEA;stroke-width:0.6093;stroke-miterlimit:10;}
	.st94{fill:none;stroke:#EAEAEA;stroke-width:0.6308;stroke-miterlimit:10;}
	.st95{fill:none;stroke:#969696;stroke-width:3.6663;stroke-linecap:round;stroke-linejoin:round;stroke-miterlimit:10;}
	.st96{fill:#848483;}
	.st97{fill:#C1C1C1;}
	.st98{fill:none;stroke:#1D143E;stroke-width:1.2825;stroke-linecap:round;stroke-miterlimit:10;}
	.st99{clip-path:url(#SVGID_20_);}
	.st100{fill:none;stroke:#FFFFFF;stroke-width:2.781;}
	.st101{fill:none;stroke:#281E50;stroke-width:1.3569;stroke-linecap:round;stroke-linejoin:round;stroke-miterlimit:10;}
	.st102{clip-path:url(#SVGID_22_);}
	.st103{fill:#FFA98B;}
	.st104{fill:none;stroke:#281E50;stroke-width:2.7481;stroke-linecap:round;stroke-linejoin:round;stroke-miterlimit:10;}
	.st105{fill:#649F3C;}
	.st106{clip-path:url(#SVGID_24_);fill:#281E50;}
	.st107{clip-path:url(#SVGID_26_);fill:#649F3C;}
	.st108{fill:#A7D49D;}
	.st109{fill:#50AA3C;}
	.st110{clip-path:url(#SVGID_28_);fill:#281E50;}
	.st111{clip-path:url(#SVGID_30_);fill:#281E50;}
	.st112{fill:#82B263;}
	.st113{clip-path:url(#SVGID_32_);fill:#281E50;}
	.st114{clip-path:url(#SVGID_34_);fill:#281E50;}
	.st115{clip-path:url(#SVGID_36_);fill:#281E50;}
	.st116{fill:#FFA383;}
	.st117{fill:#FFBAA2;}
	.st118{fill:#FFDCD0;}
	.st119{fill:#231F1F;}
	.st120{fill:#9DCAED;}
</style>
<g id="Copyright">
</g>
<g id="BG" class="st1">
	<rect x="-1174.6" y="-2342.6" class="st2" width="6914.8" height="3440.7"/>
</g>
<g id="Lucifers">
</g>
<g id="Portomonnee">
</g>
<g id="Agenda">
</g>
<g id="Mannetjes">
</g>
<g id="Handschudden">
</g>
<g id="Swipe">
</g>
<g id="Oog">
	<g>
		<g>
			<path class="st56" d="M797.3,221.5c0,0-179.7,201.3-397.3,197.8C182.3,415.7,8.9,230.8,9.3,208.6c0,0,179.7-201.3,397.3-197.8
				C624.2,14.4,797.3,221.5,797.3,221.5z"/>
			<path class="st15" d="M584.1,215c0-99.9-81-180.8-180.8-180.8c-99.9,0-180.8,81-180.8,180.8s80.9,180.8,180.8,180.8
				C503.1,395.9,584.1,314.9,584.1,215z"/>
			<path class="st55" d="M480.2,215c0-42.5-34.4-77-76.9-77c-42.5,0-77,34.5-77,77s34.5,76.9,77,76.9
				C445.8,292,480.2,257.5,480.2,215z"/>
		</g>
		<g>
			<circle class="st56" cx="453.3" cy="167.8" r="39.4"/>
			<g>
				<g>
					<path class="st12" d="M450.7,157.6v20h-5.7v-1.4c0-0.4,0-0.8,0.1-1.4c-1.5,2.2-3.5,3.2-6.1,3.2c-2.1,0-3.8-0.8-5.2-2.3
						c-1.4-1.6-2.1-3.7-2.1-6.3v-11.9h5.8v11.6c0,1.3,0.4,2.4,1.1,3.1c0.7,0.7,1.6,1.1,2.6,1.1c0.9,0,1.8-0.4,2.5-1.1
						c0.8-0.7,1.2-1.7,1.2-3v-11.7H450.7z"/>
					<path class="st12" d="M460.6,187.9h-5.5v-30.3h5.7v2c1.6-1.6,3.5-2.5,5.8-2.5c2.7,0,4.8,1,6.3,3.1c1.6,2.1,2.4,4.5,2.4,7.3
						c0,2.9-0.8,5.3-2.3,7.4c-1.5,2.1-3.7,3.1-6.3,3.1c-2.4,0-4.4-1-6.1-3V187.9z M465.2,172.9c1.4,0,2.5-0.5,3.3-1.5
						s1.2-2.3,1.2-3.8c0-1.6-0.4-2.8-1.1-3.8c-0.8-1-1.9-1.5-3.3-1.5c-1.3,0-2.4,0.5-3.2,1.5c-0.8,1-1.2,2.3-1.2,3.8
						c0,1.4,0.4,2.7,1.3,3.8C462.9,172.4,463.9,172.9,465.2,172.9z"/>
				</g>
			</g>
		</g>
	</g>
</g>
<g id="Weegschaal">
</g>
<g id="Pin">
</g>
<g id="Wereldbol">
</g>
<g id="Hart">
</g>
<g id="Reddingsboei">
</g>
<g id="Arm_Bicep">
</g>
<g id="Mond">
</g>
<g id="Plant">
</g>
<g id="Vinger">
</g>
</svg>
