<svg xmlns="http://www.w3.org/2000/svg" xmlns:xlink="http://www.w3.org/1999/xlink" viewBox="0 0 1080 1080"><defs><style>.cls-1,.cls-11,.cls-23,.cls-6{fill:none;}.cls-2{isolation:isolate;}.cls-3{fill:#e5e5e5;mix-blend-mode:multiply;}.cls-4{fill:#991613;}.cls-5{fill:#e62828;}.cls-6{stroke:#c1c1c1;stroke-linecap:round;stroke-width:9.21px;}.cls-11,.cls-23,.cls-6{stroke-miterlimit:10;}.cls-7{fill:#fddc89;}.cls-8{fill:#fab914;}.cls-9{fill:#fcd572;}.cls-10{clip-path:url(#clip-path);}.cls-11{stroke:#fab914;stroke-width:4.94px;}.cls-12{fill:#fff;}.cls-13{fill:#439d37;}.cls-14{fill:#a1ce9b;}.cls-15{fill:#e6e6e6;}.cls-16{fill:#1d143e;}.cls-17{fill:#3c96dc;}.cls-18{fill:#e0e0e0;}.cls-19,.cls-22{fill:#3781c7;}.cls-20{fill:#5f9ad2;}.cls-21{fill:#332b51;}.cls-22{fill-rule:evenodd;}.cls-23{stroke:#fff;stroke-width:2px;}</style><clipPath id="clip-path"><path class="cls-1" d="M335.28,417.27c20.72-48.08,45.34-83.69,55-79.53l.05-.1L365.4,326.91l4.65,2.11c-9.65-4.15-36.3,30.58-57,78.66-30.23,70.13-20.91,94.21-20.91,94.21l23.1,10C305.58,507.69,314.56,465.35,335.28,417.27Z"/></clipPath></defs><title>Pin</title><g class="cls-2"><g id="Purspose"><ellipse class="cls-3" cx="872.77" cy="861.8" rx="101.25" ry="15.94" transform="translate(-9.55 9.78) rotate(-0.64)"/><path class="cls-4" d="M146.41,319.67c-18.26,30.7,2.36,56.95,14.29,61.69,29,11.49,122.86,10.51,122.86,10.51Z"/><path class="cls-5" d="M146.9,318c12.6-32.61,45.15-31.12,56.82-25.74,25.41,11.7,80.65,96.7,80.65,96.7Z"/><line class="cls-6" x1="133.43" y1="311.76" x2="338.81" y2="418.88"/><path class="cls-7" d="M335.28,417.27c20.72-48.08,45.34-83.69,55-79.53l.05-.1-20.22-8.71,0,.09c-9.65-4.15-36.3,30.58-57,78.66s-27.67,91.3-18,95.46l20.21,8.71C305.58,507.69,314.56,465.35,335.28,417.27Z"/><ellipse class="cls-8" cx="352.74" cy="424.79" rx="94.8" ry="19.01" transform="matrix(0.4, -0.92, 0.92, 0.4, -176.97, 580.6)"/><ellipse class="cls-9" cx="352.74" cy="424.79" rx="84.49" ry="14.16" transform="translate(-176.97 580.6) rotate(-66.68)"/><g class="cls-10"><line class="cls-11" x1="350.03" y1="323.95" x2="390.19" y2="340.32"/><line class="cls-11" x1="345.5" y1="333.67" x2="384.75" y2="349.7"/><line class="cls-11" x1="340.97" y1="343.39" x2="379.31" y2="359.08"/><line class="cls-11" x1="336.45" y1="353.11" x2="373.87" y2="368.46"/><line class="cls-11" x1="331.92" y1="362.83" x2="368.43" y2="377.85"/><line class="cls-11" x1="327.39" y1="372.55" x2="362.98" y2="387.23"/><line class="cls-11" x1="322.86" y1="382.27" x2="357.54" y2="396.61"/><line class="cls-11" x1="318.34" y1="391.99" x2="352.1" y2="406"/><line class="cls-11" x1="313.81" y1="401.71" x2="346.66" y2="415.38"/><line class="cls-11" x1="309.28" y1="411.43" x2="341.21" y2="424.76"/><line class="cls-11" x1="341.39" y1="424.33" x2="309.28" y2="411.43"/><line class="cls-11" x1="339.11" y1="433.95" x2="306.12" y2="420.61"/><line class="cls-11" x1="336.83" y1="443.56" x2="302.97" y2="429.79"/><line class="cls-11" x1="334.55" y1="453.17" x2="299.81" y2="438.97"/><line class="cls-11" x1="332.27" y1="462.78" x2="296.66" y2="448.15"/><line class="cls-11" x1="329.99" y1="472.4" x2="293.5" y2="457.33"/><line class="cls-11" x1="327.71" y1="482.01" x2="290.35" y2="466.51"/><line class="cls-11" x1="325.43" y1="491.62" x2="287.19" y2="475.69"/><line class="cls-11" x1="323.14" y1="501.23" x2="284.03" y2="484.87"/><line class="cls-11" x1="320.86" y1="510.85" x2="280.88" y2="494.05"/></g><path class="cls-4" d="M891.33,598.9l-7.47-.61c11.14,1.28,21.88,6.82,30.37,15.74C935.17,636,940,671.56,935,700.85c-9.59,55.83-41.85,108.61-67.29,157.7,12.5-.1,12-.18,12-.18,4.44-9,65.45-89.23,72.28-168.42C955,655.29,945.17,603.52,891.33,598.9Z"/><path class="cls-4" d="M867.51,858.55h.12l-.07-.15A1.31,1.31,0,0,0,867.51,858.55Z"/><path class="cls-4" d="M880.57,598h.26Z"/><path class="cls-5" d="M914.23,614c-8.49-8.92-19.23-14.46-30.37-15.74-1-.12-2-.2-3-.25h-.27a43.43,43.43,0,0,0-28.1,9.08c-39.86,30-32.88,96.09-24,139.72,7.59,37.23,21.38,75.53,38,109.42-.14-.26,0,.14,1,2.15l.07.15,0,.06,0-.06c25.44-49.09,57.7-101.87,67.29-157.7C940,671.56,935.17,636,914.23,614Z"/><ellipse class="cls-12" cx="873.01" cy="676.92" rx="34.42" ry="26.65" transform="translate(59.05 1423.8) rotate(-80.33)"/><line class="cls-6" x1="355.3" y1="424.51" x2="401.24" y2="445.53"/><line class="cls-6" x1="519.33" y1="501.4" x2="684.9" y2="583.21"/><path class="cls-13" d="M504.06,362.07s-9.49,14.9-25.46,42.35c-16,28-34.8,56.94-46.31,73.63-24.1,34.88-35,46.57-55.08,83.35-21.91-4.94-43.81-7.56-65.71-3.14,9.55-30.36,39.13-70.87,66.83-114.53C404,403.15,458.9,324.42,466,322.27,478.71,337.28,491.38,350.85,504.06,362.07Z"/><ellipse class="cls-14" cx="416.37" cy="447.91" rx="41.36" ry="18.4" transform="translate(-180.71 580.1) rotate(-59.57)"/><line class="cls-6" x1="424.78" y1="456" x2="509.24" y2="497.69"/><path class="cls-15" d="M419.13,785.14s-14.76-15-29.34-23.71-32.88-11.15-32.88-11.15L464.83,569.44l60,38.6Z"/><path class="cls-16" d="M663.06,385.47a3.6,3.6,0,0,0-.19-4,108.82,108.82,0,0,0-31.08-27.65A91.51,91.51,0,0,0,592.94,341a3.61,3.61,0,0,0-3.37,1.76l-241,403.76a3.62,3.62,0,0,0,1.27,5l1.12.68a3.65,3.65,0,0,0,5-1.25L456.4,582.61a3.6,3.6,0,0,1,3.28-1.76c4.79.23,17,1.88,33.66,11.8s22.24,19.2,24,23a3.64,3.64,0,0,1-.19,3.35L417.68,785.68a3.63,3.63,0,0,0,1.26,5h0a3.62,3.62,0,0,0,5-1.27Z"/><polygon class="cls-17" points="504.74 755.66 489.21 748.06 477.25 760.22 460.54 647.68 481.98 614.92 504.74 755.66"/><path class="cls-12" d="M486.55,730.85l1.13,7.68-2.2.32-.08-.52a4,4,0,0,1,0-.54,2.73,2.73,0,0,1-2.15,1.58,2.56,2.56,0,0,1-2.13-.6,3.57,3.57,0,0,1-1.14-2.3l-.68-4.56,2.22-.33.66,4.44a1.65,1.65,0,0,0,.58,1.14,1.37,1.37,0,0,0,1.07.28,1.4,1.4,0,0,0,.91-.55,1.63,1.63,0,0,0,.3-1.22l-.67-4.5Z"/><path class="cls-12" d="M492.09,741.91l-2.13.31-1.71-11.62,2.2-.32.11.77a3,3,0,0,1,2.1-1.27,2.94,2.94,0,0,1,2.61.83,4.53,4.53,0,0,1,1.32,2.67,4.65,4.65,0,0,1-.48,3,2.87,2.87,0,0,1-2.25,1.54,2.94,2.94,0,0,1-2.5-.83Zm.9-6a1.52,1.52,0,0,0,1.18-.76,2.36,2.36,0,0,0,.23-1.53,2.39,2.39,0,0,0-.66-1.41,1.66,1.66,0,0,0-2.5.36,2.2,2.2,0,0,0-.26,1.53,2.3,2.3,0,0,0,.7,1.37A1.46,1.46,0,0,0,493,735.92Z"/><path class="cls-18" d="M678,614.53c-30.35,6.14-60.8,52.15-67.2,82.08L730,722.17c6.15-28.74-6-87.07-31.32-103.92-2.2-1.47-1.22-7.47,1.89-7.9,30.68-4.18,60.79-52.15,67.19-82.07L648.58,502.71c-6.15,28.74,5.94,86.2,31.33,103C682.32,607.31,680.92,613.94,678,614.53Z"/><path class="cls-19" d="M724.41,684.91c1.67,11.27,2.07,22.1,1.07,30.73l-108-23.17a124.75,124.75,0,0,1,11-25.19"/><path class="cls-19" d="M739.56,574.75c-11.53,15.7-25.85,28.3-39.78,30.2-3.66.5-6.52,3.41-7.48,7.59s-6.83,3.35-5.95-1.15-.47-8.26-3.43-10.22c-10.34-6.84-19.53-22.84-25.23-43.9Z"/><ellipse class="cls-20" cx="698.7" cy="565.89" rx="3.24" ry="41.9" transform="translate(-1.2 1130.29) rotate(-77.89)"/><ellipse class="cls-20" cx="676.44" cy="676.21" rx="3.18" ry="48.98" transform="translate(-110.02 1220.56) rotate(-79.68)"/><rect class="cls-21" x="637.36" y="501.99" width="143.47" height="16.07" rx="1.65" ry="1.65" transform="translate(122.8 -137.43) rotate(12.11)"/><rect class="cls-21" x="595.11" y="699.5" width="143.47" height="16.07" rx="1.65" ry="1.65" transform="translate(163.3 -124.17) rotate(12.11)"/><path class="cls-22" d="M688.48,647.15a7.63,7.63,0,0,1-14.83-3.6c1-4.08,7.71-16.86,11.8-15.87S689.47,643.07,688.48,647.15Z"/><path class="cls-12" d="M681,643.32l-.91,3.77-1.09-.26.07-.26a1.44,1.44,0,0,1,.08-.26,1.37,1.37,0,0,1-1.29.34A1.28,1.28,0,0,1,677,646a1.77,1.77,0,0,1-.1-1.28l.54-2.23,1.09.26L678,644.9a.83.83,0,0,0,.06.63.7.7,0,0,0,.44.33.72.72,0,0,0,.53-.09.78.78,0,0,0,.36-.5l.54-2.21Z"/><path class="cls-12" d="M681.54,649.47l-1-.25,1.38-5.69,1.08.26-.09.38a1.47,1.47,0,0,1,1.21-.2,1.45,1.45,0,0,1,1,.87,2.26,2.26,0,0,1,.12,1.48,2.31,2.31,0,0,1-.78,1.29,1.52,1.52,0,0,1-2.34-.56Zm1.53-2.6a.75.75,0,0,0,.69-.13,1.33,1.33,0,0,0,.36-1.44.85.85,0,0,0-1.23-.3,1.17,1.17,0,0,0-.41.66,1.16,1.16,0,0,0,.07.76A.75.75,0,0,0,683.07,646.87Z"/><line class="cls-6" x1="705.68" y1="592.48" x2="872.55" y2="675.43"/></g><g id="Product_Update1" data-name="Product Update1"><path class="cls-23" d="M328,526.24c36-18,100.31-19.76,92.32,54.81"/></g></g></svg>