<?xml version="1.0" encoding="utf-8"?>
<!-- Generator: Adobe Illustrator 22.0.1, SVG Export Plug-In . SVG Version: 6.00 Build 0)  -->
<svg version="1.1" id="Layer_1" xmlns="http://www.w3.org/2000/svg" xmlns:xlink="http://www.w3.org/1999/xlink" x="0px" y="0px"
	 viewBox="0 0 762 330" style="enable-background:new 0 0 762 330;" xml:space="preserve">
<style type="text/css">
	.st0{fill-rule:evenodd;clip-rule:evenodd;fill:#D6E2F4;}
	.st1{fill-rule:evenodd;clip-rule:evenodd;fill:#A0C1E6;}
	.st2{fill-rule:evenodd;clip-rule:evenodd;fill:#271E50;}
	.st3{fill-rule:evenodd;clip-rule:evenodd;fill:#4395D1;}
	.st4{fill:#271E50;}
	.st5{fill:#F8B817;}
	.st6{fill:#D78C2F;}
</style>
<g>
	<g>
		<path class="st0" d="M503.6,71.3c0-19.7-16.1-35.7-35.7-35.7H44.2c-19.7,0-35.7,16.1-35.7,35.7v212.6c0,19.7,16.1,35.7,35.7,35.7
			h423.7c19.7,0,35.7-16.1,35.7-35.7V71.3z"/>
	</g>
	<g>
		<path class="st1" d="M503.6,48.5c0-19.7-16.1-35.7-35.7-35.7H44.2c-19.7,0-35.7,16.1-35.7,35.7v212.6c0,19.7,16.1,35.7,35.7,35.7
			h423.7c19.7,0,35.7-16.1,35.7-35.7V48.5z"/>
	</g>
	<g>
		<path class="st2" d="M365.8,283.9c0,19.7,16.1,35.7,35.7,35.7h316.2c19.7,0,35.7-16.1,35.7-35.7V71.3c0-19.7-16.1-35.7-35.7-35.7
			H401.6c-19.7,0-35.7,16.1-35.7,35.7V283.9z"/>
	</g>
	<g>
		<path class="st3" d="M365.8,258.7c0,19.7,16.1,35.7,35.7,35.7h316.2c19.7,0,35.7-16.1,35.7-35.7V46.1c0-19.7-16.1-35.7-35.7-35.7
			H401.6c-19.7,0-35.7,16.1-35.7,35.7V258.7z"/>
	</g>
	<g>
		<g>
			<g>
				<path class="st4" d="M215,105.1c6.2,0,12.1,1,17.6,2.8c-23.2,7.5-40.1,29.2-40.1,54.9c0,25.7,16.8,47.5,40.1,54.9
					c-5.6,1.8-11.5,2.8-17.6,2.8c-31.9,0-57.7-25.8-57.7-57.7S183.1,105.1,215,105.1z"/>
			</g>
		</g>
	</g>
	<polygon class="st5" points="569.9,73.7 547.2,92.7 517.7,92.7 512.6,121.8 489.9,140.7 504.7,166.3 499.6,195.4 527.3,205.5 
		542.1,231.1 569.9,221 597.6,231.1 612.4,205.5 640.1,195.4 635,166.3 649.8,140.7 627.2,121.8 622,92.7 592.5,92.7 	"/>
	<circle class="st6" cx="569.9" cy="154.8" r="43.1"/>
</g>
</svg>
