<svg xmlns="http://www.w3.org/2000/svg" xmlns:xlink="http://www.w3.org/1999/xlink" viewBox="0 0 1080 1080"><defs><style>.cls-1,.cls-15,.cls-16,.cls-19,.cls-20,.cls-21,.cls-22,.cls-23,.cls-24,.cls-25{fill:none;}.cls-2{fill:#285d8f;}.cls-3{fill:#23537f;}.cls-4{fill:#214d77;}.cls-5{fill:#204b73;}.cls-6{fill:#1d4367;}.cls-7{fill:#281e50;}.cls-8{fill:#969696;}.cls-9{fill:#dcdcdc;}.cls-10{clip-path:url(#clip-path);}.cls-11{fill:#3781c7;}.cls-12{fill:#69a1d5;}.cls-13{fill:#3c96dc;}.cls-14{fill:#fff;}.cls-15,.cls-19,.cls-20,.cls-21,.cls-22,.cls-23,.cls-24,.cls-25{stroke:#eaeaea;}.cls-15,.cls-16,.cls-19,.cls-20,.cls-21,.cls-22,.cls-23,.cls-24,.cls-25{stroke-miterlimit:10;}.cls-15{stroke-width:1.51px;}.cls-16{stroke:#fff;stroke-width:0.65px;}.cls-16,.cls-19{stroke-linecap:round;}.cls-17{clip-path:url(#clip-path-2);}.cls-18{fill:#64aa28;}.cls-19{stroke-width:1.87px;}.cls-20{stroke-width:0.65px;}.cls-21{stroke-width:0.48px;}.cls-22{stroke-width:0.54px;}.cls-23{stroke-width:0.49px;}.cls-24{stroke-width:0.61px;}.cls-25{stroke-width:0.63px;}</style><clipPath id="clip-path"><path class="cls-1" d="M415.12,1029.26,366.75,989.8c-14.06-6.49-2.43-37.52-2.43-37.52L309,1070.6,110.3,461.35,250.72,26.74,618.46,0,895.94,100.29c8.92,2.27-70.09,609.25-72,617.65L660.67,922.1Z"/></clipPath><clipPath id="clip-path-2"><circle class="cls-1" cx="514.97" cy="917.62" r="109"/></clipPath></defs><title>Wereldbol</title><g id="Wereldbol"><path class="cls-1" d="M359.5,937.6h0Z"/><path class="cls-1" d="M701.47,913.94c0-.11-.08-.23-.13-.34a2.72,2.72,0,0,0-.11-.25,4.54,4.54,0,0,1,.24.61Z"/><path class="cls-1" d="M701.63,914.59c0-.1,0-.21-.07-.32s0-.19-.08-.29c.06.21.11.41.15.62Z"/><path class="cls-1" d="M701.69,915.24c0-.11,0-.21,0-.32a2.91,2.91,0,0,0,0-.31c0,.21,0,.42.06.64Z"/><path class="cls-1" d="M412.07,1030.18l.26,0h0Z"/><path class="cls-1" d="M701.66,915.91c0-.11,0-.23,0-.34s0-.2,0-.31q0,.33,0,.66Z"/><path class="cls-1" d="M359.53,936.93h0Z"/><path class="cls-1" d="M697.11,922.08l.14-.1-.18.12Z"/><path class="cls-1" d="M700.46,919a2.12,2.12,0,0,0,.12-.2,3.28,3.28,0,0,1-.2.31Z"/><path class="cls-1" d="M701.61,916.26c0-.11,0-.22,0-.33,0,.21-.07.42-.12.64C701.57,916.46,701.59,916.36,701.61,916.26Z"/><path class="cls-1" d="M699.8,919.82a.86.86,0,0,1,.07-.1l-.1.12Z"/><path class="cls-1" d="M359.65,936.26h0v0h0Z"/><path class="cls-1" d="M699.06,920.58l-.21.19Z"/><path class="cls-1" d="M701.43,917c0-.13.07-.25.1-.38v0a5.76,5.76,0,0,1-.18.59Z"/><path class="cls-1" d="M700.83,918.35,701,918c-.08.15-.16.3-.25.44Z"/><path class="cls-1" d="M701.09,917.85c.07-.15.14-.3.19-.44a1,1,0,0,1,0-.1c-.08.2-.16.4-.25.59C701.07,917.88,701.08,917.87,701.09,917.85Z"/><path class="cls-1" d="M698.07,921.43l.14-.13-.25.2A.41.41,0,0,1,698.07,921.43Z"/><path class="cls-1" d="M617.43,820.73h0l.1,0h0c-.32.11-.64.24-.95.37Z"/><path class="cls-1" d="M365.09,930.21h0l-.2.11h0Z"/><path class="cls-1" d="M362.13,932.27h0c-.25.24-.49.49-.71.74h0C361.64,932.76,361.88,932.51,362.13,932.27Z"/><path class="cls-1" d="M618.35,820.44h0l.09,0h0c-.24.06-.48.14-.71.22C618,820.56,618.15,820.49,618.35,820.44Z"/><path class="cls-1" d="M359.87,935.54h0l-.05.12h0Z"/><path class="cls-1" d="M619.27,820.21h0l.09,0h0l-.71.17Z"/><path class="cls-1" d="M363,931.55h0c-.22.17-.43.35-.64.53h0C362.55,931.9,362.76,931.72,363,931.55Z"/><path class="cls-1" d="M364.3,930.65l0,0-.2.12h0Z"/><path class="cls-1" d="M363.92,930.88h0l-.7.48h0Z"/><path class="cls-1" d="M622.08,819.94Z"/><path class="cls-1" d="M361.31,933.15h0c-.18.21-.35.43-.51.65h0C361,933.57,361.13,933.36,361.31,933.15Z"/><path class="cls-1" d="M360.19,934.82h0c0,.05-.05.1-.08.14h0Z"/><path class="cls-1" d="M623.65,820.09c-.15,0-.31,0-.47-.06h0C623.34,820.05,623.5,820.06,623.65,820.09Z"/><path class="cls-1" d="M622.84,820l-.44,0h.05Z"/><path class="cls-1" d="M360.6,934.11h0c-.06.09-.12.18-.17.27h0Z"/><path class="cls-1" d="M620.17,820.05h.11l-.7.11Z"/><path class="cls-1" d="M621.05,820h.13l-.61,0Z"/><path class="cls-1" d="M403.43,1027.23h0a4.07,4.07,0,0,0,.31.53h0A3.65,3.65,0,0,1,403.43,1027.23Z"/><path class="cls-1" d="M366,1060.78l.2.17.32.23.12.08a5.29,5.29,0,0,1-1.06-.87l.13.12Z"/><path class="cls-1" d="M404.32,1028.44h0a2.37,2.37,0,0,0,.28.27h0A2.37,2.37,0,0,1,404.32,1028.44Z"/><path class="cls-1" d="M404.81,1028.88h0l.32.23h0Z"/><path class="cls-1" d="M403.88,1027.94h0l.26.33h0Z"/><path class="cls-1" d="M410.34,1030.37h0Z"/><path class="cls-1" d="M359.71,938.88h0v0h0Z"/><polygon class="cls-1" points="403.43 1027.23 403.43 1027.22 368.66 957.05 368.66 957.06 359.97 939.51 403.43 1027.23 403.43 1027.23"/><path class="cls-1" d="M405.36,1029.26h0l.36.2h0Z"/><path class="cls-1" d="M406,1029.58h0c.13.07.27.12.41.18h0C406.23,1029.7,406.09,1029.65,406,1029.58Z"/><path class="cls-1" d="M359.56,938.26h0Z"/><path class="cls-1" d="M696.42,922.48l.46-.27c-.19.12-.39.23-.59.33Z"/><path class="cls-1" d="M408.4,1030.28l.42.06h0Z"/><path class="cls-1" d="M409,1030.35h0l.65,0h0C409.4,1030.38,409.19,1030.36,409,1030.35Z"/><path class="cls-1" d="M406.61,1029.85h0l.52.17h0Z"/><path class="cls-1" d="M375,1061.88a3.68,3.68,0,0,0,.47-.15l.1,0-.81.25Z"/><path class="cls-1" d="M376,1061.56l.51-.21.06,0-.85.34Z"/><path class="cls-1" d="M373.18,1062.3l.46-.08.11,0c-.27,0-.54.1-.8.13Z"/><path class="cls-1" d="M366.66,1061.26a.67.67,0,0,1,.11.07l.36.19.24.13.41.17.18.08A6.55,6.55,0,0,1,366.66,1061.26Z"/><path class="cls-1" d="M368.54,1062.08l-.52-.16Z"/><path class="cls-1" d="M374.09,1062.13l.45-.12.12,0c-.27.08-.54.14-.81.2Z"/><path class="cls-1" d="M372.26,1062.41l.47-.05h.11c-.26,0-.52.06-.78.07Z"/><path class="cls-1" d="M371.27,1062.45h.66l-.75,0Z"/><path class="cls-1" d="M368.74,1062.14l.32.07-.35-.07Z"/><path class="cls-1" d="M369.47,1062.3h.06c.21,0,.42.06.64.09h.22l.36,0h.37A11,11,0,0,1,369.47,1062.3Z"/><path class="cls-1" d="M369.25,985.92c-2.06-4.15-8.78-5.32-15-2.61s-9.63,8.27-7.58,12.42,8.79,5.32,15,2.61S371.3,990.08,369.25,985.92Z"/><path class="cls-1" d="M695.83,922.78l.27-.13-.76.36Z"/><path d="M623.18,820h0Z"/><path d="M622.45,820h-.05l-.32,0h0Z"/><path d="M621.77,819.94h-.59Z"/><path d="M621.05,820h0l-.48,0-.29,0h0Z"/><path d="M620.17,820.05h0l-.59.1-.21,0h0Z"/><path d="M619.27,820.21h0l-.61.15-.2,0h0C618.73,820.33,619,820.27,619.27,820.21Z"/><path d="M618.36,820.43h0c-.2,0-.4.12-.6.19l-.21.06h0Z"/><path d="M365.86,929.84,616.59,821.06c.28-.12.56-.23.85-.33h0l-.84.33L365.86,929.84l-.76.36h0Z"/><path d="M364.91,930.3h0c-.2.1-.39.21-.58.32l0,0C364.5,930.53,364.7,930.41,364.91,930.3Z"/><path d="M364.12,930.75h0l-.18.12h0Z"/><path d="M363.24,931.35h0l-.26.2h0Z"/><path d="M362.35,932.08h0l-.21.19h0Z"/><path d="M361.42,933h0a1.13,1.13,0,0,0-.1.13h0A1.71,1.71,0,0,1,361.42,933Z"/><path d="M360.81,933.79h0l-.2.31h0Z"/><path d="M360.44,934.37h0c-.09.15-.17.3-.24.44h0C360.27,934.67,360.35,934.52,360.44,934.37Z"/><path d="M360.13,935h0c-.09.2-.17.39-.24.59h0C360,935.35,360,935.15,360.13,935Z"/><path d="M359.84,935.65h0a4.36,4.36,0,0,0-.17.59h0A6.17,6.17,0,0,1,359.84,935.65Z"/><path d="M359.65,936.28h0a4.5,4.5,0,0,0-.11.64h0C359.56,936.72,359.6,936.5,359.65,936.28Z"/><path d="M359.53,936.93h0c0,.22,0,.43,0,.65h0C359.5,937.38,359.51,937.16,359.53,936.93Z"/><path d="M359.5,937.6h0c0,.22,0,.44.06.65h0c0,.2.09.41.15.61h0A4.63,4.63,0,0,1,359.5,937.6Z"/><path d="M368.66,957.05,360,939.51a5.22,5.22,0,0,1-.25-.61h0a4.6,4.6,0,0,0,.25.61l8.69,17.55Z"/><path class="cls-2" d="M412.33,1030.13h0Z"/><path class="cls-3" d="M410.52,1030.36h0Z"/><path class="cls-4" d="M409.62,1030.38h0Z"/><path class="cls-5" d="M408.83,1030.34h0Z"/><path class="cls-6" d="M407.13,1030l.15,0-.15,0Z"/><path class="cls-6" d="M405.72,1029.46h0l.24.12h0Z"/><path class="cls-6" d="M406.37,1029.76h0l.24.09h0Z"/><path class="cls-6" d="M404.6,1028.71h0l.21.17h0Z"/><path class="cls-6" d="M403.75,1027.77h0l.13.17h0Z"/><path class="cls-6" d="M404.14,1028.27h0l.18.17h0Z"/><path class="cls-6" d="M403.43,1027.23h0Z"/><path class="cls-6" d="M405.13,1029.11h0l.23.15h0Z"/><path class="cls-7" d="M622.45,820l-.37,0h-.31l-.59,0h-.13l-.78.08h-.1l-.81.14-.09,0c-.27.06-.54.12-.82.2l-.09,0-.82.26-.1,0c-.29.1-.57.21-.85.33L365.86,929.84l-.77.37-.18.09c-.21.11-.41.23-.61.35l-.18.1-.2.13-.68.47-.26.2c-.22.17-.43.35-.63.53l-.22.19c-.25.24-.49.49-.71.74a1.71,1.71,0,0,0-.11.14c-.18.21-.34.42-.5.64l-.21.32-.16.26c-.09.15-.17.3-.25.45l-.06.13c-.1.2-.18.4-.26.59l0,.11a6.17,6.17,0,0,0-.19.61v0c0,.22-.09.44-.12.65h0c0,.23,0,.45,0,.67h0a4.63,4.63,0,0,0,.21,1.28v0a5.22,5.22,0,0,0,.25.61l8.69,17.54,34.77,70.18a3.65,3.65,0,0,0,.32.54l.13.17.26.33.18.17a2.37,2.37,0,0,0,.28.27l.21.17.32.23.23.15.36.2.24.12c.13.07.27.12.41.18l.24.09.52.17.15,0a8.22,8.22,0,0,0,1.12.22l.43.06H409c.22,0,.43,0,.65,0h.07c.22,0,.44,0,.65,0h.24a12.87,12.87,0,0,0,1.49-.18l.26,0h.05a13.75,13.75,0,0,0,2.74-.86L665.84,920.48c4.84-2.1,7.49-6.45,5.9-9.66L628.28,823.1a6.09,6.09,0,0,0-4.63-3c-.15,0-.31,0-.47-.06h-.06l-.28,0Z"/><path class="cls-8" d="M700.75,918.48c.09-.14.17-.29.25-.44a.91.91,0,0,1,.07-.14c.09-.19.17-.39.25-.59a.56.56,0,0,1,0-.12,5.76,5.76,0,0,0,.18-.59v0c.05-.22.09-.43.12-.64h0q0-.33,0-.66h0c0-.22,0-.43-.06-.64h0c0-.21-.09-.41-.15-.62v0a4.54,4.54,0,0,0-.24-.61l-56-113c-1.6-3.21-6.85-4.13-11.68-2L314.78,936.69c-4.84,2.1-7.49,6.44-5.9,9.66l56,112.94a4.6,4.6,0,0,0,.76,1.1,5.29,5.29,0,0,0,1.06.87,6.55,6.55,0,0,0,1.3.64l.06,0,.52.16.17.06.35.07c.14,0,.27.07.41.09a11,11,0,0,0,1.65.15h.06l.75,0h.13c.26,0,.52,0,.78-.07l.11,0c.26,0,.53-.08.8-.13l.1,0c.27-.06.54-.12.81-.2l.1,0,.81-.25.11,0,.85-.34L695.34,923l.76-.36.19-.11c.2-.1.4-.21.59-.33l.19-.11.18-.12c.25-.15.48-.31.71-.48l.25-.2c.22-.17.44-.35.64-.53l.21-.19c.25-.24.49-.49.71-.74l.1-.12c.19-.22.35-.44.51-.66a3.28,3.28,0,0,0,.2-.31C700.64,918.66,700.7,918.57,700.75,918.48ZM361.67,998.34c-6.23,2.71-13,1.54-15-2.61s1.34-9.71,7.58-12.42,13-1.54,15,2.61S367.92,995.63,361.67,998.34Zm304.17-77.86L415.12,1029.26a13.75,13.75,0,0,1-2.74.86h-.05l-.26,0a12.87,12.87,0,0,1-1.49.18h-.24c-.21,0-.43,0-.65,0h-.07l-.65,0h-.15l-.42-.06a8.22,8.22,0,0,1-1.12-.22l-.15,0-.52-.17-.24-.09c-.14-.06-.28-.11-.41-.18l-.24-.12-.36-.2-.23-.15-.32-.23-.21-.17a2.37,2.37,0,0,1-.28-.27l-.18-.17-.26-.33-.13-.17a4.07,4.07,0,0,1-.31-.53h0L360,939.51a4.6,4.6,0,0,1-.25-.61v0c-.06-.2-.11-.41-.15-.61h0c0-.21-.05-.43-.06-.65h0c0-.22,0-.43,0-.65h0a4.5,4.5,0,0,1,.11-.64v0a4.36,4.36,0,0,1,.17-.59l.05-.12c.07-.2.15-.39.24-.59,0,0,.05-.09.08-.14s.15-.29.24-.44.11-.18.17-.27l.2-.31c.16-.22.33-.44.51-.65a1.13,1.13,0,0,1,.1-.13c.22-.25.46-.5.71-.74l.21-.19c.21-.18.42-.36.64-.53l.26-.2.7-.48.18-.12.2-.12c.19-.11.38-.22.58-.32l.2-.11.76-.36L616.59,821.06c.31-.13.63-.26.95-.37l.21-.06c.23-.08.47-.16.71-.22l.2,0,.71-.17.21,0,.7-.11.29,0,.61,0h.9l.32,0,.44,0,.28,0h.06c.16,0,.32,0,.47.06a6.09,6.09,0,0,1,4.63,3L648.55,864l23.19,46.81C673.33,914,670.68,918.38,665.84,920.48Z"/><path class="cls-9" d="M704.79,940.2l.2-.1.58-.34.2-.11.18-.12c.24-.15.48-.31.7-.48l.26-.2c.22-.17.43-.35.63-.53a1.9,1.9,0,0,0,.21-.19,10,10,0,0,0,.72-.74l.1-.12q.27-.33.51-.66a3.28,3.28,0,0,0,.2-.31c.06-.09.12-.18.17-.27a3.75,3.75,0,0,0,.24-.44c0-.05,0-.09.07-.14a4.35,4.35,0,0,0,.25-.59.76.76,0,0,0,0-.11q.11-.3.18-.6v0a5,5,0,0,0,.11-.64h0a3.65,3.65,0,0,0,0-.66h0a3.39,3.39,0,0,0-.06-.64h0a4.61,4.61,0,0,0-.14-.62v0a4.6,4.6,0,0,0-.25-.61l-8.69-17.55a2.72,2.72,0,0,1,.11.25c0,.11.09.23.13.34v0c0,.1.06.19.08.29s.05.22.07.32h0a2.91,2.91,0,0,1,0,.31c0,.11,0,.21,0,.32h0c0,.11,0,.21,0,.31s0,.23,0,.34h0c0,.11,0,.22,0,.33s0,.2-.07.31v0c0,.13-.06.25-.1.38l-.07.19a.56.56,0,0,0,0,.12,1,1,0,0,0,0,.1c0,.14-.12.29-.19.44s0,0,0,0a.91.91,0,0,0-.07.14l-.17.31-.08.13c0,.09-.11.18-.17.27a2.12,2.12,0,0,1-.12.2l-.08.11c-.16.22-.32.44-.51.66a.86.86,0,0,0-.07.1l0,0c-.22.25-.46.5-.71.74l-.21.19c-.2.18-.42.36-.64.53l-.14.13a.41.41,0,0,0-.11.07c-.23.17-.46.33-.71.48l-.14.1,0,0-.19.11-.46.27-.13.06-.19.11-.27.13-.49.23L376.53,1061.32l-.06,0-.51.21-.28.1-.11,0-.1,0a3.68,3.68,0,0,1-.47.15l-.24.07-.1,0-.12,0-.45.12-.24,0-.1,0-.11,0-.46.08-.23,0-.11,0h-.11l-.47.05h-1.51l-.36,0h-.22c-.22,0-.43-.05-.64-.09h-.06c-.14,0-.27-.06-.41-.09l-.32-.07h0l-.17-.06-.52-.16-.06,0-.18-.08-.41-.17-.24-.13-.36-.19a.67.67,0,0,0-.11-.07l-.12-.08-.32-.23-.2-.17-.29-.27-.13-.12,0-.06a2.16,2.16,0,0,1-.27-.33l-.13-.16c-.12-.18-.22-.36-.32-.54h0l8.69,17.55a6.16,6.16,0,0,0,.33.55l.12.16.27.33.17.18.29.27.21.17.32.23.23.15.35.2.25.12.41.17.24.1.51.16.18.06.35.07c.14,0,.28.07.43.09a6.26,6.26,0,0,0,.74.1h.15l.65,0h.14c.25,0,.5,0,.76,0h.13c.26,0,.51,0,.77-.07l.11,0c.27,0,.53-.08.8-.13l.1,0c.27-.06.54-.12.81-.2l.11,0c.27-.07.54-.16.81-.25l.11,0c.28-.11.56-.21.84-.34L704,940.56Z"/><g class="cls-10"><polygon class="cls-11" points="521.88 190.26 510.28 191.75 511.8 181.46 517.8 180.67 521.88 190.26"/><ellipse class="cls-12" cx="516.07" cy="190.93" rx="5.84" ry="1.73" transform="translate(-20.35 68.31) rotate(-7.43)"/><circle class="cls-13" cx="509.59" cy="122.81" r="61.56"/><path class="cls-14" d="M503.35,107.37l2.54,31.56-9.05.73-.17-2.14a15,15,0,0,1,0-2.21,11.12,11.12,0,0,1-9.16,5.88,10.48,10.48,0,0,1-8.52-3q-3.52-3.42-4-9.63l-1.51-18.76,9.12-.73,1.47,18.24a6.82,6.82,0,0,0,2.08,4.78,5.55,5.55,0,0,0,4.28,1.41,5.66,5.66,0,0,0,3.84-2,6.59,6.59,0,0,0,1.53-4.88L494.3,108.1Z"/><path class="cls-14" d="M522.91,153.83l-8.73.7-3.84-47.73,9.05-.72.26,3.16a12.21,12.21,0,0,1,8.87-4.62,12,12,0,0,1,10.38,4,18.43,18.43,0,0,1,4.65,11.21,19,19,0,0,1-2.72,12,11.84,11.84,0,0,1-9.6,5.69,12,12,0,0,1-10-4Zm5.28-24.12a6.22,6.22,0,0,0,5-2.81,9.63,9.63,0,0,0,1.36-6.16,9.75,9.75,0,0,0-2.3-5.91,6.85,6.85,0,0,0-10.29.8,9.14,9.14,0,0,0-1.45,6.17,9.41,9.41,0,0,0,2.45,5.76A6.09,6.09,0,0,0,528.19,129.71Z"/><line class="cls-15" x1="541.49" y1="925.3" x2="515.43" y2="184.31"/><path class="cls-16" d="M509.58,185.46c1.82-.94,1.6-1.22,4.63-1.61s4.49-.51,6.34.18"/><circle class="cls-13" cx="514.97" cy="917.62" r="109"/><g class="cls-17"><path class="cls-18" d="M539.3,1044.73a5.18,5.18,0,0,0,1.29-.64,8.72,8.72,0,0,0,2.26-2.9c5.72-10,4.39-15.64,6.47-26.46,2-10.45,7.33-17.69,14.43-25.26,18.72-16.55,11.1-53.75-17.11-52.68a168.72,168.72,0,0,0-40.9,6.63c-7.51,2.19-15.15,5.08-20.59,10.71-11,11.38-12,32-3.2,44.72,4.07,5.87,9.19,11,12.43,17.41a74.89,74.89,0,0,0,3.42,6.75,35.45,35.45,0,0,0,3.6,4.42c10,11,19,18.26,35,17.74A10.61,10.61,0,0,0,539.3,1044.73Z"/><path class="cls-18" d="M639.83,927.39c.38-2.85.69-5.72.91-8.6,1.59-21-1.9-43-13.81-60.35-6.69-9.74-15.71-17.61-24.63-25.37-7.44-6.46-17.55-13.33-26.31-8.82-2.9,1.5-5.09,4.06-7.61,6.14-15.63,12.91-42.84-5.35-54.83,14.46a30.62,30.62,0,0,1-2.39,4c-3,3.6-8.14,4.25-10.48,8.48-2,3.65-1.55,9.76-3.43,14-4.47,9.9-12.89,17.63-16.9,27.77-2.55,6.44-4.09,12.87,1.54,18.05,8.83,8.13,19.61-3.52,26.43,4.95,2.66,3.3,5,7.74,9.18,8.23,3.77.45,7-2.69,8.93-6s3.14-7.08,5.92-9.67c4.46-4.15,11.71-3.87,17.09-1,6.24,3.33,11.73,9.33,17.31,13.18,6.84,4.71,11.43,9.73,13.56,18.09,2.25,8.82,1.57,18.07,2.19,27.14.46,6.72,1.77,13.7,5.92,19,12.78,16.36,33.18,5.19,38.18-10.89C632,962.82,637.42,945.34,639.83,927.39Z"/><path class="cls-18" d="M402.71,959.52A67.16,67.16,0,0,0,435,929.38c3.19-6.12,5.43-12.74,9.15-18.56,8.66-13.58,28.33-10.71,32.77-27.92,2.68-10.35-1.73-22-6.63-31.06-6.21-11.45-92.84-45.76-100.91-33.32s-22,82.33-.82,114c8.91,13.31,13.64,35.52,32.85,27.61Z"/><path class="cls-18" d="M366.69,975.6s2.12,18.25,17.36,25.27,35.78,21.37,32.26,45.09,20.83,26.63,32,26.58c20.27-.12,34-70.17,5.08-100-7.47-7.72-13.32-10.49-24.9-9.39C396.05,966.33,384.88,962.33,366.69,975.6Z"/><path class="cls-18" d="M525.57,823.62c3.72-2.25,7.52-4.75,9.66-8.53,3.37-6,1.76-13.45-.52-19.92A113.63,113.63,0,0,0,520.78,768c-3.24-4.66-6.95-9.19-11.92-11.94-4.69-2.6-10.18-3.42-15.55-3.45a58.3,58.3,0,0,0-39.07,15c-6.17,5.6-11.33,13.34-10.64,21.65a26.09,26.09,0,0,0,3.85,10.88c8.11,13.79,23.06,22.17,38.56,24.71C497.55,826.71,515.65,829.63,525.57,823.62Z"/></g><path class="cls-19" d="M405.76,904.16S464.93,936.77,506,938.34c53.48,2.06,118.81-26.9,118.81-26.9"/><path class="cls-19" d="M406.34,901.07s58.8,30.59,99.88,31.19c53.52.78,118.19-27.87,118.19-27.87"/><path class="cls-19" d="M407.69,893.54s56.73,29.27,97.78,31.11c53.46,2.41,117.95-23.14,117.95-23.14"/><polygon class="cls-11" points="421.22 442.49 409.53 442.4 412.42 432.41 418.48 432.44 421.22 442.49"/><ellipse class="cls-12" cx="415.38" cy="442.37" rx="1.73" ry="5.84" transform="translate(-29.29 855.28) rotate(-89.68)"/><circle class="cls-13" cx="417.96" cy="373.83" r="61.56"/><path class="cls-14" d="M410.31,359l5.49,31.18-8.95,1.58-.37-2.11a16.09,16.09,0,0,1-.19-2.21,11.12,11.12,0,0,1-8.57,6.71A10.49,10.49,0,0,1,389,392c-2.55-2.05-4.19-5.13-4.91-9.21l-3.26-18.54,9-1.58,3.17,18a6.77,6.77,0,0,0,2.52,4.56,5.53,5.53,0,0,0,4.39,1,5.71,5.71,0,0,0,3.64-2.35,6.64,6.64,0,0,0,1.06-5l-3.22-18.28Z"/><path class="cls-14" d="M434.14,403.46,425.51,405l-8.3-47.16,9-1.57.55,3.13a12.17,12.17,0,0,1,8.4-5.43A12,12,0,0,1,445.82,357a18.45,18.45,0,0,1,5.68,10.73,19,19,0,0,1-1.58,12.17,11.83,11.83,0,0,1-9,6.56,12,12,0,0,1-10.28-3.06Zm3-24.5a6.19,6.19,0,0,0,4.72-3.27,9.59,9.59,0,0,0,.78-6.27,9.75,9.75,0,0,0-2.84-5.66,6.84,6.84,0,0,0-10.17,1.76,9.08,9.08,0,0,0-.87,6.28,9.41,9.41,0,0,0,3,5.5A6.09,6.09,0,0,0,437.14,379Z"/><line class="cls-15" x1="510.13" y1="925.12" x2="415.64" y2="435.73"/><path class="cls-16" d="M383.59,387.18c2-.37,1.88-.7,4.89-.21s4.45.8,6,2"/><polygon class="cls-11" points="592.66 312.03 581.07 310.51 585.16 300.95 591.16 301.72 592.66 312.03"/><ellipse class="cls-12" cx="586.88" cy="311.19" rx="1.73" ry="5.84" transform="translate(203.55 853.71) rotate(-82.69)"/><circle class="cls-13" cx="597.79" cy="243.48" r="61.56"/><path class="cls-14" d="M592,227.86l1.65,31.62-9.07.48-.11-2.14a16.54,16.54,0,0,1,.08-2.21,11.14,11.14,0,0,1-9.32,5.62,10.51,10.51,0,0,1-8.43-3.27q-3.43-3.52-3.75-9.74l-1-18.79,9.14-.48.95,18.27a6.85,6.85,0,0,0,2,4.84,5.49,5.49,0,0,0,4.23,1.53,5.63,5.63,0,0,0,3.9-1.89,6.6,6.6,0,0,0,1.67-4.83l-1-18.53Z"/><path class="cls-14" d="M610.23,274.86l-8.74.46L599,227.5l9.07-.48.16,3.18a12.2,12.2,0,0,1,9-4.37,12,12,0,0,1,10.26,4.34,18.38,18.38,0,0,1,4.33,11.34,19,19,0,0,1-3,11.88,11.84,11.84,0,0,1-9.75,5.42,12.05,12.05,0,0,1-9.84-4.3Zm6-24a6.21,6.21,0,0,0,5.09-2.67,9.55,9.55,0,0,0,1.53-6.12,9.66,9.66,0,0,0-2.13-6,6.22,6.22,0,0,0-5.37-2.09,6.29,6.29,0,0,0-4.93,2.6,9.06,9.06,0,0,0-1.63,6.13A9.45,9.45,0,0,0,611,248.6,6.09,6.09,0,0,0,616.19,250.9Z"/><line class="cls-15" x1="570.05" y1="918.15" x2="587.94" y2="304.63"/><path class="cls-16" d="M582,304.25c2-.44,1.85-.77,4.88-.38s4.47.65,6.09,1.79"/><polygon class="cls-11" points="469.11 317.92 457.43 317.48 460.61 307.58 466.66 307.79 469.11 317.92"/><ellipse class="cls-12" cx="463.28" cy="317.62" rx="1.73" ry="5.84" transform="translate(129.63 769.5) rotate(-87.99)"/><circle class="cls-13" cx="467.87" cy="249.19" r="61.56"/><path class="cls-14" d="M460.66,234.18l4.56,31.33-9,1.31-.31-2.12a15.86,15.86,0,0,1-.13-2.21A11.12,11.12,0,0,1,447,269a10.48,10.48,0,0,1-8.69-2.47q-3.75-3.19-4.64-9.35L431,238.51l9.06-1.32,2.64,18.1a6.8,6.8,0,0,0,2.38,4.64,5.53,5.53,0,0,0,4.36,1.13,5.66,5.66,0,0,0,3.7-2.24,6.65,6.65,0,0,0,1.22-5l-2.68-18.36Z"/><path class="cls-14" d="M483.17,279.29l-8.67,1.26-6.91-47.38,9-1.31L477,235a12.15,12.15,0,0,1,8.55-5.19,12,12,0,0,1,10.62,3.37,18.4,18.4,0,0,1,5.36,10.89,18.94,18.94,0,0,1-1.94,12.12,11.82,11.82,0,0,1-9.21,6.29,12,12,0,0,1-10.19-3.36Zm3.71-24.41a6.24,6.24,0,0,0,4.83-3.13,9.59,9.59,0,0,0,1-6.24,9.7,9.7,0,0,0-2.68-5.74,6.21,6.21,0,0,0-5.54-1.58,6.28,6.28,0,0,0-4.67,3,9.14,9.14,0,0,0-1.06,6.25,9.48,9.48,0,0,0,2.82,5.59A6.09,6.09,0,0,0,486.88,254.88Z"/><line class="cls-15" x1="526.81" y1="923.74" x2="463.72" y2="310.99"/><path class="cls-16" d="M457.77,311.16c2-.62,1.77-.93,4.82-.82s4.52.23,6.24,1.21"/><polygon class="cls-11" points="722.3 256.44 711.13 252.99 716.77 244.25 722.55 246.02 722.3 256.44"/><ellipse class="cls-12" cx="716.74" cy="254.64" rx="1.73" ry="5.84" transform="translate(263.56 865.52) rotate(-72.99)"/><circle class="cls-13" cx="738.9" cy="189.73" r="61.56"/><path class="cls-14" d="M735.81,173.36l-3.7,31.45-9-1.06.25-2.13a18,18,0,0,1,.45-2.17,11.12,11.12,0,0,1-10.13,4,10.46,10.46,0,0,1-7.75-4.64q-2.79-4-2.07-10.23l2.2-18.69,9.09,1.07L713,189.1a6.83,6.83,0,0,0,1.1,5.1,5.53,5.53,0,0,0,3.92,2.22,5.67,5.67,0,0,0,4.16-1.21,6.66,6.66,0,0,0,2.46-4.48l2.16-18.43Z"/><path class="cls-14" d="M745.88,222.76l-8.7-1,5.59-47.56,9,1.06-.37,3.16a12.19,12.19,0,0,1,9.61-2.79,12,12,0,0,1,9.39,6,18.47,18.47,0,0,1,2.35,11.91,19,19,0,0,1-5,11.2,11.86,11.86,0,0,1-10.53,3.7,12,12,0,0,1-9-5.89Zm9.91-22.62a6.18,6.18,0,0,0,5.47-1.77,10.89,10.89,0,0,0,1.44-12,6.82,6.82,0,0,0-10.24-1.24,9.12,9.12,0,0,0-2.64,5.76A9.4,9.4,0,0,0,751.1,197,6.07,6.07,0,0,0,755.79,200.14Z"/><line class="cls-15" x1="613.06" y1="904.37" x2="718.89" y2="248.35"/><path class="cls-16" d="M713.09,247c2-.1,2-.44,4.88.45s4.3,1.4,5.7,2.79"/><polygon class="cls-11" points="663.79 403.31 652.27 401.29 656.77 391.91 662.74 392.94 663.79 403.31"/><ellipse class="cls-12" cx="658.05" cy="402.22" rx="1.73" ry="5.84" transform="translate(149.68 982.19) rotate(-80.2)"/><circle class="cls-13" cx="671.88" cy="335.04" r="61.56"/><path class="cls-14" d="M666.77,319.19l.28,31.67-9.08.07,0-2.14a15.49,15.49,0,0,1,.17-2.2,11.16,11.16,0,0,1-9.56,5.21,10.51,10.51,0,0,1-8.27-3.63q-3.27-3.68-3.33-9.9l-.16-18.81,9.15-.08.16,18.29a6.77,6.77,0,0,0,1.73,4.92A5.49,5.49,0,0,0,652,344.3a5.65,5.65,0,0,0,4-1.72,6.61,6.61,0,0,0,1.87-4.75l-.16-18.56Z"/><path class="cls-14" d="M683,366.94l-8.76.07-.42-47.88,9.08-.08,0,3.18a12.16,12.16,0,0,1,9.18-4A12,12,0,0,1,702.13,323,18.4,18.4,0,0,1,706,334.55a19,19,0,0,1-3.57,11.75,11.85,11.85,0,0,1-10,5,12,12,0,0,1-9.64-4.72Zm7-23.68a6.21,6.21,0,0,0,5.2-2.45,9.6,9.6,0,0,0,1.8-6.05,9.72,9.72,0,0,0-1.87-6.05,6.22,6.22,0,0,0-5.28-2.32,6.29,6.29,0,0,0-5,2.38,9.13,9.13,0,0,0-1.89,6.05,9.47,9.47,0,0,0,2,5.92A6.08,6.08,0,0,0,690,343.26Z"/><line class="cls-15" x1="603.72" y1="908" x2="659.39" y2="395.71"/><path class="cls-16" d="M653.47,395.07c2-.35,1.88-.68,4.89-.16s4.44.84,6,2"/><polygon class="cls-11" points="634.04 576.77 622.53 574.75 627.03 565.37 632.99 566.4 634.04 576.77"/><ellipse class="cls-12" cx="628.31" cy="575.68" rx="1.73" ry="5.84" transform="translate(-45.93 1096.81) rotate(-80.2)"/><circle class="cls-13" cx="642.14" cy="508.5" r="61.56"/><path class="cls-14" d="M637,492.65l.27,31.67-9.08.08,0-2.15a17.59,17.59,0,0,1,.18-2.2,11.15,11.15,0,0,1-9.56,5.21,10.46,10.46,0,0,1-8.27-3.63q-3.28-3.68-3.33-9.9l-.17-18.81,9.15-.08.16,18.29a6.86,6.86,0,0,0,1.73,4.92,5.51,5.51,0,0,0,4.17,1.71,5.63,5.63,0,0,0,4-1.72,6.61,6.61,0,0,0,1.88-4.75L628,492.73Z"/><path class="cls-14" d="M653.21,540.4l-8.76.08L644,492.59l9.08-.08,0,3.18a12.19,12.19,0,0,1,9.18-4,12,12,0,0,1,10.06,4.78A18.4,18.4,0,0,1,676.22,508a19,19,0,0,1-3.56,11.75,11.84,11.84,0,0,1-10,5A12,12,0,0,1,653,520Zm7-23.68a6.21,6.21,0,0,0,5.2-2.45,9.58,9.58,0,0,0,1.8-6,9.78,9.78,0,0,0-1.87-6.05,6.84,6.84,0,0,0-10.32.06,9.15,9.15,0,0,0-1.89,6,9.42,9.42,0,0,0,2,5.92A6.07,6.07,0,0,0,660.21,516.72Z"/><line class="cls-15" x1="553.38" y1="920.97" x2="629.65" y2="569.17"/><path class="cls-16" d="M623.73,568.53c2-.35,1.88-.68,4.89-.16s4.44.84,6,2"/><path class="cls-11" d="M336.42,522.27l-9.07.58a1,1,0,0,1-1-1.19l1.75-8.18a1,1,0,0,1,.89-.77l4.56-.3a1,1,0,0,1,1,.65l2.78,7.9A1,1,0,0,1,336.42,522.27Z"/><ellipse class="cls-12" cx="331.89" cy="522.48" rx="5.84" ry="1.73" transform="matrix(1, -0.07, 0.07, 1, -33.7, 23)"/><circle class="cls-13" cx="329.56" cy="453.93" r="61.56"/><path class="cls-14" d="M321.11,440.68l7.23,28.8a1,1,0,0,1-.72,1.2l-6.9,1.73a1,1,0,0,1-1.19-.72l-.29-1.12a16.49,16.49,0,0,1-.34-2.19,11.14,11.14,0,0,1-8.07,7.31,10.49,10.49,0,0,1-8.89-1.58q-4.05-2.81-5.57-8.84L292,448a1,1,0,0,1,.71-1.19l7-1.75a1,1,0,0,1,1.19.72l4.21,16.79a6.81,6.81,0,0,0,2.84,4.37,5.53,5.53,0,0,0,4.45.69,5.66,5.66,0,0,0,3.46-2.6,6.64,6.64,0,0,0,.71-5.07l-4.28-17a1,1,0,0,1,.72-1.19l6.9-1.73A1,1,0,0,1,321.11,440.68Z"/><path class="cls-14" d="M346.86,482.58l-6.59,1.65a1,1,0,0,1-1.19-.72L327.91,439a1,1,0,0,1,.71-1.2l6.91-1.73a1,1,0,0,1,1.19.72h0a1,1,0,0,0,1.71.37,12.23,12.23,0,0,1,6.81-4.26,12,12,0,0,1,10.91,2.28,18.41,18.41,0,0,1,6.43,10.29,19,19,0,0,1-.71,12.26,11.86,11.86,0,0,1-8.53,7.19,11.58,11.58,0,0,1-8.46-1,1,1,0,0,0-1.43,1.1l4.12,16.43A1,1,0,0,1,346.86,482.58Zm2.19-24.9a6.24,6.24,0,0,0,4.49-3.6,10.92,10.92,0,0,0-2.92-11.75,6.82,6.82,0,0,0-10,2.48,9.12,9.12,0,0,0-.42,6.33,9.45,9.45,0,0,0,3.36,5.27A6.1,6.1,0,0,0,349.05,457.68Z"/><line class="cls-15" x1="470.96" y1="917.78" x2="331.67" y2="515.84"/><path class="cls-16" d="M325.76,516.61c1.87-.82,1.67-1.11,4.71-1.31s4.52-.22,6.33.58"/><polygon class="cls-11" points="308.27 309.51 296.58 309.44 299.46 299.44 305.51 299.46 308.27 309.51"/><ellipse class="cls-12" cx="302.43" cy="309.39" rx="1.73" ry="5.84" transform="translate(-8.21 610.55) rotate(-89.76)"/><circle class="cls-13" cx="304.91" cy="240.85" r="61.56"/><path class="cls-14" d="M297.24,226.07l5.53,31.18-8.94,1.59-.38-2.11a16,16,0,0,1-.19-2.21,11.16,11.16,0,0,1-8.56,6.73,10.49,10.49,0,0,1-8.76-2.2Q272.1,256,271,249.84l-3.29-18.53,9-1.6,3.2,18a6.8,6.8,0,0,0,2.52,4.56,5.54,5.54,0,0,0,4.39,1,5.69,5.69,0,0,0,3.64-2.36,6.63,6.63,0,0,0,1.06-5l-3.25-18.27Z"/><path class="cls-14" d="M321.13,270.46,312.51,272l-8.37-47.15,8-1.42a1,1,0,0,1,1.14.8h0a1,1,0,0,0,1.69.49A12.22,12.22,0,0,1,322,221a12,12,0,0,1,10.72,3,18.46,18.46,0,0,1,5.69,10.72,19,19,0,0,1-1.56,12.17,11.85,11.85,0,0,1-9,6.57,12,12,0,0,1-10.29-3Zm3-24.51a6.2,6.2,0,0,0,4.73-3.28,9.56,9.56,0,0,0,.76-6.26,9.7,9.7,0,0,0-2.85-5.66,6.83,6.83,0,0,0-10.16,1.78,9.08,9.08,0,0,0-.86,6.28,9.47,9.47,0,0,0,3,5.5A6.09,6.09,0,0,0,324.09,246Z"/><line class="cls-15" x1="431.04" y1="911.68" x2="302.68" y2="302.76"/><path class="cls-16" d="M296.73,303.11c1.93-.69,1.74-1,4.79-1s4.52.1,6.27,1"/><path class="cls-11" d="M427.85,618.79l-9.09.05a1,1,0,0,1-1-1.24l2.21-8.06a1,1,0,0,1,.94-.73l4.56,0a1,1,0,0,1,1,.72l2.32,8A1,1,0,0,1,427.85,618.79Z"/><ellipse class="cls-12" cx="423.31" cy="618.74" rx="5.84" ry="1.73" transform="translate(-5.27 3.64) rotate(-0.49)"/><circle class="cls-13" cx="425.04" cy="550.27" r="61.56"/><path class="cls-14" d="M419.54,535.55l1.06,29.68a1,1,0,0,1-1,1l-7.11.25a1,1,0,0,1-1-1l0-1.15a17.41,17.41,0,0,1,.11-2.21,11.11,11.11,0,0,1-9.41,5.46,10.5,10.5,0,0,1-8.37-3.4q-3.37-3.59-3.59-9.81l-.64-17.82a1,1,0,0,1,.95-1l7.18-.25a1,1,0,0,1,1,.95l.62,17.3a6.87,6.87,0,0,0,1.86,4.87,5.56,5.56,0,0,0,4.21,1.6,5.66,5.66,0,0,0,3.93-1.83,6.65,6.65,0,0,0,1.75-4.8l-.63-17.56a1,1,0,0,1,1-1l7.11-.26A1,1,0,0,1,419.54,535.55Z"/><path class="cls-14" d="M436,581.9l-6.78.24a1,1,0,0,1-1-.95l-1.64-45.89a1,1,0,0,1,.95-1l7.11-.25a1,1,0,0,1,1,1h0a1,1,0,0,0,1.6.72,12.22,12.22,0,0,1,7.54-2.75,12,12,0,0,1,10.2,4.51,18.45,18.45,0,0,1,4.14,11.41,19,19,0,0,1-3.25,11.83A11.88,11.88,0,0,1,446,566a11.63,11.63,0,0,1-8.06-2.79,1,1,0,0,0-1.62.77l.6,16.94A1,1,0,0,1,436,581.9Zm7.34-23.9a6.23,6.23,0,0,0,5.14-2.58,10.92,10.92,0,0,0-.4-12.1,6.82,6.82,0,0,0-10.31.34,9,9,0,0,0-1.73,6.1,9.42,9.42,0,0,0,2.18,5.86A6.11,6.11,0,0,0,443.32,558Z"/><line class="cls-15" x1="492.62" y1="923.36" x2="423.47" y2="612.09"/><path class="cls-16" d="M417.52,612.52c1.92-.71,1.73-1,4.79-1s4.52,0,6.28.94"/><ellipse class="cls-20" cx="573.77" cy="914.51" rx="3.66" ry="2.08" transform="translate(-373.86 397.27) rotate(-29.27)"/><ellipse class="cls-20" cx="566.49" cy="915.32" rx="2.08" ry="3.66" transform="translate(-473.7 1192.3) rotate(-73.16)"/><ellipse class="cls-21" cx="606.5" cy="904.76" rx="2.87" ry="1.45" transform="translate(-471.99 752.12) rotate(-48.11)"/><ellipse class="cls-22" cx="600.32" cy="906.49" rx="1.44" ry="3.66" transform="translate(-391.03 1352.96) rotate(-80.73)"/><ellipse class="cls-21" cx="615.6" cy="901.85" rx="2.87" ry="1.45" transform="translate(-466.79 757.92) rotate(-48.11)"/><ellipse class="cls-22" cx="611.1" cy="901.15" rx="1.44" ry="3.66" transform="translate(-404.23 507.92) rotate(-34.69)"/><ellipse class="cls-20" cx="557.17" cy="917.77" rx="3.66" ry="2.08" transform="translate(-377.57 389.57) rotate(-29.27)"/><ellipse class="cls-20" cx="549.9" cy="918.59" rx="2.08" ry="3.66" transform="translate(-488.62 1178.73) rotate(-73.16)"/></g><circle class="cls-13" cx="359.26" cy="988.58" r="14.18"/><path class="cls-14" d="M362.09,986l-6.46,3.49-1-1.85.44-.24a3.88,3.88,0,0,1,.47-.2,2.56,2.56,0,0,1-2.1-1.4,2.44,2.44,0,0,1-.16-2.09,3.41,3.41,0,0,1,1.67-1.76l3.84-2.07,1,1.86-3.73,2a1.59,1.59,0,0,0-.82.89,1.23,1.23,0,0,0,.1,1,1.28,1.28,0,0,0,.78.63,1.52,1.52,0,0,0,1.18-.13l3.79-2Z"/><path class="cls-14" d="M354.06,994.47l-1-1.78,9.78-5.29,1,1.85-.65.35a2.83,2.83,0,0,1,1.81,1.45,2.8,2.8,0,0,1,.12,2.59,4.3,4.3,0,0,1-1.95,2,4.36,4.36,0,0,1-2.8.55,2.87,2.87,0,0,1-2.18-4Zm5.61-1.13a1.49,1.49,0,0,0,1.07.8,2.27,2.27,0,0,0,1.44-.29,2.2,2.2,0,0,0,1-1,1.57,1.57,0,0,0-1.13-2.11,2,2,0,0,0-1.44.27,2.14,2.14,0,0,0-1,1.06A1.44,1.44,0,0,0,359.67,993.34Z"/><ellipse class="cls-20" cx="435.01" cy="911.12" rx="3.66" ry="2.08" transform="translate(-52.32 26.88) rotate(-3.34)"/><ellipse class="cls-20" cx="427.75" cy="908.4" rx="2.08" ry="3.66" transform="translate(-524.08 588.73) rotate(-46.22)"/><ellipse class="cls-20" cx="474.4" cy="916.53" rx="3.66" ry="2.08" transform="translate(-284.54 217.18) rotate(-19.97)"/><ellipse class="cls-23" cx="467.87" cy="916.04" rx="1.38" ry="3.15" transform="translate(-560.17 881.71) rotate(-61.03)"/><ellipse class="cls-24" cx="496.26" cy="919.86" rx="3.76" ry="1.75" transform="translate(-466.65 513.38) rotate(-38.77)"/><ellipse class="cls-25" cx="488.37" cy="919.92" rx="1.8" ry="3.93" transform="translate(-549.2 829.3) rotate(-57.05)"/><ellipse class="cls-20" cx="513.48" cy="923.14" rx="3.66" ry="2.08" transform="translate(-284.45 230.93) rotate(-19.97)"/><ellipse class="cls-20" cx="507.54" cy="921.59" rx="2.08" ry="3.66" transform="translate(-401.84 392.48) rotate(-30.96)"/><ellipse class="cls-20" cx="529.85" cy="921.66" rx="3.66" ry="2.08" transform="translate(-433.4 471.83) rotate(-35.07)"/><ellipse class="cls-20" cx="524.27" cy="926.03" rx="2.96" ry="1.36" transform="translate(-491.11 607.62) rotate(-43.07)"/></g></svg>